<?xml version="1.0" encoding="utf-8"?>
<!-- Generator: Adobe Illustrator 23.0.0, SVG Export Plug-In . SVG Version: 6.00 Build 0)  -->
<svg version="1.1" id="图层_1" xmlns="http://www.w3.org/2000/svg" xmlns:xlink="http://www.w3.org/1999/xlink" x="0px" y="0px"
	 viewBox="0 0 100 100" style="enable-background:new 0 0 100 100;" xml:space="preserve">
<style type="text/css">
	.st0{fill:#00B65D;}
	.st1{fill:#FFFFFF;}
</style>
<g>
	<g>
		<path class="st0" d="M33,62.4c0.6,2.2,1.2,4.1,1.8,6c0.4,1.2,1.1,1.8,2.1,1.8s1.9-0.7,2.2-1.7c0.2-0.5,0.4-1.1,0.5-1.7
			c1.1-3.5,2.2-7,3.3-10.5c0.5-1.6-0.6-3-2.1-2.7c-0.9,0.2-1.5,0.7-1.8,1.7c-0.6,2.2-1.3,4.5-2,6.9c-0.6-2.2-1.2-4.1-1.8-6.1
			c-0.4-1.2-1.1-1.9-2.1-2c-1.1,0-2,0.7-2.3,2c-0.2,0.6-0.4,1.3-0.6,2c-0.4,1.5-0.8,3-1.3,4.7c-0.7-2.3-1.3-4.4-2-6.5
			c-0.4-1.3-1.4-1.8-2.5-1.4c-1.1,0.3-1.8,1.5-1.4,2.7c0.3,0.9,0.6,1.8,0.9,2.7c1,2.9,1.9,5.9,2.9,8.8c0.4,1.2,1.1,1.7,2.1,1.8
			c1,0,2-0.7,2.3-1.7c0.1-0.3,0.2-0.6,0.3-0.9C31.8,66.3,32.4,64.5,33,62.4z M86,55.1c0-2.8,0-5.5,0-8.3c0-1.3-0.8-2.1-1.9-2.1
			S82,45.6,82,46.8c0,1.1,0,2.1,0,3.2c0,0.7-0.1,0.9-0.9,0.8c-4.4-0.7-7.9,2.3-7.7,6.5c0,1.5,0,3,0,4.5c0,2.5,1.8,4.6,4.2,5.1
			c2.5,0.5,4.9-0.1,7.2-1.1c0.9-0.4,1.3-1.2,1.3-2.2C86,60.7,86,57.9,86,55.1z M18,36.5c0-1,0-2.2,0-3.4c0-1.3-0.7-2.1-1.9-2.1
			C15,31,14,31.9,14,33c0,6,0,12.1,0,18.1c0,0.9,0.4,1.4,1.2,1.7c1.4,0.5,2.9-0.5,2.9-2c0-2.9,0-5.8,0-8.7c0-1,0.4-1.4,1.2-1.7
			c2.1-0.8,3.4,0,3.5,2.3c0,0.2,0,0.4,0,0.7c0,2.3,0,4.6,0,6.9c0,1.3,0.7,2,1.9,2c1.2,0,2-0.9,2-2.1c0-3,0-5.9,0-8.9
			c0-2.3-1.7-4.5-3.9-4.9C21.3,36.3,19.7,36.5,18,36.5z M32.2,45.6c0.7-0.1,1.4-0.1,2.1-0.2c1.5-0.1,3-0.2,4.5-0.4
			c1-0.1,1.8-0.8,1.9-1.8c0.1-1.3,0.2-2.6-0.1-3.8c-0.6-2.9-2.8-4.3-6.1-4.2c-3.5,0.1-6.3,2.9-6.4,6.4c0,1.5,0,3,0,4.6
			c0,2.5,1.8,4.6,4.2,5.2c2.4,0.5,4.6-0.1,6.7-1.2c1.1-0.5,1.5-1.8,1-2.7c-0.5-1-1.5-1.2-2.7-0.7c-0.8,0.3-1.6,0.6-2.4,0.8
			C33.3,48.1,32.4,47.4,32.2,45.6z M67.2,41.1C67.2,41,67.1,41.1,67.2,41.1c0-0.8-0.1-1.6-0.1-2.3c-0.1-2-1-3.6-2.7-4.6
			c-3.8-2.3-9.4-0.1-10.3,4.2c-0.4,1.8-0.2,3.8-0.2,5.7c0,2,0.9,3.5,2.5,4.6c3.8,2.4,9.4,0.3,10.5-4C67.1,43.6,67.1,42.3,67.2,41.1z
			 M56.6,60.6C56.5,60.6,56.7,60.6,56.6,60.6c0-1.1,0-2.2-0.2-3.2c-0.6-3-2.9-4.6-6.3-4.5c-3.8,0.1-6.6,2.9-6.7,6.7
			c0,1.4,0,2.9,0,4.3s0.5,2.6,1.5,3.6c1.8,1.9,4.1,2.1,6.5,1.5c2.5-0.6,4.2-2.2,4.8-4.7C56.6,63.1,56.5,61.8,56.6,60.6z M67.7,56.7
			c0,2.9,0,5.9,0,8.9c0,1.4,0.6,2.1,1.9,2.1s2.2-0.8,2.2-2.2c0-5.9,0-11.8,0-17.8c0-1-0.6-1.8-1.4-1.9c-1.4-0.3-2.6,0.7-2.6,2.1
			C67.7,50.9,67.7,53.8,67.7,56.7z M42.3,40c0,2.9,0,5.9,0,8.8c0,1.2,0.7,2,1.7,2c1.2,0.1,2.1-0.8,2.1-1.9c0-6.1,0-12.2,0-18.3
			c0-0.9-0.5-1.4-1.3-1.6c-1.3-0.4-2.6,0.5-2.6,1.9C42.3,34,42.3,37,42.3,40z M48.4,39.5c0,3,0,5.9,0,8.9c0,1.3,0.7,2.1,1.8,2.1
			s2.1-0.9,2.1-2.1c0-6,0-12,0-18c0-0.5-0.3-1-0.6-1.4c-0.5-0.6-1.3-0.7-2.1-0.3c-0.8,0.4-1.2,0.9-1.2,1.8
			C48.4,33.5,48.4,36.5,48.4,39.5z M58.1,61.5c0,1.7-0.1,3.4,0,5.1c0,0.5,0.4,1.3,0.8,1.5c0.5,0.3,1.3,0.3,1.9,0.1
			c0.8-0.2,1.1-0.9,1.1-1.8c0-2.7,0-5.4,0-8.1c0-2.5,0-2.5,2.5-2.4c1.2,0.1,2.1-0.7,2.3-1.8c0.2-1-0.5-1.9-1.7-2.1
			c-0.8-0.1-1.6-0.1-2.3-0.1c-2.7,0.2-4.6,2.4-4.6,5.1C58.1,58.5,58.1,60,58.1,61.5z M100.1,50.1c0,27.7-22.4,50.1-50.1,50.1
			S-0.1,77.7-0.1,50.1S22.3,0,50,0S100.1,22.4,100.1,50.1z"/>
		<path class="st1" d="M82,59c0-1,0-2.1,0-3.1c0-0.3-0.1-0.7-0.2-0.8C81,54.5,80,54.5,79,54.7c-0.8,0.2-1.5,0.8-1.5,1.7
			c-0.1,1.7-0.1,3.4,0,5.1c0.1,1.2,0.9,1.8,2.1,1.7c0.6-0.1,1.2-0.1,1.8-0.4c0.3-0.1,0.6-0.5,0.6-0.9C82,61,82,60,82,59z"/>
		<path class="st1" d="M63.3,41.3c-0.1-0.7-0.1-1.4-0.2-2.1c-0.2-1.3-1-2-2.3-2c-1.4,0-2.5,0.8-2.6,2.1S58,41.8,58,43.1
			c0,0.8,0,1.9,0.9,2.3c1.6,0.9,4.1,0.3,4.2-1.9C63.1,42.7,63.2,42,63.3,41.3z"/>
		<path class="st1" d="M52.7,60.8c-0.1-0.7-0.1-1.4-0.2-2.1c-0.2-1.3-1-2-2.3-2c-1.4,0-2.6,0.8-2.6,2.1c-0.1,1.6-0.1,3.3,0,4.9
			c0,0.4,0.5,1.1,0.9,1.3c1.8,0.8,4,0,4.1-2.1C52.5,62.2,52.6,61.5,52.7,60.8z"/>
		<path class="st0" d="M82,59c0,1,0.1,2,0,3c0,0.3-0.4,0.7-0.6,0.9c-0.6,0.2-1.2,0.3-1.8,0.4c-1.2,0.1-2-0.5-2.1-1.7
			c-0.1-1.7-0.1-3.4,0-5.1c0-0.9,0.7-1.5,1.5-1.7c1-0.3,2-0.3,2.8,0.4C82,55.3,82,55.7,82,56C82,56.9,82,57.9,82,59z"/>
		<path class="st0" d="M32.3,41.7c0.1-1.9,1-2.7,2.8-2.6c0.8,0.1,1.6,0.8,1.6,1.7c0,0.2-0.4,0.5-0.6,0.5
			C34.8,41.5,33.6,41.6,32.3,41.7z"/>
		<path class="st0" d="M63.3,41.3c-0.1,0.7-0.2,1.5-0.2,2.2c-0.1,2.1-2.6,2.8-4.2,1.9C58,44.9,58,43.9,58,43.1c0-1.3,0-2.5,0.2-3.8
			c0.1-1.3,1.2-2.1,2.6-2.1c1.4,0,2.1,0.6,2.3,2C63.2,39.8,63.2,40.5,63.3,41.3z"/>
		<path class="st0" d="M52.7,60.8c-0.1,0.7-0.2,1.4-0.2,2.1c0,2-2.2,2.9-4.1,2.1c-0.4-0.2-0.8-0.8-0.9-1.3c-0.1-1.6-0.1-3.3,0-4.9
			c0.1-1.3,1.2-2.1,2.6-2.1c1.4,0,2.1,0.6,2.3,2C52.6,59.4,52.6,60.1,52.7,60.8z"/>
	</g>
</g>
</svg>
