<?xml version="1.0" encoding="utf-8"?>
<!-- Generator: Adobe Illustrator 23.0.1, SVG Export Plug-In . SVG Version: 6.00 Build 0)  -->
<svg version="1.1" id="图层_1" xmlns="http://www.w3.org/2000/svg" xmlns:xlink="http://www.w3.org/1999/xlink" x="0px" y="0px"
	 viewBox="0 0 100 100" style="enable-background:new 0 0 100 100;" xml:space="preserve">
<style type="text/css">
	.st0{fill:#F5365C;}
	.st1{fill:#FFFFFF;}
</style>
<circle class="st0" cx="50" cy="50" r="50"/>
<g>
	<path class="st1" d="M16.6,53.4h-2.9v6.9H8.9V41h7.6c4.3,0,6.6,3,6.6,6.2S20.8,53.4,16.6,53.4z M16.3,45.2h-2.7v3.9h2.7
		c1.3,0,2.1-0.9,2.1-1.9C18.4,46.2,17.6,45.2,16.3,45.2z"/>
	<path class="st1" d="M38.2,58.3c-1.3,1.3-3.2,1.9-5.2,1.9h-7.1V41H33c2,0,3.9,0.6,5.2,1.9c2.2,2.2,2,4.7,2,7.7S40.4,56.1,38.2,58.3
		z M34.9,46.3c-0.4-0.6-1.1-1.1-2.3-1.1h-2.1V56h2.1c1.2,0,1.8-0.4,2.3-1.1c0.4-0.5,0.5-1.1,0.5-4.3C35.5,47.4,35.3,46.8,34.9,46.3z
		"/>
	<path class="st1" d="M54.3,60.2l-6.2-9.7v9.7h-4.7V41h4.1l6.2,9.7V41h4.7v19.2H54.3z"/>
	<path class="st1" d="M67.8,60.4c-2.9,0-5.3-0.5-7.3-2.5l3-3c1,1,2.8,1.4,4.3,1.4c1.9,0,2.8-0.6,2.8-1.7c0-0.5-0.1-0.8-0.4-1.1
		c-0.2-0.2-0.6-0.4-1.3-0.5l-2.3-0.3c-1.7-0.2-3-0.8-3.9-1.7c-0.9-0.9-1.3-2.2-1.3-3.9c0-3.5,2.6-6.1,7-6.1c2.8,0,4.8,0.6,6.5,2.3
		l-3,3c-1.2-1.2-2.8-1.1-3.6-1.1c-1.6,0-2.3,0.9-2.3,1.8c0,0.2,0.1,0.6,0.4,0.9c0.2,0.2,0.6,0.5,1.3,0.6l2.3,0.3
		c1.7,0.2,3,0.8,3.8,1.6c1,1,1.4,2.4,1.4,4.2C75.3,58.2,71.9,60.4,67.8,60.4z"/>
	<path class="st1" d="M90.7,58.3c-1.3,1.3-3.2,1.9-5.2,1.9h-7.1V41h7.1c2,0,3.9,0.6,5.2,1.9c2.2,2.2,2,4.7,2,7.7
		S92.9,56.1,90.7,58.3z M87.4,46.3c-0.4-0.6-1.1-1.1-2.3-1.1h-2.1V56h2.1c1.2,0,1.8-0.4,2.3-1.1c0.4-0.5,0.5-1.1,0.5-4.3
		C88,47.4,87.8,46.8,87.4,46.3z"/>
</g>
</svg>
