<?xml version="1.0" encoding="utf-8"?>
<!-- Generator: Adobe Illustrator 23.0.0, SVG Export Plug-In . SVG Version: 6.00 Build 0)  -->
<svg version="1.1" id="图层_1" xmlns="http://www.w3.org/2000/svg" xmlns:xlink="http://www.w3.org/1999/xlink" x="0px" y="0px"
	 viewBox="0 0 150 150" style="enable-background:new 0 0 150 150;" xml:space="preserve">
<style type="text/css">
	.st0{fill:#15ADAD;}
	.st1{fill:#FFFFFF;}
</style>
<g>
	<circle class="st0" cx="75" cy="75" r="75"/>
</g>
<g>
	<path class="st1" d="M20.4,86.87c-3.87,0-6.81-0.82-9.32-3.37l3.23-3.23c1.61,1.61,3.8,2.15,6.17,2.15c2.94,0,4.52-1.11,4.52-3.16
		c0-0.9-0.25-1.65-0.79-2.15c-0.5-0.47-1.08-0.72-2.26-0.9l-3.08-0.43c-2.19-0.32-3.8-1-4.95-2.12c-1.22-1.22-1.83-2.87-1.83-5.02
		c0-4.55,3.37-7.75,8.89-7.75c3.51,0,6.06,0.86,8.25,2.98L26.07,67c-1.61-1.54-3.55-1.76-5.24-1.76c-2.65,0-3.94,1.47-3.94,3.23
		c0,0.65,0.22,1.33,0.75,1.83c0.5,0.47,1.33,0.86,2.37,1l3.01,0.43c2.33,0.32,3.8,0.97,4.88,1.97c1.36,1.29,1.97,3.16,1.97,5.42
		C29.87,84.07,25.74,86.87,20.4,86.87z"/>
	<path class="st1" d="M50.02,84.07c-1.79,1.79-3.98,2.8-6.88,2.8c-2.9,0-5.13-1-6.92-2.8c-2.58-2.58-2.51-5.77-2.51-10.18
		s-0.07-7.6,2.51-10.18c1.79-1.79,4.02-2.8,6.92-2.8c2.9,0,5.09,1,6.88,2.8c2.58,2.58,2.55,5.77,2.55,10.18S52.6,81.49,50.02,84.07z
		 M46.32,66.71c-0.72-0.82-1.83-1.36-3.19-1.36c-1.36,0-2.51,0.54-3.23,1.36c-0.97,1.08-1.22,2.26-1.22,7.17s0.25,6.1,1.22,7.17
		c0.72,0.82,1.86,1.36,3.23,1.36c1.36,0,2.47-0.54,3.19-1.36c0.97-1.08,1.25-2.26,1.25-7.17S47.29,67.79,46.32,66.71z"/>
	<path class="st1" d="M66.18,86.87c-2.8,0-5.09-1-6.88-2.8c-2.58-2.58-2.51-5.77-2.51-10.18s-0.07-7.6,2.51-10.18
		c1.79-1.79,4.09-2.8,6.88-2.8c3.26,0,5.27,1.15,7.1,2.94l-3.3,3.3c-1.11-1.11-2.01-1.79-3.8-1.79c-1.36,0-2.44,0.5-3.16,1.33
		c-0.97,1.08-1.25,2.29-1.25,7.21s0.29,6.13,1.25,7.21c0.72,0.82,1.79,1.33,3.16,1.33c1.79,0,2.69-0.68,3.8-1.79l3.3,3.3
		C71.45,85.72,69.45,86.87,66.18,86.87z"/>
	<path class="st1" d="M92.64,86.65l-6.56-11.62l-3.3,3.94v7.67H77.8V61.12h4.98v11.12l9-11.12h6.06l-8.46,10.15l9.07,15.38H92.64z"
		/>
	<path class="st1" d="M108.67,86.87c-3.87,0-6.81-0.82-9.32-3.37l3.23-3.23c1.61,1.61,3.8,2.15,6.17,2.15
		c2.94,0,4.52-1.11,4.52-3.16c0-0.9-0.25-1.65-0.79-2.15c-0.5-0.47-1.08-0.72-2.26-0.9l-3.08-0.43c-2.19-0.32-3.8-1-4.95-2.12
		c-1.22-1.22-1.83-2.87-1.83-5.02c0-4.55,3.37-7.75,8.89-7.75c3.51,0,6.06,0.86,8.25,2.98L114.33,67c-1.61-1.54-3.55-1.76-5.24-1.76
		c-2.65,0-3.94,1.47-3.94,3.23c0,0.65,0.21,1.33,0.75,1.83c0.5,0.47,1.33,0.86,2.37,1l3.01,0.43c2.33,0.32,3.8,0.97,4.88,1.97
		c1.36,1.29,1.97,3.16,1.97,5.42C118.13,84.07,114.01,86.87,108.67,86.87z"/>
	<path class="st1" d="M135.48,88.91c-1.15,1.15-2.98,2.08-5.63,2.08c-2.65,0-4.59-0.93-5.7-2.04c-1.58-1.58-1.94-3.44-2.08-5.31
		h4.66c0.25,2.01,1.18,3.16,3.12,3.16c0.9,0,1.65-0.25,2.22-0.83c0.83-0.82,1-2.19,1-3.8c0-2.94-0.86-4.59-3.12-4.59
		c-1.9,0-2.76,1.08-3.08,2.08h-4.27V65.25h14.56v4.2h-10.33v5.49c0.68-0.65,2.12-1.29,3.84-1.29c2.12,0,3.73,0.68,4.77,1.72
		c2.01,2.01,2.29,4.41,2.29,6.81C137.74,85.04,137.35,87.05,135.48,88.91z"/>
</g>
</svg>
