<?xml version="1.0" encoding="utf-8"?>
<!-- Generator: Adobe Illustrator 23.0.1, SVG Export Plug-In . SVG Version: 6.00 Build 0)  -->
<svg version="1.1" id="图层_1" xmlns="http://www.w3.org/2000/svg" xmlns:xlink="http://www.w3.org/1999/xlink" x="0px" y="0px"
	 viewBox="0 0 100 100" style="enable-background:new 0 0 100 100;" xml:space="preserve">
<style type="text/css">
	.st0{fill:#FBB140;}
	.st1{fill:#FFFFFF;}
</style>
<circle class="st0" cx="50" cy="50" r="50"/>
<path class="st1" d="M86.8,47.6C83.6,33,74.8,22.5,66.5,23h-0.3c-3.3,0-6.5,1.2-8.9,3.3c-1.8,2-4.4,3.2-7.1,3.2
	c-2.6,0-5.1-1.1-6.9-3c-2.5-2.3-5.8-3.5-9.1-3.5h-0.4c-8.2-0.5-17.1,10-20.3,24.6c-3.5,15.5,0.8,29.8,9.5,31.9
	c6.3,1.6,13.3-3.9,17.9-13h18.7c4.7,9.1,11.6,14.6,17.9,13C86,77.4,90.2,63.1,86.8,47.6L86.8,47.6z M42.9,48.5H36v7.2h-5.6v-7.2
	h-6.9v-5.8h6.9v-7.2H36v7.2h6.9L42.9,48.5z M62.7,49.2c-2,0.1-3.7-1.4-3.8-3.4c-0.1-2,1.4-3.7,3.4-3.8c2-0.1,3.7,1.4,3.8,3.4
	c0,0.1,0,0.1,0,0.2C66.2,47.5,64.7,49.1,62.7,49.2C62.7,49.2,62.7,49.2,62.7,49.2z M73.7,49.2c-2,0.1-3.7-1.4-3.8-3.4
	c-0.1-2,1.4-3.7,3.4-3.8c2-0.1,3.7,1.4,3.8,3.4c0,0.1,0,0.1,0,0.2c0.1,1.9-1.4,3.5-3.3,3.6H73.7z"/>
</svg>
