<?xml version="1.0" standalone="no"?><!DOCTYPE svg PUBLIC "-//W3C//DTD SVG 1.1//EN" "http://www.w3.org/Graphics/SVG/1.1/DTD/svg11.dtd"><svg t="1597500723732" class="icon" viewBox="0 0 1024 1024" version="1.1" xmlns="http://www.w3.org/2000/svg" p-id="9385" xmlns:xlink="http://www.w3.org/1999/xlink" width="200" height="200"><defs><style type="text/css"></style></defs><path d="M484.430769 51.2L236.307692 354.461538H118.153846c-43.323077 0-78.769231 35.446154-78.769231 78.769231v157.538462c0 43.323077 35.446154 78.769231 78.769231 78.769231h118.153846l248.123077 303.261538c25.6 25.6 66.953846 7.876923 66.953846-27.569231V78.769231c0-35.446154-43.323077-53.169231-66.953846-27.569231zM882.215385 512l96.492307-96.492308c7.876923-7.876923 7.876923-19.692308 0-27.56923l-27.56923-27.569231c-7.876923-7.876923-19.692308-7.876923-27.569231 0L827.076923 456.861538l-96.492308-96.492307c-7.876923-7.876923-19.692308-7.876923-27.56923 0l-27.569231 27.569231c-7.876923 7.876923-7.876923 19.692308 0 27.56923l96.492308 96.492308-96.492308 96.492308c-7.876923 7.876923-7.876923 19.692308 0 27.56923l27.569231 27.569231c7.876923 7.876923 19.692308 7.876923 27.56923 0l96.492308-96.492307 96.492308 96.492307c7.876923 7.876923 19.692308 7.876923 27.569231 0l27.56923-27.569231c7.876923-7.876923 7.876923-19.692308 0-27.56923L882.215385 512z" p-id="9386" fill="#ffffff"></path></svg>