<?xml version="1.0" standalone="no"?>
<!DOCTYPE svg PUBLIC "-//W3C//DTD SVG 1.1//EN" "http://www.w3.org/Graphics/SVG/1.1/DTD/svg11.dtd">

<svg xmlns="http://www.w3.org/2000/svg" id="icon-hub" viewBox="0 -4 42 50" stroke-width="2" fill-rule="nonzero" width="100%" height="100%">
	<path d="M37.176371,36.2324812 C37.1920117,36.8041095 36.7372743,37.270685 36.1684891,37.270685 L3.74335204,37.2703476 C3.17827583,37.2703476 2.72400056,36.8091818 2.72400056,36.2397767 L2.72400056,19.6131383 C1.4312007,18.4881431 0.662551336,16.8884326 0.662551336,15.1618249 L0.664207893,14.69503 C0.63774183,14.4532127 0.650524255,14.2942438 0.711604827,14.1238231 L5.10793246,1.20935468 C5.24853286,0.797020623 5.63848594,0.511627907 6.06681069,0.511627907 L34.0728364,0.511627907 C34.5091607,0.511627907 34.889927,0.793578201 35.0316653,1.20921034 L39.4428567,14.1234095 C39.4871296,14.273204 39.5020782,14.4249444 39.4884726,14.5493649 L39.4884726,15.1505835 C39.4884726,16.9959517 38.6190601,18.6883031 37.1764746,19.7563084 L37.176371,36.2324812 Z M35.1376208,35.209311 L35.1376208,20.7057152 C34.7023924,20.8097593 34.271333,20.8633641 33.8336069,20.8633641 C32.0046019,20.8633641 30.3013756,19.9547008 29.2437221,18.4771538 C28.1860473,19.954695 26.4828515,20.8633641 24.6538444,20.8633641 C22.824803,20.8633641 21.1216155,19.9547157 20.0639591,18.4771544 C19.0062842,19.9546953 17.3030887,20.8633641 15.4740818,20.8633641 C13.6450404,20.8633641 11.9418529,19.9547157 10.8841965,18.4771544 C9.82652161,19.9546953 8.12332608,20.8633641 6.29431919,20.8633641 C5.76735555,20.8633641 5.24095778,20.7883418 4.73973398,20.644674 L4.73973398,35.209311 L35.1376208,35.209311 Z M30.2720226,15.6557626 C30.5154632,17.4501192 32.0503909,18.8018554 33.845083,18.8018554 C35.7286794,18.8018554 37.285413,17.3395134 37.4474599,15.4751932 L30.2280765,15.4751932 C30.2470638,15.532987 30.2617919,15.5932958 30.2720226,15.6557626 Z M21.0484306,15.4751932 C21.0674179,15.532987 21.0821459,15.5932958 21.0923767,15.6557626 C21.3358173,17.4501192 22.8707449,18.8018554 24.665437,18.8018554 C26.4601001,18.8018554 27.9950169,17.4501481 28.2378191,15.6611556 C28.2451225,15.5981318 28.2590045,15.5358056 28.2787375,15.4751932 L21.0484306,15.4751932 Z M11.9238102,15.6557626 C12.1672508,17.4501192 13.7021785,18.8018554 15.4968705,18.8018554 C17.2915336,18.8018554 18.8264505,17.4501481 19.0692526,15.6611556 C19.0765561,15.5981318 19.0904381,15.5358056 19.110171,15.4751932 L11.8798641,15.4751932 C11.8988514,15.532987 11.9135795,15.5932958 11.9238102,15.6557626 Z M6.31682805,18.8018317 C8.11149114,18.8018317 9.64640798,17.4501244 9.88921012,15.6611319 C9.89651357,15.5981081 9.91039559,15.5357819 9.93012856,15.4751696 L2.70318796,15.4751696 C2.86612006,17.3346852 4.42809696,18.8018317 6.31682805,18.8018317 Z M3.09670082,13.4139924 L37.04257,13.4139924 L33.3489482,2.57204736 L6.80119239,2.57204736 L3.09670082,13.4139924 Z"
		id="Fill-1"></path>
	<rect id="Rectangle-3" x="14" y="26" width="6" height="10"></rect>
	<path d="M20,26 L20,36 L26,36 L26,26 L20,26 Z" id="Rectangle-3"></path>
</svg>
