<?xml version="1.0" encoding="iso-8859-1"?>
<!-- Generator: Adobe Illustrator 19.0.0, SVG Export Plug-In . SVG Version: 6.00 Build 0)  -->
<svg xmlns="http://www.w3.org/2000/svg" xmlns:xlink="http://www.w3.org/1999/xlink" version="1.1" id="Layer_1" x="0px" y="0px" viewBox="0 0 512 512" style="enable-background:new 0 0 512 512;" xml:space="preserve">
<path style="fill:#464655;" d="M473.651,88.256H38.292c-20.485,0-37.215,16.06-38.292,36.277v262.933  c1.077,20.215,17.807,36.277,38.292,36.277h435.359c21.18,0,38.349-17.169,38.349-38.349V126.605  C512,105.425,494.831,88.256,473.651,88.256z"/>
<polygon style="fill:#FFE15A;" points="256.029,105.913 267.224,164.401 299.95,114.649 287.911,172.97 337.184,139.529   303.744,188.803 362.064,176.764 312.312,209.49 370.8,220.685 312.312,231.88 362.064,264.606 303.744,252.567 337.184,301.84   287.911,268.399 299.95,326.719 267.224,276.968 256.029,335.456 244.834,276.968 212.108,326.719 224.148,268.399 174.873,301.84   208.315,252.567 149.994,264.606 199.745,231.88 141.257,220.685 199.745,209.49 149.994,176.764 208.315,188.803 174.873,139.529   224.148,172.97 212.108,114.649 244.834,164.401 "/>
<g>
	<path style="fill:#FF4B55;" d="M9.737,101.014C4.08,107.322,0.48,115.512,0,124.533v262.933   c1.077,20.215,17.807,36.277,38.292,36.277h217.737L9.737,101.014z"/>
	<path style="fill:#FF4B55;" d="M256.029,423.742h217.622c21.18,0,38.349-17.169,38.349-38.349V126.605   c0-9.802-3.683-18.741-9.732-25.52L256.029,423.742z"/>
</g>
<polygon style="fill:#4173CD;" points="154.965,291.313 357.093,291.313 410.993,220.685 101.064,220.685 "/>
<polygon style="fill:#F5F5F5;" points="154.965,291.313 256.029,423.742 357.093,291.313 "/>
<g>
</g>
<g>
</g>
<g>
</g>
<g>
</g>
<g>
</g>
<g>
</g>
<g>
</g>
<g>
</g>
<g>
</g>
<g>
</g>
<g>
</g>
<g>
</g>
<g>
</g>
<g>
</g>
<g>
</g>
</svg>
