<?xml version="1.0" encoding="iso-8859-1"?>
<!-- Generator: Adobe Illustrator 19.0.0, SVG Export Plug-In . SVG Version: 6.00 Build 0)  -->
<svg xmlns="http://www.w3.org/2000/svg" xmlns:xlink="http://www.w3.org/1999/xlink" version="1.1" id="Layer_1" x="0px" y="0px" viewBox="0 0 512 512" style="enable-background:new 0 0 512 512;" xml:space="preserve">
<g>
	<path style="fill:#82AFFF;" d="M473.655,88.276H38.345C17.167,88.276,0,105.443,0,126.621v73.471h512v-73.471   C512,105.443,494.833,88.276,473.655,88.276z"/>
	<path style="fill:#82AFFF;" d="M0,385.379c0,21.177,17.167,38.345,38.345,38.345h435.31c21.177,0,38.345-17.167,38.345-38.345   v-73.471H0V385.379z"/>
</g>
<rect y="200.09" style="fill:#F5F5F5;" width="512" height="111.81"/>
<path style="fill:#F09146;" d="M300.138,253.793h-31.784c0.593-0.45,1.062-0.893,1.486-1.311c0.776-0.759,1.393-1.362,3.03-2.035  c1.646-0.69,2.508-0.698,3.599-0.715c1.314-0.009,2.802-0.034,5.233-1.035c2.427-1.009,3.487-2.044,4.423-2.957  c0.776-0.759,1.393-1.362,3.034-2.044c1.633-0.681,2.492-0.69,3.577-0.698c1.311-0.018,2.797-0.034,5.228-1.043l-1.698-4.07  c-1.633,0.681-2.492,0.69-3.577,0.698c-1.311,0.018-2.797,0.034-5.224,1.035c-2.426,1.009-3.487,2.044-4.423,2.957  c-0.776,0.759-1.393,1.362-3.03,2.035c-1.646,0.69-2.508,0.698-3.599,0.715c-1.314,0.009-2.802,0.034-5.233,1.043  c-2.426,1-3.487,2.044-4.423,2.957c-0.764,0.743-1.395,1.338-2.967,2.002l24.98-24.977l-3.121-3.121l-22.485,22.482  c0.099-0.735,0.126-1.389,0.132-1.982c0.013-1.095,0.022-1.949,0.703-3.595s1.284-2.259,2.044-3.034  c0.922-0.94,1.961-2.008,2.969-4.439c1.004-2.431,1.022-3.914,1.035-5.224c0.013-1.086,0.022-1.949,0.698-3.586  c0.681-1.638,1.28-2.25,2.039-3.026c0.918-0.94,1.956-2.001,2.962-4.423l-4.077-1.689c-0.681,1.637-1.28,2.25-2.039,3.026  c-0.918,0.94-1.956,2.001-2.962,4.423c-1.004,2.431-1.022,3.914-1.035,5.224c-0.013,1.086-0.022,1.949-0.698,3.586  c-0.681,1.646-1.284,2.259-2.044,3.034c-0.922,0.94-1.961,2.008-2.969,4.439c-1.004,2.431-1.022,3.923-1.038,5.233  c-0.009,1.063-0.039,1.922-0.676,3.5v-35.317h-4.414v31.783c-0.45-0.589-0.892-1.057-1.306-1.481  c-0.762-0.776-1.362-1.397-2.044-3.034c-0.681-1.646-0.694-2.508-0.707-3.604c-0.013-1.311-0.03-2.802-1.038-5.233  c-1.004-2.422-2.044-3.482-2.962-4.423c-0.759-0.776-1.357-1.388-2.039-3.026c-0.676-1.638-0.685-2.5-0.698-3.586  c-0.013-1.311-0.03-2.793-1.035-5.216l-4.077,1.689c0.676,1.638,0.685,2.492,0.698,3.577c0.013,1.311,0.03,2.793,1.035,5.224  c1.004,2.422,2.044,3.482,2.962,4.423c0.759,0.776,1.357,1.388,2.039,3.026c0.681,1.646,0.694,2.508,0.707,3.604  c0.013,1.311,0.03,2.802,1.038,5.233c1.004,2.431,2.044,3.491,2.962,4.431c0.748,0.76,1.34,1.395,2.004,2.962l-24.982-24.979  l-3.121,3.121l24.943,24.94c-1.368-0.621-2.028-1.192-2.745-1.888c-0.943-0.922-2.008-1.965-4.448-2.974  c-2.431-1-3.918-1.026-5.233-1.043c-1.095-0.009-1.956-0.025-3.616-0.715c-1.66-0.681-2.28-1.284-3.069-2.051  c-0.943-0.914-2.013-1.956-4.457-2.974c-2.44-1.009-3.932-1.026-5.25-1.043c-1.099-0.018-1.965-0.034-3.625-0.724l-1.689,4.086  c2.44,1.009,3.932,1.026,5.25,1.043c1.099,0.018,1.965,0.034,3.625,0.724c1.664,0.681,2.284,1.284,3.073,2.051  c0.943,0.922,2.013,1.956,4.452,2.966c2.44,1.017,3.932,1.035,5.246,1.052c1.095,0.018,1.956,0.025,3.608,0.715  c1.651,0.681,2.268,1.284,3.048,2.044c0.401,0.394,0.849,0.809,1.391,1.233H211.86v4.414h35.254  c-1.393,0.53-2.264,0.597-3.262,0.612c-1.314,0.009-2.802,0.034-5.237,1.035c-2.435,1.009-3.505,2.051-4.448,2.966  c-0.785,0.767-1.401,1.37-3.052,2.051c-1.66,0.69-2.526,0.707-3.625,0.724c-1.319,0.018-2.81,0.034-5.25,1.043  c-2.444,1.017-3.513,2.051-4.457,2.974c-0.789,0.767-1.409,1.37-3.069,2.051l1.689,4.086c2.44-1.017,3.509-2.051,4.452-2.974  c0.789-0.767,1.409-1.37,3.073-2.051c1.66-0.69,2.526-0.707,3.625-0.724c1.319-0.018,2.81-0.034,5.255-1.052  c2.431-1.009,3.496-2.044,4.439-2.966c0.78-0.759,1.401-1.362,3.057-2.044c1.646-0.69,2.513-0.698,3.604-0.715  c0.558-0.003,1.187-0.04,1.868-0.124l-22.549,22.546l3.121,3.121l24.931-24.927c-0.614,1.362-1.181,2.019-1.879,2.738  c-0.918,0.94-1.956,2.008-2.966,4.439c-1.009,2.431-1.031,3.932-1.043,5.241c-0.018,1.095-0.025,1.956-0.712,3.612  c-0.685,1.664-1.293,2.284-2.056,3.069c-0.922,0.94-1.961,2.017-2.974,4.457s-1.031,3.932-1.047,5.25  c-0.018,1.095-0.03,1.965-0.715,3.62l4.077,1.689c1.013-2.44,1.031-3.932,1.047-5.25c0.018-1.095,0.03-1.965,0.715-3.62  c0.685-1.664,1.293-2.284,2.056-3.069c0.922-0.94,1.961-2.017,2.974-4.457c1.009-2.431,1.031-3.932,1.043-5.241  c0.018-1.095,0.025-1.956,0.712-3.612c0.681-1.655,1.284-2.268,2.047-3.052c0.392-0.402,0.809-0.85,1.233-1.395v31.878h4.414  v-35.252c0.526,1.39,0.593,2.259,0.608,3.261c0.013,1.311,0.034,2.802,1.043,5.233c1.004,2.44,2.047,3.509,2.966,4.448  c0.762,0.785,1.366,1.405,2.051,3.06s0.698,2.526,0.715,3.62c0.018,1.319,0.034,2.81,1.047,5.25s2.051,3.518,2.974,4.457  c0.762,0.785,1.37,1.405,2.056,3.069l4.077-1.689c-1.013-2.44-2.051-3.518-2.974-4.457c-0.762-0.785-1.371-1.405-2.056-3.069  c-0.685-1.655-0.698-2.526-0.715-3.62c-0.018-1.319-0.034-2.81-1.047-5.25c-1.009-2.44-2.047-3.509-2.966-4.448  c-0.762-0.785-1.366-1.405-2.051-3.06c-0.685-1.646-0.694-2.508-0.712-3.604c-0.006-0.557-0.042-1.187-0.126-1.868l22.552,22.55  l3.121-3.121l-22.482-22.478c0.73,0.097,1.384,0.126,1.973,0.134c1.09,0.009,1.949,0.018,3.595,0.698  c1.646,0.69,2.263,1.284,3.043,2.051c0.94,0.914,2.004,1.956,4.436,2.966c2.426,1,3.914,1.017,5.224,1.026  c1.086,0.018,1.944,0.025,3.582,0.707c1.638,0.672,2.25,1.276,3.026,2.035c0.94,0.914,2.001,1.956,4.427,2.966l1.689-4.086  c-1.638-0.672-2.25-1.276-3.026-2.035c-0.94-0.914-2.001-1.956-4.427-2.966c-2.427-1-3.914-1.017-5.224-1.026  c-1.086-0.018-1.944-0.025-3.582-0.707c-1.646-0.681-2.263-1.276-3.043-2.044c-0.94-0.914-2.004-1.956-4.436-2.957  c-2.431-1.017-3.918-1.035-5.233-1.043c-1.07-0.018-1.937-0.038-3.524-0.681h35.349v-4.414H300.138z"/>
<circle style="fill:#FFE15A;" cx="256" cy="256" r="22.07"/>
<g>
</g>
<g>
</g>
<g>
</g>
<g>
</g>
<g>
</g>
<g>
</g>
<g>
</g>
<g>
</g>
<g>
</g>
<g>
</g>
<g>
</g>
<g>
</g>
<g>
</g>
<g>
</g>
<g>
</g>
</svg>
