<?xml version="1.0" encoding="iso-8859-1"?>
<!-- Generator: Adobe Illustrator 19.0.0, SVG Export Plug-In . SVG Version: 6.00 Build 0)  -->
<svg xmlns="http://www.w3.org/2000/svg" xmlns:xlink="http://www.w3.org/1999/xlink" version="1.1" id="Layer_1" x="0px" y="0px" viewBox="0 0 512 512" style="enable-background:new 0 0 512 512;" xml:space="preserve">
<path style="fill:#4173CD;" d="M473.654,423.724H38.345C17.167,423.724,0,406.556,0,385.379V126.621  c0-21.177,17.167-38.345,38.345-38.345h435.309c21.177,0,38.345,17.167,38.345,38.345v258.758  C511.999,406.556,494.831,423.724,473.654,423.724z"/>
<polygon style="fill:#FFE15A;" points="512,211.862 229.517,211.862 229.517,88.276 141.241,88.276 141.241,211.862 0,211.862   0,300.138 141.241,300.138 141.241,423.724 229.517,423.724 229.517,300.138 512,300.138 "/>
<polygon style="fill:#FF4B55;" points="512,238.345 203.034,238.345 203.034,88.276 167.724,88.276 167.724,238.345 0,238.345   0,273.655 167.724,273.655 167.724,423.724 203.034,423.724 203.034,273.655 512,273.655 "/>
<g>
</g>
<g>
</g>
<g>
</g>
<g>
</g>
<g>
</g>
<g>
</g>
<g>
</g>
<g>
</g>
<g>
</g>
<g>
</g>
<g>
</g>
<g>
</g>
<g>
</g>
<g>
</g>
<g>
</g>
</svg>
