<?xml version="1.0" encoding="iso-8859-1"?>
<!-- Generator: Adobe Illustrator 19.0.0, SVG Export Plug-In . SVG Version: 6.00 Build 0)  -->
<svg xmlns="http://www.w3.org/2000/svg" xmlns:xlink="http://www.w3.org/1999/xlink" version="1.1" id="Layer_1" x="0px" y="0px" viewBox="0 0 512 512" style="enable-background:new 0 0 512 512;" xml:space="preserve">
<path style="fill:#73AF00;" d="M0,387.466c1.077,20.215,17.807,36.277,38.292,36.277h435.359c21.18,0,38.349-17.169,38.349-38.349  v-73.479H0V387.466z"/>
<path style="fill:#82AFFF;" d="M473.651,88.257H38.292c-20.485,0-37.215,16.062-38.292,36.277v75.552h512v-73.479  C512,105.427,494.831,88.257,473.651,88.257z"/>
<rect y="200.089" style="fill:#FF4B55;" width="512" height="111.83"/>
<g>
	<path style="fill:#F5F5F5;" d="M268.071,292.611c-19.812,0-35.885-16.072-35.885-35.903c0-19.795,16.072-35.903,35.885-35.903   c7.372,0,14.17,2.267,19.835,6.104c0.867,0.588,1.857-0.553,1.131-1.308c-8.467-8.802-20.45-14.173-33.736-13.72   c-22.826,0.779-41.723,19.08-43.182,41.873c-1.671,26.107,19.001,47.803,44.74,47.803c12.678,0,24.072-5.3,32.21-13.775   c0.718-0.748-0.274-1.872-1.132-1.289C282.265,290.341,275.456,292.611,268.071,292.611z"/>
	<path style="fill:#F5F5F5;" d="M299.486,234.608l3.723,10.468l10.035-4.77c0.756-0.36,1.545,0.429,1.185,1.185l-4.771,10.035   l10.468,3.723c0.789,0.28,0.789,1.396,0,1.676l-10.468,3.723l4.771,10.035c0.36,0.756-0.429,1.545-1.185,1.185l-10.035-4.77   l-3.723,10.469c-0.28,0.789-1.396,0.789-1.676,0l-3.723-10.468l-10.035,4.77c-0.756,0.36-1.545-0.429-1.185-1.185l4.77-10.035   l-10.468-3.723c-0.789-0.28-0.789-1.396,0-1.676l10.468-3.723l-4.77-10.035c-0.36-0.756,0.429-1.545,1.185-1.185l10.035,4.77   l3.723-10.468C298.091,233.821,299.206,233.821,299.486,234.608z"/>
</g>
<g>
</g>
<g>
</g>
<g>
</g>
<g>
</g>
<g>
</g>
<g>
</g>
<g>
</g>
<g>
</g>
<g>
</g>
<g>
</g>
<g>
</g>
<g>
</g>
<g>
</g>
<g>
</g>
<g>
</g>
</svg>
