<?xml version="1.0" encoding="iso-8859-1"?>
<!-- Generator: Adobe Illustrator 19.0.0, SVG Export Plug-In . SVG Version: 6.00 Build 0)  -->
<svg xmlns="http://www.w3.org/2000/svg" xmlns:xlink="http://www.w3.org/1999/xlink" version="1.1" id="Layer_1" x="0px" y="0px" viewBox="0 0 512 512" style="enable-background:new 0 0 512 512;" xml:space="preserve">
<path style="fill:#41479B;" d="M38.345,423.721h132.322V88.273H38.345C17.167,88.273,0,105.44,0,126.618v258.759  C0,406.554,17.167,423.721,38.345,423.721z"/>
<rect x="170.67" y="88.277" style="fill:#FFE15A;" width="170.67" height="335.45"/>
<path style="fill:#41479B;" d="M473.655,423.721c21.177,0,38.345-17.167,38.345-38.345V126.618  c0-21.177-17.167-38.345-38.345-38.345H341.334v335.448H473.655z"/>
<path style="fill:#464655;" d="M326.621,207.253c0,0-24.564,0-42.987,18.423h12.281c0,0-11.898,21.493-18.039,58.339l-12.665-2.068  v-56.455l12.281,4.021L256,176.549l-21.493,52.966l12.281-4.095v56.527l-12.665,2.068c-6.141-36.845-18.039-58.339-18.039-58.339  h12.281c-18.422-18.422-42.986-18.422-42.986-18.422c30.705,36.845,30.705,98.255,30.705,98.255l30.705-5.117v41.963h18.423v-41.963  l30.705,5.117C295.916,305.509,295.916,244.099,326.621,207.253z"/>
<g>
</g>
<g>
</g>
<g>
</g>
<g>
</g>
<g>
</g>
<g>
</g>
<g>
</g>
<g>
</g>
<g>
</g>
<g>
</g>
<g>
</g>
<g>
</g>
<g>
</g>
<g>
</g>
<g>
</g>
</svg>
