<?xml version="1.0" encoding="iso-8859-1"?>
<!-- Generator: Adobe Illustrator 19.0.0, SVG Export Plug-In . SVG Version: 6.00 Build 0)  -->
<svg xmlns="http://www.w3.org/2000/svg" xmlns:xlink="http://www.w3.org/1999/xlink" version="1.1" id="Layer_1" x="0px" y="0px" viewBox="0 0 512 512" style="enable-background:new 0 0 512 512;" xml:space="preserve">
<path style="fill:#FF4B55;" d="M473.651,88.257H38.292c-20.485,0-37.215,16.061-38.292,36.277V256h512V126.606  C512,105.426,494.831,88.257,473.651,88.257z"/>
<path style="fill:#73AF00;" d="M0,387.466c1.077,20.215,17.807,36.277,38.292,36.277h435.359c21.18,0,38.349-17.169,38.349-38.349  V256H0V387.466z"/>
<path style="fill:#FFE15A;" d="M258.715,207.849l11.107,33.304l35.106,0.273c2.72,0.021,3.847,3.492,1.66,5.107l-28.242,20.855  l10.59,33.472c0.82,2.593-2.132,4.739-4.345,3.156l-28.563-20.414l-28.562,20.415c-2.213,1.581-5.166-0.564-4.345-3.156  l10.59-33.472l-28.242-20.855c-2.188-1.616-1.061-5.086,1.66-5.107l35.106-0.273l11.107-33.304  C254.204,205.269,257.854,205.269,258.715,207.849z"/>
<g>
</g>
<g>
</g>
<g>
</g>
<g>
</g>
<g>
</g>
<g>
</g>
<g>
</g>
<g>
</g>
<g>
</g>
<g>
</g>
<g>
</g>
<g>
</g>
<g>
</g>
<g>
</g>
<g>
</g>
</svg>
