<?xml version="1.0" encoding="iso-8859-1"?>
<!-- Generator: Adobe Illustrator 19.0.0, SVG Export Plug-In . SVG Version: 6.00 Build 0)  -->
<svg xmlns="http://www.w3.org/2000/svg" xmlns:xlink="http://www.w3.org/1999/xlink" version="1.1" id="Layer_1" x="0px" y="0px" viewBox="0 0 512 512" style="enable-background:new 0 0 512 512;" xml:space="preserve">
<path style="fill:#F5F5F5;" d="M38.345,423.724h102.898l70.621-20.966l-70.621-20.966l70.621-20.966l-70.621-20.966l70.621-20.966  l-70.621-20.966l70.621-20.966L141.242,256l70.621-20.966l-70.621-20.966l70.621-20.966l-70.621-20.966l70.621-20.966  l-70.621-20.966l70.621-20.966l-70.621-20.966H38.345C17.167,88.276,0,105.443,0,126.621V385.38  C0,406.557,17.167,423.724,38.345,423.724z"/>
<path style="fill:#FF4B55;" d="M141.241,130.207l70.621,20.966l-70.621,20.966l70.621,20.966l-70.621,20.966l70.621,20.966  L141.241,256l70.621,20.966l-70.621,20.966l70.621,20.966l-70.621,20.966l70.621,20.966l-70.621,20.966l70.621,20.966  l-70.621,20.966h332.414c21.177,0,38.345-17.167,38.345-38.345V126.621c0-21.177-17.167-38.345-38.345-38.345H141.242l70.621,20.966  L141.241,130.207z"/>
<g>
</g>
<g>
</g>
<g>
</g>
<g>
</g>
<g>
</g>
<g>
</g>
<g>
</g>
<g>
</g>
<g>
</g>
<g>
</g>
<g>
</g>
<g>
</g>
<g>
</g>
<g>
</g>
<g>
</g>
</svg>
