<?xml version="1.0" encoding="iso-8859-1"?>
<!-- Generator: Adobe Illustrator 19.0.0, SVG Export Plug-In . SVG Version: 6.00 Build 0)  -->
<svg xmlns="http://www.w3.org/2000/svg" xmlns:xlink="http://www.w3.org/1999/xlink" version="1.1" id="Layer_1" x="0px" y="0px" viewBox="0 0 511.999 511.999" style="enable-background:new 0 0 511.999 511.999;" xml:space="preserve">
<path style="fill:#73AF00;" d="M473.651,88.257H38.292c-20.485,0-37.215,16.061-38.292,36.277v262.933  c1.042,19.56,16.739,35.23,36.311,36.226h439.32c20.259-1.031,36.368-17.783,36.368-38.298V126.606  C512,105.426,494.831,88.257,473.651,88.257z"/>
<g>
	<polygon style="fill:#FF4B55;" points="40.27,88.206 256.029,229.565 471.787,88.206  "/>
	<polygon style="fill:#FF4B55;" points="471.787,423.793 256.029,282.434 40.27,423.793  "/>
</g>
<path style="fill:#F5F5F5;" d="M473.651,88.257h-1.941L307.731,195.689c-13.902-11.938-31.94-19.198-51.702-19.198  c-19.763,0-37.801,7.259-51.702,19.198L40.349,88.257h-2.057c-17.356,0-32.011,11.532-36.74,27.35l178.527,116.965  c-2.272,7.392-3.507,15.24-3.507,23.377s1.235,15.984,3.507,23.377L1.527,396.307c4.522,15.255,18.27,26.545,34.783,27.385h3.96  l164.056-107.484c13.902,11.938,31.94,19.198,51.702,19.198c19.763,0,37.801-7.259,51.702-19.198l164.056,107.484h3.844  c16.537-0.841,30.3-12.161,34.802-27.449L331.979,279.326c2.272-7.392,3.507-15.24,3.507-23.377c0-8.137-1.235-15.985-3.507-23.377  l178.43-116.901C505.701,99.82,491.03,88.257,473.651,88.257z"/>
<polygon style="fill:#FF4B55;" points="250.309,230.541 238.337,230.851 244.588,220.634 238.337,210.418 250.309,210.728   256.029,200.201 261.75,210.728 273.721,210.418 267.469,220.634 273.721,230.851 261.75,230.541 256.029,241.068 "/>
<path style="fill:#73AF00;" d="M256.029,202.977l4.944,9.093l10.347-0.265l-5.403,8.829l5.403,8.829l-10.347-0.265l-4.944,9.093  l-4.944-9.093l-10.347,0.265l5.403-8.829l-5.403-8.829l10.347,0.265L256.029,202.977 M256.029,197.433l-2.327,4.28l-4.169,7.67  l-8.727-0.224l-4.87-0.125l2.543,4.156l4.558,7.446l-4.558,7.446l-2.543,4.156l4.87-0.125l8.727-0.224l4.169,7.67l2.327,4.28  l2.327-4.28l4.169-7.67l8.727,0.224l4.87,0.125l-2.543-4.156l-4.558-7.446l4.558-7.446l2.543-4.156l-4.87,0.125l-8.727,0.224  l-4.169-7.67L256.029,197.433L256.029,197.433z"/>
<polygon style="fill:#FF4B55;" points="217.431,289.057 205.46,289.367 211.71,279.151 205.46,268.934 217.431,269.245   223.151,258.718 228.872,269.245 240.842,268.934 234.592,279.151 240.842,289.367 228.872,289.057 223.151,299.584 "/>
<path style="fill:#73AF00;" d="M223.151,261.493l4.944,9.093l10.347-0.265l-5.403,8.829l5.403,8.829l-10.347-0.265l-4.944,9.093  l-4.944-9.093l-10.347,0.265l5.403-8.829l-5.403-8.829l10.347,0.265L223.151,261.493 M223.151,255.949l-2.327,4.28l-4.169,7.67  l-8.727-0.224l-4.87-0.125l2.543,4.156l4.558,7.446l-4.558,7.446l-2.543,4.155l4.87-0.125l8.727-0.224l4.169,7.67l2.327,4.28  l2.327-4.28l4.169-7.67l8.727,0.224l4.87,0.125l-2.543-4.156l-4.558-7.446l4.558-7.446l2.543-4.156l-4.87,0.125l-8.727,0.224  l-4.169-7.67L223.151,255.949L223.151,255.949z"/>
<polygon style="fill:#FF4B55;" points="283.187,289.057 271.215,289.367 277.466,279.151 271.215,268.934 283.187,269.245   288.906,258.718 294.627,269.245 306.599,268.934 300.348,279.151 306.599,289.367 294.627,289.057 288.906,299.584 "/>
<path style="fill:#73AF00;" d="M288.906,261.493l4.944,9.093l10.347-0.265l-5.403,8.829l5.403,8.829l-10.347-0.265l-4.944,9.093  l-4.944-9.093l-10.347,0.265l5.403-8.829l-5.403-8.829l10.347,0.265L288.906,261.493 M288.906,255.949l-2.327,4.28l-4.169,7.67  l-8.727-0.224l-4.87-0.125l2.543,4.156l4.558,7.446l-4.558,7.446l-2.543,4.156l4.87-0.125l8.727-0.224l4.169,7.67l2.327,4.28  l2.327-4.28l4.169-7.67l8.727,0.224l4.87,0.125l-2.543-4.156l-4.558-7.446l4.558-7.446l2.543-4.156l-4.87,0.125l-8.727,0.224  l-4.169-7.67L288.906,255.949L288.906,255.949z"/>
<g>
</g>
<g>
</g>
<g>
</g>
<g>
</g>
<g>
</g>
<g>
</g>
<g>
</g>
<g>
</g>
<g>
</g>
<g>
</g>
<g>
</g>
<g>
</g>
<g>
</g>
<g>
</g>
<g>
</g>
</svg>
