<?xml version="1.0" encoding="iso-8859-1"?>
<!-- Generator: Adobe Illustrator 19.0.0, SVG Export Plug-In . SVG Version: 6.00 Build 0)  -->
<svg xmlns="http://www.w3.org/2000/svg" xmlns:xlink="http://www.w3.org/1999/xlink" version="1.1" id="Layer_1" x="0px" y="0px" viewBox="0 0 512 512" style="enable-background:new 0 0 512 512;" xml:space="preserve">
<path style="fill:#F5F5F5;" d="M473.655,423.724H38.345C17.167,423.724,0,406.557,0,385.379V126.621  c0-21.177,17.167-38.345,38.345-38.345h435.31c21.177,0,38.345,17.167,38.345,38.345V385.38  C512,406.557,494.833,423.724,473.655,423.724z"/>
<g>
	<path style="fill:#FFECD7;" d="M208.865,322.152c-20.38-4.652-38.549-15.174-52.606-29.714v31.097   c15.339,11.188,33.236,19.028,52.606,22.613V322.152z"/>
	<path style="fill:#FFECD7;" d="M303.085,322.152c20.38-4.652,38.549-15.174,52.606-29.714v31.097   c-15.339,11.188-33.236,19.028-52.606,22.613V322.152z"/>
</g>
<g>
	<path style="fill:#FFE15A;" d="M199.836,254.75c-0.981,0.196-2.356,2.748-2.748,7.066c-0.393,4.319-3.14,22.573-9.03,20.61   c-5.889-1.963-9.814-10.6-9.814-10.6L170,283.8c0,0,5.496-2.159,11.189,0.393s7.066,3.926,8.637,2.356   c1.57-1.57,5.3-6.281,8.244-5.889l3.337-23.752L199.836,254.75z"/>
	<path style="fill:#FFE15A;" d="M167.252,293.812c0,0-1.374,11.385-0.589,12.759c0.786,1.374,22.377,6.477,22.377,6.477   s-6.281,5.103-6.477,7.852c0,0-7.656,1.374-10.403,3.73l-10.207-16.881l-0.393-13.937L167.252,293.812L167.252,293.812   L167.252,293.812z"/>
</g>
<path style="fill:#FFECD7;" d="M160.43,190.269l0.147-5.889c0,0-6.92-0.736-7.802,14.869l-2.503-6.92c0,0-5.153,6.92-2.061,18.108  l-1.325,1.031c0,0-6.772-8.98-10.894-20.61c0,0-6.92,5.447,1.177,20.905l-10.01-12.661c0,0-5.005,10.6,10.01,23.261l-14.133-10.01  c0,0-0.883,11.484,12.808,18.844l-13.692-7.361c0,0,0.441,11.041,16.341,16.489l-15.017-2.797c0,0,3.802,9.027,14.906,11.463  c-2.332,2.603-4.486,6.101-5.043,10.62l11.189-6.184c0,0-5.3,5.447-3.828,12.956l17.225-17.225l-2.354-1.053  c13.031-2.444,10.304-3.364,10.304-3.364s-9.619-24.733-3.14-41.81c6.477-17.077,12.17-19.433,12.17-20.218  C174.906,181.926,167.938,180.993,160.43,190.269z"/>
<path style="fill:#FFE15A;" d="M173.729,200.181c0,0,22.377,23.555,22.77,25.715c0.393,2.159-2.356,1.767-2.356,1.767  s-5.496-7.066-12.956-9.814c-7.459-2.748-12.366-11.385-15.31-13.347C162.933,202.537,173.729,200.181,173.729,200.181z"/>
<path style="fill:#FFF5E1;" d="M166.27,205.874c2.944,0.981,9.619-0.393,9.422-6.477c-0.196-6.086-6.281-8.44-10.796-7.066  c-4.514,1.374-12.956,7.656-7.656,19.826c5.3,12.17,13.152,16.685,14.722,27.089c0,0-7.066,1.079-10.796,0.196  c-3.206-0.759-8.637-3.337-7.459-10.403c1.177-7.066,3.926-11.189,1.57-15.115c-2.356-3.926-9.814-10.796-9.814-10.796  s-16.096,41.222,12.956,52.018c0,0-13.74,13.152-20.61,25.91l4.122,1.177c0,0-7.263,7.852-11.385,10.796  c0,0,13.544,4.711,26.892-10.6c0,0,3.337,5.496,4.122,11.385h5.693c0,0,1.963-9.422,10.993-17.273  c9.03-7.852,18.194-19.048,17.273-29.248c-1.079-11.974-10.097-17.361-19.482-24.782C163.374,212.499,166.27,205.874,166.27,205.874  z"/>
<g>
	<path style="fill:#FFE15A;" d="M312.164,254.75c0.981,0.196,2.356,2.748,2.748,7.066c0.393,4.319,3.14,22.573,9.03,20.61   c5.889-1.963,9.815-10.6,9.815-10.6l8.244,11.974c0,0-5.496-2.159-11.189,0.393s-7.066,3.926-8.637,2.356   c-1.57-1.57-5.3-6.281-8.244-5.889l-3.337-23.752L312.164,254.75z"/>
	<path style="fill:#FFE15A;" d="M344.748,293.812c0,0,1.374,11.385,0.589,12.759c-0.786,1.374-22.377,6.477-22.377,6.477   s6.281,5.103,6.477,7.852c0,0,7.656,1.374,10.403,3.73l10.207-16.881l0.393-13.937h-5.693v0H344.748z"/>
</g>
<path style="fill:#FFECD7;" d="M351.57,190.269l-0.147-5.889c0,0,6.92-0.736,7.802,14.869l2.503-6.92c0,0,5.153,6.92,2.061,18.108  l1.325,1.031c0,0,6.772-8.98,10.894-20.61c0,0,6.92,5.447-1.177,20.905l10.01-12.661c0,0,5.005,10.6-10.01,23.261l14.133-10.01  c0,0,0.884,11.484-12.808,18.844l13.692-7.361c0,0-0.441,11.041-16.341,16.489l15.017-2.797c0,0-3.802,9.027-14.906,11.463  c2.332,2.603,4.486,6.101,5.043,10.62l-11.189-6.184c0,0,5.3,5.447,3.828,12.956l-17.225-17.225l2.354-1.053  c-13.032-2.444-10.304-3.364-10.304-3.364s9.619-24.733,3.14-41.81c-6.478-17.077-12.17-19.433-12.17-20.218  C337.094,181.926,344.062,180.993,351.57,190.269z"/>
<path style="fill:#FFE15A;" d="M338.271,200.181c0,0-22.377,23.555-22.77,25.715c-0.393,2.159,2.356,1.767,2.356,1.767  s5.496-7.066,12.956-9.814c7.459-2.748,12.366-11.385,15.31-13.347S338.271,200.181,338.271,200.181z"/>
<path style="fill:#FFF5E1;" d="M345.73,205.874c-2.944,0.981-9.619-0.393-9.422-6.477c0.196-6.086,6.281-8.44,10.796-7.066  c4.514,1.374,12.956,7.656,7.656,19.826s-13.152,16.685-14.722,27.089c0,0,7.066,1.079,10.796,0.196  c3.206-0.759,8.637-3.337,7.459-10.403c-1.177-7.066-3.926-11.189-1.57-15.115s9.814-10.796,9.814-10.796  s16.096,41.222-12.956,52.018c0,0,13.74,13.152,20.61,25.91l-4.122,1.177c0,0,7.263,7.852,11.385,10.796  c0,0-13.544,4.711-26.892-10.6c0,0-3.337,5.496-4.122,11.385h-5.693c0,0-1.963-9.422-10.993-17.273  c-9.03-7.852-18.194-19.048-17.273-29.248c1.079-11.974,10.097-17.361,19.482-24.782C348.626,212.499,345.73,205.874,345.73,205.874  z"/>
<rect x="199.45" y="166.03" style="fill:#464655;" width="113.06" height="22.77"/>
<path style="fill:#41479B;" d="M255.976,184.085h-56.532c0,0,0,61.244,0,75.377s9.422,51.821,56.532,65.954  c47.11-14.133,56.532-51.821,56.532-65.954s0-75.377,0-75.377H255.976z"/>
<path style="fill:#FF4B55;" d="M199.444,259.462c0,3.502,0.585,8.456,2.172,14.133h108.721c1.587-5.677,2.172-10.631,2.172-14.133  v-28.266H199.444V259.462z"/>
<g>
	<polygon style="fill:#F5F5F5;" points="255.976,252.395 249.38,268.883 255.976,265.586 262.571,268.883  "/>
	<polygon style="fill:#F5F5F5;" points="255.976,252.395 262.571,235.906 255.976,239.204 249.38,235.906  "/>
	<polygon style="fill:#F5F5F5;" points="255.976,252.395 239.487,245.8 242.785,252.395 239.487,258.99  "/>
	<polygon style="fill:#F5F5F5;" points="255.976,252.395 272.463,258.99 269.166,252.395 272.463,245.8  "/>
</g>
<g>
	<path style="fill:#FFE15A;" d="M263.382,200.743c-1.1,0.177-2.067,0.317-2.941,0.776c0.992-2.479,1.692-4.806,1.076-6.435   c-1.505-3.985-4.399-3.272-5.514-6.177v-0.11c-0.008,0.022-0.02,0.034-0.028,0.055c-0.008-0.022-0.02-0.034-0.028-0.055v0.11   c-1.114,2.905-4.009,2.193-5.514,6.177c-0.616,1.63,0.084,3.955,1.076,6.435c-0.873-0.459-1.841-0.6-2.942-0.776   c-2.246-0.36-5.658,1.976-4.94,6.467s5.928,4.851,5.928,4.851c-0.718-0.718-1.347-1.886-0.988-3.144   c0.36-1.258,2.964-2.335,4.311,1.886c1.347,4.222-3.233,10.24-3.233,10.24c1.568-0.083,2.713-0.572,3.54-1.067   c-1.087,3.545,2.47,6.289,2.761,6.504v0.042l0.028-0.021c0.003,0.002,0.028,0.021,0.028,0.021v-0.042   c0.291-0.215,3.848-2.958,2.761-6.503c0.826,0.495,1.972,0.983,3.54,1.066c0,0-4.58-6.018-3.233-10.24s3.953-3.144,4.311-1.886   c0.36,1.258-0.269,2.425-0.988,3.144c0,0,5.209-0.36,5.928-4.851C269.041,202.719,265.628,200.383,263.382,200.743z"/>
	<path style="fill:#FFE15A;" d="M298.048,200.743c-1.1,0.177-2.067,0.317-2.941,0.776c0.992-2.479,1.692-4.806,1.076-6.435   c-1.505-3.985-4.399-3.272-5.514-6.177v-0.11c-0.008,0.022-0.02,0.034-0.028,0.055c-0.008-0.022-0.02-0.034-0.028-0.055v0.11   c-1.114,2.905-4.009,2.193-5.514,6.177c-0.616,1.63,0.084,3.955,1.076,6.435c-0.873-0.459-1.841-0.6-2.942-0.776   c-2.246-0.36-5.658,1.976-4.94,6.467s5.928,4.851,5.928,4.851c-0.718-0.718-1.347-1.886-0.988-3.144   c0.36-1.258,2.964-2.335,4.311,1.886s-3.233,10.24-3.233,10.24c1.568-0.083,2.713-0.572,3.54-1.067   c-1.087,3.545,2.47,6.289,2.761,6.504v0.042l0.028-0.021c0.003,0.002,0.028,0.021,0.028,0.021v-0.042   c0.291-0.215,3.848-2.958,2.761-6.503c0.826,0.495,1.972,0.983,3.54,1.066c0,0-4.58-6.018-3.233-10.24s3.953-3.144,4.311-1.886   c0.36,1.258-0.269,2.425-0.988,3.144c0,0,5.209-0.36,5.928-4.851C303.706,202.719,300.294,200.383,298.048,200.743z"/>
	<path style="fill:#FFE15A;" d="M228.716,200.743c-1.1,0.177-2.067,0.317-2.941,0.776c0.992-2.479,1.692-4.806,1.076-6.435   c-1.505-3.985-4.399-3.272-5.514-6.177v-0.11c-0.008,0.022-0.02,0.034-0.028,0.055c-0.008-0.022-0.02-0.034-0.028-0.055v0.11   c-1.114,2.905-4.009,2.193-5.514,6.177c-0.616,1.63,0.084,3.955,1.076,6.435c-0.873-0.459-1.841-0.6-2.942-0.776   c-2.246-0.36-5.658,1.976-4.94,6.467s5.928,4.851,5.928,4.851c-0.718-0.718-1.347-1.886-0.988-3.144   c0.36-1.258,2.964-2.335,4.311,1.886s-3.233,10.24-3.233,10.24c1.568-0.083,2.713-0.572,3.54-1.067   c-1.087,3.545,2.47,6.289,2.761,6.504v0.042l0.028-0.021c0.003,0.002,0.028,0.021,0.028,0.021v-0.042   c0.291-0.215,3.848-2.958,2.761-6.503c0.826,0.495,1.972,0.983,3.54,1.066c0,0-4.58-6.018-3.233-10.24s3.953-3.144,4.311-1.886   c0.36,1.258-0.269,2.425-0.988,3.144c0,0,5.209-0.36,5.928-4.851C234.375,202.719,230.962,200.383,228.716,200.743z"/>
	<path style="fill:#FFE15A;" d="M267.032,297.809c0,0-2.519-0.395-2.72,2.143c0,0,0,0.29-0.012,0.693   c-0.311-0.147-0.65-0.244-1.017-0.244c-1.331,0-2.41,1.079-2.41,2.411c0,1.331,1.079,2.41,2.41,2.41   c0.106,0,0.196-0.047,0.298-0.061c-0.359,1.149-0.929,2.195-1.73,2.951h-3.218c-0.846-0.937-1.103-2.771-1.159-4.099   c0.052,0.003,0.092,0.04,0.145,0.04c1.092,0,1.977-0.886,1.977-1.977c0-1.079-0.866-1.949-1.94-1.97   c0.171-0.292,0.296-0.615,0.296-0.978c0-1.092-0.885-1.977-1.977-1.977s-1.977,0.886-1.977,1.977c0,0.363,0.125,0.685,0.296,0.978   c-1.074,0.022-1.94,0.892-1.94,1.97c0,1.092,0.886,1.977,1.977,1.977c0.053,0,0.093-0.035,0.145-0.04   c-0.054,1.329-0.312,3.162-1.159,4.099h-3.218c-0.801-0.756-1.372-1.803-1.73-2.951c0.103,0.013,0.192,0.061,0.298,0.061   c1.331,0,2.41-1.079,2.41-2.41s-1.079-2.411-2.41-2.411c-0.367,0-0.706,0.096-1.017,0.244c-0.012-0.403-0.012-0.693-0.012-0.693   c-0.201-2.538-2.72-2.143-2.72-2.143c1.566,4.78,1.154,10.304,1.154,10.304v4.86h19.778v-4.849l0.029-0.011   C265.879,308.113,265.466,302.589,267.032,297.809z"/>
	<path style="fill:#FFE15A;" d="M243.919,278.965c0,0-2.519-0.395-2.72,2.143c0,0,0,0.29-0.012,0.693   c-0.311-0.147-0.65-0.244-1.017-0.244c-1.331,0-2.41,1.079-2.41,2.41s1.079,2.411,2.41,2.411c0.106,0,0.196-0.047,0.298-0.061   c-0.359,1.149-0.929,2.195-1.73,2.951h-3.218c-0.846-0.937-1.103-2.771-1.159-4.099c0.052,0.004,0.092,0.04,0.145,0.04   c1.092,0,1.977-0.886,1.977-1.977c0-1.079-0.866-1.949-1.94-1.97c0.171-0.292,0.296-0.615,0.296-0.978   c0-1.092-0.885-1.977-1.977-1.977s-1.977,0.886-1.977,1.977c0,0.363,0.125,0.685,0.296,0.978c-1.074,0.022-1.94,0.892-1.94,1.97   c0,1.092,0.886,1.977,1.977,1.977c0.053,0,0.093-0.035,0.145-0.04c-0.054,1.329-0.312,3.162-1.159,4.099h-3.218   c-0.801-0.756-1.372-1.803-1.73-2.951c0.103,0.013,0.192,0.061,0.298,0.061c1.331,0,2.41-1.079,2.41-2.411   c0-1.331-1.079-2.41-2.41-2.41c-0.367,0-0.706,0.096-1.017,0.244c-0.012-0.403-0.012-0.693-0.012-0.693   c-0.201-2.538-2.72-2.143-2.72-2.143c1.566,4.78,1.154,10.304,1.154,10.304v4.86h19.778v-4.849l0.029-0.011   C242.765,289.268,242.354,283.744,243.919,278.965z"/>
	<path style="fill:#FFE15A;" d="M290.146,278.965c0,0-2.519-0.395-2.72,2.143c0,0,0,0.29-0.012,0.693   c-0.311-0.147-0.65-0.244-1.017-0.244c-1.331,0-2.411,1.079-2.411,2.41s1.079,2.411,2.411,2.411c0.106,0,0.196-0.047,0.298-0.061   c-0.359,1.149-0.929,2.195-1.73,2.951h-3.218c-0.846-0.937-1.103-2.771-1.159-4.099c0.052,0.004,0.092,0.04,0.145,0.04   c1.092,0,1.977-0.886,1.977-1.977c0-1.079-0.866-1.949-1.94-1.97c0.171-0.292,0.296-0.615,0.296-0.978   c0-1.092-0.885-1.977-1.977-1.977c-1.092,0-1.977,0.886-1.977,1.977c0,0.363,0.125,0.685,0.296,0.978   c-1.074,0.022-1.94,0.892-1.94,1.97c0,1.092,0.886,1.977,1.977,1.977c0.053,0,0.093-0.035,0.145-0.04   c-0.054,1.329-0.312,3.162-1.159,4.099h-3.218c-0.801-0.756-1.372-1.803-1.73-2.951c0.103,0.013,0.192,0.061,0.298,0.061   c1.331,0,2.41-1.079,2.41-2.411c0-1.331-1.079-2.41-2.41-2.41c-0.367,0-0.706,0.096-1.017,0.244   c-0.012-0.403-0.012-0.693-0.012-0.693c-0.201-2.538-2.72-2.143-2.72-2.143c1.566,4.78,1.154,10.304,1.154,10.304v4.86h19.778   v-4.849l0.029-0.011C288.992,289.268,288.58,283.744,290.146,278.965z"/>
	<path style="fill:#FFE15A;" d="M329.138,155.198c-2.711-1.077-5.441-2.091-8.185-3.043c-0.768,2.226-1.535,4.451-2.303,6.678   c-1.324-0.458-2.652-0.905-3.982-1.334c0.719-2.243,1.438-4.484,2.157-6.728c-2.76-0.891-5.535-1.719-8.322-2.484   c-0.621,2.272-1.241,4.543-1.862,6.815c-1.344-0.37-2.691-0.724-4.042-1.064c0.572-2.285,1.142-4.569,1.714-6.855   c-2.799-0.704-5.611-1.346-8.431-1.926c-0.942,4.615-1.886,9.23-2.829,13.845c1.747,0.36,3.49,0.744,5.229,1.154   c-0.359,1.528-0.717,3.057-1.076,4.586c-10.166-2.4-20.491-3.901-30.855-4.5c0.09-1.568,0.181-3.135,0.27-4.704   c1.772,0.103,3.544,0.232,5.313,0.385c0.406-4.693,0.812-9.386,1.217-14.08c-2.857-0.248-5.718-0.435-8.582-0.559   c-0.102,2.354-0.203,4.706-0.305,7.06c-1.38-0.06-2.762-0.105-4.143-0.135c0.051-2.355,0.102-4.711,0.152-7.064   c-2.865-0.062-5.73-0.062-8.595,0c0.051,2.355,0.102,4.71,0.152,7.064c-1.382,0.03-2.763,0.075-4.143,0.135   c-0.102-2.354-0.203-4.706-0.305-7.06c-2.863,0.124-5.724,0.31-8.582,0.559c0.406,4.693,0.812,9.387,1.217,14.08   c1.77-0.153,3.541-0.282,5.313-0.385c0.09,1.568,0.181,3.136,0.27,4.704c-10.365,0.6-20.689,2.1-30.855,4.5   c-0.359-1.528-0.717-3.057-1.076-4.586c1.739-0.412,3.481-0.796,5.229-1.154c-0.943-4.615-1.886-9.23-2.829-13.845   c-2.82,0.579-5.632,1.222-8.431,1.926c0.572,2.285,1.142,4.57,1.714,6.855c-1.351,0.34-2.698,0.694-4.042,1.064   c-0.62-2.272-1.241-4.544-1.862-6.815c-2.787,0.767-5.562,1.594-8.322,2.484c0.719,2.243,1.438,4.484,2.157,6.728   c-1.331,0.429-2.658,0.875-3.982,1.334c-0.768-2.226-1.535-4.451-2.303-6.678c-2.745,0.953-5.474,1.967-8.185,3.043   c1.729,4.38,3.458,8.76,5.187,13.141c1.679-0.666,3.367-1.309,5.06-1.923c2.134,5.906,4.267,11.81,6.401,17.716   c4.564-1.66,9.183-3.111,13.842-4.354c1.554-0.414,3.111-0.808,4.672-1.175c9.37-2.211,18.887-3.595,28.439-4.148   c6.368-0.369,12.753-0.367,19.121,0c9.553,0.552,19.069,1.935,28.439,4.148c1.561,0.37,3.119,0.76,4.672,1.175   c4.66,1.245,9.278,2.696,13.842,4.354c2.134-5.907,4.267-11.81,6.401-17.716c1.694,0.616,3.381,1.257,5.06,1.923   C325.679,163.958,327.409,159.577,329.138,155.198z"/>
</g>
<path style="fill:#FFE1CD;" d="M255.976,379.592c28.104,0,54.123-9.024,75.377-24.286v-30.834  c-19.23,19.47-45.913,31.563-75.377,31.563c-29.871,0-56.876-12.439-76.161-32.387v31.097  C201.208,370.353,227.527,379.592,255.976,379.592z"/>
<g>
</g>
<g>
</g>
<g>
</g>
<g>
</g>
<g>
</g>
<g>
</g>
<g>
</g>
<g>
</g>
<g>
</g>
<g>
</g>
<g>
</g>
<g>
</g>
<g>
</g>
<g>
</g>
<g>
</g>
</svg>
