<?xml version="1.0" encoding="iso-8859-1"?>
<!-- Generator: Adobe Illustrator 19.0.0, SVG Export Plug-In . SVG Version: 6.00 Build 0)  -->
<svg xmlns="http://www.w3.org/2000/svg" xmlns:xlink="http://www.w3.org/1999/xlink" version="1.1" id="Layer_1" x="0px" y="0px" viewBox="0 0 512 512" style="enable-background:new 0 0 512 512;" xml:space="preserve">
<path style="fill:#FF4B55;" d="M473.655,423.724H38.346c-21.177,0-38.345-17.167-38.345-38.345V126.622  c0-21.177,17.167-38.345,38.345-38.345h435.309c21.177,0,38.345,17.167,38.345,38.345V385.38  C512,406.557,494.833,423.724,473.655,423.724z"/>
<path style="fill:#41479B;" d="M0.001,126.622v120.582c0.017,4.861,3.961,8.797,8.826,8.797h238.344  c4.875,0,8.828-3.953,8.828-8.828V97.104c0-4.874-3.95-8.825-8.823-8.828H38.346C17.169,88.277,0.001,105.444,0.001,126.622z"/>
<path style="fill:#F5F5F5;" d="M150.069,141.849V88.277h-44.138v53.573L26.845,90.035c-9.234,2.9-16.954,9.203-21.711,17.434  l65.022,42.601H0.001v44.138h70.153L0.001,240.169v7.033c0.017,4.861,3.961,8.797,8.826,8.797H24.16l81.77-53.572V256h44.138  v-53.573L231.838,256h15.333c4.875,0,8.828-3.953,8.828-8.828v-7.002l-70.155-45.963h70.155V150.07h-70.155l70.155-45.964v-7.002  c0-4.874-3.95-8.825-8.823-8.828h-15.338L150.069,141.849z"/>
<g>
	<polygon style="fill:#FF4B55;" points="255.999,158.897 141.241,158.897 141.241,88.277 114.758,88.277 114.758,158.897 0,158.897    0,185.38 114.758,185.38 114.758,256.001 141.241,256.001 141.241,185.38 255.999,185.38  "/>
	<path style="fill:#FF4B55;" d="M8.228,102.903l72.661,47.166h16.214l-82.495-53.55C12.239,98.39,10.098,100.533,8.228,102.903z"/>
	<path style="fill:#FF4B55;" d="M166.283,150.07l88.374-57.366c-1.536-2.599-4.246-4.427-7.485-4.427h-1.909l-95.194,61.793H166.283   z"/>
	<path style="fill:#FF4B55;" d="M89.474,194.208L1.269,251.462c1.519,2.663,4.273,4.537,7.559,4.537h1.665l95.195-61.793H89.474   V194.208z"/>
	<path style="fill:#FF4B55;" d="M255.859,247.866l-82.666-53.658H156.98l93.873,60.934   C253.666,253.837,255.594,251.102,255.859,247.866z"/>
</g>
<path style="fill:#F5F5F5;" d="M320.945,174.03c-1.741,0-3.153,1.411-3.153,3.153v116.65c0,9.458,6.305,40.985,66.207,50.443  c59.902-9.458,66.207-40.985,66.207-50.443v-116.65c0-1.741-1.411-3.153-3.153-3.153L320.945,174.03L320.945,174.03z"/>
<path style="fill:#73AF00;" d="M383.999,344.276c50.004-7.895,62.651-31.16,65.469-44.138H318.531  C321.348,313.115,333.995,336.38,383.999,344.276z"/>
<path style="fill:#82AFFF;" d="M424.984,240.237c0,0,3.153-3.153,0-9.458l-40.985-1.834l-40.985,1.834c-3.153,6.305,0,9.458,0,9.458  c-3.153,3.153-3.153,6.305-3.153,6.305h6.305l6.831,11.297l31.001,17.078L415,257.84l6.831-11.297h6.305  C428.137,246.542,428.137,243.389,424.984,240.237z"/>
<path style="fill:#F5F5F5;" d="M415.002,257.839c0,0-1.971-4.335-7.225-3.809c0,0-2.89-3.809-7.751-2.759  c0,0-5.649-3.284-8.932,2.759c0,0-10.444-1.062-11.002,6.891c0,0,16.256,24.504,16.651,24.767  c0.394,0.263,19.442,0.131,19.442,0.131l8.802-9.711l-8.671-12.489L415.002,257.839z"/>
<path style="fill:#F0C850;" d="M384.394,265.589c0,0-13.79-22.528-15.764-24.434c-1.905-1.839-5.649-3.546-9.459-0.394  c0,0-11.428-0.919-9.853,7.751l3.284,13.137c0,0-2.89,9.064-4.204,9.984c-1.313,0.919-6.174,3.415-6.174,3.415l2.759,10.903  l36.781-1.839L384.394,265.589z"/>
<path style="fill:#965032;" d="M400.288,255.738l-0.043,0.019l-1.017-2.401c-0.082-0.194-0.238-0.348-0.434-0.425  s-0.413-0.074-0.609,0.012l-6.842,3.017l-8.138-13.322c0.361-0.31,0.518-0.817,0.348-1.289c-0.22-0.616-0.897-0.936-1.512-0.717  l-1.814,0.649L379,237.655c-0.14-0.413-0.585-0.628-0.999-0.495c-0.413,0.141-0.634,0.588-0.494,1.001l1.236,3.654l-1.939,0.694  c-0.615,0.222-0.935,0.899-0.714,1.512c0.172,0.483,0.628,0.786,1.113,0.786c0.068,0,0.138-0.023,0.207-0.035l2.682,16.153  l-1.73,0.762c-0.377,0.167-0.564,0.597-0.424,0.985l0.981,2.732c0.024,0.46,0.022,1.236-0.135,2.218l-11.006-18.879  c0.462-0.289,0.693-0.851,0.502-1.383c-0.222-0.616-0.893-0.939-1.512-0.717l-1.814,0.649l-1.227-3.626  c-0.139-0.413-0.587-0.634-0.999-0.495c-0.413,0.141-0.634,0.588-0.494,1.001l1.236,3.654l-1.939,0.694  c-0.615,0.222-0.935,0.899-0.714,1.512c0.158,0.441,0.559,0.701,0.995,0.748l4.777,29.814c-0.617,0.259-1.222,0.522-1.901,0.764  c0,0-2.233,10.641-0.525,11.166c1.708,0.525,19.31,5.911,19.31,5.911s24.302-11.56,24.828-11.822  c0.525-0.263,1.577-7.882,1.577-7.882L400.288,255.738z M398.797,256.378l-2.035,0.874l-0.674-1.663l1.999-0.882L398.797,256.378z   M386.497,259.818l1.673-0.737l0.643,1.585l-1.771,0.761L386.497,259.818z M385.588,262.05l-1.978,0.85l-0.622-1.534l2.062-0.909  L385.588,262.05z M390.26,260.045l-0.649-1.6l1.788-0.788l0.655,1.618L390.26,260.045z M392.84,257.021l1.806-0.797l0.669,1.649  l-1.814,0.779L392.84,257.021z M381.736,243.255l8.152,13.346l-3.897,1.718l-5.005-14.796L381.736,243.255z M378.922,244.262  l0.578-0.207l5.042,14.904l-2.963,1.306L378.922,244.262z M381.546,262.001l0.617,1.521l-1.945,0.835l-0.548-1.528L381.546,262.001z   M366.295,249.325l11.938,20.479c-0.601,1.737-1.735,3.753-3.723,5.732l-8.797-26.004L366.295,249.325z M363.348,250.38l0.882-0.316  l9.009,26.632c-1.366,1.133-3.065,2.228-5.156,3.231L363.348,250.38z"/>
<path style="fill:#FF4B55;" d="M427.842,226c-0.837-1.33-3.524-0.76-3.524-0.76s-0.767-1.534-2.794-1.682  c-2.027-0.148-2.399,1.657-2.399,1.657s-0.38-0.282-2.613-0.216s-1.773,3.744-1.773,3.744s-0.854,0-3.744-0.919  c-2.89-0.92-4.794-0.263-4.794-0.263c-0.131-1.511-0.919-2.627-0.919-2.627c-2.43,0.985-4.335-0.131-4.794-0.985  c-0.46-0.854,0.723-2.167,0.723-3.284s-1.544-1.067-2.086-2.052s0-1.527,1.429-2.167s2.759-3.005,1.871-4.926  s-3.448-1.577-3.448-1.577c0.887,0.148,1.625,1.823,0.198,2.167s-2.709-4.877-2.709-4.877c3.3,2.217,5.715,0.887,6.404-1.035  c0.69-1.922-1.133-3.251-1.133-3.251c-1.429,2.315-3.892,0.296-2.561-1.182c1.33-1.478,1.444-3.957,1.444-3.957  c-2.956,1.446-4.794-0.394-4.794-0.394c3.875-2.692,2.759-6.503,2.759-6.503c-1.444-0.657-4.532-0.131-4.532-0.131  c0.657-1.314,0.525-3.679,0.525-3.679c-1.642-0.263-3.481,0.788-3.481,0.788c0.525-1.838-0.198-5.057-0.198-5.057  c-1.182,0.198-3.415,0.854-3.415,0.854c-0.919-2.102-3.481-3.35-3.481-3.35s-2.561,1.248-3.481,3.35c0,0-2.233-0.657-3.415-0.854  c0,0-0.723,3.219-0.198,5.057c0,0-1.839-1.05-3.481-0.788c0,0-0.131,2.365,0.525,3.679c0,0-3.087-0.525-4.532,0.131  c0,0-1.117,3.809,2.759,6.503c0,0-1.839,1.839-4.794,0.394c0,0,0.115,2.479,1.444,3.957c1.33,1.478-1.133,3.498-2.561,1.182  c0,0-1.823,1.33-1.133,3.251s3.104,3.251,6.404,1.035c0,0-1.281,5.221-2.709,4.877s-0.69-2.019,0.198-2.167  c0,0-2.561-0.345-3.448,1.577c-0.887,1.921,0.444,4.286,1.871,4.926c1.429,0.64,1.971,1.182,1.429,2.167  c-0.542,0.985-2.086,0.936-2.086,2.052s1.182,2.43,0.723,3.284c-0.46,0.854-2.365,1.971-4.794,0.985c0,0-0.788,1.117-0.919,2.627  c0,0-1.905-0.657-4.794,0.263c-2.89,0.919-3.744,0.919-3.744,0.919s0.46-3.678-1.773-3.744s-2.613,0.216-2.613,0.216  s-0.371-1.805-2.399-1.657c-2.027,0.149-2.794,1.682-2.794,1.682s-2.687-0.569-3.524,0.76c-0.837,1.33-0.936,3.35,0.64,4.188  c1.577,0.838,5.763,4.335,5.763,4.335l5.911,2.561l20.69-9.163l10.837,2.857l10.837-2.857l20.69,9.163l5.911-2.561  c0,0,4.188-3.498,5.763-4.335C428.778,229.35,428.68,227.331,427.842,226z"/>
<path style="fill:#F5F5F5;" d="M377.546,192.612c0,0,0.223,2.782,4.34,2.04C381.885,194.652,381.775,191.759,377.546,192.612z"/>
<path style="fill:#FF4B55;" d="M362.313,302.503c0,0-2.956-0.098-6.009,2.167c-3.054,2.266-4.401,0.657-7.455,0.657  s-3.777,3.186-3.777,3.186s-5.911,1.478-3.546,5.813c1.495,2.742,3.576,2.684,4.908,2.272c-0.067,1.842,0.352,3.866,2.481,4.231  c4.04,0.69,5.813-1.478,4.926-4.828c0,0,0.492,3.448,3.153,3.35c2.66-0.098,4.434-1.577,4.138-5.123s4.434-1.379,8.078-6.601  L362.313,302.503z"/>
<g>
	<path style="fill:#82AFFF;" d="M345.039,315.179c0,0-1.839,2.43-1.313,4.794c0,0-3.94-1.248-1.839-7.094   C341.886,312.88,344.58,312.158,345.039,315.179z"/>
	<path style="fill:#82AFFF;" d="M351.229,318.365c0,0-1.084,3.054,0.394,5.763c0,0-4.926-0.148-3.94-6.207   C347.683,317.922,349.259,316.296,351.229,318.365z"/>
	<path style="fill:#82AFFF;" d="M356.156,318.069c0,0,0.887,2.561,0,5.025c0,0,4.04-0.246,3.35-6.059   C359.505,317.034,357.338,316.246,356.156,318.069z"/>
</g>
<g>
	<path style="fill:#FF4B55;" d="M352.56,259.153c-0.373-3.038-19.409-4.828-18.227,11.166c0,0-2.112-0.039-3.15,1.928   s-3.264,1.484-3.932,0.779c0,0,0.148,3.561,4.562,3.412c0,0-1.397,1.1-1.199,2.708s1.359,3.635,1.286,5.02   s-1.385,3.314-1.385,3.314s3.388-1.162,3.61-3.585s-0.321-4.451,0.346-5.687c0,0-0.321,1.706,1.187,3.858   c1.508,2.152,1.582,4.772,0.964,6.404c0,0,3.758-1.855,3.041-5.44s-1.484-3.264-1.138-5.267c0,0,3.907,3.981,3.24,7.369   c0,0,1.249-1.496,1.138-4.314s-2.068-4.715-2.068-4.715S353.84,269.596,352.56,259.153z"/>
	<path style="fill:#FF4B55;" d="M405.686,302.503c0,0,2.956-0.098,6.009,2.167c3.054,2.266,4.401,0.657,7.455,0.657   s3.777,3.186,3.777,3.186s5.911,1.478,3.546,5.813c-1.495,2.742-3.576,2.684-4.908,2.272c0.067,1.842-0.352,3.866-2.481,4.231   c-4.04,0.69-5.813-1.478-4.926-4.828c0,0-0.492,3.448-3.153,3.35c-2.66-0.098-4.434-1.577-4.138-5.123s-4.434-1.379-8.078-6.601   L405.686,302.503z"/>
</g>
<g>
	<path style="fill:#82AFFF;" d="M422.961,315.179c0,0,1.839,2.43,1.313,4.794c0,0,3.94-1.248,1.839-7.094   C426.113,312.88,423.42,312.158,422.961,315.179z"/>
	<path style="fill:#82AFFF;" d="M416.769,318.365c0,0,1.084,3.054-0.394,5.763c0,0,4.926-0.148,3.94-6.207   C420.317,317.922,418.74,316.296,416.769,318.365z"/>
	<path style="fill:#82AFFF;" d="M411.844,318.069c0,0-0.887,2.561,0,5.025c0,0-4.04-0.246-3.35-6.059   C408.493,317.034,410.662,316.246,411.844,318.069z"/>
</g>
<path style="fill:#FF4B55;" d="M415.44,259.153c0.373-3.038,19.409-4.828,18.227,11.166c0,0,2.112-0.039,3.15,1.928  s3.264,1.484,3.932,0.779c0,0-0.148,3.561-4.562,3.412c0,0,1.397,1.1,1.199,2.708s-1.361,3.635-1.286,5.02  c0.074,1.385,1.385,3.314,1.385,3.314s-3.388-1.162-3.61-3.585s0.321-4.451-0.346-5.687c0,0,0.321,1.706-1.187,3.858  c-1.508,2.152-1.582,4.772-0.964,6.404c0,0-3.758-1.855-3.041-5.44s1.484-3.264,1.138-5.267c0,0-3.907,3.981-3.24,7.369  c0,0-1.249-1.496-1.138-4.314c0.111-2.819,2.068-4.715,2.068-4.715S414.159,269.596,415.44,259.153z"/>
<path style="fill:#FFE15A;" d="M423.227,231.894c-0.724-0.487-1.703-0.284-2.185,0.447c-0.997,1.505-2.311,2.386-4.014,2.691  c-5.641,0.979-13.773-4.575-16.135-6.312c-3.423-2.516-7.651-2.953-10.458-1.224c-1.12,0.371-4.544,1.45-6.434,1.45  c-1.89,0-5.314-1.08-6.434-1.45c-2.807-1.729-7.036-1.292-10.458,1.224c-2.361,1.737-10.494,7.29-16.135,6.312  c-1.704-0.305-3.017-1.185-4.014-2.691c-0.482-0.729-1.461-0.932-2.185-0.447c-0.726,0.48-0.925,1.46-0.445,2.183  c1.478,2.236,3.527,3.599,6.091,4.057c0.648,0.117,1.31,0.169,1.984,0.169c6.016,0,12.823-4.292,16.568-7.041  c2.785-2.045,5.907-2.041,7.313-0.856c0.355,0.301,0.759,0.776,0.662,1.333c-0.052,0.305-0.253,0.579-0.587,0.81  c0.081-0.483-0.066-0.998-0.439-1.373c-0.616-0.616-1.613-0.616-2.229,0c-0.802,0.798-0.889,2.093-0.214,3.147  c0.679,1.056,2.142,1.828,3.88,1.185c0.883-0.329,1.589-0.958,2.078-1.728c2.396-0.697,4.565-0.702,4.565-0.702  s2.169,0.004,4.565,0.702c0.489,0.77,1.195,1.399,2.078,1.728c1.738,0.643,3.2-0.129,3.88-1.185  c0.675-1.053,0.588-2.349-0.214-3.147c-0.616-0.616-1.613-0.616-2.229,0c-0.373,0.375-0.519,0.889-0.439,1.373  c-0.334-0.231-0.534-0.505-0.587-0.81c-0.097-0.557,0.307-1.032,0.662-1.333c1.406-1.185,4.527-1.188,7.313,0.856  c3.745,2.75,10.552,7.041,16.568,7.041c0.674,0,1.336-0.052,1.984-0.169c2.564-0.459,4.613-1.823,6.091-4.057  C424.152,233.352,423.954,232.374,423.227,231.894z"/>
<g>
	<path style="fill:#82AFFF;" d="M343.83,233.635c0,0-0.259-3.523-0.371-4.673s-2.262-2.003-3.079-0.853   C339.564,229.257,339.343,231.372,343.83,233.635z"/>
	<path style="fill:#82AFFF;" d="M344.591,232.503c0,0,3.104-2.513,2.709-3.842c-0.394-1.33-1.231-2.019-2.266-1.625   C343.998,227.429,343.507,229.842,344.591,232.503z"/>
	<path style="fill:#82AFFF;" d="M350.65,230.532c0.446-0.446,0.591-2.611-0.64-2.857c-1.231-0.246-2.857,1.675-2.759,4.04   C347.251,231.715,349.812,231.369,350.65,230.532z"/>
	<path style="fill:#82AFFF;" d="M349.369,231.763c-1.429,0.457-2.808,1.675-2.808,1.675s2.561,1.871,4.335,1.281   C352.67,234.128,351.833,230.976,349.369,231.763z"/>
</g>
<path style="fill:#F5F5F5;" d="M390.453,192.612c0,0-0.223,2.782-4.34,2.04C386.113,194.652,386.225,191.759,390.453,192.612z"/>
<g>
	<path style="fill:#82AFFF;" d="M424.169,233.635c0,0,0.259-3.523,0.371-4.673c0.111-1.15,2.262-2.003,3.079-0.853   C428.435,229.259,428.657,231.372,424.169,233.635z"/>
	<path style="fill:#82AFFF;" d="M423.409,232.503c0,0-3.104-2.513-2.709-3.842c0.394-1.33,1.231-2.019,2.266-1.625   C424.001,227.429,424.492,229.842,423.409,232.503z"/>
	<path style="fill:#82AFFF;" d="M417.35,230.532c-0.446-0.446-0.591-2.611,0.64-2.857c1.231-0.246,2.857,1.675,2.759,4.04   C420.748,231.715,418.187,231.369,417.35,230.532z"/>
	<path style="fill:#82AFFF;" d="M418.63,231.763c1.429,0.457,2.808,1.675,2.808,1.675s-2.561,1.871-4.335,1.281   C415.329,234.128,416.167,230.976,418.63,231.763z"/>
</g>
<g>
	<path style="fill:#464655;" d="M382.369,199.169l1.25,1.25c0.21,0.21,0.551,0.21,0.76,0l1.25-1.25   c0.339-0.339,0.099-0.918-0.381-0.918h-2.5C382.27,198.251,382.031,198.83,382.369,199.169z"/>
	<path style="fill:#464655;" d="M381.715,204.294c-0.927,0-1.729-0.332-2.274-0.946c-0.564-0.638-0.803-1.515-0.661-2.408   c0.051-0.299,0.351-0.48,0.632-0.456c0.301,0.05,0.505,0.332,0.457,0.634c-0.09,0.564,0.054,1.108,0.397,1.496   c0.354,0.397,0.895,0.581,1.559,0.573c1.386-0.055,1.618-1.41,1.628-1.465l-0.007-2.473c0-0.305,0.246-0.551,0.551-0.551   s0.551,0.246,0.551,0.551v2.559c-0.134,0.884-0.856,2.408-2.68,2.482C381.819,204.294,381.766,204.294,381.715,204.294z"/>
	<path style="fill:#464655;" d="M386.284,204.294c-0.051,0-0.103,0-0.156-0.003c-1.824-0.074-2.546-1.598-2.674-2.396l-0.007-2.645   c0-0.305,0.246-0.551,0.551-0.551s0.551,0.246,0.551,0.551v2.559c0.019,0.055,0.277,1.327,1.621,1.379   c0.683,0.012,1.204-0.169,1.559-0.573c0.343-0.388,0.488-0.932,0.397-1.496c-0.047-0.301,0.156-0.585,0.457-0.634   c0.288-0.036,0.584,0.154,0.632,0.456c0.143,0.893-0.097,1.77-0.66,2.408C388.012,203.962,387.211,204.294,386.284,204.294z"/>
</g>
<g>
	<path style="fill:#F5F5F5;" d="M402.916,284.375c0,0-3.94-6.305-8.538-2.102c-4.598,4.204-6.305,9.327-11.56,8.932   c-2.883-0.216-4.356-1.533-5.121-2.684c1.396-1.149,2.386-2.894,1.312-5.461c-2.365-5.649-11.034-3.94-13.399,2.233   c0,0,2.759-9.064-6.831-6.042c0,0-1.182-6.305-6.699-4.598c-3,0.929-4.11,2.775-4.522,4.279c-1.161-0.27-2.652-0.262-4.017,0.843   l6.962,18.785l10.509,0.131l2.365,3.546l13.793,8.67l2.496,5.255h8.67c0,0,0.657-5.386,5.255-6.962   c4.598-1.577,12.085-4.861,12.874-7.751c0.788-2.89,0.788-2.89,0.788-2.89l8.407,0.131c0.919-0.657,7.094-10.772,7.094-10.772   l2.866-13.027C424.037,274.665,405.931,272.315,402.916,284.375z"/>
	<path style="fill:#F5F5F5;" d="M425.641,274.785l-0.024,0.109c0.073,0.01,0.156,0.023,0.156,0.023L425.641,274.785z"/>
</g>
<g>
	<path style="fill:#FFE15A;" d="M368.424,304.516c-3.406-1.373-4.622-3.297-5.043-4.322c-0.391-0.948-0.314-1.62-0.207-1.866   c0.217-0.502,0.48-0.822,0.725-0.884c0.231-0.055,0.523,0.077,0.576,0.11c0.11,0.126,0.169,0.526,0.063,0.625   c-0.634,0.597-0.663,1.594-0.067,2.229c0.599,0.634,1.593,0.662,2.229,0.067c0.648-0.609,1.02-1.462,1.045-2.401   c0.03-1.006-0.339-2.01-0.982-2.688c-0.646-0.683-1.971-1.305-3.383-1.053c-0.291,0.051-0.619,0.17-0.954,0.332   c0.221-2.184-0.621-3.302-1.239-3.753c-1.039-0.755-2.518-0.772-3.763-0.043c-1.273,0.748-1.961,2.057-1.793,3.411   c0.108,0.865,0.975,1.383,1.821,1.266c0.864-0.105,1.543-0.997,1.437-1.859c0.179-0.163,0.414-0.218,0.406-0.256   c0.003,0.003,0.211,0.348-0.04,1.46c-0.393,1.742-1.314,2.814-2.74,3.19c-1.775,0.49-4.049-0.258-5.393-1.734   c-1.869-2.057-5.781-12.971-8.107-20.241c9.971-4.729,11.196-12.586,11.007-16.964c-0.288-6.669-4.278-13.492-8.715-14.899   c-1.746-0.551-4.361-0.665-6.259,0.314c-1.075,0.561-1.821,1.419-2.157,2.487c-0.685,2.179,0.686,3.981,2.326,4.569   c1.698,0.609,3.412-0.124,4.071-1.746c0.327-0.807-0.03-1.73-0.836-2.057c-0.811-0.335-1.694,0.058-2.019,0.862   c-0.066,0.036-0.285-0.046-0.448-0.231c-0.118-0.136-0.143-0.268-0.085-0.449c0.052-0.167,0.171-0.413,0.605-0.638   c1.03-0.538,2.752-0.456,3.852-0.108c2.539,0.803,6.246,5.77,6.516,12.029c0.161,3.741-0.974,10.598-10.388,14.505   c-0.755,0.314-1.144,1.149-0.9,1.928c0.615,1.967,6.098,19.341,9.204,22.755c1.671,1.838,4.196,2.906,6.611,2.906   c0.654,0,1.301-0.077,1.92-0.241c1.053-0.279,1.932-0.822,2.697-1.504c0.076,0.578,0.21,1.17,0.454,1.762   c0.609,1.484,2.3,4.243,7.02,6.145c9.547,3.83,10.454,6.391,10.402,7.318c-0.029,0.508-0.32,0.772-0.557,0.905   c-0.103,0.058-0.205,0.095-0.292,0.117c0.352-0.483,0.416-1.145,0.105-1.703c-0.425-0.76-1.383-1.032-2.144-0.607   c-1.073,0.6-1.821,2.014-1.18,3.559c0.5,1.201,1.671,1.928,3.023,1.928c0.217,0,0.439-0.019,0.663-0.059   c1.963-0.332,3.413-1.961,3.529-3.959C381.31,310.253,374.103,306.794,368.424,304.516z"/>
	<path style="fill:#FFE15A;" d="M399.575,304.516c3.406-1.373,4.622-3.297,5.043-4.322c0.391-0.948,0.314-1.62,0.207-1.866   c-0.217-0.502-0.48-0.822-0.725-0.884c-0.231-0.055-0.523,0.077-0.576,0.11c-0.11,0.126-0.169,0.526-0.063,0.625   c0.635,0.597,0.663,1.594,0.067,2.229c-0.599,0.634-1.593,0.662-2.229,0.067c-0.648-0.609-1.02-1.462-1.045-2.401   c-0.029-1.006,0.339-2.01,0.982-2.688c0.646-0.683,1.971-1.305,3.383-1.053c0.291,0.051,0.619,0.17,0.954,0.332   c-0.221-2.184,0.621-3.302,1.239-3.753c1.039-0.755,2.518-0.772,3.763-0.043c1.273,0.748,1.961,2.057,1.793,3.411   c-0.108,0.865-0.975,1.383-1.821,1.266c-0.864-0.105-1.543-0.997-1.437-1.859c-0.179-0.163-0.414-0.218-0.406-0.256   c-0.003,0.003-0.211,0.348,0.04,1.46c0.393,1.742,1.314,2.814,2.74,3.19c1.775,0.49,4.049-0.258,5.393-1.734   c1.869-2.057,5.781-12.971,8.107-20.241c-9.971-4.729-11.196-12.586-11.007-16.964c0.288-6.669,4.278-13.492,8.715-14.899   c1.746-0.551,4.361-0.665,6.259,0.314c1.075,0.561,1.821,1.419,2.157,2.487c0.685,2.179-0.686,3.981-2.326,4.569   c-1.698,0.609-3.412-0.124-4.071-1.746c-0.327-0.807,0.03-1.73,0.836-2.057c0.811-0.335,1.694,0.058,2.019,0.862   c0.066,0.036,0.285-0.046,0.448-0.231c0.118-0.136,0.143-0.268,0.085-0.449c-0.052-0.167-0.171-0.413-0.605-0.638   c-1.03-0.538-2.752-0.456-3.852-0.108c-2.539,0.803-6.246,5.77-6.516,12.029c-0.161,3.741,0.974,10.598,10.388,14.505   c0.755,0.314,1.144,1.149,0.9,1.928c-0.615,1.967-6.098,19.341-9.204,22.755c-1.671,1.838-4.196,2.906-6.611,2.906   c-0.654,0-1.301-0.077-1.92-0.241c-1.053-0.279-1.932-0.822-2.697-1.504c-0.076,0.578-0.21,1.17-0.454,1.762   c-0.609,1.484-2.3,4.243-7.02,6.145c-9.547,3.83-10.454,6.391-10.402,7.318c0.03,0.508,0.32,0.772,0.557,0.905   c0.103,0.058,0.205,0.095,0.292,0.117c-0.352-0.483-0.416-1.145-0.105-1.703c0.425-0.76,1.383-1.032,2.144-0.607   c1.073,0.6,1.821,2.014,1.18,3.559c-0.5,1.201-1.671,1.928-3.023,1.928c-0.217,0-0.439-0.019-0.663-0.059   c-1.963-0.332-3.413-1.961-3.529-3.959C386.688,310.253,393.896,306.794,399.575,304.516z"/>
</g>
<g>
</g>
<g>
</g>
<g>
</g>
<g>
</g>
<g>
</g>
<g>
</g>
<g>
</g>
<g>
</g>
<g>
</g>
<g>
</g>
<g>
</g>
<g>
</g>
<g>
</g>
<g>
</g>
<g>
</g>
</svg>
