<?xml version="1.0" encoding="iso-8859-1"?>
<!-- Generator: Adobe Illustrator 19.0.0, SVG Export Plug-In . SVG Version: 6.00 Build 0)  -->
<svg xmlns="http://www.w3.org/2000/svg" xmlns:xlink="http://www.w3.org/1999/xlink" version="1.1" id="Layer_1" x="0px" y="0px" viewBox="0 0 512 512" style="enable-background:new 0 0 512 512;" xml:space="preserve">
<path style="fill:#FFE15A;" d="M473.655,423.724H38.345C17.167,423.724,0,406.557,0,385.379V126.621  c0-21.177,17.167-38.345,38.345-38.345h435.31c21.177,0,38.345,17.167,38.345,38.345V385.38  C512,406.557,494.833,423.724,473.655,423.724z"/>
<path style="fill:#F5F5F5;" d="M512,300.138L16.509,95.106C6.536,102.03,0,113.559,0,126.621v23.448l512,211.862V300.138z"/>
<path style="fill:#464655;" d="M512,385.379v-23.448L0,150.069v61.793l495.491,205.031C505.465,409.969,512,398.44,512,385.379z"/>
<g>
	<path style="fill:#FF4B55;" d="M305.589,240.326l0.007-0.25c0,0-0.117-1.209-0.338-3.478c-0.067-1.134-0.328-2.515-0.672-4.125   c-0.266-1.623-0.78-3.439-1.44-5.443c-1.326-3.977-3.367-8.725-6.891-13.322c-0.426-0.568-0.93-1.129-1.394-1.694   c1.999-2.292,3.949-4.958,5.788-8.175c0,0-10.08,0.462-21.401-4.478c-3.737-1.946-7.796-3.543-12.248-4.589l-2.112-8.447   c-0.452-1.806-2.076-3.074-3.937-3.074h-2.92v-4.058h14.206l-4.058-8.118l4.058-8.118H258.03v-4.059h-4.06v24.353h-2.92   c-1.863,0-3.486,1.268-3.937,3.074l-2.066,8.265c-2.742,0.584-5.473,1.325-8.124,2.452c-2.169,0.868-4.267,1.956-6.315,3.174   c-10.413,3.997-19.257,3.624-19.257,3.624c1.838,3.215,3.785,5.88,5.783,8.171c-0.405,0.492-0.854,0.934-1.246,1.44   c-2.765,3.755-4.973,7.977-6.658,12.46c-1.603,4.353-2.514,9.878-2.819,13.917l-0.008,3.905c-0.041,1.226,0.099,2.441,0.228,3.66   c0.16,2.457,0.703,4.855,1.215,7.271c1.266,4.758,3.118,9.387,5.643,13.638c5.054,8.513,12.762,15.224,21.405,19.385   c4.465,1.967,8.683,3.466,13.716,4.181c2.681,0.499,4.351,0.491,6.337,0.664l0.361,0.026l0.181,0.013l0.589,0.015l0.845-0.035   l1.684-0.076c1.118-0.075,2.236-0.061,3.331-0.224c8.832-0.969,16.793-4.403,23.009-8.862c6.215-4.539,10.679-10.073,13.737-15.349   c3.106-5.281,4.708-10.391,5.696-14.577c0.472-2.09,0.823-4,0.951-5.796c0.201-1.778,0.318-3.234,0.265-4.185   C305.592,241.422,305.589,240.326,305.589,240.326z M231.82,268.931c-2.82-2.198-5.369-4.818-7.693-7.708   c-2.237-2.959-4.024-6.297-5.427-9.846c-1.323-3.473-2.051-7.648-2.409-11.051c-0.099-4.723,0.122-7.944,1.024-11.971   c0.983-3.825,2.417-7.569,4.412-11.023c0.116-0.2,0.273-0.37,0.392-0.567c9.227,7.208,18.969,6.695,25.763,3.197v7.938   c2.241,0,4.058,4.543,4.058,10.147s-1.817,10.147-4.058,10.147v4.058c7.613,10.15,4.12,18.713-0.558,23.706   c-2.123-0.461-4.326-1.081-6.386-1.892C237.743,272.824,234.709,271.033,231.82,268.931z M295.703,239.87   c-0.007,0.06-0.115,1.103-0.321,3.092c-0.062,1.109-0.307,2.159-0.59,3.322c-0.202,1.173-0.631,2.593-1.182,4.203   c-1.099,3.154-2.752,6.92-5.626,10.528c-2.809,3.619-6.598,7.193-11.325,9.99c-3.594,2.133-7.818,3.576-12.281,4.601   c-4.52-5.037-7.703-13.428-0.258-23.353v-4.058c-2.241,0-4.059-4.543-4.059-10.147s1.817-10.147,4.059-10.147v-7.938   c6.802,3.502,16.559,4.013,25.796-3.221c0.158,0.266,0.351,0.536,0.5,0.8c2.456,4.292,3.67,8.42,4.431,11.782   c0.363,1.697,0.63,3.211,0.693,4.556c0.14,1.331,0.242,2.457,0.184,3.384C295.711,238.835,295.704,239.633,295.703,239.87z"/>
	<path style="fill:#FF4B55;" d="M256,300.959c-14.987,0-28.582-5.838-38.727-15.326c-1.863-1.741-4.81-1.53-6.47,0.406   l-15.542,18.133c-1.652,1.928-0.282,4.905,2.255,4.905h9.775l13.031,6.516c1.831,0.916,4.057,0.324,5.193-1.379l4.194-6.292   c8.106,3.345,16.977,5.214,26.29,5.214c9.313,0,18.184-1.869,26.29-5.214l4.194,6.292c1.135,1.704,3.361,2.294,5.193,1.379   l13.031-6.516h9.775c2.538,0,3.908-2.977,2.255-4.905l-15.542-18.133c-1.66-1.937-4.607-2.147-6.47-0.406   C284.582,295.122,270.988,300.959,256,300.959z"/>
	<path style="fill:#FF4B55;" d="M199.176,284.724H178.88l4.058-36.531c0,0-14.207-7.104-12.719-27.956   c0.181-2.536,2.325-4.516,4.867-4.516h3.464c2.392,0,4.397,1.734,4.793,4.093c0.854,5.091,3.511,13.448,11.772,16.202   L199.176,284.724z"/>
	<path style="fill:#FF4B55;" d="M312.825,284.724h20.295l-4.059-36.531c0,0,14.207-7.104,12.719-27.956   c-0.181-2.536-2.325-4.516-4.867-4.516h-3.464c-2.392,0-4.397,1.734-4.793,4.093c-0.854,5.091-3.511,13.448-11.772,16.202   L312.825,284.724z"/>
</g>
<g>
	<path style="fill:#FFE15A;" d="M201.205,288.782h-24.353c-1.121,0-2.029-0.908-2.029-2.029l0,0c0-1.121,0.908-2.029,2.029-2.029   h24.353c1.121,0,2.029,0.908,2.029,2.029l0,0C203.234,287.874,202.325,288.782,201.205,288.782z"/>
	<path style="fill:#FFE15A;" d="M335.149,288.782h-24.353c-1.121,0-2.029-0.908-2.029-2.029l0,0c0-1.121,0.908-2.029,2.029-2.029   h24.353c1.121,0,2.029,0.908,2.029,2.029l0,0C337.178,287.874,336.27,288.782,335.149,288.782z"/>
</g>
<g>
</g>
<g>
</g>
<g>
</g>
<g>
</g>
<g>
</g>
<g>
</g>
<g>
</g>
<g>
</g>
<g>
</g>
<g>
</g>
<g>
</g>
<g>
</g>
<g>
</g>
<g>
</g>
<g>
</g>
</svg>
