<?xml version="1.0" encoding="iso-8859-1"?>
<!-- Generator: Adobe Illustrator 19.0.0, SVG Export Plug-In . SVG Version: 6.00 Build 0)  -->
<svg xmlns="http://www.w3.org/2000/svg" xmlns:xlink="http://www.w3.org/1999/xlink" version="1.1" id="Layer_1" x="0px" y="0px" viewBox="0 0 512 512" style="enable-background:new 0 0 512 512;" xml:space="preserve">
<path style="fill:#FF6E55;" d="M38.345,423.724h435.31c21.177,0,38.345-17.167,38.345-38.345V126.622  c0-11.791-5.326-22.335-13.7-29.368L13.7,414.748C20.365,420.346,28.959,423.724,38.345,423.724z"/>
<path style="fill:#FFE15A;" d="M13.7,414.748L498.3,97.253c-6.665-5.599-15.258-8.977-24.644-8.977H38.345  C17.167,88.277,0,105.443,0,126.622V385.38C0,397.171,5.326,407.714,13.7,414.748z"/>
<g>
	<path style="fill:#FFF5DC;" d="M281.521,178.027c-4.436,0.95-11.405-1.426-11.405-1.426c1.436,2.473,5.276,4.138,8.739,5.186   c-2.796,0.279-5.985,0.437-9.532,0.359c-14.257-0.318-20.909,9.03-20.909,9.03c5.069-3.169,10.296-3.169,18.058-2.059   c7.762,1.109,24.236-3.801,24.236-3.801l1.426-6.336C292.134,178.977,285.956,177.077,281.521,178.027z"/>
	<path style="fill:#FFF5DC;" d="M296.173,148.327c0,0,7.371,1.562,14.852,5.855c-0.45,0.236-0.881,0.525-1.291,0.864   c-2.418-1.202-5.339-2.175-9.127-2.561c0,0,3.921,1.02,7.688,3.97c-0.975,1.149-1.779,2.456-2.398,3.618   c-8.287-8.886-17.249-2.955-17.249-2.955c11.117-0.845,13.74,6.298,14.366,9.748c-2.153-1.439-4.181-2.625-6.083-3.59   c0.279-0.209,0.42-0.397,0.747-0.612c0,0-0.696,0.028-1.662,0.172c-14.188-6.819-21.149-1.44-21.149-1.44   c6.301-0.77,12.124,0.868,16.744,2.908c-2.03,1.169-3.405,3.228-2.271,6.728c-7.957-2.165-17.958-4.298-22.869-2.983   c-8.871,2.376-6.019,10.613-6.019,10.613s0.159-5.544,6.178-6.812c4.506-0.949,26.929,6.178,26.929,6.178l7.286-3.485l-3.009-2.535   c0,0-5.784-2.322-3.304-6.312c4.147,2.211,6.788,4.41,6.788,4.41l1.783-2.605c0.087,0.674,0.118,1.18,0.118,1.18l5.069-2.217   l1.109-1.585c0.444-2.404,1.178-4.114,2.023-5.394c1.466,1.843,2.679,4.119,3.284,6.937l4.594,0.476c0,0-0.746-5.31-5.886-9.533   c0.456-0.324,0.906-0.593,1.349-0.772c3.385,2.429,6.542,5.466,8.734,9.276l8.474-0.119   C331.972,165.751,318.033,150.228,296.173,148.327z"/>
	<circle style="fill:#FFF5DC;" cx="377.04" cy="223.171" r="10.613"/>
	<circle style="fill:#FFF5DC;" cx="352.26" cy="312.5" r="14.238"/>
	<circle style="fill:#FFF5DC;" cx="243.72" cy="305.6" r="11.285"/>
	<circle style="fill:#FFF5DC;" cx="217.77" cy="359.19" r="13.03"/>
	<path style="fill:#FFF5DC;" d="M341.873,195.451c0,0,24.402,8.696,30.294,11.642c8.317,4.158,21.385-7.96,30.532,1.426   c0,0-1.585-6.257-9.187-6.732c0,0,0.159-6.178-6.969-5.86c0,0,5.227,3.801,2.218,6.495c0,0-2.059-4.594-7.921-3.801   c0,0,4.435,1.742,3.327,4.435c0,0-7.049,3.405-10.217,1.188c-3.168-2.218-28.195-15.722-36.116-16.039L341.873,195.451z"/>
</g>
<path style="fill:#F5F5F5;" d="M335.615,203.055c0,0,5.227,1.545,12.831,9.504c3.523,3.689,12.593,3.921,11.167-3.208  c-1.426-7.128-19.008-11.523-20.909-11.523C336.803,197.827,335.615,203.055,335.615,203.055z"/>
<g>
	<path style="fill:#FFF5DC;" d="M373.711,187.372l-9.98,3.327c0,0,1.109,6.772-4.594,9.742c-3.512,1.83-5.86,6.573-5.703,10.058   c0,0,3.327-4.594,8.078-7.128c1.119-0.597,2.151-1.12,3.091-1.651c-0.189,2.375-0.239,4.868,0.078,7.037   c0.95,6.494-1.109,8.712-1.109,8.712s5.545-4.277,4.91-11.246c-0.244-2.678,0.195-4.575,0.877-6.015   c0.491,4.853,3.082,7.125,3.082,7.125c-1.901-3.801,2.059-7.921,3.644-11.247C377.672,192.758,373.711,187.372,373.711,187.372z"/>
	<path style="fill:#FFF5DC;" d="M398.937,173.592c-3.929-1.336-7.722,1.069-9.98,3.089c-0.961,0.86-3.493,1.297-6.084,1.532   c1.73-1.224,3.572-2.669,4.541-3.907c2.138-2.732,6.059-3.208,9.385-4.277c3.327-1.069,4.753-5.346,4.753-5.346   s-1.782,2.614-6.772,2.376c-4.99-0.238-6.653-0.476-9.98,3.089c-1.023,1.096-2.455,1.943-3.94,2.624   c0.032-1.557,0.167-3.538,0.614-4.882c0.832-2.495,4.633-4.514,4.871-9.504c0.237-4.99,0.476-4.514,3.327-7.485   c2.851-2.97,3.683-8.554,2.851-6.772s-4.633,3.921-7.841,6.891s-0.95,6.296-2.614,8.91c-1.663,2.614-5.583,3.208-5.822,8.078   c-0.237,4.871-3.683,7.722-3.683,7.722s-8.435,4.633,1.663,8.317c10.099,3.683,18.268-6.563,23.285-6.296   c11.167,0.594,14.137-3.089,14.137-3.089C409.748,174.661,404.877,175.611,398.937,173.592z"/>
	<path style="fill:#FFF5DC;" d="M276.451,251.842c-0.633-0.476-11.563-12.514-15.207-14.257l0.792,3.01c0,0-2.376-0.159-6.653-5.386   s-7.445-6.653-7.445-6.653s3.01,4.753,2.851,7.762c0,0-6.495-0.476-13.464,2.851c0,0-3.168-6.178-5.86-7.286   c0,0,0.95,6.495-1.267,8.078c-2.218,1.585,20.909,12.514,24.077,12.831C257.443,253.111,276.451,251.842,276.451,251.842z"/>
	<path style="fill:#FFF5DC;" d="M290.867,228.242c-0.225-0.056-1.394,0.766-2.902,1.843c-0.666-3.847-2.008-11.624-2.008-11.981   c0-0.476-10.772-15.523-11.089-16.157c-0.005-0.011-0.041-0.012-0.049-0.022c1.046-2.53,2.173-6.838-4.228-3.463   c-8.713,4.595-12.198,15.207-12.198,15.207c1.986-2.072,5.452-3.654,8.219-4.682c0.057,1.292,0.067,2.826-1.724,5.474   c-3.644,5.385-1.585,7.445-1.585,7.445c2.851-4.91,9.187-5.386,9.187-5.386c-0.95,5.862,2.376,9.187,2.376,9.187l2.692-3.168   c-0.332,4.535,2.095,9.401,3.604,11.958c-0.596,0.288-1.14,0.509-1.544,0.555c-2.694,0.318-6.969,2.376-6.969,2.376   s3.466-0.739,5.434,0.781c1.967,1.521,5.099,2.684,6.798,2.326c0,0-0.806,4.115,0.089,5.635c0,0-2.237-0.628-4.831-0.537   s-4.482-1.71-4.482-1.71s4.753,6.81,8.237,8.236c3.485,1.426,9.504-3.801,9.504-3.801S291.5,228.398,290.867,228.242z"/>
	<path style="fill:#FFF5DC;" d="M208.972,327.56c0,0-3.01,0.317-5.86,4.594l-1.267-4.436c0,0-3.485,2.535-7.286,0.95   c0,0,3.485-0.792,4.118-3.96s1.901-3.485,1.901-3.485s-2.376-2.535-4.91-2.376c0,0,6.969-3.644,10.772-0.159   C210.239,322.174,208.972,327.56,208.972,327.56z"/>
	<path style="fill:#FFF5DC;" d="M292.767,292.552c0,0-3.01,0.317-5.86,4.594l-1.267-4.435c0,0-3.485,2.535-7.286,0.95   c0,0,3.485-0.792,4.118-3.96c0.633-3.168,1.901-3.485,1.901-3.485s-2.376-2.535-4.91-2.376c0,0,6.969-3.644,10.772-0.159   C294.035,287.167,292.767,292.552,292.767,292.552z"/>
	<path style="fill:#FFF5DC;" d="M344.147,247.488c0,0-1.47,2.646,0.394,7.436l-4.359-1.511c0,0,0.073,4.309-3.407,6.51   c0,0,1.353-3.307-0.876-5.646c-2.229-2.339-1.761-3.558-1.761-3.558s-3.439,0.489-4.766,2.655c0,0,1.021-7.798,6.057-8.908   C340.466,243.357,344.147,247.488,344.147,247.488z"/>
</g>
<path style="fill:#FF6E55;" d="M359.399,301.02l3.066,1.828C361.572,302.082,360.514,301.507,359.399,301.02z"/>
<path style="fill:#FFF5DC;" d="M186.478,316.313c0,0-14.098,19.8-30.255,24.077l5.703-7.286c0,0-7.604,6.653-16.157,8.078  l10.296-11.88c0,0-22.968,21.385-52.431,25.82c0,0,22.81-14.414,27.404-19.484c0,0-11.089,4.435-21.068,4.594  c0,0,28.671-11.089,33.423-15.523c0,0-11.405,2.535-18.534,0.159c0,0,24.711-7.128,28.195-6.178c0,0-14.257-5.703-22.81-5.069  c0,0,14.573-3.485,31.522,0l-3.644-3.96c0,0,9.663-2.535,19.167-3.168c9.504-0.633,4.753-1.426,4.753-1.426l1.109-3.168  c0,0-6.178,0.792-11.246,0c0,0,15.207-8.554,19.484-12.355c4.277-3.801,1.426-2.059,1.426-2.059s-7.921,2.692-10.772,3.168  c0,0,7.128-8.237,9.346-13.623c0,0-6.495,2.535-12.039,0c0,0,6.653-1.901,9.98-5.227c3.327-3.327,8.237-11.603,8.237-11.603  l-5.703,2.495c0,0,4.99-8.554,9.386-10.692c0,0-7.485,0.594-9.86-1.188c0,0,7.96-1.901,10.336-3.801  c2.376-1.901,7.604-6.891,12.949-4.99c0,0,7.485-6.891,4.99-11.405c0,0,4.871,0.356,7.366,3.327c2.495,2.97,6.415,5.465,6.415,5.465  l-20.355,15.919l-15.524,50.371L186.478,316.313z"/>
<g>
	<path style="fill:#F5F5F5;" d="M385.908,221.271c5.862,9.504-1.426,10.455-1.426,10.455c-1.109-9.03-8.712-7.919-8.712-7.919   l2.059,6.653c-12.672,1.585-11.722-11.089-11.722-11.089c-1.901,1.585-5.069,8.078-5.069,8.078s-34.215,11.405-57.342-22.493   c0,0-0.633-6.02,1.268-8.872l-14.257-10.771l-18.375,2.535c0,0-7.286,16.473,1.585,26.612   c8.871,10.137,19.325,24.394,17.425,31.047c-1.127,3.944-4.48,5.549-9.135,5.214c-3.199-0.231-7.011-1.378-11.139-3.313   c-10.138-4.753-34.849-14.889-52.59-6.653c-17.741,8.237-19.666,22.49-23.127,33.582c-3.064,9.818-9.863,34.884-58.3,57.753   c-2.314,1.092-1.137,4.609,1.346,3.992c20.996-5.22,49.621-13.918,58.457-24.203l7.128,0.237l-2.614,10.93   c0,0,9.267,2.851,10.692,16.395c0,0-16.236,4.435-7.049,18.375c0,0,1.426-10.138,12.672-10.613c0,0,2.535,3.327,8.078,3.801   c0,0,2.851,4.595,1.426,8.396c0,0,11.246-3.485,1.742-16.95c0,0,10.613-2.534,12.039,10.772c0,0,6.812-21.543-17.503-19.959   c0,0,0-3.801-6.415-10.692c0,0-1.583-3.882,0-9.267c0.477-1.621,0.908-3.303,1.268-5.017c1.321,0.733,3.352,1.599,6.018,1.692   c0,0,3.96,6.494,15.682,5.385c0,0-8.554-3.959-7.762-11.563c0.792-7.604,10.772-11.723,15.049-8.713c0,0-1.109-9.98-16.632-3.485   c0,0,0-7.445,8.237-7.919c0,0-13.305-10.138-16.316,9.187l-5.506,1.376c-2.69-7.457-6.098-24.771,8.991-31.078   c15.919-6.653,32.552,8.317,62.015,9.742c0,0-2.851,17.345,6.653,21.622c9.504,4.277,32.789,8.317,32.789,8.317   c-0.237,25.027,17.978,21.7,17.978,21.7c-8.841-5.298-8.841-15.406-3.384-21.31c7.437-8.046,20.333-0.392,20.333-0.392   c-0.182-12.182-17.266-10.297-17.266-10.297c2.692-7.919,13.305-9.98,13.305-9.98c-14.731-5.385-26.929,10.535-26.929,10.535   l-24.949-7.128c0,0-0.95-4.99,4.99-11.642c5.94-6.653,10.93-17.821,9.267-29.7c0,0,6.891-4.832,15.444-0.079   s26.929-5.703,26.929-5.703c7.921,10.137,26.77,8.237,29.304-3.959C395.096,222.697,385.908,221.271,385.908,221.271z"/>
	<path style="fill:#F5F5F5;" d="M359.772,192.126c-4.712-2.749-13.148-5.069-15.999,1.267c-2.851,6.336-6.019,12.672-15.84,12.355   c-9.821-0.317-14.257,8.078-21.068,5.703c0,0,6.336-2.059,7.604-5.069c1.267-3.01,6.336-8.554,6.336-8.554l-0.633-5.703   c0,0-11.722,0.632-15.207,3.959s-16.632-2.85-16.632-2.85l1.585-13.781c0,0,10.137-15.523,24.236-14.414   c14.098,1.109,16.474-2.535,23.285-2.059c6.812,0.476,10.296,7.445,17.582,9.03c7.286,1.585,21.859-1.426,23.761,3.01   c1.901,4.435-3.644,6.178-5.069,12.355C372.286,193.551,369.276,197.669,359.772,192.126z"/>
</g>
<g>
	<path style="fill:#FFF5DC;" d="M318.588,188.165c0,0-6.812,4.594-12.514,2.692c-5.703-1.901-10.772-1.267-16.632,0.633   c0,0,10.772-1.267,15.207,2.851s15.682,1.426,16.474-0.317L318.588,188.165z"/>
	<path style="fill:#FFF5DC;" d="M322.072,198.777c0,0-6.653,4.753-13.305,3.485c-6.653-1.267-12.672,1.426-12.672,1.426   s4.91-5.386,11.563-4.435c6.653,0.95,9.028-5.544,9.028-5.544l4.436,0.317L322.072,198.777z"/>
	<circle style="fill:#FFF5DC;" cx="327.46" cy="192.921" r="8.872"/>
	<path style="fill:#FFF5DC;" d="M322.23,186.264c0,0-3.485-4.435-12.198-2.692c-8.712,1.742-10.772-1.426-10.772-1.426   s4.118,6.336,10.613,5.544c6.495-0.792,9.187,3.644,9.187,3.644L322.23,186.264z"/>
	<path style="fill:#FFF5DC;" d="M351.539,175.172c0.783-1.079,1.768-2.108,3.114-2.891c0.794-0.462,1.611-0.754,2.42-0.994   c0.18-1.203,0.003-2.5-0.683-3.678c-1.497-2.57-4.61-3.546-6.954-2.18c-2.343,1.365-3.029,4.555-1.532,7.125   C348.745,173.997,350.101,174.867,351.539,175.172z"/>
	<path style="fill:#FFF5DC;" d="M343.757,185.378c0.446-1.257,1.099-2.521,2.168-3.655c0.631-0.668,1.332-1.178,2.039-1.638   c-0.168-1.204-0.704-2.399-1.696-3.335c-2.163-2.041-5.426-2.097-7.287-0.125c-1.862,1.972-1.617,5.226,0.547,7.267   C340.746,185.042,342.292,185.492,343.757,185.378z"/>
</g>
<g>
</g>
<g>
</g>
<g>
</g>
<g>
</g>
<g>
</g>
<g>
</g>
<g>
</g>
<g>
</g>
<g>
</g>
<g>
</g>
<g>
</g>
<g>
</g>
<g>
</g>
<g>
</g>
<g>
</g>
</svg>
