<?xml version="1.0" encoding="iso-8859-1"?>
<!-- Generator: Adobe Illustrator 19.0.0, SVG Export Plug-In . SVG Version: 6.00 Build 0)  -->
<svg xmlns="http://www.w3.org/2000/svg" xmlns:xlink="http://www.w3.org/1999/xlink" version="1.1" id="Layer_1" x="0px" y="0px" viewBox="0 0 512 512" style="enable-background:new 0 0 512 512;" xml:space="preserve">
<rect x="114.76" y="88.277" style="fill:#F5F5F5;" width="282.48" height="335.45"/>
<g>
	<path style="fill:#FF4B55;" d="M38.345,88.273C17.167,88.273,0,105.44,0,126.618v258.759c0,21.177,17.167,38.345,38.345,38.345   h76.414V88.273H38.345z"/>
	<path style="fill:#FF4B55;" d="M473.655,88.273h-76.414v335.448h76.414c21.177,0,38.345-17.167,38.345-38.345V126.618   C512,105.44,494.833,88.273,473.655,88.273z"/>
	<path style="fill:#FF4B55;" d="M309.569,294.757l52.383-29.932l-12.02-6.01c-3.371-1.686-5.301-5.326-4.802-9.063l3.911-29.322   l-22.177,6.452c-4.899,1.426-9.983-1.588-11.085-6.569l-2.124-9.6l-20.823,24.37c-2.886,3.378-8.386,0.798-7.633-3.581   l8.893-51.708l-13.615,3.723c-3.977,1.088-8.177-0.722-10.116-4.36l-14.337-26.871v-0.04l-0.01,0.02l-0.011-0.02v0.04   l-14.337,26.871c-1.941,3.637-6.141,5.447-10.118,4.36l-13.615-3.723l8.893,51.708c0.753,4.378-4.747,6.959-7.634,3.582   l-20.823-24.37l-2.124,9.6c-1.102,4.982-6.186,7.994-11.085,6.569l-22.177-6.452l3.911,29.322c0.499,3.736-1.431,7.377-4.802,9.063   l-12.02,6.009l52.383,29.933c5.426,3.101,7.804,9.677,5.615,15.53l-4.478,11.977l44.885-3.832c2.484-0.212,4.598,1.788,4.525,4.279   l-1.414,48.044h8.828L259,322.71c-0.073-2.492,2.041-4.491,4.525-4.279l44.906,3.834l-4.478-11.977   C301.766,304.434,304.143,297.857,309.569,294.757z"/>
</g>
<g>
</g>
<g>
</g>
<g>
</g>
<g>
</g>
<g>
</g>
<g>
</g>
<g>
</g>
<g>
</g>
<g>
</g>
<g>
</g>
<g>
</g>
<g>
</g>
<g>
</g>
<g>
</g>
<g>
</g>
</svg>
