<?xml version="1.0" encoding="iso-8859-1"?>
<!-- Generator: Adobe Illustrator 19.0.0, SVG Export Plug-In . SVG Version: 6.00 Build 0)  -->
<svg xmlns="http://www.w3.org/2000/svg" xmlns:xlink="http://www.w3.org/1999/xlink" version="1.1" id="Layer_1" x="0px" y="0px" viewBox="0 0 512 512" style="enable-background:new 0 0 512 512;" xml:space="preserve">
<path style="fill:#73AF00;" d="M512,126.582c-0.02-21.16-17.179-38.307-38.344-38.307H38.345C17.167,88.274,0,105.442,0,126.619  v258.76c0,21.176,17.167,38.345,38.345,38.345h435.311c21.165,0,38.324-17.148,38.344-38.307V126.582z"/>
<g>
	<path style="fill:#FFE15A;" d="M283.616,307.644c-28.522,0-51.645-23.122-51.645-51.645s23.122-51.645,51.645-51.645   c3.785,0,7.452,0.454,10.987,1.265c1.409,0.323,2.156-1.568,0.927-2.329c-10.816-6.706-23.841-10.184-37.745-9.053   c-30.263,2.462-54.593,27.134-56.653,57.428c-2.462,36.189,26.164,66.309,61.826,66.309c11.955,0,23.11-3.396,32.574-9.265   c1.229-0.763,0.486-2.654-0.925-2.329C291.07,307.19,287.401,307.644,283.616,307.644z"/>
	<path style="fill:#FFE15A;" d="M328.63,212.27l3.879,9.824l10.099-3.093c0.561-0.172,1.043,0.433,0.75,0.941l-5.262,9.158   l8.715,5.967c0.484,0.331,0.312,1.085-0.268,1.173l-10.441,1.596l0.768,10.534c0.043,0.585-0.653,0.92-1.084,0.522l-7.756-7.168   l-7.756,7.168c-0.431,0.398-1.127,0.063-1.084-0.522l0.768-10.534l-10.441-1.596c-0.58-0.088-0.751-0.842-0.268-1.173l8.715-5.967   l-5.262-9.158c-0.292-0.509,0.189-1.112,0.75-0.941l10.099,3.093l3.879-9.824C327.642,211.725,328.414,211.725,328.63,212.27z"/>
	<path style="fill:#FFE15A;" d="M469.871,185.786l3.879,9.824l10.099-3.093c0.561-0.172,1.043,0.433,0.75,0.941l-5.262,9.158   l8.715,5.967c0.484,0.331,0.312,1.085-0.268,1.173l-10.441,1.596l0.768,10.534c0.043,0.585-0.653,0.92-1.084,0.522l-7.756-7.168   l-7.756,7.168c-0.431,0.398-1.127,0.063-1.084-0.522l0.768-10.534l-10.441-1.596c-0.58-0.088-0.751-0.842-0.268-1.173l8.715-5.967   l-5.262-9.158c-0.292-0.509,0.189-1.112,0.75-0.941l10.099,3.093l3.879-9.824C468.884,185.242,469.656,185.242,469.871,185.786z"/>
	<path style="fill:#FFE15A;" d="M399.251,122.101l3.879,9.824l10.099-3.093c0.561-0.172,1.043,0.433,0.75,0.941l-5.262,9.158   l8.715,5.967c0.484,0.331,0.312,1.085-0.268,1.173l-10.441,1.596l0.768,10.534c0.043,0.585-0.653,0.92-1.084,0.522l-7.756-7.168   l-7.756,7.168c-0.431,0.398-1.127,0.063-1.084-0.522l0.768-10.534l-10.441-1.596c-0.58-0.088-0.751-0.842-0.268-1.173l8.715-5.967   l-5.262-9.158c-0.292-0.509,0.189-1.112,0.75-0.941l10.099,3.093l3.879-9.824C398.263,121.556,399.035,121.556,399.251,122.101z"/>
	<path style="fill:#FFE15A;" d="M399.251,353.512l3.879,9.824l10.099-3.093c0.561-0.172,1.043,0.433,0.75,0.941l-5.262,9.158   l8.715,5.967c0.484,0.331,0.312,1.085-0.268,1.173l-10.441,1.596l0.768,10.534c0.043,0.585-0.653,0.92-1.084,0.522l-7.756-7.168   l-7.756,7.168c-0.431,0.398-1.127,0.063-1.084-0.522l0.768-10.534l-10.441-1.596c-0.58-0.088-0.751-0.842-0.268-1.173l8.715-5.967   l-5.262-9.158c-0.292-0.509,0.189-1.112,0.75-0.941l10.099,3.093l3.879-9.824C398.263,352.967,399.035,352.967,399.251,353.512z"/>
	<path style="fill:#FFE15A;" d="M428.156,221.16l2.708,8.118l8.557,0.066c0.663,0.006,0.938,0.851,0.405,1.245l-6.884,5.084   l2.581,8.159c0.2,0.632-0.52,1.155-1.059,0.769l-6.963-4.977l-6.963,4.977c-0.54,0.385-1.259-0.137-1.059-0.769l2.581-8.159   l-6.884-5.084c-0.533-0.394-0.258-1.24,0.405-1.245l8.557-0.066l2.708-8.118C427.057,220.531,427.947,220.531,428.156,221.16z"/>
	<circle style="fill:#FFE15A;" cx="92.69" cy="180.969" r="57.38"/>
</g>
<path style="fill:#964B50;" d="M86.787,225.667h15.496c0,0,8.804-39.444,0.704-53.532l-4.93,3.169  C98.057,175.307,106.157,202.423,86.787,225.667z"/>
<path style="fill:#73AF00;" d="M87.373,173.897c0,0-8.921,6.104-6.104,24.183c0,0,6.808-5.635,10.566-18.079  c0,0-5.4,10.331,2.113,18.548c0,0,7.982-11.27,6.808-21.131c0,0,26.539,27.714,20.896,20.661  c-0.939-1.174,1.409-12.914-7.748-22.539c0,0,15.027,3.756,20.661,2.348c0,0,0.47-11.975-13.853-14.088l3.287-9.391  c0,0-11.035-0.704-16.905,4.93c0,0-1.409-14.557,4.461-21.6c0,0-17.374-2.583-18.079,20.192c0,0-6.339-14.557-25.826-11.035  c0,0,11.035,7.982,12.914,11.505c0,0-15.496-10.566-22.774,4.226c0,0,12.444-3.287,16.905,2.583c0,0-19.957-2.113-21.6,15.027  C53.095,180.236,71.644,171.549,87.373,173.897z"/>
<g>
</g>
<g>
</g>
<g>
</g>
<g>
</g>
<g>
</g>
<g>
</g>
<g>
</g>
<g>
</g>
<g>
</g>
<g>
</g>
<g>
</g>
<g>
</g>
<g>
</g>
<g>
</g>
<g>
</g>
</svg>
