<?xml version="1.0" encoding="iso-8859-1"?>
<!-- Generator: Adobe Illustrator 19.0.0, SVG Export Plug-In . SVG Version: 6.00 Build 0)  -->
<svg xmlns="http://www.w3.org/2000/svg" xmlns:xlink="http://www.w3.org/1999/xlink" version="1.1" id="Layer_1" x="0px" y="0px" viewBox="0 0 512 512" style="enable-background:new 0 0 512 512;" xml:space="preserve">
<path style="fill:#82AFFF;" d="M473.655,423.724H38.345C17.167,423.724,0,406.557,0,385.379V126.621  c0-21.177,17.167-38.345,38.345-38.345h435.31c21.177,0,38.345,17.167,38.345,38.345V385.38  C512,406.557,494.833,423.724,473.655,423.724z"/>
<g>
	<path style="fill:#FFE15A;" d="M477.496,88.468L0,335.448v17.655l496.865-257C491.379,91.925,484.736,89.188,477.496,88.468z"/>
	<path style="fill:#FFE15A;" d="M34.504,423.532L512,176.552v-17.655l-496.865,257C20.621,420.075,27.264,422.812,34.504,423.532z"/>
</g>
<path style="fill:#FF4B55;" d="M496.865,96.104L0,353.103v32.276c0,12.451,5.939,23.512,15.135,30.517l496.865-257V126.62  C512,114.169,506.061,103.108,496.865,96.104z"/>
<path style="fill:#FFE15A;" d="M92.619,122.978l12.718,38.135l40.199,0.311c2.248,0.018,3.18,2.886,1.372,4.222l-32.339,23.881  l12.126,38.328c0.678,2.143-1.762,3.916-3.591,2.609l-32.705-23.377l-32.705,23.377c-1.828,1.308-4.269-0.466-3.591-2.609  l12.126-38.328L33.89,165.646c-1.809-1.335-0.876-4.204,1.372-4.222l40.199-0.311l12.718-38.135  C88.892,120.846,91.907,120.846,92.619,122.978z"/>
<g>
</g>
<g>
</g>
<g>
</g>
<g>
</g>
<g>
</g>
<g>
</g>
<g>
</g>
<g>
</g>
<g>
</g>
<g>
</g>
<g>
</g>
<g>
</g>
<g>
</g>
<g>
</g>
<g>
</g>
</svg>
