<?xml version="1.0" encoding="iso-8859-1"?>
<!-- Generator: Adobe Illustrator 19.0.0, SVG Export Plug-In . SVG Version: 6.00 Build 0)  -->
<svg xmlns="http://www.w3.org/2000/svg" xmlns:xlink="http://www.w3.org/1999/xlink" version="1.1" id="Layer_1" x="0px" y="0px" viewBox="0 0 512 512" style="enable-background:new 0 0 512 512;" xml:space="preserve">
<path style="fill:#FFE15A;" d="M0,385.378c0,21.177,17.167,38.345,38.345,38.345h435.311c21.165,0,38.324-17.148,38.344-38.307  v-45.555H0V385.378z"/>
<rect y="255.996" style="fill:#73AF00;" width="512" height="83.86"/>
<rect y="172.136" style="fill:#F5F5F5;" width="512" height="83.86"/>
<path style="fill:#41479B;" d="M473.656,88.273H38.345C17.167,88.273,0,105.44,0,126.618v45.517h512v-45.555  C511.98,105.421,494.821,88.273,473.656,88.273z"/>
<rect x="214.07" y="88.276" style="fill:#FF4B55;" width="83.86" height="335.45"/>
<path style="fill:#FFE15A;" d="M76.499,99.57l7.366,22.087l23.282,0.181c1.804,0.014,2.551,2.316,1.1,3.388l-18.73,13.83  l7.022,22.198c0.544,1.719-1.414,3.143-2.881,2.093l-18.941-13.538l-18.941,13.538c-1.468,1.049-3.425-0.374-2.881-2.093  l7.022-22.198L41.19,125.225c-1.451-1.071-0.703-3.373,1.1-3.388l23.282-0.181l7.366-22.087  C73.507,97.859,75.928,97.859,76.499,99.57z"/>
<g>
</g>
<g>
</g>
<g>
</g>
<g>
</g>
<g>
</g>
<g>
</g>
<g>
</g>
<g>
</g>
<g>
</g>
<g>
</g>
<g>
</g>
<g>
</g>
<g>
</g>
<g>
</g>
<g>
</g>
</svg>
