<?xml version="1.0" encoding="iso-8859-1"?>
<!-- Generator: Adobe Illustrator 19.0.0, SVG Export Plug-In . SVG Version: 6.00 Build 0)  -->
<svg xmlns="http://www.w3.org/2000/svg" xmlns:xlink="http://www.w3.org/1999/xlink" version="1.1" id="Layer_1" x="0px" y="0px" viewBox="0 0 512 512" style="enable-background:new 0 0 512 512;" xml:space="preserve">
<path style="fill:#FF4B55;" d="M473.655,423.724H38.345C17.167,423.724,0,406.557,0,385.379V126.621  c0-21.177,17.167-38.345,38.345-38.345h435.31c21.177,0,38.345,17.167,38.345,38.345V385.38  C512,406.557,494.833,423.724,473.655,423.724z"/>
<path style="fill:#F5F5F5;" d="M353.103,220.69H291.31v-61.793c0-4.875-3.953-8.828-8.828-8.828h-52.966  c-4.875,0-8.828,3.953-8.828,8.828v61.793h-61.793c-4.875,0-8.828,3.953-8.828,8.828v52.966c0,4.875,3.953,8.828,8.828,8.828h61.793  v61.793c0,4.875,3.953,8.828,8.828,8.828h52.966c4.875,0,8.828-3.953,8.828-8.828V291.31h61.793c4.875,0,8.828-3.953,8.828-8.828  v-52.966C361.931,224.642,357.978,220.69,353.103,220.69z"/>
<g>
</g>
<g>
</g>
<g>
</g>
<g>
</g>
<g>
</g>
<g>
</g>
<g>
</g>
<g>
</g>
<g>
</g>
<g>
</g>
<g>
</g>
<g>
</g>
<g>
</g>
<g>
</g>
<g>
</g>
</svg>
