<?xml version="1.0" encoding="iso-8859-1"?>
<!-- Generator: Adobe Illustrator 19.0.0, SVG Export Plug-In . SVG Version: 6.00 Build 0)  -->
<svg xmlns="http://www.w3.org/2000/svg" xmlns:xlink="http://www.w3.org/1999/xlink" version="1.1" id="Layer_1" x="0px" y="0px" viewBox="0 0 512 512" style="enable-background:new 0 0 512 512;" xml:space="preserve">
<path style="fill:#73AF00;" d="M38.345,423.721h132.322V88.273H38.345C17.167,88.273,0,105.44,0,126.618v258.759  C0,406.554,17.167,423.721,38.345,423.721z"/>
<rect x="170.67" y="88.277" style="fill:#FF4B55;" width="170.67" height="335.45"/>
<g>
	<path style="fill:#FFE15A;" d="M473.655,423.721c21.177,0,38.345-17.167,38.345-38.345V126.618   c0-21.177-17.167-38.345-38.345-38.345H341.334v335.448H473.655z"/>
	<path style="fill:#FFE15A;" d="M257.834,223.641l7.584,22.741l23.971,0.185c1.857,0.014,2.627,2.385,1.133,3.488l-19.284,14.24   l7.231,22.856c0.561,1.771-1.455,3.235-2.967,2.155L256,275.366l-19.502,13.94c-1.511,1.08-3.527-0.385-2.967-2.155l7.231-22.856   l-19.284-14.24c-1.494-1.103-0.724-3.474,1.133-3.488l23.971-0.185l7.584-22.741C254.754,221.879,257.246,221.879,257.834,223.641z   "/>
</g>
<g>
</g>
<g>
</g>
<g>
</g>
<g>
</g>
<g>
</g>
<g>
</g>
<g>
</g>
<g>
</g>
<g>
</g>
<g>
</g>
<g>
</g>
<g>
</g>
<g>
</g>
<g>
</g>
<g>
</g>
</svg>
