<?xml version="1.0" encoding="iso-8859-1"?>
<!-- Generator: Adobe Illustrator 19.0.0, SVG Export Plug-In . SVG Version: 6.00 Build 0)  -->
<svg xmlns="http://www.w3.org/2000/svg" xmlns:xlink="http://www.w3.org/1999/xlink" version="1.1" id="Layer_1" x="0px" y="0px" viewBox="0 0 512 512" style="enable-background:new 0 0 512 512;" xml:space="preserve">
<path style="fill:#41479B;" d="M473.885,88.279H38.115C17.045,88.403,0,105.517,0,126.617v258.759  c0,21.177,17.167,38.345,38.345,38.345h435.31c21.177,0,38.345-17.167,38.345-38.345V126.617  C512,105.517,494.955,88.403,473.885,88.279z"/>
<rect y="317.79" style="fill:#FFE15A;" width="512" height="44.14"/>
<g>
	<path style="fill:#F5F5F5;" d="M118.945,170.87l-8.683,26.034l-27.443,0.213c-2.632,0.02-3.723,3.379-1.606,4.942l22.077,16.302   l-8.278,26.165c-0.793,2.509,2.063,4.585,4.204,3.054l22.327-15.958l22.327,15.958c2.141,1.53,4.998-0.545,4.204-3.054   l-8.278-26.165l22.077-16.302c2.118-1.564,1.026-4.921-1.606-4.942l-27.443-0.213l-8.683-26.034   C123.309,168.373,119.778,168.373,118.945,170.87z"/>
	<path style="fill:#F5F5F5;" d="M56.393,122.828l-5.025,15.069l-15.884,0.124c-1.523,0.012-2.155,1.955-0.929,2.86l12.778,9.436   l-4.791,15.145c-0.459,1.452,1.194,2.654,2.433,1.768l12.922-9.237l12.922,9.237c1.239,0.886,2.893-0.316,2.433-1.768   l-4.791-15.145l12.778-9.436c1.225-0.905,0.594-2.849-0.929-2.86l-15.884-0.124l-5.025-15.069   C58.919,121.383,56.875,121.383,56.393,122.828z"/>
</g>
<g>
</g>
<g>
</g>
<g>
</g>
<g>
</g>
<g>
</g>
<g>
</g>
<g>
</g>
<g>
</g>
<g>
</g>
<g>
</g>
<g>
</g>
<g>
</g>
<g>
</g>
<g>
</g>
<g>
</g>
</svg>
