<?xml version="1.0" encoding="iso-8859-1"?>
<!-- Generator: Adobe Illustrator 19.0.0, SVG Export Plug-In . SVG Version: 6.00 Build 0)  -->
<svg xmlns="http://www.w3.org/2000/svg" xmlns:xlink="http://www.w3.org/1999/xlink" version="1.1" id="Layer_1" x="0px" y="0px" viewBox="0 0 512 512" style="enable-background:new 0 0 512 512;" xml:space="preserve">
<path style="fill:#41479B;" d="M38.345,423.724h435.31c9.386,0,17.98-3.378,24.644-8.977L13.7,97.251  C5.326,104.286,0,114.829,0,126.621V385.38C0,406.557,17.167,423.724,38.345,423.724z"/>
<path style="fill:#73AF00;" d="M512,385.379V126.621c0-21.177-17.167-38.345-38.345-38.345H38.345  c-9.386,0-17.98,3.377-24.644,8.975l484.6,317.496C506.674,407.714,512,397.171,512,385.379z"/>
<circle style="fill:#FFE15A;" cx="256" cy="256" r="52.966"/>
<g>
	<path style="fill:#F5F5F5;" d="M38.615,256.597l3.064,7.761l7.978-2.443c0.444-0.136,0.823,0.341,0.593,0.744l-4.158,7.234   l6.884,4.714c0.383,0.262,0.247,0.856-0.212,0.927l-8.248,1.26l0.607,8.321c0.034,0.462-0.516,0.727-0.856,0.413l-6.127-5.663   l-6.127,5.663c-0.34,0.314-0.89,0.05-0.856-0.413l0.607-8.321l-8.248-1.26c-0.458-0.07-0.594-0.665-0.212-0.927l6.884-4.714   l-4.158-7.234c-0.231-0.402,0.149-0.879,0.593-0.744l7.978,2.443l3.064-7.761C37.834,256.165,38.444,256.165,38.615,256.597z"/>
	<path style="fill:#F5F5F5;" d="M150.193,235.676l3.064,7.761l7.978-2.443c0.444-0.136,0.823,0.341,0.593,0.744l-4.158,7.234   l6.884,4.714c0.383,0.262,0.247,0.856-0.212,0.927l-8.248,1.26l0.607,8.321c0.034,0.462-0.516,0.727-0.856,0.413l-6.127-5.663   l-6.127,5.663c-0.341,0.314-0.89,0.05-0.856-0.413l0.607-8.321l-8.248-1.26c-0.458-0.07-0.594-0.665-0.212-0.927l6.884-4.714   l-4.158-7.234c-0.231-0.402,0.149-0.879,0.593-0.744l7.978,2.443l3.064-7.761C149.412,235.245,150.023,235.245,150.193,235.676z"/>
	<path style="fill:#F5F5F5;" d="M94.403,185.366l3.064,7.761l7.978-2.443c0.444-0.136,0.823,0.341,0.593,0.744l-4.158,7.234   l6.884,4.714c0.383,0.262,0.247,0.856-0.212,0.927l-8.248,1.26l0.607,8.321c0.034,0.462-0.516,0.727-0.856,0.413l-6.127-5.663   l-6.127,5.663c-0.34,0.314-0.89,0.05-0.856-0.413l0.607-8.321l-8.248-1.26c-0.458-0.07-0.594-0.665-0.212-0.927l6.884-4.714   l-4.158-7.234c-0.231-0.402,0.149-0.879,0.593-0.744l7.978,2.443l3.064-7.761C93.623,184.935,94.233,184.935,94.403,185.366z"/>
	<path style="fill:#F5F5F5;" d="M94.403,368.175l3.064,7.761l7.978-2.443c0.444-0.136,0.823,0.341,0.593,0.743l-4.158,7.234   l6.884,4.714c0.383,0.262,0.247,0.856-0.212,0.927l-8.248,1.26l0.607,8.321c0.034,0.462-0.516,0.727-0.856,0.413l-6.127-5.663   l-6.127,5.663c-0.34,0.314-0.89,0.05-0.856-0.413l0.607-8.321l-8.248-1.26c-0.458-0.07-0.594-0.665-0.212-0.927l6.884-4.714   l-4.158-7.234c-0.231-0.402,0.149-0.879,0.593-0.743l7.978,2.443l3.064-7.761C93.623,367.744,94.233,367.744,94.403,368.175z"/>
	<path style="fill:#F5F5F5;" d="M117.239,263.62l2.138,6.413l6.761,0.053c0.524,0.004,0.74,0.672,0.32,0.983l-5.439,4.017   l2.039,6.445c0.158,0.5-0.41,0.913-0.836,0.608l-5.5-3.932l-5.5,3.932c-0.426,0.305-0.994-0.108-0.836-0.608l2.039-6.445   l-5.439-4.017c-0.422-0.311-0.204-0.98,0.32-0.983l6.761-0.053l2.138-6.413C116.371,263.123,117.074,263.123,117.239,263.62z"/>
</g>
<path style="fill:#73AF00;" d="M224.575,233.216c-2.166-0.505-4.343,5.067-1.93,6.997c2.413,1.93,6.756,5.549,4.102,7.721  c-2.654,2.172-3.619,2.413-4.102,5.067c-0.482,2.654,0,3.137-2.172,4.343s-7.239,3.619-5.067,6.033  c2.172,2.413,5.067,0.966,6.997-2.895c0,0,13.512-0.482,13.995,0.482c0.482,0.966,1.689,4.585,4.585,3.619  c2.895-0.966,2.895-0.966,2.895-0.966s1.689-0.724,2.895,0.724c1.206,1.448,4.102,1.93,7.48,1.93c3.379,0,6.273,1.93,6.033,6.515  c-0.154,2.937-0.904,9.043-1.421,13.052c-0.277,2.147,1.195,4.122,3.33,4.478l6.178,1.03c1.625,0.27,3.136-0.889,3.281-2.53  c0.29-3.3,0.711-8.137,0.697-8.308c-0.139-1.735,3.378-10.616,3.137-14.719c-0.242-4.102-0.242-4.102-0.242-4.102  s3.619-0.482,5.067-2.895s4.585-8.445,10.858-10.616l1.689-4.102c0,0-4.825-2.172-3.861-3.619c0.966-1.448,1.448-5.309,0.724-8.445  s-0.966-7.48-0.966-7.48s-1.72-0.727-2.083,0.273s-0.727,1.544-1.635,1.363c-0.908-0.182-2.271-0.273-2.634-1.09  s-1.363-1.635-2.271-1.181c-0.908,0.455-2.453,6.54-4.632,7.176c0,0-0.182-2.634-1.544-2.089s-1.272,1.816-1.453,4.087  c-0.181,2.271-15.443,17.622-28.796,13.535c0,0-1.453-2.906-4.451-2.634s-5.905,0.182-7.63-1.908  C229.9,239.971,227.151,233.817,224.575,233.216z"/>
<path style="fill:#FFE15A;" d="M322.837,258.457c4.024,4.276,48.239,16.317,92.932-7.094s71.295-30.15,71.295-30.15  s0.354-6.03,5.853-6.916c5.497-0.887,2.838-3.192,1.419-4.966c-1.419-1.773-8.335-6.562-17.736-2.483c0,0-10.936,0.414-12.591-14.72  s-2.365-30.505-6.148-37.126c-3.784-6.621-34.997-39.726-38.781-37.126c-3.784,2.601,9.459,35.47,21.756,47.058  c0,0,2.838,20.337-0.71,21.282c-3.548,0.946-23.174-17.026-58.172-21.282c0,0,14.898,20.337,33.106,28.85  s23.174,16.317,22.701,19.627c-0.473,3.31-6.621,19.154-16.789,26.485c-10.168,7.33-35.707,27.193-93.642,16.789  C327.33,256.684,320.946,256.447,322.837,258.457z"/>
<g>
</g>
<g>
</g>
<g>
</g>
<g>
</g>
<g>
</g>
<g>
</g>
<g>
</g>
<g>
</g>
<g>
</g>
<g>
</g>
<g>
</g>
<g>
</g>
<g>
</g>
<g>
</g>
<g>
</g>
</svg>
