<?xml version="1.0" encoding="iso-8859-1"?>
<!-- Generator: Adobe Illustrator 19.0.0, SVG Export Plug-In . SVG Version: 6.00 Build 0)  -->
<svg xmlns="http://www.w3.org/2000/svg" xmlns:xlink="http://www.w3.org/1999/xlink" version="1.1" id="Layer_1" x="0px" y="0px" viewBox="0 0 512 512" style="enable-background:new 0 0 512 512;" xml:space="preserve">
<path style="fill:#F5F5F5;" d="M13.696,97.252C5.325,104.286,0,114.828,0,126.617v258.759c0,11.794,5.329,22.338,13.704,29.373  L256,256.003L13.696,97.252z"/>
<path style="fill:#73AF00;" d="M13.704,414.749c6.665,5.597,15.257,8.972,24.641,8.972h435.31c21.177,0,38.345-17.167,38.345-38.345  V256.003H256L13.704,414.749z"/>
<path style="fill:#82AFFF;" d="M473.885,88.279H38.115c-9.298,0.055-17.809,3.418-24.419,8.973L256,256.003h256V126.617  C512,105.517,494.955,88.403,473.885,88.279z"/>
<path style="fill:#FF4B55;" d="M91.766,216.137l-8.94,26.806l-28.257,0.22c-1.549,0.012-2.191,1.99-0.946,2.91l22.732,16.787  l-8.523,26.942c-0.467,1.478,1.215,2.699,2.475,1.798l22.989-16.431l22.989,16.431c1.26,0.9,2.942-0.321,2.475-1.798l-8.523-26.942  l22.732-16.787c1.246-0.92,0.604-2.898-0.946-2.91l-28.257-0.22l-8.94-26.806C94.335,214.667,92.256,214.667,91.766,216.137z"/>
<g>
</g>
<g>
</g>
<g>
</g>
<g>
</g>
<g>
</g>
<g>
</g>
<g>
</g>
<g>
</g>
<g>
</g>
<g>
</g>
<g>
</g>
<g>
</g>
<g>
</g>
<g>
</g>
<g>
</g>
</svg>
