<?xml version="1.0" encoding="iso-8859-1"?>
<!-- Generator: Adobe Illustrator 19.0.0, SVG Export Plug-In . SVG Version: 6.00 Build 0)  -->
<svg xmlns="http://www.w3.org/2000/svg" xmlns:xlink="http://www.w3.org/1999/xlink" version="1.1" id="Layer_1" x="0px" y="0px" viewBox="0 0 512.001 512.001" style="enable-background:new 0 0 512.001 512.001;" xml:space="preserve">
<path style="fill:#F5F5F5;" d="M503.172,423.724H8.828c-4.875,0-8.828-3.953-8.828-8.828V97.103c0-4.875,3.953-8.828,8.828-8.828  h494.345c4.875,0,8.828,3.953,8.828,8.828v317.793C512,419.772,508.047,423.724,503.172,423.724z"/>
<g>
	<path style="fill:#41479B;" d="M8.828,220.69h203.034c4.875,0,8.828-3.953,8.828-8.828V97.103c0-4.876-3.953-8.828-8.828-8.828   H38.345C17.167,88.276,0,105.443,0,126.621v85.241C0,216.737,3.953,220.69,8.828,220.69z"/>
	<path style="fill:#41479B;" d="M503.172,291.31H300.138c-4.875,0-8.828,3.953-8.828,8.828v114.759c0,4.875,3.953,8.828,8.828,8.828   h173.517c21.177,0,38.345-17.167,38.345-38.345v-85.241C512,295.263,508.047,291.31,503.172,291.31z"/>
</g>
<g>
	<path style="fill:#FF4B55;" d="M473.655,88.276H300.138c-4.875,0-8.828,3.951-8.828,8.828v114.759c0,4.875,3.953,8.828,8.828,8.828   h203.034c4.875,0,8.828-3.953,8.828-8.828v-85.241C512,105.443,494.833,88.276,473.655,88.276z"/>
	<path style="fill:#FF4B55;" d="M220.69,414.897V300.138c0-4.875-3.953-8.828-8.828-8.828H8.828c-4.875,0-8.828,3.953-8.828,8.828   v85.241c0,21.177,17.167,38.345,38.345,38.345h173.517C216.737,423.724,220.69,419.772,220.69,414.897z"/>
</g>
<g>
	<path style="fill:#64B496;" d="M250.932,281.171c0,0,5.274,1.931,4.586,8.552l2.132-0.04c0,0-1.345-7.651-2.457-8.568   C254.082,280.198,250.932,281.171,250.932,281.171z"/>
	<path style="fill:#64B496;" d="M256.218,280.149c-2.237,0-6.147-0.003-10.259-1.113c0.917-0.954,2.184-2.876,2.184-6.227   c0-5.248-3.616-1.9-3.616-1.9s-2.378,2.001-0.94,7.35c-1.402-0.535-2.793-1.225-4.119-2.109c0.825-1.036,2.471-3.45,3.427-7.278   c0,0-6.026-1.191-7.674,3.347c-1.01-1.281-1.874-2.722-2.595-4.317c1.549,0.019,3.71-1.003,3.71-6.901c0,0-3.935,0.007-4.988,3.42   c-0.414-1.427-0.729-2.956-0.961-4.572c1.571,0.456,5.633,0.783,5.633-8.032c0,0-4.877,0.009-6.006,4.329   c-0.062-1.105-0.086-2.247-0.075-3.425c2.368-1.238,5.636-3.965,5.297-9.56c0,0-2.249,0.51-4.31,2.239   c0.406-2.121,0.238-5.226-3.015-7.817c0,0-2.989,5.29,1.377,9.585c-0.38,0.534-0.711,1.142-0.984,1.817   c-0.981-1.494-2.554-2.883-5.088-3.727c0,0-1.166,7.085,5.449,10.049c0.157,4.138,0.804,7.794,1.916,10.973   c-1.895-1.669-3.428-3.967-3.428-3.967c0-7.872-6.453-8.071-6.453-8.071c-1.205,8.985,5.439,9.348,5.439,9.348l3.638,3.97   c-7.872-1.312-7.872,5.248-7.872,5.248c5.248,1.312,7.872-1.312,7.872-1.312l2.838,1.459c-5.034,0.147-6.774,5.101-6.774,5.101   c6.327,1.054,10.953-0.433,12.526-1.057c6.372,4.455,14.226,4.461,17.852,4.461v-1.311L256.218,280.149L256.218,280.149z"/>
	<path style="fill:#64B496;" d="M255.772,280.149c2.237,0,6.147-0.003,10.259-1.113c-0.917-0.954-2.184-2.876-2.184-6.227   c0-5.248,3.616-1.9,3.616-1.9s2.378,2.001,0.94,7.35c1.402-0.535,2.793-1.225,4.119-2.109c-0.825-1.036-2.471-3.45-3.427-7.278   c0,0,6.026-1.191,7.674,3.347c1.01-1.281,1.874-2.722,2.595-4.317c-1.549,0.019-3.71-1.003-3.71-6.901c0,0,3.935,0.007,4.988,3.42   c0.414-1.427,0.729-2.956,0.961-4.572c-1.571,0.456-5.633,0.783-5.633-8.032c0,0,4.877,0.009,6.006,4.329   c0.062-1.105,0.086-2.247,0.075-3.425c-2.368-1.238-5.636-3.965-5.297-9.56c0,0,2.249,0.51,4.311,2.239   c-0.406-2.121-0.238-5.226,3.015-7.817c0,0,2.989,5.29-1.377,9.585c0.38,0.534,0.711,1.142,0.983,1.817   c0.981-1.494,2.555-2.883,5.088-3.727c0,0,1.166,7.085-5.449,10.049c-0.157,4.138-0.804,7.794-1.916,10.973   c1.895-1.669,3.428-3.967,3.428-3.967c0-7.872,6.453-8.071,6.453-8.071c1.205,8.985-5.439,9.348-5.439,9.348l-3.638,3.97   c7.872-1.312,7.872,5.248,7.872,5.248c-5.248,1.312-7.872-1.312-7.872-1.312l-2.838,1.459c5.034,0.147,6.774,5.101,6.774,5.101   c-6.327,1.054-10.953-0.433-12.526-1.057c-6.372,4.455-14.226,4.461-17.852,4.461L255.772,280.149L255.772,280.149L255.772,280.149   z"/>
</g>
<path style="fill:#41479B;" d="M233.863,222.955c-4.614,2.957-8.681,6.722-11.958,11.167c1.408,1.038,2.816,2.077,4.224,3.115  c2.892-3.923,6.481-7.245,10.551-9.856L233.863,222.955z"/>
<path style="fill:#FF6B71;" d="M256.015,257.066h18.367v10.496c0,2.898-2.349,5.248-5.248,5.248h-7.872  c-2.156,0-4.052,1.054-5.248,2.66L256.015,257.066L256.015,257.066z"/>
<polygon style="fill:#5F64B9;" points="259.95,245.258 259.95,230.826 279.63,230.826 274.382,236.074 274.382,250.506   259.95,250.506 "/>
<rect x="267.82" y="250.5" style="fill:#F5F5F5;" width="6.56" height="6.56"/>
<path style="fill:#FF6B71;" d="M256.015,257.066h-18.368v10.496c0,2.898,2.349,5.248,5.248,5.248h7.872  c2.156,0,4.052,1.054,5.248,2.66V257.066z"/>
<path style="fill:#F5F5F5;" d="M252.735,273.126c1.309,0.418,2.439,1.233,3.25,2.307h0.06c0.812-1.074,1.942-1.888,3.25-2.307  v-10.813h-6.56L252.735,273.126L252.735,273.126z"/>
<polygon style="fill:#5F64B9;" points="252.079,245.258 252.079,230.826 232.399,230.826 237.647,236.074 237.647,250.506   252.079,250.506 "/>
<rect x="237.65" y="250.5" style="fill:#F5F5F5;" width="6.56" height="6.56"/>
<polygon style="fill:#41479B;" points="244.207,237.386 244.207,241.322 248.143,243.946 248.143,241.322 "/>
<polygon style="fill:#F5F5F5;" points="248.143,241.322 248.143,245.258 253.39,247.882 253.39,246.57 "/>
<polygon style="fill:#41479B;" points="267.822,237.386 267.822,241.322 263.886,243.946 263.886,241.322 "/>
<polygon style="fill:#F5F5F5;" points="263.886,241.322 263.886,245.258 258.638,247.882 258.638,246.57 "/>
<path style="fill:#FF4B55;" d="M263.932,266.249h-15.829c-3.597,0-6.515-2.937-6.515-6.56v-20.291l14.525,9.795l14.333-9.795v20.291  C270.446,263.313,267.53,266.249,263.932,266.249z"/>
<g>
	<polygon style="fill:#41479B;" points="246.831,242.634 241.583,238.698 241.583,253.13 246.831,255.754  "/>
	<polygon style="fill:#41479B;" points="265.198,242.634 270.446,238.698 270.446,253.13 265.198,255.754  "/>
	<rect x="248.14" y="255.76" style="fill:#41479B;" width="15.743" height="6.56"/>
</g>
<polygon style="fill:#FF4B55;" points="248.143,243.946 256.015,247.882 263.886,243.946 263.886,255.754 248.143,255.754 "/>
<g>
	<path style="fill:#F5F5F5;" d="M261.919,245.186v13.191c0,1.086-0.883,1.967-1.967,1.967h-7.872c-1.085,0-1.967-0.883-1.967-1.967   V245.24l-3.936-2.636v15.774c0,3.255,2.648,5.903,5.903,5.903h7.872c3.255,0,5.903-2.648,5.903-5.903v-15.863L261.919,245.186z"/>
	<path style="fill:#F5F5F5;" d="M263.293,254.35c-2.21,0.199-4.697,0.422-7.278,1.32c-2.581-0.898-5.068-1.121-7.278-1.32   c-3.698-0.332-5.892-0.655-7.148-2.886v3.787c1.929,1.254,4.372,1.485,6.913,1.713c2.281,0.205,4.639,0.416,7.049,1.329   l0.465,0.175l0.465-0.175c2.409-0.913,4.767-1.123,7.049-1.329c2.543-0.228,4.99-0.456,6.919-1.711v-3.798   C269.192,253.695,266.996,254.018,263.293,254.35z"/>
</g>
<polygon style="fill:#FFE15A;" points="258.638,241.978 256.671,241.978 256.671,240.01 255.359,240.01 255.359,241.978   253.39,241.978 253.39,243.29 255.359,243.29 255.359,249.194 256.671,249.194 256.671,243.29 258.638,243.29 "/>
<rect x="248.7" y="233.999" transform="matrix(0.7071 -0.7071 0.7071 0.7071 -98.2347 247.1414)" style="fill:#464655;" width="1.018" height="16.304"/>
<polygon style="fill:#FFE15A;" points="241.278,234.22 242.719,237.102 244.16,235.661 "/>
<rect x="250.323" y="232.894" transform="matrix(0.8083 -0.5888 0.5888 0.8083 -93.8374 193.8997)" style="fill:#464655;" width="1.019" height="16.305"/>
<polygon style="fill:#FFE15A;" points="244.227,231.982 245.204,235.054 246.851,233.854 "/>
<rect x="247.394" y="235.351" transform="matrix(0.5725 -0.8199 0.8199 0.5725 -93.6706 307.353)" style="fill:#464655;" width="1.018" height="16.303"/>
<polygon style="fill:#FFE15A;" points="238.71,237.108 240.633,239.693 241.8,238.023 "/>
<rect x="262.312" y="233.986" transform="matrix(-0.7071 -0.7071 0.7071 -0.7071 277.4453 599.1984)" style="fill:#464655;" width="1.018" height="16.304"/>
<polygon style="fill:#FFE15A;" points="270.745,234.22 269.304,237.102 267.863,235.661 "/>
<rect x="260.688" y="232.889" transform="matrix(-0.8083 -0.5888 0.5888 -0.8083 330.3981 589.6617)" style="fill:#464655;" width="1.019" height="16.304"/>
<polygon style="fill:#FFE15A;" points="267.796,231.982 266.819,235.054 265.173,233.854 "/>
<rect x="263.629" y="235.378" transform="matrix(-0.5725 -0.8199 0.8199 -0.5725 215.6869 599.5189)" style="fill:#464655;" width="1.018" height="16.303"/>
<polygon style="fill:#FFE15A;" points="273.313,237.108 271.39,239.693 270.223,238.023 "/>
<path style="fill:#F5F5F5;" d="M255.349,272.436c0,0-5.074-5.449-4.089-10.451c0.791-4.023,3.192-8.458,5.071-9.537  c0,0,2.657-0.164,1.991,2.145c-0.666,2.308-1.478,2.903-1.24,5.178C257.491,263.708,258.126,268.374,255.349,272.436z"/>
<path style="fill:#41479B;" d="M256.888,252.477c-0.317-0.042-0.558-0.028-0.558-0.028c-1.879,1.079-4.28,5.514-5.071,9.537  c-0.448,2.275,0.361,4.638,1.373,6.543C251.991,260.281,254.399,257.355,256.888,252.477z"/>
<path style="fill:#FF4B55;" d="M257.081,259.772c-0.237-2.274,0.574-2.87,1.24-5.178c0.467-1.615-0.693-2.019-1.432-2.116  c0,0-1.694,3.892-1.803,6.503c-0.096,2.297,0.492,11.644,0.264,13.458C258.126,268.374,257.491,263.708,257.081,259.772z"/>
<path style="fill:#F5F0F0;" d="M253.639,254.423c1.057-1.031,2.543-1.492,3.998-1.242c-0.69-2.221-1.38-4.442-2.07-6.664  c-1.454-0.249-2.941,0.212-3.999,1.242C252.258,249.981,252.949,252.202,253.639,254.423z"/>
<path style="fill:#F5F5F5;" d="M257.638,253.181c1.057-1.031,2.543-1.492,3.999-1.242c-0.69-2.221-1.38-4.442-2.07-6.664  c-1.454-0.249-2.941,0.212-3.999,1.242C256.257,248.738,256.947,250.959,257.638,253.181z"/>
<path style="fill:#5F64B9;" d="M250.022,224.354c-7.122-0.164-14.156,1.587-20.37,5.07c-0.855-1.526-1.711-3.052-2.567-4.577  c7.033-3.944,14.996-5.926,23.058-5.74C250.102,220.856,250.061,222.605,250.022,224.354z"/>
<path style="fill:#41479B;" d="M278.167,222.955c4.614,2.957,8.681,6.722,11.958,11.167c-1.408,1.038-2.816,2.077-4.224,3.115  c-2.892-3.923-6.481-7.245-10.551-9.856L278.167,222.955z"/>
<path style="fill:#5F64B9;" d="M262.008,224.354c7.122-0.164,14.156,1.587,20.37,5.07c0.855-1.526,1.711-3.052,2.567-4.577  c-7.033-3.944-14.996-5.926-23.058-5.74C261.928,220.856,261.969,222.605,262.008,224.354z"/>
<path style="fill:#41479B;" d="M266.51,222.955c-6.871-1.88-14.121-1.88-20.991,0c-0.461-1.687-0.924-3.374-1.385-5.062  c7.777-2.127,15.983-2.127,23.761,0C267.434,219.58,266.972,221.267,266.51,222.955z"/>
<g>
	<path style="fill:#FF6B71;" d="M238.432,281.757c-5.663,1.479-11.199,3.474-16.529,5.985c0.746,1.582,1.492,3.165,2.237,4.747   c5.143-2.424,10.489-4.337,15.96-5.742L238.432,281.757z"/>
	<path style="fill:#FF6B71;" d="M273.598,281.757c5.663,1.479,11.199,3.474,16.529,5.985c-0.746,1.582-1.492,3.165-2.237,4.747   c-5.143-2.424-10.489-4.337-15.96-5.742L273.598,281.757z"/>
</g>
<g>
	<path style="fill:#FF4B55;" d="M277.119,285.815c-13.799-3.313-28.184-3.313-41.983,0c-0.408-1.702-0.817-3.402-1.225-5.102   c14.603-3.506,29.83-3.506,44.433,0C277.937,282.413,277.528,284.115,277.119,285.815z"/>
	<path style="fill:#FF4B55;" d="M256.015,287.241l-3.618,0.905c-0.828,0.207-1.63-0.419-1.63-1.272v-1.887   c0-0.853,0.802-1.48,1.63-1.273l3.618,0.905V287.241z"/>
	<path style="fill:#FF4B55;" d="M256.015,284.617l3.618-0.905c0.828-0.207,1.63,0.419,1.63,1.273v1.887   c0,0.853-0.802,1.48-1.63,1.272l-3.618-0.905V284.617z"/>
</g>
<path style="fill:#FF6B71;" d="M256.296,287.241h-0.563c-0.569,0-1.031-0.461-1.031-1.031v-0.563c0-0.569,0.461-1.031,1.031-1.031  h0.563c0.569,0,1.031,0.461,1.031,1.031v0.563C257.326,286.78,256.865,287.241,256.296,287.241z"/>
<g>
</g>
<g>
</g>
<g>
</g>
<g>
</g>
<g>
</g>
<g>
</g>
<g>
</g>
<g>
</g>
<g>
</g>
<g>
</g>
<g>
</g>
<g>
</g>
<g>
</g>
<g>
</g>
<g>
</g>
</svg>
