<?xml version="1.0" encoding="iso-8859-1"?>
<!-- Generator: Adobe Illustrator 19.0.0, SVG Export Plug-In . SVG Version: 6.00 Build 0)  -->
<svg xmlns="http://www.w3.org/2000/svg" xmlns:xlink="http://www.w3.org/1999/xlink" version="1.1" id="Layer_1" x="0px" y="0px" viewBox="0 0 512 512" style="enable-background:new 0 0 512 512;" xml:space="preserve">
<path style="fill:#73AF00;" d="M38.345,423.724H256V88.276H38.345C17.167,88.276,0,105.443,0,126.621V385.38  C0,406.557,17.167,423.724,38.345,423.724z"/>
<path style="fill:#F5F5F5;" d="M473.655,423.724c21.177,0,38.345-17.167,38.345-38.345V126.621  c0-21.177-17.167-38.345-38.345-38.345H256v335.448H473.655z"/>
<g>
	<path style="fill:#FF4B55;" d="M298.609,223.906l-15.305,20.021l-23.897-7.999c-1.336-0.447-2.473,1.064-1.673,2.223l14.312,20.743   l-14.993,20.256c-0.839,1.132,0.247,2.68,1.598,2.278l24.15-7.202l14.632,20.519c0.818,1.148,2.626,0.593,2.66-0.815l0.613-25.194   l24.035-7.575c1.344-0.424,1.375-2.314,0.046-2.782l-23.77-8.369l0.223-25.201C301.252,223.401,299.464,222.786,298.609,223.906z"/>
	<path style="fill:#FF4B55;" d="M271.866,316.63c-33.459,0-60.6-27.142-60.6-60.631c0-33.428,27.142-60.63,60.6-60.63   c12.448,0,23.928,3.829,33.495,10.308c1.465,0.992,3.137-0.932,1.91-2.208c-14.298-14.866-34.535-23.934-56.971-23.168   c-38.548,1.315-70.46,32.222-72.922,70.713c-2.822,44.089,32.089,80.728,75.554,80.728c21.41,0,40.652-8.951,54.393-23.262   c1.214-1.265-0.462-3.16-1.912-2.177C295.836,312.797,284.337,316.63,271.866,316.63z"/>
</g>
<g>
</g>
<g>
</g>
<g>
</g>
<g>
</g>
<g>
</g>
<g>
</g>
<g>
</g>
<g>
</g>
<g>
</g>
<g>
</g>
<g>
</g>
<g>
</g>
<g>
</g>
<g>
</g>
<g>
</g>
</svg>
