<?xml version="1.0" encoding="iso-8859-1"?>
<!-- Generator: Adobe Illustrator 19.0.0, SVG Export Plug-In . SVG Version: 6.00 Build 0)  -->
<svg xmlns="http://www.w3.org/2000/svg" xmlns:xlink="http://www.w3.org/1999/xlink" version="1.1" id="Layer_1" x="0px" y="0px" viewBox="0 0 512 512" style="enable-background:new 0 0 512 512;" xml:space="preserve">
<path style="fill:#FF4B55;" d="M473.655,88.276H38.345C17.167,88.276,0,105.443,0,126.621v73.471h512v-73.471  C512,105.443,494.833,88.276,473.655,88.276z"/>
<path style="fill:#464655;" d="M0,385.379c0,21.177,17.167,38.345,38.345,38.345h435.31c21.177,0,38.345-17.167,38.345-38.345  v-73.471H0V385.379z"/>
<rect y="200.09" style="fill:#F5F5F5;" width="512" height="111.81"/>
<path style="fill:#F0C727;" d="M284.186,238.57c0-4.377-4.289-7.469-8.441-6.084l-7.804,2.601l-1.895-11.443  c-1.133-6.827-6.983-11.782-13.906-11.782h-7.299l-7.634,9.396h10.109l-2.829,13.972l-8.233-2.744  c-4.153-1.385-8.441,1.707-8.441,6.084v47.475l11.363-11.363l-5.354,16.061h-6.008v9.396h56.373v-9.396h-6.008l-5.354-16.061  l11.363,11.363V238.57H284.186z M251.303,290.742h-7.574l5.208-13.909l2.366,3.021L251.303,290.742L251.303,290.742z   M260.697,290.742v-10.888l2.366-3.021l5.208,13.909H260.697z M256,273.713c0,0-14.534-9.836-13.946-28.186  c0,0,8.956-1.468,13.946-9.396c4.991,7.927,13.947,9.396,13.947,9.396C270.534,263.878,256,273.713,256,273.713z"/>
<g>
</g>
<g>
</g>
<g>
</g>
<g>
</g>
<g>
</g>
<g>
</g>
<g>
</g>
<g>
</g>
<g>
</g>
<g>
</g>
<g>
</g>
<g>
</g>
<g>
</g>
<g>
</g>
<g>
</g>
</svg>
