<?xml version="1.0" encoding="iso-8859-1"?>
<!-- Generator: Adobe Illustrator 19.0.0, SVG Export Plug-In . SVG Version: 6.00 Build 0)  -->
<svg xmlns="http://www.w3.org/2000/svg" xmlns:xlink="http://www.w3.org/1999/xlink" version="1.1" id="Layer_1" x="0px" y="0px" viewBox="0 0 512.001 512.001" style="enable-background:new 0 0 512.001 512.001;" xml:space="preserve">
<path style="fill:#464655;" d="M512,200.093H0V97.104c0-4.875,3.953-8.828,8.828-8.828h494.345c4.875,0,8.828,3.953,8.828,8.828  L512,200.093L512,200.093z"/>
<path style="fill:#73AF00;" d="M503.172,423.725H8.828c-4.875,0-8.828-3.953-8.828-8.828V311.909h512v102.988  C512,419.773,508.047,423.725,503.172,423.725z"/>
<rect y="200.091" style="fill:#F5F5F5;" width="512" height="111.81"/>
<g>
	<path style="fill:#FF4B55;" d="M12.828,413.994l193.27-153.418c2.946-2.338,2.946-6.812,0-9.15L12.828,98.008   C4.959,105.031,0,115.245,0,126.622v258.759C0,396.757,4.959,406.971,12.828,413.994z"/>
	<path style="fill:#FF4B55;" d="M264.957,256.001c0-20.136,13.151-37.194,31.33-43.068c1.045-0.338,0.908-1.867-0.184-1.974   c-3.49-0.343-7.096-0.289-10.778,0.227c-21.354,2.997-37.828,21.055-38.858,42.593c-1.242,26.005,19.474,47.48,45.206,47.48   c1.489,0,2.959-0.074,4.41-0.215c1.097-0.107,1.24-1.641,0.191-1.98C278.102,293.186,264.957,276.131,264.957,256.001z"/>
	<path style="fill:#FF4B55;" d="M303.384,226.265l-5.946,17.83l-18.795,0.146c-2.433,0.019-3.443,3.124-1.485,4.569l15.119,11.165   l-5.67,17.92c-0.734,2.321,1.908,4.239,3.887,2.824l15.29-10.93l15.29,10.93c1.98,1.415,4.621-0.504,3.887-2.824l-5.67-17.92   l15.119-11.165c1.958-1.446,0.949-4.551-1.485-4.569l-18.795-0.146l-5.946-17.83C307.42,223.957,304.155,223.957,303.384,226.265z"/>
</g>
<g>
</g>
<g>
</g>
<g>
</g>
<g>
</g>
<g>
</g>
<g>
</g>
<g>
</g>
<g>
</g>
<g>
</g>
<g>
</g>
<g>
</g>
<g>
</g>
<g>
</g>
<g>
</g>
<g>
</g>
</svg>
