<?xml version="1.0" encoding="iso-8859-1"?>
<!-- Generator: Adobe Illustrator 19.0.0, SVG Export Plug-In . SVG Version: 6.00 Build 0)  -->
<svg xmlns="http://www.w3.org/2000/svg" xmlns:xlink="http://www.w3.org/1999/xlink" version="1.1" id="Layer_1" x="0px" y="0px" viewBox="0 0 512 512" style="enable-background:new 0 0 512 512;" xml:space="preserve">
<path style="fill:#73AF00;" d="M473.885,88.279H38.115C17.045,88.403,0,105.517,0,126.617v129.385h512V126.617  C512,105.517,494.955,88.403,473.885,88.279z"/>
<path style="fill:#4173CD;" d="M0,385.376c0,21.177,17.167,38.345,38.345,38.345h435.31c21.177,0,38.345-17.167,38.345-38.345  V256.003H0V385.376z"/>
<path style="fill:#FF4B55;" d="M0,126.617v258.759c0,13.682,7.171,25.682,17.954,32.469L512,256.003L17.942,94.157  C7.166,100.945,0,112.941,0,126.617z"/>
<path style="fill:#FFE15A;" d="M188.808,306.395c0,0,24.862-9.067,31.882-36.269c0,0-10.823,14.04-18.428,18.135  c0,0,16.672-22.23,13.162-43.874c0,0-2.048,8.775-6.143,12.285c0,0,7.313-31.297-2.048-44.459c0,0,0.292,11.115-3.802,22.23  c0,0,1.56-35.198-14.43-44.167c0,0,6.24,11.115,3.607,20.474c0,0-4.387-19.89-24.765-27.787c0,0-1.268,1.462-0.975,5.85  c0,0-5.557-6.728-19.305-6.435c0,0,0.292,4.972,3.802,9.652c0,0-5.557,2.925-9.067,2.048c0,0,5.557,6.143,25.154,5.557  c0,0-2.633,2.34-7.897,2.925c0,0,8.006,3.677,15.892,4.387c10.823,0.974,15.113,7.313,17.16,15.21c0,0-8.482-4.972-11.7-9.945  c0,0-0.585,8.482,15.502,24.862l-8.19-3.51c0,0,5.265,15.21,11.7,32.467l-6.728-7.313c0,0-1.462,12.285-2.633,35.1l-4.68-10.823  c0,0-8.19,26.91-20.767,31.297c-9.846,3.435-20.736,5.786-25.015,6.649c-0.401-15.055,6.003-18.349,6.003-18.349  c11.407,0.585,14.04-11.992,14.04-11.992c-2.34,2.34-6.728,2.34-6.728,2.34c6.728-7.02,6.728-16.964,6.728-16.964  c-4.095,7.897-10.53,9.067-10.53,9.067l0.585-7.897c-11.897,8.652-11.048,18.785-10.851,20.27  c-0.268-1.894-2.387-16.713-3.481-20.27c-1.17-3.802,1.462-11.407,5.557-10.238c13.255,3.787,16.38-5.849,16.38-5.849  c-7.02,3.218-11.115,0.877-11.115,0.877c9.067-8.775,5.265-16.964,5.265-16.964c-2.925,8.482-11.115,9.945-11.115,9.945  l-0.292-9.359c-3.802,2.048-7.313,11.115-7.313,11.115s-0.877-7.313,1.754-13.748c2.633-6.435,9.359-3.218,9.359-3.218  c11.992,2.34,15.795-9.067,15.795-9.067l-7.897,1.17c8.775-6.435,6.143-14.333,6.143-14.333c-2.048,4.972-9.359,5.85-9.359,5.85  l3.51-9.359c-7.605,0-11.992,9.945-11.992,9.945l-0.585-9.652c3.51-12.577-4.68-18.135-4.68-18.135  c-1.754,2.34-0.877,7.313-0.877,7.313c-7.313-6.435-12.87,1.17-12.87,1.17c5.557,5.849,10.823,5.265,10.823,5.265  c-1.754,1.17-8.19,1.754-8.19,1.754c7.313,6.143,11.407,4.972,11.407,4.972c3.51,14.918-5.85,21.645-5.85,21.645  c-1.754-11.115-8.482-16.38-8.482-16.38l0.292,7.313c-4.387-2.633-7.897-10.53-7.897-10.53c-2.925,11.115,4.972,20.767,4.972,20.767  l-7.313-0.585c6.435,14.918,16.672,10.238,16.672,10.238c-0.877,10.53,2.633,27.787,2.633,27.787  c-1.462-1.754-16.964-16.38-16.964-16.38c-0.585,5.849,4.972,13.454,4.972,13.454c-2.925-0.585-11.407-7.02-11.407-7.02  c0.877,9.359,13.162,15.502,13.162,15.502c-4.68,0.585-13.748-4.68-13.748-4.68c5.265,22.522,24.569,12.577,24.569,12.577  l1.481,30.464c-4.078-0.979-12.995-3.252-22.248-6.479c-12.577-4.387-20.767-31.297-20.767-31.297l-4.68,10.823  c-1.17-22.815-2.633-35.1-2.633-35.1l-6.728,7.313c6.435-17.257,11.7-32.467,11.7-32.467l-8.19,3.51  c16.087-16.38,15.502-24.862,15.502-24.862c-3.218,4.972-11.7,9.945-11.7,9.945c2.048-7.897,8.482-16.087,16.38-16.672  s16.672-2.925,16.672-2.925c-5.265-0.585-7.897-2.925-7.897-2.925c22.815-2.048,25.154-8.19,25.154-8.19  c-3.51,0.877-14.333-0.292-14.333-0.292c9.067-4.972,23.985-9.652,23.985-9.652c-18.428-3.218-34.222,7.313-34.222,7.313  c2.633-4.972,7.313-10.53,7.313-10.53c-22.522,9.945-33.053,32.467-33.053,32.467c-2.633-9.359,3.607-20.474,3.607-20.474  c-15.99,8.97-14.43,44.167-14.43,44.167c-4.095-11.115-3.802-22.23-3.802-22.23c-9.359,13.162-2.048,44.459-2.048,44.459  c-4.095-3.51-6.143-12.285-6.143-12.285c-3.51,21.645,13.162,43.874,13.162,43.874c-7.605-4.095-18.428-18.135-18.428-18.135  c7.02,27.202,31.882,36.269,31.882,36.269c-13.748-5.265-19.597-0.877-19.597-0.877c9.652,2.048,19.012,7.897,26.617,13.454  s17.843,6.728,26.91,7.897c3.746,0.483,6.85,1.113,9.254,1.689c-4.956,2.425-8.376,7.502-8.376,13.391h29.835  c0-5.667-3.16-10.596-7.815-13.121c2.996-0.641,6.987-1.4,11.325-1.96c9.067-1.17,18.54-3.577,26.91-7.897  c9.067-4.68,16.964-11.407,26.617-13.454C208.405,305.517,202.554,301.129,188.808,306.395z"/>
<g>
</g>
<g>
</g>
<g>
</g>
<g>
</g>
<g>
</g>
<g>
</g>
<g>
</g>
<g>
</g>
<g>
</g>
<g>
</g>
<g>
</g>
<g>
</g>
<g>
</g>
<g>
</g>
<g>
</g>
</svg>
