<?xml version="1.0" encoding="iso-8859-1"?>
<!-- Generator: Adobe Illustrator 19.0.0, SVG Export Plug-In . SVG Version: 6.00 Build 0)  -->
<svg xmlns="http://www.w3.org/2000/svg" xmlns:xlink="http://www.w3.org/1999/xlink" version="1.1" id="Layer_1" x="0px" y="0px" viewBox="0 0 512 512" style="enable-background:new 0 0 512 512;" xml:space="preserve">
<path style="fill:#41479B;" d="M473.655,423.724H38.345C17.167,423.724,0,406.557,0,385.379V126.621  c0-21.177,17.167-38.345,38.345-38.345h435.31c21.177,0,38.345,17.167,38.345,38.345V385.38  C512,406.557,494.833,423.724,473.655,423.724z"/>
<path style="fill:#F5F5F5;" d="M8.828,256h15.334l81.77-53.574V256h44.138v-53.574L231.839,256h15.334  c4.875,0,8.828-3.953,8.828-8.828v-7.002l-70.154-45.963H256v-44.138h-70.155L256,104.106v-7.002c0-4.875-3.95-8.826-8.825-8.828  h-15.337l-81.769,53.574V88.276h-44.138v53.574L26.844,90.034c-9.234,2.9-16.954,9.203-21.711,17.434l65.023,42.601H0v44.138h70.155  L0,240.17v7.002C0,252.047,3.953,256,8.828,256z"/>
<g>
	<polygon style="fill:#FF4B55;" points="256,158.897 141.241,158.897 141.241,88.276 114.759,88.276 114.759,158.897 0,158.897    0,185.379 114.759,185.379 114.759,256 141.241,256 141.241,185.379 256,185.379  "/>
	<path style="fill:#FF4B55;" d="M8.227,102.902l72.662,47.167h16.214l-82.496-53.55C12.238,98.389,10.097,100.532,8.227,102.902z"/>
	<path style="fill:#FF4B55;" d="M166.283,150.069l88.374-57.366c-1.536-2.599-4.246-4.427-7.485-4.427h-1.909l-95.194,61.793   H166.283z"/>
	<path style="fill:#FF4B55;" d="M89.474,194.207L1.269,251.463C2.79,254.125,5.542,256,8.828,256h1.665l95.196-61.793H89.474z"/>
	<path style="fill:#FF4B55;" d="M255.86,247.865l-82.666-53.658H156.98l93.874,60.935   C253.666,253.837,255.595,251.102,255.86,247.865z"/>
</g>
<path style="fill:#E67346;" d="M330.707,352.392l-4.143-9.669l2.071,4.835l-2.095-4.823c0.873-0.385,21.38-9.741,21.38-37.254  h10.519C358.439,340.107,331.84,351.905,330.707,352.392z"/>
<path style="fill:#EB7D4B;" d="M334.819,328.867l-7.437-7.437c14.219-14.219,21.608-18.119,22.404-18.518l4.705,9.409l-2.353-4.705  l2.393,4.684C354.465,312.335,347.805,315.882,334.819,328.867z"/>
<path style="fill:#E67346;" d="M438.796,352.392l4.143-9.669l-2.071,4.835l2.095-4.823c-0.873-0.385-21.38-9.741-21.38-37.254  h-10.519C411.064,340.107,437.663,351.905,438.796,352.392z"/>
<path style="fill:#EB7D4B;" d="M434.684,328.867l7.437-7.437c-14.219-14.219-21.608-18.119-22.404-18.518l-4.705,9.409l2.353-4.705  l-2.393,4.684C415.038,312.335,421.698,315.882,434.684,328.867z"/>
<path style="fill:#4173CD;" d="M384.736,168.734h-56.102c0,0,0,66.621,0,84.152s3.507,63.114,56.102,80.646  c52.595-17.532,56.102-63.114,56.102-80.646s0-84.152,0-84.152L384.736,168.734L384.736,168.734z"/>
<path style="fill:#C8C8C8;" d="M409.28,189.772h-30.144c-3.185,0-6.274-1.084-8.761-3.073l-11.769-9.416  c-1.244-0.994-2.788-1.537-4.381-1.537h-1.046c-3.873,0-7.012,3.139-7.012,7.012h-5.259c-2.904,0-5.259,2.355-5.259,5.259  s2.355,5.259,5.259,5.259h5.259c1.937,0,3.507,1.57,3.507,3.507v17.532c0,6.528,4.48,11.966,10.519,13.529v11.015h7.012l2.63-10.519  h32.434l3.507,3.507v7.012h3.507V228.34h3.507v10.519h3.507v-11.491c2.088-1.215,3.507-3.45,3.507-6.04V200.29  C419.799,194.482,415.09,189.772,409.28,189.772z"/>
<polygon style="fill:#73AF00;" points="346.166,235.354 353.18,256.392 416.294,256.392 423.306,235.354 "/>
<path style="fill:#F5F5F5;" d="M422.092,249.379c-9.348,0-9.348,7.012-18.696,7.012c-9.345,0-9.345-7.012-18.691-7.012  c-9.344,0-9.344,7.012-18.689,7.012c-9.347,0-9.347-7.012-18.695-7.012c-9.327,0-9.351,6.98-18.638,7.01  c0.113,3.906,0.447,8.683,1.31,13.963c7.992-0.653,8.466-6.947,17.329-6.947c9.347,0,9.347,7.012,18.695,7.012  c9.344,0,9.344-7.012,18.689-7.012s9.345,7.012,18.691,7.012c9.348,0,9.348-7.012,18.696-7.012c8.887,0,9.354,6.307,17.385,6.948  c0.862-5.279,1.197-10.057,1.31-13.963C431.457,256.374,431.445,249.379,422.092,249.379z"/>
<path style="fill:#4173CD;" d="M422.092,263.405c-9.348,0-9.348,7.012-18.696,7.012c-9.345,0-9.345-7.012-18.691-7.012  c-9.344,0-9.344,7.012-18.689,7.012c-9.347,0-9.347-7.012-18.695-7.012c-8.863,0-9.336,6.294-17.329,6.947  c0.686,4.202,1.717,8.722,3.225,13.367c5.115-1.786,6.607-6.29,14.103-6.29c9.347,0,9.347,7.012,18.695,7.012  c9.344,0,9.344-7.012,18.689-7.012s9.345,7.012,18.691,7.012c9.348,0,9.348-7.012,18.696-7.012c7.523,0,9.01,4.521,14.156,6.301  c1.51-4.649,2.541-9.172,3.229-13.377C431.447,269.711,430.98,263.405,422.092,263.405z"/>
<path style="fill:#F5F5F5;" d="M422.092,277.43c-9.348,0-9.348,7.012-18.696,7.012c-9.345,0-9.345-7.012-18.691-7.012  c-9.344,0-9.344,7.012-18.689,7.012c-9.347,0-9.347-7.012-18.695-7.012c-7.496,0-8.989,4.503-14.103,6.29  c1.209,3.724,2.74,7.527,4.655,11.317c2.371-1.778,4.707-3.582,9.448-3.582c9.347,0,9.347,7.012,18.695,7.012  c9.344,0,9.344-7.012,18.689-7.012s9.345,7.012,18.691,7.012c9.348,0,9.348-7.012,18.696-7.012c4.768,0,7.109,1.819,9.494,3.604  c1.919-3.794,3.452-7.601,4.662-11.328C431.102,281.951,429.615,277.43,422.092,277.43z"/>
<path style="fill:#4173CD;" d="M422.092,291.455c-9.348,0-9.348,7.012-18.696,7.012c-9.345,0-9.345-7.012-18.691-7.012  c-9.344,0-9.344,7.012-18.689,7.012c-9.347,0-9.347-7.012-18.695-7.012c-4.74,0-7.078,1.803-9.448,3.582  c1.825,3.612,4.007,7.206,6.613,10.705c0.847-0.16,1.774-0.26,2.835-0.26c9.347,0,9.347,7.012,18.695,7.012  c9.344,0,9.344-7.012,18.689-7.012s9.345,7.012,18.691,7.012c9.348,0,9.348-7.012,18.696-7.012c1.081,0,2.026,0.102,2.887,0.267  c2.603-3.493,4.783-7.082,6.607-10.689C429.202,293.273,426.861,291.455,422.092,291.455z"/>
<path style="fill:#F5F5F5;" d="M424.979,305.748c-0.86-0.165-1.805-0.267-2.887-0.267c-9.348,0-9.348,7.012-18.696,7.012  c-9.345,0-9.345-7.012-18.691-7.012c-9.344,0-9.344,7.012-18.689,7.012c-9.347,0-9.347-7.012-18.695-7.012  c-1.06,0-1.987,0.1-2.835,0.26c5.683,7.628,13.391,14.781,23.823,20.6c7.104-1.048,7.894-6.835,16.394-6.835  c8.52,0,9.294,5.812,16.442,6.841C411.583,320.53,419.294,313.377,424.979,305.748z"/>
<g>
	<rect x="382.99" y="249.38" style="fill:#FF965A;" width="3.507" height="59.61"/>
	<rect x="374.21" y="258.14" style="fill:#FF965A;" width="21.04" height="3.507"/>
	<rect x="374.21" y="279.18" style="fill:#FF965A;" width="21.04" height="3.507"/>
</g>
<rect x="374.21" y="261.64" style="fill:#FFE15A;" width="21.04" height="13.87"/>
<polygon style="fill:#FF4B55;" points="382.983,249.379 382.983,256.392 372.463,252.886 "/>
<g>
	<rect x="406.36" y="249.38" style="fill:#FF965A;" width="3.507" height="41.2"/>
	<rect x="397.59" y="258.14" style="fill:#FF965A;" width="21.04" height="3.507"/>
	<rect x="397.59" y="279.18" style="fill:#FF965A;" width="21.04" height="3.507"/>
</g>
<rect x="397.59" y="261.64" style="fill:#FFE15A;" width="21.04" height="13.87"/>
<polygon style="fill:#FF4B55;" points="406.358,249.379 406.358,256.392 395.839,252.886 "/>
<g>
	<rect x="359.46" y="249.38" style="fill:#FF965A;" width="3.507" height="40.905"/>
	<rect x="350.7" y="258.14" style="fill:#FF965A;" width="21.04" height="3.507"/>
	<rect x="350.7" y="279.18" style="fill:#FF965A;" width="21.04" height="3.507"/>
</g>
<rect x="350.7" y="261.64" style="fill:#FFE15A;" width="21.04" height="13.87"/>
<polygon style="fill:#FF4B55;" points="359.462,249.379 359.462,256.392 348.942,252.886 "/>
<path style="fill:#FF965A;" d="M402.268,287.949c0,9.666-7.865,17.532-17.532,17.532s-17.532-7.865-17.532-17.532h-3.507h-3.478  l-23.747-5.363l-0.773,3.421l10.467,2.364v3.084l7.717,3.086c3.042,14.244,15.714,24.963,30.852,24.963  c14.987,0,27.543-10.513,30.744-24.544h11.331v-10.519L402.268,287.949z"/>
<path style="fill:#F5F5F5;" d="M440.838,168.734c0,0,0,66.621,0,84.152s-3.507,63.114-56.102,80.646  c-52.595-17.532-56.102-63.114-56.102-80.646s0-84.152,0-84.152h56.102L440.838,168.734 M444.343,165.227h-3.507h-56.102h-56.102  h-3.507v3.507v84.152c0,41.576,20.776,71.398,58.499,83.972l1.109,0.37l1.109-0.37c37.724-12.575,58.499-42.397,58.499-83.972  v-84.152L444.343,165.227L444.343,165.227z"/>
<path style="fill:#FF965A;" d="M384.736,351.063c-25.807,0-49.741-8.646-64.021-23.127l9.985-9.848  c11.702,11.864,31.903,18.949,54.037,18.949s42.335-7.084,54.037-18.949l9.985,9.848  C434.477,342.417,410.543,351.063,384.736,351.063z"/>
<g>
</g>
<g>
</g>
<g>
</g>
<g>
</g>
<g>
</g>
<g>
</g>
<g>
</g>
<g>
</g>
<g>
</g>
<g>
</g>
<g>
</g>
<g>
</g>
<g>
</g>
<g>
</g>
<g>
</g>
</svg>
