<?xml version="1.0" encoding="iso-8859-1"?>
<!-- Generator: Adobe Illustrator 19.0.0, SVG Export Plug-In . SVG Version: 6.00 Build 0)  -->
<svg xmlns="http://www.w3.org/2000/svg" xmlns:xlink="http://www.w3.org/1999/xlink" version="1.1" id="Layer_1" x="0px" y="0px" viewBox="0 0 512 512" style="enable-background:new 0 0 512 512;" xml:space="preserve">
<path style="fill:#F5F5F5;" d="M473.654,423.724H38.345C17.167,423.724,0,406.556,0,385.379V126.621  c0-21.177,17.167-38.345,38.345-38.345h435.309c21.177,0,38.345,17.167,38.345,38.345v258.758  C511.999,406.556,494.831,423.724,473.654,423.724z"/>
<polygon style="fill:#FF4B55;" points="512,220.69 291.31,220.69 291.31,88.276 220.689,88.276 220.689,220.69 0,220.69 0,291.31   220.689,291.31 220.689,423.724 291.31,423.724 291.31,291.31 512,291.31 "/>
<g>
	<polygon style="fill:#FFE15A;" points="361.93,282.483 361.93,229.517 348.689,242.759 163.31,242.759 150.069,229.517    150.069,282.483 163.31,269.241 348.689,269.241  "/>
	<polygon style="fill:#FFE15A;" points="229.517,361.931 282.482,361.931 269.241,348.689 269.241,163.311 282.482,150.069    229.517,150.069 242.758,163.311 242.758,348.689  "/>
</g>
<g>
</g>
<g>
</g>
<g>
</g>
<g>
</g>
<g>
</g>
<g>
</g>
<g>
</g>
<g>
</g>
<g>
</g>
<g>
</g>
<g>
</g>
<g>
</g>
<g>
</g>
<g>
</g>
<g>
</g>
</svg>
