<?xml version="1.0" encoding="iso-8859-1"?>
<!-- Generator: Adobe Illustrator 19.0.0, SVG Export Plug-In . SVG Version: 6.00 Build 0)  -->
<svg xmlns="http://www.w3.org/2000/svg" xmlns:xlink="http://www.w3.org/1999/xlink" version="1.1" id="Layer_1" x="0px" y="0px" viewBox="0 0 512 512" style="enable-background:new 0 0 512 512;" xml:space="preserve">
<path style="fill:#FF4B55;" d="M473.655,88.276H38.345C17.167,88.276,0,105.443,0,126.621v73.471h512v-73.471  C512,105.443,494.833,88.276,473.655,88.276z"/>
<path style="fill:#73AF00;" d="M0,385.379c0,21.177,17.167,38.345,38.345,38.345h435.31c21.177,0,38.345-17.167,38.345-38.345  v-73.471H0V385.379z"/>
<rect y="200.09" style="fill:#FFE15A;" width="512" height="111.81"/>
<path style="fill:#464655;" d="M259.722,213.909l9.213,27.623l29.118,0.226c3.769,0.03,5.333,4.84,2.301,7.08l-23.424,17.298  l8.783,27.763c1.137,3.594-2.955,6.568-6.023,4.375L256,281.34l-23.69,16.932c-3.066,2.193-7.159-0.781-6.023-4.375l8.783-27.763  l-23.424-17.298c-3.032-2.239-1.47-7.05,2.301-7.08l29.118-0.226l9.213-27.623C253.471,210.332,258.529,210.332,259.722,213.909z"/>
<g>
</g>
<g>
</g>
<g>
</g>
<g>
</g>
<g>
</g>
<g>
</g>
<g>
</g>
<g>
</g>
<g>
</g>
<g>
</g>
<g>
</g>
<g>
</g>
<g>
</g>
<g>
</g>
<g>
</g>
</svg>
