<?xml version="1.0" encoding="iso-8859-1"?>
<!-- Generator: Adobe Illustrator 19.0.0, SVG Export Plug-In . SVG Version: 6.00 Build 0)  -->
<svg xmlns="http://www.w3.org/2000/svg" xmlns:xlink="http://www.w3.org/1999/xlink" version="1.1" id="Layer_1" x="0px" y="0px" viewBox="0 0 512.4 512.4" style="enable-background:new 0 0 512.4 512.4;" xml:space="preserve">
<path style="fill:#F5F5F5;" d="M512,125.7c-0.6-20.7-17.5-37.3-38.3-37.3H38.3C17.2,88.5,0,105.6,0,126.8v258.8c0,0.4,0,0.7,0,1.1  l0,0c0.1,5.2,1.3,10.1,3.3,14.5l0,0c0.2,0.6,0.5,1.1,0.8,1.6l0,0c0.3,0.5,0.5,1,0.8,1.6c0,0,0,0,0,0.1c0.3,0.5,0.6,1,0.9,1.5  c0,0,0,0.1,0.1,0.1c0.3,0.5,0.6,0.9,0.9,1.4l0.1,0.1c0.3,0.5,0.6,0.9,1,1.3c0,0.1,0.1,0.1,0.1,0.2c0.3,0.4,0.7,0.8,1,1.2  c0.1,0.1,0.1,0.1,0.2,0.2c0.3,0.4,0.7,0.8,1,1.2c0.1,0.1,0.1,0.1,0.2,0.2c0.3,0.4,0.7,0.7,1.1,1.1c0.1,0.1,0.2,0.2,0.2,0.2  c0.4,0.3,0.7,0.7,1.1,1c0.1,0.1,0.2,0.2,0.3,0.3c0.4,0.3,0.7,0.6,1.1,0.9c0.1,0.1,0.2,0.2,0.4,0.3c0.4,0.3,0.7,0.6,1.1,0.8  c0.1,0.1,0.3,0.2,0.4,0.3c0.4,0.3,0.7,0.5,1.1,0.7c0.2,0.1,0.3,0.2,0.5,0.3c0.4,0.2,0.7,0.5,1.1,0.7c0.2,0.1,0.4,0.2,0.5,0.3  c0.3,0.2,0.7,0.4,1,0.6c0.2,0.1,0.4,0.2,0.6,0.3c0.3,0.2,0.7,0.4,1,0.5c0.2,0.1,0.4,0.2,0.7,0.3c0.3,0.2,0.7,0.3,1,0.5  c0.2,0.1,0.5,0.2,0.7,0.3c0.3,0.1,0.7,0.3,1,0.4c0.3,0.1,0.5,0.2,0.8,0.3s0.6,0.2,1,0.3c0.3,0.1,0.6,0.2,0.9,0.2  c0.3,0.1,0.6,0.2,0.9,0.3s0.6,0.1,0.9,0.2c0.3,0.1,0.6,0.1,0.9,0.2c0.3,0.1,0.7,0.1,1,0.2c0.3,0.1,0.6,0.1,0.9,0.2  c0.4,0.1,0.7,0.1,1.1,0.1c0.3,0,0.5,0.1,0.8,0.1c0.4,0,0.8,0.1,1.3,0.1c0.2,0,0.4,0,0.7,0.1c0.6,0,1.3,0,2,0h435.3c0.7,0,1.3,0,2,0  c0.2,0,0.4,0,0.7-0.1c0.4,0,0.8-0.1,1.3-0.1c0.3,0,0.5-0.1,0.8-0.1c0.4,0,0.7-0.1,1.1-0.1c0.3,0,0.6-0.1,0.9-0.2  c0.3-0.1,0.7-0.1,1-0.2c0.3-0.1,0.6-0.1,0.9-0.2c0.3-0.1,0.6-0.1,0.9-0.2c0.3-0.1,0.6-0.2,0.9-0.3c0.3-0.1,0.6-0.2,0.9-0.2  c0.3-0.1,0.6-0.2,1-0.3c0.3-0.1,0.5-0.2,0.8-0.3c0.3-0.1,0.7-0.3,1-0.4c0.2-0.1,0.5-0.2,0.7-0.3c0.3-0.1,0.7-0.3,1-0.5  c0.2-0.1,0.4-0.2,0.7-0.3c0.3-0.2,0.7-0.3,1-0.5c0.2-0.1,0.4-0.2,0.6-0.3c0.4-0.2,0.7-0.4,1-0.6c0.2-0.1,0.4-0.2,0.5-0.3  c0.4-0.2,0.7-0.4,1.1-0.7c0.2-0.1,0.3-0.2,0.5-0.3c0.4-0.2,0.7-0.5,1.1-0.7c0.1-0.1,0.3-0.2,0.4-0.3c0.4-0.3,0.7-0.5,1.1-0.8  c0.1-0.1,0.2-0.2,0.4-0.3c0.4-0.3,0.7-0.6,1.1-0.9c0.1-0.1,0.2-0.2,0.3-0.3c0.4-0.3,0.7-0.7,1.1-1c0.1-0.1,0.2-0.2,0.3-0.2  c0.4-0.4,0.7-0.7,1.1-1.1c0.1-0.1,0.1-0.1,0.2-0.2c0.4-0.4,0.7-0.8,1-1.2c0.1-0.1,0.1-0.1,0.2-0.2c0.3-0.4,0.7-0.8,1-1.2  c0-0.1,0.1-0.1,0.1-0.2c0.3-0.4,0.7-0.9,1-1.3l0.1-0.1c0.3-0.5,0.6-0.9,0.9-1.4c0,0,0-0.1,0.1-0.1c0.3-0.5,0.6-1,0.9-1.5  c0,0,0,0,0-0.1c0.3-0.5,0.6-1,0.8-1.6l0,0c0.3-0.5,0.5-1.1,0.8-1.6l0,0c2-4.5,3.2-9.4,3.3-14.5l0,0c0-0.4,0-0.7,0-1.1V126.8  C512,126.5,512,126.1,512,125.7z"/>
<path style="fill:#41479B;" d="M0,312.1h512v37.3l0,0H0l0,0V312.1z M3.3,401.2L3.3,401.2c0.2,0.6,0.5,1.1,0.8,1.6l0,0  c0.3,0.5,0.5,1,0.8,1.6c0,0,0,0,0,0.1c0.3,0.5,0.6,1,0.9,1.5c0,0,0,0.1,0.1,0.1c0.3,0.5,0.6,0.9,0.9,1.4l0.1,0.1  c0.3,0.5,0.6,0.9,1,1.3c0,0.1,0.1,0.1,0.1,0.2c0.3,0.4,0.7,0.8,1,1.2c0.1,0.1,0.1,0.1,0.2,0.2c0.3,0.4,0.7,0.8,1,1.2  c0.1,0.1,0.1,0.1,0.2,0.2c0.3,0.4,0.7,0.7,1.1,1.1c0.1,0.1,0.2,0.2,0.2,0.2c0.4,0.3,0.7,0.7,1.1,1c0.1,0.1,0.2,0.2,0.3,0.3  c0.4,0.3,0.7,0.6,1.1,0.9c0.1,0.1,0.2,0.2,0.4,0.3c0.4,0.3,0.7,0.6,1.1,0.8c0.1,0.1,0.3,0.2,0.4,0.3c0.4,0.3,0.7,0.5,1.1,0.7  c0.2,0.1,0.3,0.2,0.5,0.3c0.4,0.2,0.7,0.5,1.1,0.7c0.2,0.1,0.4,0.2,0.5,0.3c0.3,0.2,0.7,0.4,1,0.6c0.2,0.1,0.4,0.2,0.6,0.3  c0.3,0.2,0.7,0.4,1,0.5c0.2,0.1,0.4,0.2,0.7,0.3c0.3,0.2,0.7,0.3,1,0.5c0.2,0.1,0.5,0.2,0.7,0.3c0.3,0.1,0.7,0.3,1,0.4  c0.3,0.1,0.5,0.2,0.8,0.3c0.3,0.1,0.6,0.2,1,0.3c0.3,0.1,0.6,0.2,0.9,0.2c0.3,0.1,0.6,0.2,0.9,0.3c0.3,0.1,0.6,0.1,0.9,0.2  c0.3,0.1,0.6,0.1,0.9,0.2c0.3,0.1,0.7,0.1,1,0.2c0.3,0.1,0.6,0.1,0.9,0.2c0.4,0.1,0.7,0.1,1.1,0.1c0.3,0,0.5,0.1,0.8,0.1  c0.4,0,0.8,0.1,1.3,0.1c0.2,0,0.4,0,0.7,0.1c0.6,0,1.3,0,2,0h435.3c0.7,0,1.3,0,2,0c0.2,0,0.4,0,0.7-0.1c0.4,0,0.8-0.1,1.3-0.1  c0.3,0,0.5-0.1,0.8-0.1c0.4,0,0.7-0.1,1.1-0.1c0.3,0,0.6-0.1,0.9-0.2c0.3-0.1,0.7-0.1,1-0.2c0.3-0.1,0.6-0.1,0.9-0.2  c0.3-0.1,0.6-0.1,0.9-0.2c0.3-0.1,0.6-0.2,0.9-0.3s0.6-0.2,0.9-0.2c0.3-0.1,0.6-0.2,1-0.3c0.3-0.1,0.5-0.2,0.8-0.3s0.7-0.3,1-0.4  c0.2-0.1,0.5-0.2,0.7-0.3c0.3-0.1,0.7-0.3,1-0.5c0.2-0.1,0.4-0.2,0.7-0.3c0.3-0.2,0.7-0.3,1-0.5c0.2-0.1,0.4-0.2,0.6-0.3  c0.4-0.2,0.7-0.4,1-0.6c0.2-0.1,0.4-0.2,0.5-0.3c0.4-0.2,0.7-0.4,1.1-0.7c0.2-0.1,0.3-0.2,0.5-0.3c0.4-0.2,0.7-0.5,1.1-0.7  c0.1-0.1,0.3-0.2,0.4-0.3c0.4-0.3,0.7-0.5,1.1-0.8c0.1-0.1,0.2-0.2,0.4-0.3c0.4-0.3,0.7-0.6,1.1-0.9c0.1-0.1,0.2-0.2,0.3-0.3  c0.4-0.3,0.7-0.7,1.1-1c0.1-0.1,0.2-0.2,0.3-0.2c0.4-0.4,0.7-0.7,1.1-1.1c0.1-0.1,0.1-0.1,0.2-0.2c0.4-0.4,0.7-0.8,1-1.2  c0.1-0.1,0.1-0.1,0.2-0.2c0.3-0.4,0.7-0.8,1-1.2c0-0.1,0.1-0.1,0.1-0.2c0.3-0.4,0.7-0.9,1-1.3l0.1-0.1c0.3-0.5,0.6-0.9,0.9-1.4  c0,0,0-0.1,0.1-0.1c0.3-0.5,0.6-1,0.9-1.5c0,0,0,0,0-0.1c0.3-0.5,0.6-1,0.8-1.6l0,0c0.3-0.5,0.5-1.1,0.8-1.6l0,0  c2-4.5,3.2-9.4,3.3-14.5H0C0.2,391.8,1.3,396.7,3.3,401.2z M176.6,163v37.3H107v74.5h405v-37.3H176.6l0,0v-37.3H512l0,0v-37.3H176.6  V163z M69.6,200.3H0l0,0v37.3v37.3h69.6V200.3z M512,125.7c-0.6-20.7-17.5-37.3-38.3-37.3H106.9v74.5h69.6v-37.3H512V125.7z   M69.6,88.5H38.3C17.2,88.5,0,105.6,0,126.8V163h69.6V88.5z"/>
<g>
</g>
<g>
</g>
<g>
</g>
<g>
</g>
<g>
</g>
<g>
</g>
<g>
</g>
<g>
</g>
<g>
</g>
<g>
</g>
<g>
</g>
<g>
</g>
<g>
</g>
<g>
</g>
<g>
</g>
</svg>
