<?xml version="1.0" encoding="iso-8859-1"?>
<!-- Generator: Adobe Illustrator 19.0.0, SVG Export Plug-In . SVG Version: 6.00 Build 0)  -->
<svg xmlns="http://www.w3.org/2000/svg" xmlns:xlink="http://www.w3.org/1999/xlink" version="1.1" id="Layer_1" x="0px" y="0px" viewBox="0 0 512 512" style="enable-background:new 0 0 512 512;" xml:space="preserve">
<path style="fill:#FFE15A;" d="M473.885,88.279H38.115C17.045,88.403,0,105.517,0,126.617v129.385h512V126.617  C512,105.517,494.955,88.403,473.885,88.279z"/>
<path style="fill:#73AF00;" d="M0,385.376c0,21.177,17.167,38.345,38.345,38.345h435.31c21.177,0,38.345-17.167,38.345-38.345  V256.003H0V385.376z"/>
<path style="fill:#FF4B55;" d="M38.345,423.721h129.379V88.279H38.115C17.045,88.403,0,105.517,0,126.617v258.759  C0,406.553,17.167,423.721,38.345,423.721z"/>
<path style="fill:#464655;" d="M82.197,211.962l-9.731,29.18l-30.759,0.238c-1.686,0.013-2.386,2.165-1.028,3.167l24.744,18.272  l-9.278,29.326c-0.509,1.608,1.322,2.937,2.694,1.958l25.024-17.887l25.024,17.887c1.372,0.981,3.202-0.35,2.694-1.958  l-9.278-29.326l24.744-18.272c1.356-1.002,0.658-3.154-1.028-3.167l-30.759-0.238l-9.731-29.18  C84.993,210.362,82.731,210.362,82.197,211.962z"/>
<g>
</g>
<g>
</g>
<g>
</g>
<g>
</g>
<g>
</g>
<g>
</g>
<g>
</g>
<g>
</g>
<g>
</g>
<g>
</g>
<g>
</g>
<g>
</g>
<g>
</g>
<g>
</g>
<g>
</g>
</svg>
