<?xml version="1.0" encoding="iso-8859-1"?>
<!-- Generator: Adobe Illustrator 19.0.0, SVG Export Plug-In . SVG Version: 6.00 Build 0)  -->
<svg xmlns="http://www.w3.org/2000/svg" xmlns:xlink="http://www.w3.org/1999/xlink" version="1.1" id="Layer_1" x="0px" y="0px" viewBox="0 0 512 512" style="enable-background:new 0 0 512 512;" xml:space="preserve">
<g>
	<path style="fill:#4173CD;" d="M473.655,88.276H38.345C17.167,88.276,0,105.443,0,126.621v73.471h512v-73.471   C512,105.443,494.833,88.276,473.655,88.276z"/>
	<path style="fill:#4173CD;" d="M0,385.379c0,21.177,17.167,38.345,38.345,38.345h435.31c21.177,0,38.345-17.167,38.345-38.345   v-73.471H0V385.379z"/>
</g>
<rect y="200.09" style="fill:#F5F5F5;" width="512" height="111.81"/>
<g>
	<path style="fill:#4173CD;" d="M257.277,241.579l3.159,9.473l9.985,0.077c1.293,0.01,1.828,1.66,0.789,2.428l-8.033,5.932   l3.012,9.521c0.389,1.233-1.013,2.252-2.066,1.501L256,264.703l-8.124,5.806c-1.052,0.751-2.455-0.268-2.066-1.501l3.012-9.521   l-8.033-5.932c-1.039-0.768-0.504-2.418,0.789-2.428l9.985-0.077l3.159-9.473C255.133,240.352,256.867,240.352,257.277,241.579z"/>
	<path style="fill:#4173CD;" d="M167.104,267.002l3.159,9.473l9.985,0.077c1.293,0.01,1.828,1.66,0.789,2.428l-8.033,5.932   l3.012,9.521c0.39,1.233-1.013,2.252-2.066,1.501l-8.124-5.806l-8.124,5.806c-1.052,0.751-2.455-0.268-2.066-1.501l3.012-9.521   l-8.033-5.932c-1.041-0.768-0.504-2.418,0.789-2.428l9.985-0.077l3.159-9.473C164.96,265.775,166.695,265.775,167.104,267.002z"/>
	<path style="fill:#4173CD;" d="M167.104,216.156l3.159,9.473l9.985,0.077c1.293,0.01,1.828,1.66,0.789,2.428l-8.033,5.932   l3.012,9.521c0.39,1.233-1.013,2.252-2.066,1.501l-8.124-5.806l-8.124,5.806c-1.052,0.751-2.455-0.268-2.066-1.501l3.012-9.521   l-8.033-5.932c-1.041-0.768-0.504-2.418,0.789-2.428l9.985-0.077l3.159-9.473C164.96,214.929,166.695,214.929,167.104,216.156z"/>
	<path style="fill:#4173CD;" d="M347.448,267.002l3.159,9.473l9.985,0.077c1.293,0.01,1.828,1.66,0.789,2.428l-8.033,5.932   l3.012,9.521c0.389,1.233-1.013,2.252-2.066,1.501l-8.124-5.806l-8.124,5.806c-1.052,0.751-2.455-0.268-2.066-1.501l3.012-9.521   l-8.033-5.932c-1.041-0.768-0.504-2.418,0.789-2.428l9.985-0.077l3.159-9.473C345.305,265.775,347.04,265.775,347.448,267.002z"/>
	<path style="fill:#4173CD;" d="M347.448,216.156l3.159,9.473l9.985,0.077c1.293,0.01,1.828,1.66,0.789,2.428l-8.033,5.932   l3.012,9.521c0.389,1.233-1.013,2.252-2.066,1.501l-8.124-5.806l-8.124,5.806c-1.052,0.751-2.455-0.268-2.066-1.501l3.012-9.521   l-8.033-5.932c-1.041-0.768-0.504-2.418,0.789-2.428l9.985-0.077l3.159-9.473C345.305,214.929,347.04,214.929,347.448,216.156z"/>
</g>
<g>
</g>
<g>
</g>
<g>
</g>
<g>
</g>
<g>
</g>
<g>
</g>
<g>
</g>
<g>
</g>
<g>
</g>
<g>
</g>
<g>
</g>
<g>
</g>
<g>
</g>
<g>
</g>
<g>
</g>
</svg>
