<?xml version="1.0" encoding="iso-8859-1"?>
<!-- Generator: Adobe Illustrator 19.0.0, SVG Export Plug-In . SVG Version: 6.00 Build 0)  -->
<svg xmlns="http://www.w3.org/2000/svg" xmlns:xlink="http://www.w3.org/1999/xlink" version="1.1" id="Layer_1" x="0px" y="0px" viewBox="0 0 512 512" style="enable-background:new 0 0 512 512;" xml:space="preserve">
<path style="fill:#41479B;" d="M473.655,88.275H38.345C17.167,88.275,0,105.442,0,126.62V385.38  c0,21.177,17.167,38.345,38.345,38.345h435.31c21.177,0,38.345-17.167,38.345-38.345V126.62  C512,105.442,494.833,88.275,473.655,88.275z"/>
<rect y="150.07" style="fill:#F5F5F5;" width="512" height="211.86"/>
<path style="fill:#41479B;" d="M301.869,255.999l22.933-39.721h-45.865L256,176.551l-22.936,39.727h-45.865l22.933,39.721  l-22.933,39.721h45.865L256,335.448l22.936-39.727h45.865L301.869,255.999z M302.302,229.27l-7.933,13.74l-7.933-13.74H302.302z   M286.869,255.999l-15.433,26.73h-30.873l-15.432-26.73l15.433-26.73h30.873L286.869,255.999z M256,202.533l7.936,13.746h-15.872  L256,202.533z M209.698,229.27h15.865l-7.933,13.74L209.698,229.27z M209.698,282.729l7.933-13.74l7.933,13.74H209.698z   M256,309.466l-7.936-13.746h15.872L256,309.466z M294.369,268.99l7.933,13.74h-15.865L294.369,268.99z"/>
<g>
</g>
<g>
</g>
<g>
</g>
<g>
</g>
<g>
</g>
<g>
</g>
<g>
</g>
<g>
</g>
<g>
</g>
<g>
</g>
<g>
</g>
<g>
</g>
<g>
</g>
<g>
</g>
<g>
</g>
</svg>
