<?xml version="1.0" encoding="iso-8859-1"?>
<!-- Generator: Adobe Illustrator 19.0.0, SVG Export Plug-In . SVG Version: 6.00 Build 0)  -->
<svg xmlns="http://www.w3.org/2000/svg" xmlns:xlink="http://www.w3.org/1999/xlink" version="1.1" id="Layer_1" x="0px" y="0px" viewBox="0 0 512 512" style="enable-background:new 0 0 512 512;" xml:space="preserve">
<path style="fill:#FF4B55;" d="M473.655,423.724H38.345C17.167,423.724,0,406.557,0,385.379V126.621  c0-21.177,17.167-38.345,38.345-38.345h435.31c21.177,0,38.345,17.167,38.345,38.345V385.38  C512,406.557,494.833,423.724,473.655,423.724z"/>
<g>
	<path style="fill:#FFE15A;" d="M257.266,256.381l-2.445,1.412c-4.236-6.1-4.004-21.02-4.004-21.19   c0.044-0.442-0.221-0.841-0.619-1.017l-18.327-8.021l0.105-1.881c9.557,1.102,20.606,5.548,20.759,5.624   c0.376,0.237,0.851,0.178,1.187-0.099l15.208-12.68l3.273,2.925c-4.742,5.824-16.279,13.869-16.428,13.952   c-0.408,0.177-0.628,0.601-0.589,1.035L257.266,256.381z"/>
	<path style="fill:#FFE15A;" d="M323.765,166.04c0.373,0.191,0.822,0.154,1.16-0.096l3.974-2.942l-1.262,3.668   c-0.141,0.417-0.019,0.883,0.309,1.185l1.871,1.672c-0.556,0.939-0.776,2.094-0.798,3.299l-2.773,1.408   c-0.235,0.12-0.42,0.32-0.522,0.564l-2.068,5.007l-1.133-4.152c-0.146-0.547-0.666-0.881-1.216-0.806l-4.99,0.682l4.051-4.588   c0.216-0.246,0.312-0.574,0.264-0.895l-0.903-6.059L323.765,166.04z"/>
	<path style="fill:#FFE15A;" d="M278.562,329.544c-0.348,0.233-0.534,0.643-0.48,1.06l0.643,4.901l-2.594-2.884   c-0.296-0.327-0.762-0.445-1.186-0.305l-2.37,0.824c-0.551-0.941-1.454-1.695-2.497-2.298l0.115-3.107   c0.009-0.264-0.076-0.523-0.239-0.73l-3.374-4.238l4.18,1.024c0.548,0.138,1.094-0.156,1.294-0.672l1.825-4.694l2.046,5.768   c0.11,0.309,0.35,0.551,0.654,0.665l5.736,2.152L278.562,329.544z"/>
	<path style="fill:#FFE15A;" d="M157.188,214.599c-0.053-0.415-0.338-0.765-0.735-0.903l-4.673-1.614l3.74-1.032   c0.424-0.119,0.739-0.483,0.802-0.925l0.321-2.488c1.088-0.072,2.166-0.544,3.172-1.207l2.729,1.492   c0.232,0.126,0.501,0.166,0.76,0.111l5.3-1.124l-2.784,3.282c-0.369,0.429-0.35,1.047,0.023,1.458l3.384,3.731l-6.074-0.747   c-0.326-0.04-0.649,0.067-0.888,0.288l-4.488,4.17L157.188,214.599z"/>
</g>
<g>
	<path style="fill:#F5F5F5;" d="M254.399,364.642c-2.699,5.442-8.538,9.954-9.999,10.22c-0.266,0.044-0.487-0.044-0.707-0.266   c-0.664-0.753-0.973-2.787-0.088-5.486c0.088-0.266,0.178-0.619,0.31-1.017L254.399,364.642z"/>
	<path style="fill:#F5F5F5;" d="M256.345,359.023c-0.354,1.062-0.664,2.123-0.885,2.92l-10.795,3.584   c0.31-0.973,0.619-2.035,0.929-3.186L256.345,359.023z"/>
</g>
<path style="fill:#FFE15A;" d="M258.734,352.962c-0.531,1.195-1.017,2.345-1.46,3.451l-10.973,3.362  c0.31-1.194,0.664-2.433,0.973-3.672L258.734,352.962z"/>
<g>
	<path style="fill:#F5F5F5;" d="M260.903,348.583c-0.31,0.575-0.619,1.151-0.929,1.77l-12.078,3.274   c0.531-2.079,0.973-4.115,1.327-5.884L260.903,348.583z"/>
	<path style="fill:#F5F5F5;" d="M264.309,343.981c-0.707,0.664-1.372,1.504-2.035,2.477l-12.697-0.929   c0.177-1.151,0.309-2.168,0.309-2.92c0-0.575-0.044-1.106-0.088-1.682c0.487,0.044,1.017,0.044,1.46,0.044   c3.186,0,5.442-0.575,7.079-1.416C260.15,342.211,262.495,343.406,264.309,343.981z"/>
	<path style="fill:#F5F5F5;" d="M266.876,342.167c-0.797-0.088-4.335-0.442-6.726-3.893c1.195-1.017,1.77-2.123,2.035-2.876   c1.327-3.716-7.919-9.512-13.582-12.609c-2.655-1.46-4.734-4.335-6.592-7.654c0.221,0.044,0.398,0.044,0.619,0.044   c2.831,0,5.088-1.327,6.282-2.345c1.062,1.77,2.035,3.406,2.92,4.822c4.026,6.814,5.885,9.91,10.176,12.919   c0.132,0.088,0.309,0.177,0.487,0.177c2.079,0.266,8.096,1.592,8.45,4.247C271.433,338.627,270.105,340.928,266.876,342.167z"/>
	<path style="fill:#F5F5F5;" d="M260.106,334.646c-0.487,1.416-2.521,4.601-10.574,4.071c-0.708-4.601-2.743-7.875-5.973-9.379   c-4.203-1.991-19.91-13.228-27.076-19.91c1.416-4.513,5.132-8.184,10.397-10.132c0.753-0.31,1.416-0.575,1.991-0.885   c1.416,1.151,2.699,2.433,3.761,3.893c1.638,2.301,3.053,5.22,4.557,8.318c2.787,5.663,5.663,11.548,10.353,14.113   C256.213,329.514,260.504,333.629,260.106,334.646z"/>
	<path style="fill:#F5F5F5;" d="M247.719,310.932c-0.841,0.841-3.628,2.743-6.99,1.77c-0.531-1.017-1.017-2.035-1.548-3.052   c-1.548-3.186-3.008-6.194-4.778-8.628c-1.017-1.46-2.301-2.743-3.672-3.893c1.991-1.726,2.301-3.584,2.389-5.176   c3.495,3.008,6.77,6.769,9.778,11.414C244.798,306.242,246.347,308.719,247.719,310.932z"/>
	<path style="fill:#F5F5F5;" d="M231.039,290.315c-0.044,0.354-0.088,0.753-0.088,1.151c-0.088,1.504-0.221,2.965-1.991,4.291   c-3.716-2.655-8.008-4.469-11.68-5.663c1.682-1.726,2.787-3.451,3.318-5.132c0,0,0,0,0.044,0   C224.269,285.978,227.765,287.793,231.039,290.315z"/>
	<path style="fill:#F5F5F5;" d="M226.792,296.907c-0.221,0.088-0.398,0.221-0.664,0.309c-5.53,2.035-9.601,5.796-11.414,10.442   c-2.168-2.168-3.716-4.115-4.956-5.663c-1.372-1.77-2.521-3.142-3.938-4.115c3.981-2.035,7.167-4.071,9.601-6.061   c0.044,0,0.044,0,0.088,0C218.961,292.881,223.164,294.473,226.792,296.907z"/>
	<path style="fill:#F5F5F5;" d="M213.342,290.624c-2.301,1.814-5.53,3.849-10.088,6.061c-1.062-0.266-2.123-0.487-3.008-0.663   c-2.168-0.398-3.584-0.708-4.69-1.947c-0.664-0.708-1.947-2.699-3.186-5.22c0.178,0.088,0.354,0.177,0.531,0.221   c1.283,0.31,3.096-0.266,5.353-1.062c2.787-0.929,6.194-2.08,9.291-1.682c2.787,0.354,3.54,1.46,4.424,2.699   C212.369,289.562,212.767,290.137,213.342,290.624z"/>
</g>
<path style="fill:#FFE15A;" d="M218.606,283.988c-0.354,1.372-1.327,3.097-3.54,5.176c-0.531-0.354-0.885-0.841-1.283-1.416  c-0.973-1.372-2.212-3.097-5.929-3.584c-3.584-0.487-7.3,0.753-10.308,1.77c-1.682,0.575-3.452,1.195-4.159,1.017  c-0.753-0.178-1.726-1.372-1.77-2.567c-0.044-1.372,1.195-1.991,2.212-2.301c2.301-0.707,5.088-0.177,7.831,0.31  c2.787,0.531,5.442,1.017,7.565,0.177c1.46-0.575,3.142-2.389,5.176-5c1.416,0.309,2.61,0.797,3.318,1.814  C218.739,280.846,219.005,282.396,218.606,283.988z"/>
<g>
	<path style="fill:#F5F5F5;" d="M211.838,277.263c-1.372,1.682-2.567,2.92-3.45,3.274c-1.504,0.619-3.849,0.177-6.327-0.31   c-2.831-0.531-6.061-1.106-8.849-0.266c-1.682,0.487-2.61,1.327-3.142,2.123c-0.487-2.433-0.487-4.778,0.619-6.636   c1.106-1.947,2.566-3.584,4.071-5.22c1.991,0.266,3.45,0.664,8.494,5.088c1.726,1.504,4.513,1.682,7.212,1.814   C210.908,277.174,211.395,277.219,211.838,277.263z"/>
	<path style="fill:#F5F5F5;" d="M252.939,258.99c-4.956,3.274-27.032,17.785-31.634,19.688c-0.221,0.088-0.398,0.266-0.531,0.442   c-0.132,0.221-0.221,0.398-0.354,0.619c-0.221-0.575-0.531-1.106-0.885-1.636c-0.885-1.283-2.212-1.991-3.672-2.433   c0.664-0.841,1.327-1.726,2.035-2.699c3.186-4.38,6.858-9.291,11.061-13.671c7.212-7.521,16.856-12.477,20.086-13.981   C249.533,250.009,250.594,255.54,252.939,258.99z"/>
	<path style="fill:#F5F5F5;" d="M248.824,242.975c-2.301,1.017-13.228,6.194-21.458,14.777c-4.335,4.513-8.185,9.689-11.238,13.892   c-0.929,1.239-1.814,2.433-2.655,3.54c-0.973-0.088-1.946-0.177-2.876-0.221c-2.433-0.177-4.734-0.31-5.885-1.327   c-4.247-3.716-6.239-4.822-8.141-5.309c0.178-0.177,0.31-0.354,0.487-0.531c2.787-2.831,5.707-5.795,8.008-9.91   c3.981-7.123,17.299-22.653,25.971-28.271l17.565,7.699C248.602,238.374,248.648,240.454,248.824,242.975z"/>
	<path style="fill:#F5F5F5;" d="M136.587,177.297c-3.662-4.846-5.089-12.087-4.674-13.512c0.079-0.257,0.257-0.416,0.554-0.514   c0.97-0.257,2.929,0.375,4.948,2.372c0.198,0.198,0.474,0.435,0.771,0.732L136.587,177.297z"/>
	<path style="fill:#F5F5F5;" d="M140.744,181.549c-0.791-0.791-1.603-1.543-2.217-2.097l1.619-11.258   c0.733,0.712,1.544,1.463,2.434,2.254L140.744,181.549z"/>
</g>
<path style="fill:#FFE15A;" d="M145.098,186.396c-0.832-1.009-1.643-1.958-2.434-2.848l1.896-11.318  c0.93,0.811,1.88,1.682,2.85,2.511L145.098,186.396z"/>
<g>
	<path style="fill:#F5F5F5;" d="M148.047,190.292c-0.376-0.534-0.753-1.068-1.167-1.622l2.468-12.268   c1.623,1.404,3.246,2.709,4.671,3.817L148.047,190.292z"/>
	<path style="fill:#F5F5F5;" d="M150.642,195.395c-0.277-0.93-0.733-1.899-1.308-2.927l6.505-10.944   c0.95,0.672,1.801,1.246,2.474,1.582c0.514,0.257,1.01,0.455,1.544,0.672c-0.257,0.416-0.494,0.89-0.692,1.287   c-1.423,2.85-1.918,5.126-1.897,6.966C154.083,192.466,151.967,194.03,150.642,195.395z"/>
	<path style="fill:#F5F5F5;" d="M151.118,198.502c0.435-0.673,2.333-3.681,6.488-4.276c0.376,1.524,1.109,2.532,1.663,3.106   c2.731,2.848,12.049-2.834,17.35-6.516c2.493-1.722,5.994-2.297,9.793-2.477c-0.138,0.178-0.217,0.337-0.317,0.534   c-1.266,2.532-1.086,5.144-0.71,6.668c-2.058,0.159-3.957,0.298-5.619,0.457c-7.894,0.557-11.496,0.835-16.105,3.33   c-0.139,0.079-0.297,0.198-0.375,0.356c-1.166,1.741-5.043,6.531-7.576,5.662C152.248,204.16,150.783,201.945,151.118,198.502z"/>
	<path style="fill:#F5F5F5;" d="M160.872,195.807c-1.049-1.068-2.989-4.312,1.084-11.278c4.433,1.422,8.27,1.065,11.06-1.152   c3.659-2.87,20.732-11.9,29.91-15.326c3.404,3.283,5.028,8.249,4.417,13.828c-0.058,0.811-0.118,1.524-0.098,2.176   c-1.662,0.753-3.383,1.327-5.164,1.624c-2.79,0.436-6.035,0.398-9.478,0.36c-6.312-0.038-12.861-0.094-17.252,2.955   C167.202,194.618,161.603,196.618,160.872,195.807z"/>
	<path style="fill:#F5F5F5;" d="M187.622,195.322c-0.376-1.128-0.833-4.471,1.54-7.044c1.148-0.021,2.275-0.001,3.423-0.021   c3.542,0.039,6.886,0.076,9.854-0.419c1.761-0.258,3.481-0.832,5.124-1.545c0.654,2.552,2.178,3.659,3.563,4.45   c-4.254,1.782-9.08,3.031-14.581,3.646C193.122,194.806,190.214,195.084,187.622,195.322z"/>
	<path style="fill:#F5F5F5;" d="M213.519,189.614c-0.297-0.198-0.633-0.415-0.99-0.594c-1.306-0.751-2.553-1.523-2.95-3.699   c4.035-2.138,7.576-5.167,10.286-7.918c0.792,2.275,1.842,4.035,3.108,5.262c0,0,0,0-0.02,0.04   C220.424,185.496,217.238,187.812,213.519,189.614z"/>
	<path style="fill:#F5F5F5;" d="M209.521,182.869c0.02-0.237-0.02-0.455,0.02-0.732c0.651-5.857-0.895-11.179-4.241-14.878   c2.909-0.971,5.342-1.486,7.281-1.902c2.196-0.436,3.937-0.852,5.44-1.684c0.042,4.471,0.438,8.231,1.132,11.297   c-0.02,0.04-0.02,0.04-0.04,0.079C216.621,177.663,213.319,180.711,209.521,182.869z"/>
	<path style="fill:#F5F5F5;" d="M221.151,173.644c-0.595-2.869-0.972-6.667-0.915-11.733c0.712-0.831,1.385-1.683,1.938-2.394   c1.325-1.761,2.234-2.89,3.837-3.326c0.93-0.277,3.284-0.535,6.094-0.516c-0.158,0.119-0.317,0.237-0.435,0.376   c-0.851,1.01-1.146,2.889-1.442,5.263c-0.414,2.909-0.908,6.471-2.648,9.063c-1.562,2.335-2.888,2.514-4.392,2.752   C222.536,173.248,221.844,173.347,221.151,173.644z"/>
</g>
<path style="fill:#FFE15A;" d="M224.735,181.32c-1.069-0.929-2.177-2.571-3.049-5.48c0.554-0.317,1.148-0.416,1.839-0.515  c1.662-0.258,3.759-0.595,5.855-3.702c2.037-2.988,2.59-6.867,3.023-10.013c0.237-1.761,0.473-3.622,0.948-4.175  c0.494-0.594,1.998-0.931,3.086-0.437c1.247,0.574,1.247,1.959,1.069,3.007c-0.395,2.375-2.115,4.631-3.777,6.867  c-1.72,2.257-3.342,4.414-3.539,6.689c-0.138,1.564,0.734,3.878,2.159,6.865c-0.909,1.128-1.879,1.98-3.105,2.158  C227.486,182.842,225.982,182.388,224.735,181.32z"/>
<g>
	<path style="fill:#F5F5F5;" d="M233.777,178.27c-0.892-1.978-1.465-3.601-1.387-4.551c0.118-1.623,1.562-3.522,3.104-5.522   c1.74-2.295,3.698-4.928,4.192-7.797c0.316-1.721-0.021-2.929-0.497-3.759c2.394,0.652,4.492,1.7,5.66,3.52   c1.247,1.859,2.059,3.897,2.851,5.974c-1.128,1.663-2.136,2.791-8.348,5.325c-2.116,0.872-3.521,3.286-4.845,5.641   C234.271,177.478,234.014,177.894,233.777,178.27z"/>
	<path style="fill:#F5F5F5;" d="M231.755,223.204c-0.714-5.896-3.831-32.131-3.477-37.097c0.02-0.237-0.06-0.474-0.159-0.673   c-0.139-0.217-0.257-0.375-0.396-0.594c0.614,0.06,1.227,0.02,1.86-0.06c1.544-0.218,2.77-1.089,3.818-2.198   c0.456,0.97,0.95,1.959,1.505,3.027c2.495,4.807,5.247,10.286,7.287,16.004c3.506,9.813,3.628,20.655,3.531,24.216   C241.391,224.878,236.372,223.806,231.755,223.204z"/>
	<path style="fill:#F5F5F5;" d="M247.922,226.68c0.118-2.513,0.371-14.602-3.63-25.8c-2.1-5.896-5.01-11.652-7.406-16.262   c-0.693-1.385-1.366-2.71-1.98-3.957c0.514-0.831,1.028-1.663,1.483-2.474c1.246-2.098,2.392-4.097,3.817-4.671   c5.223-2.138,7.102-3.426,8.387-4.91c0.079,0.237,0.179,0.435,0.257,0.673c1.288,3.758,2.634,7.695,5.287,11.593   c4.594,6.745,12.534,25.598,13.686,35.866l-14.735,12.273C252.137,228.538,250.257,227.649,247.922,226.68z"/>
	<path style="fill:#F5F5F5;" d="M366.18,170.133c6.068-0.281,12.847,2.635,13.789,3.783c0.168,0.211,0.198,0.447,0.111,0.748   c-0.335,0.946-1.964,2.204-4.754,2.74c-0.275,0.052-0.628,0.146-1.039,0.223L366.18,170.133z"/>
	<path style="fill:#F5F5F5;" d="M360.323,171.158c1.1-0.205,2.179-0.45,2.983-0.643l8.373,7.7c-1.001,0.202-2.08,0.446-3.236,0.734   L360.323,171.158z"/>
</g>
<path style="fill:#FFE15A;" d="M353.864,172.011c1.302-0.116,2.543-0.248,3.725-0.398l8.265,7.961  c-1.195,0.309-2.45,0.6-3.683,0.931L353.864,172.011z"/>
<g>
	<path style="fill:#F5F5F5;" d="M348.982,172.242c0.653-0.009,1.306-0.017,1.998-0.046l8.724,8.971   c-2.076,0.545-4.07,1.146-5.789,1.695L348.982,172.242z"/>
	<path style="fill:#F5F5F5;" d="M343.306,171.496c0.924,0.297,1.981,0.469,3.154,0.577l5.351,11.553   c-1.091,0.404-2.046,0.781-2.703,1.146c-0.503,0.279-0.946,0.575-1.427,0.893c-0.198-0.447-0.455-0.911-0.67-1.298   c-1.546-2.785-3.144-4.479-4.673-5.502C343.777,175.991,343.683,173.361,343.306,171.496z"/>
	<path style="fill:#F5F5F5;" d="M340.474,170.133c0.309,0.739,1.717,4.006-0.14,7.769c-1.47-0.551-2.716-0.516-3.502-0.384   c-3.893,0.643-4.473,11.541-4.433,17.995c0.012,3.029-1.493,6.243-3.492,9.479c-0.068-0.215-0.154-0.37-0.262-0.563   c-1.374-2.475-3.63-3.805-5.099-4.355c1.032-1.788,1.991-3.433,2.799-4.894c4.003-6.827,5.81-9.954,6.357-15.167   c0.013-0.159,0.004-0.356-0.082-0.511c-0.777-1.946-2.537-7.852-0.387-9.45C335.168,167.865,337.824,167.911,340.474,170.133z"/>
	<path style="fill:#F5F5F5;" d="M337.183,179.701c1.474-0.262,5.247-0.029,8.691,7.27c-3.679,2.852-5.555,6.22-5.302,9.774   c0.299,4.641-1.903,23.828-4.267,33.336c-4.632,0.952-9.647-0.515-13.905-4.173c-0.636-0.508-1.19-0.959-1.74-1.311   c0.319-1.796,0.818-3.541,1.579-5.177c1.217-2.548,3.083-5.203,5.06-8.021c3.598-5.185,7.348-10.556,7.316-15.902   C334.585,185.596,336.1,179.847,337.183,179.701z"/>
	<path style="fill:#F5F5F5;" d="M322.462,202.041c1.143,0.327,4.159,1.841,4.94,5.252c-0.632,0.958-1.286,1.877-1.918,2.836   c-2.034,2.9-3.956,5.636-5.224,8.365c-0.782,1.598-1.282,3.342-1.622,5.1c-2.475-0.904-4.249-0.273-5.685,0.424   c0.935-4.516,2.633-9.204,5.235-14.089C319.778,206.87,321.193,204.314,322.462,202.041z"/>
	<path style="fill:#F5F5F5;" d="M312.53,226.631c0.331-0.134,0.701-0.288,1.048-0.481c1.358-0.652,2.699-1.246,4.718-0.342   c-0.518,4.537-0.021,9.171,0.717,12.961c-2.325-0.632-4.37-0.762-6.098-0.41c0,0,0,0-0.021-0.039   C312.024,234.654,311.914,230.718,312.53,226.631z"/>
	<path style="fill:#F5F5F5;" d="M320.355,227.145c0.184,0.15,0.386,0.241,0.593,0.43c4.463,3.848,9.727,5.581,14.669,4.913   c-0.843,2.947-1.794,5.247-2.547,7.081c-0.882,2.058-1.523,3.73-1.686,5.44c-3.712-2.494-7.037-4.291-9.959-5.452   c-0.021-0.039-0.021-0.039-0.043-0.077C320.636,235.946,319.988,231.498,320.355,227.145z"/>
	<path style="fill:#F5F5F5;" d="M321.389,241.954c2.702,1.131,6.049,2.967,10.195,5.878c0.284,1.057,0.605,2.093,0.879,2.953   c0.704,2.089,1.12,3.477,0.574,5.045c-0.297,0.924-1.415,3.011-3.019,5.319c-0.009-0.198-0.018-0.395-0.064-0.572   c-0.352-1.272-1.735-2.579-3.527-4.165c-2.165-1.986-4.824-4.406-5.98-7.308c-1.043-2.609-0.441-3.804,0.213-5.178   C320.934,243.32,321.242,242.692,321.389,241.954z"/>
</g>
<path style="fill:#FFE15A;" d="M313.032,240.572c1.371-0.356,3.352-0.342,6.244,0.583c-0.052,0.636-0.306,1.182-0.616,1.809  c-0.727,1.516-1.634,3.437-0.256,6.923c1.313,3.37,4.201,6.017,6.55,8.154c1.319,1.191,2.719,2.438,2.909,3.143  c0.211,0.744-0.362,2.174-1.385,2.793c-1.177,0.704-2.321-0.078-3.085-0.818c-1.736-1.668-2.624-4.363-3.53-6.997  c-0.888-2.695-1.751-5.251-3.517-6.7c-1.212-0.998-3.614-1.587-6.883-2.1c-0.417-1.388-0.57-2.668-0.024-3.782  C310.221,241.98,311.446,240.996,313.032,240.572z"/>
<g>
	<path style="fill:#F5F5F5;" d="M310.438,249.753c2.135,0.383,3.798,0.826,4.537,1.428c1.271,1.015,2.023,3.279,2.799,5.682   c0.91,2.733,1.974,5.836,4.062,7.865c1.241,1.234,2.428,1.638,3.381,1.716c-1.891,1.607-3.941,2.744-6.103,2.679   c-2.239-0.022-4.378-0.504-6.54-1.025c-0.734-1.869-1.095-3.339,0.327-9.897c0.478-2.239-0.721-4.761-1.914-7.186   C310.81,250.609,310.613,250.162,310.438,249.753z"/>
	<path style="fill:#F5F5F5;" d="M274.514,222.685c5.268,2.743,28.67,15.004,32.566,18.103c0.184,0.15,0.425,0.22,0.644,0.249   c0.258,0.009,0.456,0,0.714,0.009c-0.395,0.472-0.71,1.001-1.002,1.568c-0.693,1.397-0.668,2.901-0.345,4.392   c-1.057-0.172-2.153-0.323-3.348-0.47c-5.376-0.66-11.452-1.486-17.321-3.036c-10.076-2.655-19.09-8.683-21.972-10.777   C267.631,229.88,271.838,226.194,274.514,222.685z"/>
	<path style="fill:#F5F5F5;" d="M262.507,234.056c2.006,1.517,11.836,8.561,23.333,11.59c6.05,1.601,12.444,2.454,17.6,3.083   c1.534,0.211,3.008,0.405,4.383,0.604c0.395,0.894,0.79,1.788,1.203,2.622c1.026,2.214,2.027,4.289,1.695,5.789   c-1.188,5.517-1.188,7.795-0.691,9.695c-0.241-0.07-0.46-0.099-0.701-0.168c-3.829-1.063-7.838-2.177-12.552-2.193   c-8.161-0.024-28.201-4.131-37.323-8.986l-1.793-19.093C258.592,236.482,260.388,235.434,262.507,234.056z"/>
</g>
<path style="fill:#464655;" d="M381.988,172.996c-0.107-0.193-0.193-0.348-0.318-0.481c-1.714-2.084-11.742-5.93-18.855-4.158  c-7.68,1.935-18.135,2.425-20.726,0.22c-3.319-2.936-7.006-3.052-10.65-0.567l-1.472-1.314l2.183-6.342  c0.103-0.305,0.068-0.629-0.081-0.897c-0.076-0.136-0.18-0.258-0.313-0.355c-0.392-0.287-0.922-0.286-1.313,0.002l-6.287,4.653  l-5.337-2.712c-0.369-0.188-0.812-0.154-1.146,0.088c-0.335,0.241-0.509,0.651-0.447,1.059l1.142,7.67l-5.678,6.432  c-0.306,0.348-0.364,0.847-0.146,1.255c0.22,0.266,0.666,0.636,1.124,0.574l6.976-0.954l1.73,6.344  c0.129,0.469,0.526,0.785,0.998,0.813c0.471,0.03,0.91-0.243,1.092-0.681l3.15-7.624l1.598-0.811c0.327,2.125,0.99,4.06,1.273,4.817  c-0.534,4.598-2.306,7.605-6.008,14.062c-2.158,3.678-4.794,8.227-8.235,14.793c-5.728,10.921-7.571,21.002-5.482,29.963  c-0.631,0.047-1.581,0.067-2.574,0.012c-5.28-3.951-32.545-18.065-33.7-18.688c-0.064-0.033-4.499-3.841-4.499-3.841  c-1.229-10.752-9.248-29.645-13.99-36.704c-2.514-3.68-3.801-7.438-5.049-11.079c-1.188-3.363-2.259-6.568-4.218-9.575  c-4.355-6.726-17.987-5.771-21.272-4.938c-2.335,0.615-3.601,2.257-5.044,4.157c-0.574,0.753-1.226,1.564-2.037,2.494  c-1.345,1.504-3.224,1.901-6.252,2.516c-2.374,0.495-5.362,1.13-9.259,2.496c-9.14,3.247-27.339,12.95-31.217,15.959  c-3.818,2.989-9.378,0.953-12.346-0.53c-4.195-2.095-16.863-13.666-20.307-17.067c-2.396-2.334-5.106-3.441-7.104-2.905  c-0.851,0.217-1.524,0.772-1.879,1.484c-0.099,0.198-0.178,0.356-0.217,0.534c-0.751,2.592,1.746,13.038,7.229,17.903  c5.938,5.241,12.253,13.588,11.897,16.972c-0.546,4.397,1.443,7.505,5.554,9.107l-0.252,1.956l-6.464,1.784  c-0.309,0.087-0.557,0.299-0.694,0.573c-0.07,0.139-0.111,0.295-0.116,0.459c-0.015,0.486,0.286,0.922,0.745,1.081l7.392,2.556  l0.78,5.937c0.053,0.41,0.332,0.757,0.721,0.896c0.388,0.141,0.824,0.052,1.127-0.23l5.682-5.278l8.515,1.047  c0.46,0.056,0.905-0.179,1.118-0.588c0.096-0.332,0.148-0.909-0.162-1.252l-4.732-5.215l4.255-5.013  c0.314-0.372,0.35-0.878,0.107-1.282c-0.242-0.406-0.715-0.614-1.178-0.516l-8.071,1.711l-1.571-0.86  c1.569-1.471,2.788-3.111,3.254-3.773c4.095-2.158,7.577-2.397,14.997-2.994c4.254-0.298,9.497-0.696,16.857-1.569  c12.247-1.449,21.604-5.628,27.815-12.416c0.396,0.494,0.95,1.266,1.464,2.116c-0.275,6.589,3.497,37.057,3.636,38.364  c0.009,0.068-0.065,3.292-0.065,3.292c-9.067,5.931-22.324,21.457-26.511,28.838c-2.168,3.893-4.956,6.724-7.655,9.468  c-2.477,2.567-4.866,4.956-6.68,8.052c-4.071,6.902,2.876,18.67,5.088,21.237c1.592,1.814,3.628,2.212,5.973,2.655  c0.929,0.177,1.947,0.398,3.142,0.707c1.946,0.531,3.142,2.035,5.044,4.469c1.504,1.902,3.406,4.291,6.371,7.167  c6.99,6.726,23.802,18.67,28.227,20.794c4.38,2.08,5.044,7.964,5.044,11.282c0,4.69-4.69,21.193-6.194,25.793  c-1.017,3.186-0.797,6.105,0.575,7.654c0.575,0.664,1.372,1.017,2.168,1.017c0.221,0,0.398,0,0.575-0.044  c2.655-0.487,10.883-7.389,12.787-14.467c2.035-7.654,6.68-17.033,9.866-18.228c4.178-1.476,6.069-4.644,5.665-9.037l1.863-0.649  l4.484,4.987c0.216,0.237,0.516,0.365,0.823,0.365c0.156,0,0.313-0.032,0.462-0.102c0.44-0.203,0.697-0.668,0.636-1.15l-1.017-7.755  l4.962-3.35c0.343-0.231,0.53-0.636,0.48-1.046c-0.047-0.411-0.322-0.76-0.708-0.905l-7.261-2.724l-2.869-8.086  c-0.156-0.436-0.564-0.73-1.026-0.737c-0.339,0.063-0.879,0.275-1.048,0.704l-2.553,6.566l-6.386-1.566  c-0.473-0.115-0.942,0.079-1.195,0.478c-0.255,0.397-0.229,0.914,0.065,1.286l5.138,6.455l-0.066,1.79  c-2.017-0.746-4.03-1.105-4.83-1.225c-3.761-2.699-5.53-5.707-9.379-12.078c-2.168-3.672-4.867-8.185-8.937-14.379  c-6.77-10.308-14.689-16.812-23.538-19.335c0.266-0.575,0.708-1.416,1.239-2.257c6.017-2.699,31.59-19.688,32.695-20.396  c0.015-0.01,0.013-0.035,0.028-0.046l3.459-1.998c9.589,5.048,29.634,9.096,38.119,9.175c4.456,0.007,8.285,1.069,11.992,2.098  c3.446,0.92,6.695,1.85,10.283,1.933c8.01,0.209,14.929-11.576,16.099-14.755c0.813-2.273,0.173-4.246-0.578-6.51  c-0.296-0.898-0.597-1.896-0.906-3.091c-0.481-1.96,0.255-3.734,1.459-6.579c0.934-2.238,2.099-5.062,3.175-9.048  c2.487-9.376,4.772-29.873,4.482-34.772c-0.308-4.839,4.515-8.275,7.416-9.885c4.1-2.276,20.806-6.185,25.558-7.103  c3.279-0.657,5.725-2.266,6.413-4.217C382.452,174.561,382.376,173.693,381.988,172.996z M329.018,172.828l-2.773,1.408  c-0.235,0.12-0.42,0.32-0.522,0.564l-2.068,5.007l-1.133-4.152c-0.146-0.547-0.666-0.881-1.215-0.806l-4.991,0.682l4.051-4.588  c0.217-0.246,0.312-0.574,0.264-0.895l-0.903-6.059l4.036,2.051c0.373,0.191,0.822,0.154,1.16-0.095l3.974-2.942l-1.262,3.668  c-0.141,0.417-0.019,0.883,0.309,1.185l1.871,1.672C329.26,170.467,329.041,171.623,329.018,172.828z M326.345,195.18  c4.003-6.827,5.81-9.954,6.357-15.167c0.013-0.159,0.004-0.356-0.082-0.512c-0.777-1.947-2.537-7.852-0.387-9.45  c2.936-2.187,5.591-2.142,8.242,0.081c0.309,0.739,1.717,4.006-0.14,7.769c-1.47-0.551-2.716-0.516-3.502-0.384  c-3.893,0.643-4.473,11.541-4.433,17.995c0.012,3.03-1.493,6.243-3.492,9.479c-0.068-0.215-0.154-0.37-0.262-0.563  c-1.374-2.475-3.63-3.805-5.099-4.355C324.577,198.286,325.536,196.641,326.345,195.18z M318.187,209.93  c1.591-3.059,3.006-5.615,4.275-7.889c1.143,0.327,4.159,1.841,4.94,5.254c-0.632,0.958-1.286,1.878-1.918,2.836  c-2.034,2.9-3.956,5.636-5.225,8.365c-0.782,1.598-1.282,3.342-1.622,5.1c-2.475-0.904-4.249-0.273-5.685,0.424  C313.886,219.502,315.585,214.815,318.187,209.93z M312.53,226.631c0.331-0.132,0.701-0.288,1.048-0.481  c1.358-0.652,2.699-1.246,4.718-0.342c-0.518,4.537-0.021,9.171,0.717,12.961c-2.325-0.632-4.37-0.762-6.098-0.41  c0,0,0,0-0.022-0.039C312.024,234.654,311.914,230.718,312.53,226.631z M307.724,241.037c0.258,0.009,0.456,0,0.714,0.009  c-0.396,0.472-0.71,1.001-1.002,1.568c-0.692,1.396-0.668,2.901-0.345,4.392c-1.057-0.172-2.153-0.323-3.348-0.47  c-5.376-0.66-11.452-1.486-17.321-3.036c-10.077-2.655-19.09-8.683-21.972-10.777c2.771-2.641,6.781-5.751,10.063-10.039  c5.268,2.743,28.67,15.004,32.566,18.103C307.265,240.939,307.506,241.007,307.724,241.037z M257.266,256.381l-2.445,1.412  c-4.236-6.1-4.004-21.02-4.004-21.19c0.044-0.442-0.221-0.841-0.619-1.017l-18.327-8.021l0.105-1.881  c9.557,1.102,20.606,5.548,20.759,5.624c0.376,0.237,0.851,0.178,1.187-0.099l15.208-12.68l3.273,2.925  c-4.742,5.824-16.279,13.869-16.428,13.952c-0.408,0.177-0.628,0.601-0.589,1.035L257.266,256.381z M248.593,168.608  c0.079,0.237,0.179,0.436,0.257,0.672c1.288,3.759,2.634,7.697,5.287,11.593c4.593,6.745,12.534,25.598,13.685,35.866  l-14.735,12.273c-0.95-0.474-2.83-1.364-5.165-2.333c0.118-2.513,0.371-14.602-3.63-25.8c-2.1-5.896-5.011-11.652-7.406-16.262  c-0.693-1.385-1.366-2.71-1.98-3.957c0.514-0.831,1.028-1.663,1.483-2.474c1.246-2.098,2.392-4.097,3.817-4.671  C245.428,171.38,247.307,170.092,248.593,168.608z M244.85,160.161c1.247,1.859,2.059,3.897,2.851,5.974  c-1.127,1.663-2.135,2.791-8.348,5.325c-2.116,0.872-3.521,3.286-4.845,5.641c-0.237,0.376-0.494,0.792-0.732,1.167  c-0.892-1.978-1.465-3.601-1.387-4.551c0.118-1.623,1.562-3.522,3.105-5.522c1.74-2.295,3.698-4.928,4.192-7.797  c0.317-1.721-0.021-2.929-0.497-3.759C241.583,157.293,243.681,158.342,244.85,160.161z M222.175,159.517  c1.325-1.761,2.234-2.89,3.837-3.326c0.93-0.277,3.284-0.535,6.094-0.516c-0.158,0.119-0.317,0.237-0.435,0.376  c-0.851,1.01-1.146,2.889-1.442,5.263c-0.415,2.909-0.908,6.471-2.648,9.064c-1.562,2.335-2.888,2.514-4.392,2.752  c-0.653,0.119-1.345,0.217-2.038,0.515c-0.595-2.869-0.972-6.667-0.915-11.733C220.948,161.08,221.621,160.23,222.175,159.517z   M212.58,165.357c2.196-0.436,3.937-0.853,5.441-1.684c0.041,4.471,0.438,8.231,1.132,11.297c-0.02,0.04-0.02,0.04-0.04,0.079  c-2.492,2.613-5.795,5.661-9.593,7.819c0.02-0.237-0.02-0.456,0.02-0.732c0.651-5.857-0.895-11.179-4.239-14.878  C208.207,166.289,210.642,165.773,212.58,165.357z M173.015,183.377c3.659-2.87,20.732-11.9,29.91-15.326  c3.404,3.283,5.028,8.248,4.417,13.828c-0.058,0.811-0.118,1.524-0.098,2.176c-1.662,0.753-3.383,1.327-5.164,1.624  c-2.79,0.436-6.035,0.398-9.478,0.36c-6.312-0.038-12.861-0.094-17.252,2.954c-8.15,5.622-13.748,7.623-14.481,6.812  c-1.049-1.068-2.989-4.312,1.085-11.278C166.388,185.952,170.227,185.594,173.015,183.377z M136.587,177.297  c-3.662-4.846-5.089-12.087-4.674-13.512c0.079-0.257,0.257-0.415,0.554-0.514c0.97-0.257,2.929,0.375,4.948,2.372  c0.198,0.198,0.474,0.435,0.771,0.732L136.587,177.297z M140.744,181.549c-0.792-0.791-1.603-1.543-2.217-2.097l1.619-11.258  c0.732,0.712,1.544,1.463,2.434,2.254L140.744,181.549z M142.664,183.546l1.896-11.318c0.93,0.811,1.88,1.682,2.85,2.511  l-2.311,11.655C144.267,185.386,143.456,184.437,142.664,183.546z M148.047,190.292c-0.376-0.534-0.753-1.068-1.167-1.622  l2.468-12.268c1.623,1.405,3.246,2.709,4.671,3.817L148.047,190.292z M149.335,192.468l6.506-10.944  c0.95,0.672,1.801,1.246,2.474,1.582c0.514,0.257,1.01,0.455,1.544,0.672c-0.257,0.415-0.494,0.89-0.692,1.287  c-1.423,2.85-1.918,5.126-1.897,6.965c-3.186,0.436-5.302,2.001-6.627,3.366C150.365,194.466,149.909,193.496,149.335,192.468z   M162.546,207.919c0.232,0.126,0.502,0.167,0.76,0.111l5.3-1.124l-2.784,3.282c-0.369,0.429-0.35,1.047,0.023,1.458l3.384,3.731  l-6.074-0.747c-0.326-0.04-0.649,0.067-0.887,0.288l-4.488,4.17l-0.59-4.489c-0.053-0.415-0.338-0.765-0.735-0.903l-4.673-1.614  l3.74-1.033c0.424-0.119,0.739-0.483,0.802-0.925l0.321-2.488c1.088-0.072,2.166-0.544,3.172-1.207L162.546,207.919z   M186.095,188.873c-1.266,2.532-1.086,5.144-0.71,6.668c-2.058,0.159-3.957,0.298-5.619,0.457  c-7.894,0.557-11.496,0.835-16.105,3.33c-0.139,0.078-0.297,0.198-0.375,0.356c-1.166,1.741-5.043,6.531-7.576,5.662  c-3.464-1.186-4.928-3.402-4.593-6.845c0.435-0.673,2.333-3.681,6.488-4.276c0.376,1.524,1.109,2.532,1.663,3.106  c2.731,2.848,12.049-2.834,17.35-6.516c2.493-1.722,5.994-2.297,9.793-2.477C186.274,188.516,186.195,188.674,186.095,188.873z   M196.545,194.389c-3.423,0.417-6.332,0.695-8.924,0.934c-0.376-1.128-0.832-4.471,1.54-7.044c1.148-0.021,2.275-0.001,3.423-0.021  c3.542,0.039,6.886,0.077,9.854-0.419c1.761-0.257,3.482-0.832,5.124-1.545c0.654,2.552,2.178,3.659,3.563,4.45  C206.872,192.525,202.045,193.773,196.545,194.389z M222.955,182.706c-2.531,2.791-5.716,5.107-9.436,6.909  c-0.297-0.198-0.633-0.415-0.99-0.594c-1.306-0.751-2.553-1.523-2.95-3.699c4.035-2.138,7.576-5.166,10.285-7.918  c0.792,2.275,1.842,4.035,3.108,5.262C222.975,182.666,222.975,182.666,222.955,182.706z M224.735,181.32  c-1.068-0.93-2.177-2.571-3.049-5.48c0.554-0.317,1.148-0.416,1.839-0.515c1.662-0.258,3.759-0.595,5.855-3.702  c2.037-2.988,2.59-6.867,3.023-10.013c0.237-1.761,0.473-3.622,0.948-4.175c0.494-0.594,1.998-0.931,3.086-0.437  c1.247,0.574,1.247,1.959,1.069,3.007c-0.395,2.375-2.115,4.631-3.776,6.867c-1.72,2.257-3.342,4.414-3.539,6.689  c-0.138,1.564,0.734,3.878,2.159,6.866c-0.909,1.128-1.879,1.98-3.105,2.158C227.486,182.842,225.982,182.388,224.735,181.32z   M228.278,186.106c0.02-0.237-0.06-0.474-0.159-0.673c-0.139-0.217-0.257-0.375-0.396-0.594c0.614,0.06,1.227,0.02,1.859-0.06  c1.544-0.218,2.77-1.089,3.818-2.198c0.456,0.97,0.95,1.959,1.505,3.027c2.495,4.808,5.247,10.286,7.287,16.004  c3.506,9.813,3.628,20.655,3.531,24.217c-4.289-0.931-8.644-1.899-13.97-2.626C231.041,217.308,227.925,191.073,228.278,186.106z   M197.06,267.795c2.787-2.831,5.707-5.795,8.008-9.91c3.981-7.123,17.299-22.653,25.971-28.271l17.565,7.699  c0,1.062,0.044,3.142,0.221,5.663c-2.301,1.017-13.228,6.194-21.458,14.777c-4.335,4.513-8.185,9.689-11.238,13.892  c-0.929,1.239-1.814,2.433-2.655,3.54c-0.973-0.088-1.946-0.177-2.876-0.221c-2.433-0.177-4.734-0.31-5.885-1.327  c-4.247-3.716-6.239-4.822-8.141-5.309C196.75,268.149,196.883,267.972,197.06,267.795z M190.07,282.086  c-0.487-2.433-0.487-4.778,0.619-6.636c1.106-1.946,2.566-3.584,4.071-5.22c1.991,0.266,3.45,0.664,8.494,5.088  c1.726,1.504,4.513,1.682,7.212,1.814c0.442,0.044,0.929,0.088,1.372,0.132c-1.372,1.682-2.567,2.92-3.45,3.274  c-1.504,0.619-3.849,0.177-6.327-0.31c-2.831-0.531-6.061-1.106-8.849-0.266C191.53,280.448,190.601,281.289,190.07,282.086z   M193.831,282.086c2.301-0.707,5.088-0.177,7.831,0.31c2.787,0.531,5.442,1.017,7.565,0.177c1.46-0.575,3.142-2.389,5.176-5  c1.416,0.309,2.61,0.797,3.318,1.814c1.017,1.46,1.283,3.008,0.885,4.601c-0.354,1.372-1.327,3.097-3.54,5.176  c-0.531-0.354-0.885-0.841-1.283-1.416c-0.973-1.372-2.212-3.097-5.929-3.584c-3.584-0.487-7.3,0.753-10.308,1.77  c-1.682,0.575-3.452,1.195-4.159,1.017c-0.753-0.178-1.726-1.372-1.77-2.567C191.574,283.015,192.813,282.396,193.831,282.086z   M203.254,296.685c-1.062-0.266-2.123-0.487-3.008-0.663c-2.168-0.398-3.584-0.708-4.69-1.947c-0.664-0.708-1.947-2.699-3.186-5.22  c0.178,0.088,0.354,0.177,0.531,0.221c1.283,0.31,3.096-0.266,5.353-1.062c2.787-0.929,6.194-2.08,9.291-1.682  c2.787,0.354,3.54,1.46,4.424,2.699c0.398,0.531,0.797,1.106,1.372,1.592C211.041,292.438,207.811,294.473,203.254,296.685z   M209.758,301.995c-1.372-1.77-2.521-3.142-3.938-4.115c3.981-2.035,7.167-4.071,9.601-6.061c0.044,0,0.044,0,0.088,0  c3.45,1.062,7.654,2.655,11.282,5.088c-0.221,0.088-0.398,0.221-0.664,0.309c-5.53,2.035-9.601,5.796-11.414,10.442  C212.545,305.49,210.997,303.543,209.758,301.995z M243.56,329.336c-4.203-1.991-19.91-13.228-27.076-19.91  c1.416-4.513,5.132-8.184,10.397-10.132c0.753-0.31,1.416-0.575,1.991-0.885c1.416,1.151,2.699,2.433,3.761,3.893  c1.638,2.301,3.053,5.22,4.557,8.318c2.787,5.663,5.663,11.548,10.353,14.113c8.672,4.778,12.963,8.893,12.565,9.91  c-0.487,1.416-2.521,4.601-10.574,4.071C248.824,334.115,246.79,330.841,243.56,329.336z M244.399,374.862  c-0.266,0.044-0.487-0.044-0.707-0.266c-0.664-0.753-0.973-2.787-0.088-5.486c0.088-0.266,0.178-0.619,0.31-1.017l10.486-3.451  C251.7,370.084,245.86,374.598,244.399,374.862z M255.46,361.943l-10.795,3.584c0.31-0.973,0.619-2.035,0.929-3.186l10.751-3.318  C255.991,360.085,255.682,361.148,255.46,361.943z M257.274,356.413l-10.973,3.362c0.31-1.194,0.664-2.433,0.973-3.672l11.458-3.142  C258.204,354.157,257.717,355.307,257.274,356.413z M259.974,350.351l-12.078,3.274c0.531-2.079,0.973-4.115,1.327-5.884  l11.68,0.841C260.593,349.158,260.284,349.732,259.974,350.351z M262.274,346.458l-12.697-0.929c0.177-1.151,0.309-2.168,0.309-2.92  c0-0.575-0.044-1.106-0.088-1.682c0.487,0.044,1.017,0.044,1.46,0.044c3.186,0,5.442-0.575,7.079-1.416  c1.814,2.655,4.159,3.849,5.973,4.424C263.602,344.644,262.937,345.485,262.274,346.458z M266.58,322.766l4.18,1.024  c0.548,0.138,1.094-0.156,1.294-0.672l1.825-4.694l2.046,5.768c0.11,0.309,0.35,0.551,0.654,0.665l5.736,2.152l-3.753,2.534  c-0.348,0.233-0.534,0.643-0.48,1.06l0.643,4.902l-2.594-2.884c-0.296-0.327-0.762-0.445-1.186-0.305l-2.37,0.824  c-0.551-0.941-1.454-1.695-2.497-2.298l0.115-3.107c0.009-0.264-0.076-0.523-0.239-0.73L266.58,322.766z M251.832,317.656  c4.026,6.814,5.885,9.91,10.176,12.919c0.132,0.088,0.309,0.177,0.487,0.177c2.079,0.266,8.096,1.592,8.45,4.247  c0.487,3.628-0.841,5.929-4.071,7.167c-0.797-0.088-4.335-0.442-6.725-3.893c1.195-1.017,1.77-2.123,2.035-2.876  c1.327-3.716-7.919-9.512-13.582-12.609c-2.655-1.46-4.734-4.335-6.592-7.654c0.221,0.044,0.398,0.044,0.619,0.044  c2.831,0,5.088-1.327,6.282-2.345C249.974,314.604,250.948,316.241,251.832,317.656z M242.895,303.367  c1.902,2.876,3.45,5.354,4.822,7.565c-0.841,0.841-3.628,2.743-6.99,1.77c-0.531-1.017-1.017-2.035-1.548-3.052  c-1.548-3.186-3.008-6.194-4.778-8.628c-1.017-1.46-2.301-2.743-3.672-3.893c1.991-1.726,2.301-3.584,2.389-5.176  C236.614,294.961,239.887,298.721,242.895,303.367z M231.039,290.315c-0.044,0.354-0.088,0.753-0.088,1.151  c-0.088,1.504-0.221,2.965-1.991,4.291c-3.716-2.655-8.008-4.469-11.68-5.663c1.682-1.726,2.787-3.451,3.318-5.132c0,0,0,0,0.044,0  C224.269,285.978,227.765,287.793,231.039,290.315z M221.305,278.679c-0.221,0.088-0.398,0.266-0.531,0.442  c-0.132,0.221-0.221,0.398-0.354,0.619c-0.221-0.575-0.531-1.106-0.885-1.636c-0.885-1.283-2.212-1.991-3.672-2.433  c0.664-0.841,1.327-1.726,2.035-2.699c3.186-4.38,6.858-9.291,11.061-13.671c7.212-7.521,16.856-12.477,20.086-13.981  c0.487,4.69,1.548,10.22,3.893,13.671C247.983,262.264,225.907,276.776,221.305,278.679z M310.722,257.742  c-1.188,5.517-1.19,7.795-0.691,9.694c-0.241-0.068-0.46-0.099-0.701-0.168c-3.829-1.063-7.838-2.177-12.552-2.193  c-8.16-0.024-28.201-4.131-37.323-8.986l-1.793-19.093c0.928-0.515,2.724-1.564,4.844-2.942c2.006,1.517,11.836,8.561,23.334,11.59  c6.05,1.601,12.444,2.454,17.6,3.083c1.534,0.212,3.008,0.405,4.383,0.604c0.395,0.894,0.79,1.788,1.203,2.622  C310.053,254.166,311.053,256.243,310.722,257.742z M319.115,269.124c-2.239-0.022-4.378-0.504-6.54-1.025  c-0.734-1.869-1.095-3.339,0.327-9.897c0.478-2.239-0.721-4.761-1.914-7.186c-0.177-0.408-0.374-0.855-0.549-1.263  c2.135,0.384,3.798,0.826,4.537,1.429c1.272,1.014,2.023,3.279,2.799,5.682c0.91,2.733,1.975,5.836,4.063,7.865  c1.241,1.234,2.428,1.638,3.381,1.716C323.327,268.052,321.276,269.19,319.115,269.124z M326.477,263.975  c-1.177,0.704-2.321-0.078-3.085-0.818c-1.736-1.668-2.624-4.363-3.53-6.997c-0.888-2.695-1.751-5.252-3.517-6.7  c-1.212-0.998-3.614-1.587-6.883-2.1c-0.417-1.388-0.57-2.669-0.024-3.782c0.782-1.598,2.007-2.582,3.593-3.007  c1.37-0.356,3.352-0.342,6.244,0.583c-0.052,0.636-0.306,1.182-0.615,1.809c-0.727,1.516-1.634,3.437-0.256,6.923  c1.314,3.37,4.201,6.017,6.55,8.154c1.319,1.191,2.719,2.438,2.908,3.143C328.073,261.926,327.501,263.357,326.477,263.975z   M333.038,255.829c-0.297,0.924-1.415,3.012-3.018,5.32c-0.009-0.198-0.017-0.396-0.064-0.572c-0.352-1.272-1.735-2.579-3.527-4.165  c-2.165-1.986-4.824-4.406-5.98-7.308c-1.043-2.609-0.441-3.804,0.212-5.178c0.271-0.606,0.58-1.234,0.727-1.972  c2.702,1.131,6.049,2.967,10.195,5.878c0.284,1.057,0.605,2.093,0.881,2.953C333.169,252.873,333.585,254.261,333.038,255.829z   M333.07,239.569c-0.882,2.058-1.523,3.73-1.687,5.44c-3.712-2.494-7.037-4.291-9.959-5.452c-0.021-0.039-0.021-0.039-0.043-0.077  c-0.746-3.532-1.394-7.98-1.026-12.333c0.184,0.15,0.386,0.241,0.593,0.43c4.463,3.848,9.727,5.581,14.669,4.913  C334.773,235.435,333.823,237.735,333.07,239.569z M340.572,196.746c0.299,4.641-1.903,23.828-4.267,33.336  c-4.632,0.952-9.647-0.515-13.905-4.173c-0.636-0.508-1.19-0.959-1.74-1.311c0.319-1.796,0.818-3.541,1.579-5.177  c1.217-2.548,3.083-5.203,5.06-8.021c3.598-5.185,7.348-10.556,7.316-15.902c-0.031-9.901,1.484-15.65,2.567-15.796  c1.474-0.262,5.247-0.029,8.691,7.27C342.195,189.823,340.32,193.192,340.572,196.746z M349.107,184.772  c-0.503,0.279-0.946,0.575-1.427,0.893c-0.198-0.447-0.455-0.911-0.67-1.298c-1.546-2.785-3.144-4.479-4.673-5.502  c1.441-2.874,1.347-5.504,0.97-7.369c0.924,0.297,1.981,0.469,3.154,0.577l5.351,11.553  C350.718,184.029,349.764,184.407,349.107,184.772z M353.916,182.861l-4.934-10.621c0.653-0.009,1.306-0.017,1.998-0.046  l8.724,8.971C357.629,181.711,355.635,182.313,353.916,182.861z M362.172,180.505l-8.308-8.494c1.302-0.116,2.545-0.248,3.725-0.398  l8.265,7.961C364.66,179.883,363.405,180.175,362.172,180.505z M368.441,178.948l-8.119-7.789c1.1-0.205,2.179-0.45,2.983-0.643  l8.373,7.7C370.677,178.415,369.598,178.66,368.441,178.948z M375.326,177.404c-0.275,0.051-0.627,0.146-1.039,0.223l-8.106-7.494  c6.068-0.281,12.847,2.635,13.789,3.783c0.168,0.211,0.198,0.447,0.111,0.748C379.745,175.609,378.115,176.867,375.326,177.404z"/>
<g>
</g>
<g>
</g>
<g>
</g>
<g>
</g>
<g>
</g>
<g>
</g>
<g>
</g>
<g>
</g>
<g>
</g>
<g>
</g>
<g>
</g>
<g>
</g>
<g>
</g>
<g>
</g>
<g>
</g>
</svg>
