<?xml version="1.0" encoding="iso-8859-1"?>
<!-- Generator: Adobe Illustrator 19.0.0, SVG Export Plug-In . SVG Version: 6.00 Build 0)  -->
<svg xmlns="http://www.w3.org/2000/svg" xmlns:xlink="http://www.w3.org/1999/xlink" version="1.1" id="Layer_1" x="0px" y="0px" viewBox="0 0 512 512" style="enable-background:new 0 0 512 512;" xml:space="preserve">
<path style="fill:#F5F5F5;" d="M38.345,423.724h435.309c21.177,0,38.345-17.167,38.345-38.345V126.621  c0-21.176-17.167-38.345-38.345-38.345H38.345C17.167,88.276,0,105.445,0,126.621v258.758C0,406.556,17.167,423.724,38.345,423.724z  "/>
<g>
	<path style="fill:#41479B;" d="M512,353.103c-25.629,0-25.629-8.828-51.256-8.828c-25.629,0-25.629,8.828-51.256,8.828   c-25.611,0-25.611-8.828-51.221-8.828c-25.589,0-25.589,8.828-51.177,8.828c-25.602,0-25.602-8.828-51.204-8.828   c-25.596,0-25.596,8.828-51.191,8.828s-25.596-8.828-51.19-8.828s-25.596,8.828-51.191,8.828c-25.585,0-25.585-8.828-51.168-8.828   c-25.571,0-25.571,8.828-51.143,8.828V326.62c25.571,0,25.571-8.828,51.143-8.828c25.584,0,25.584,8.828,51.168,8.828   c25.596,0,25.596-8.828,51.191-8.828s25.596,8.828,51.19,8.828c25.596,0,25.596-8.828,51.191-8.828   c25.602,0,25.602,8.828,51.204,8.828c25.589,0,25.589-8.828,51.177-8.828c25.611,0,25.611,8.828,51.221,8.828   c25.629,0,25.629-8.828,51.256-8.828c25.629,0,25.629,8.828,51.256,8.828V353.103z"/>
	<path style="fill:#41479B;" d="M512,247.172c-25.629,0-25.629-8.828-51.256-8.828c-25.629,0-25.629,8.828-51.256,8.828   c-25.611,0-25.611-8.828-51.221-8.828c-25.589,0-25.589,8.828-51.177,8.828c-25.602,0-25.602-8.828-51.204-8.828   c-25.596,0-25.596,8.828-51.191,8.828s-25.596-8.828-51.19-8.828s-25.596,8.828-51.191,8.828c-25.585,0-25.585-8.828-51.168-8.828   c-25.571,0-25.571,8.828-51.143,8.828V220.69c25.571,0,25.571-8.828,51.143-8.828c25.584,0,25.584,8.828,51.168,8.828   c25.596,0,25.596-8.828,51.191-8.828s25.596,8.828,51.19,8.828c25.596,0,25.596-8.828,51.191-8.828   c25.602,0,25.602,8.828,51.204,8.828c25.589,0,25.589-8.828,51.177-8.828c25.611,0,25.611,8.828,51.221,8.828   c25.629,0,25.629-8.828,51.256-8.828c25.629,0,25.629,8.828,51.256,8.828V247.172z"/>
	<path style="fill:#41479B;" d="M512,194.207c-25.629,0-25.629-8.828-51.256-8.828c-25.629,0-25.629,8.828-51.256,8.828   c-25.611,0-25.611-8.828-51.221-8.828c-25.589,0-25.589,8.828-51.177,8.828c-25.602,0-25.602-8.828-51.204-8.828   c-25.596,0-25.596,8.828-51.191,8.828s-25.596-8.828-51.19-8.828s-25.596,8.828-51.191,8.828c-25.585,0-25.585-8.828-51.168-8.828   c-25.571,0-25.571,8.828-51.143,8.828v-26.483c25.571,0,25.571-8.828,51.143-8.828c25.584,0,25.584,8.828,51.168,8.828   c25.596,0,25.596-8.828,51.191-8.828s25.596,8.828,51.19,8.828c25.596,0,25.596-8.828,51.191-8.828   c25.602,0,25.602,8.828,51.204,8.828c25.589,0,25.589-8.828,51.177-8.828c25.611,0,25.611,8.828,51.221,8.828   c25.629,0,25.629-8.828,51.256-8.828c25.629,0,25.629,8.828,51.256,8.828V194.207z"/>
	<path style="fill:#41479B;" d="M512,141.242c-25.629,0-25.629-8.828-51.256-8.828c-25.629,0-25.629,8.828-51.256,8.828   c-25.611,0-25.611-8.828-51.221-8.828c-25.589,0-25.589,8.828-51.177,8.828c-25.602,0-25.602-8.828-51.204-8.828   c-25.596,0-25.596,8.828-51.191,8.828s-25.596-8.828-51.19-8.828s-25.596,8.828-51.191,8.828c-25.585,0-25.585-8.828-51.168-8.828   c-25.571,0-25.571,8.828-51.143,8.828v-26.483c25.571,0,25.571-8.828,51.143-8.828c25.584,0,25.584,8.828,51.168,8.828   c25.596,0,25.596-8.828,51.191-8.828s25.596,8.828,51.19,8.828c25.596,0,25.596-8.828,51.191-8.828   c25.602,0,25.602,8.828,51.204,8.828c25.589,0,25.589-8.828,51.177-8.828c25.611,0,25.611,8.828,51.221,8.828   c25.629,0,25.629-8.828,51.256-8.828c25.629,0,25.629,8.828,51.256,8.828V141.242z"/>
	<path style="fill:#41479B;" d="M512,300.138c-25.629,0-25.629-8.828-51.256-8.828c-25.629,0-25.629,8.828-51.256,8.828   c-25.611,0-25.611-8.828-51.221-8.828c-25.589,0-25.589,8.828-51.177,8.828c-25.602,0-25.602-8.828-51.204-8.828   c-25.596,0-25.596,8.828-51.191,8.828s-25.596-8.828-51.19-8.828s-25.596,8.828-51.191,8.828c-25.585,0-25.585-8.828-51.168-8.828   c-25.571,0-25.571,8.828-51.143,8.828v-26.483c25.571,0,25.571-8.828,51.143-8.828c25.584,0,25.584,8.828,51.168,8.828   c25.596,0,25.596-8.828,51.191-8.828s25.596,8.828,51.19,8.828c25.596,0,25.596-8.828,51.191-8.828   c25.602,0,25.602,8.828,51.204,8.828c25.589,0,25.589-8.828,51.177-8.828c25.611,0,25.611,8.828,51.221,8.828   c25.629,0,25.629-8.828,51.256-8.828c25.629,0,25.629,8.828,51.256,8.828V300.138z"/>
	<path style="fill:#41479B;" d="M512,406.069c-25.629,0-25.629-8.828-51.256-8.828c-25.629,0-25.629,8.828-51.256,8.828   c-25.611,0-25.611-8.828-51.221-8.828c-25.589,0-25.589,8.828-51.177,8.828c-25.602,0-25.602-8.828-51.204-8.828   c-25.596,0-25.596,8.828-51.191,8.828s-25.596-8.828-51.19-8.828s-25.596,8.828-51.191,8.828c-25.585,0-25.585-8.828-51.168-8.828   c-25.571,0-25.571,8.828-51.143,8.828v-26.483c25.571,0,25.571-8.828,51.143-8.828c25.584,0,25.584,8.828,51.168,8.828   c25.596,0,25.596-8.828,51.191-8.828s25.596,8.828,51.19,8.828c25.596,0,25.596-8.828,51.191-8.828   c25.602,0,25.602,8.828,51.204,8.828c25.589,0,25.589-8.828,51.177-8.828c25.611,0,25.611,8.828,51.221,8.828   c25.629,0,25.629-8.828,51.256-8.828c25.629,0,25.629,8.828,51.256,8.828V406.069z"/>
	<path style="fill:#41479B;" d="M8.828,256h238.344c4.875,0,8.828-3.953,8.828-8.828V97.104c0-4.874-3.95-8.825-8.823-8.828H38.345   C17.167,88.276,0,105.445,0,126.621v120.551C0,252.049,3.953,256,8.828,256z"/>
</g>
<path style="fill:#F5F5F5;" d="M8.828,256h15.333l81.77-53.573V256h44.138v-53.573L231.838,256h15.333  c4.875,0,8.828-3.953,8.828-8.828v-7.002l-70.154-45.963h70.154v-44.138h-70.155l70.155-45.963v-7.002  c0-4.874-3.95-8.825-8.823-8.828h-15.338l-81.77,53.573V88.276H105.93v53.573L26.844,90.034c-9.234,2.9-16.954,9.203-21.713,17.434  l65.024,42.601H0v44.138h70.155L0,240.17v7.002C0,252.047,3.953,256,8.828,256z"/>
<g>
	<polygon style="fill:#FF4B55;" points="255.999,158.897 141.241,158.897 141.241,88.276 114.758,88.276 114.758,158.897 0,158.897    0,185.379 114.758,185.379 114.758,256 141.241,256 141.241,185.379 255.999,185.379  "/>
	<path style="fill:#FF4B55;" d="M8.227,102.902l72.662,47.167h16.214l-82.496-53.55C12.238,98.389,10.097,100.532,8.227,102.902z"/>
	<path style="fill:#FF4B55;" d="M166.283,150.069l88.374-57.366c-1.536-2.599-4.246-4.427-7.485-4.427h-1.909l-95.194,61.793   H166.283z"/>
	<path style="fill:#FF4B55;" d="M89.474,194.207L1.269,251.463C2.79,254.125,5.542,256,8.828,256h1.665l95.195-61.793H89.474z"/>
	<path style="fill:#FF4B55;" d="M255.859,247.867l-82.666-53.659H156.98l93.873,60.934   C253.666,253.837,255.594,251.102,255.859,247.867z"/>
</g>
<path style="fill:#965032;" d="M388.413,387.387L388.413,387.387c-3.375,0-6.111-2.737-6.111-6.111V185.724h12.222v195.553  C394.525,384.652,391.788,387.387,388.413,387.387z"/>
<polygon style="fill:#73AF00;" points="473.968,210.167 461.746,204.056 416.746,198.432 444.588,162.635 448.909,149.671   435.946,153.993 400.149,181.834 394.525,136.836 388.413,124.613 382.302,136.836 376.678,181.834 340.881,153.993   327.918,149.671 332.239,162.635 360.081,198.432 315.081,204.056 302.859,210.167 315.081,216.278 360.081,221.904   332.239,257.699 327.918,270.664 340.881,266.343 379.771,236.095 388.413,222.39 397.055,236.095 435.946,266.343 448.909,270.664   444.588,257.699 416.746,221.904 461.746,216.278 "/>
<path style="fill:#FFE15A;" d="M415.018,281.34c-5.492-5.482-17.252-3.467-23.549-1.877v-5.129c0-1.687-1.368-3.055-3.055-3.055  s-3.055,1.368-3.055,3.055v5.128c-6.296-1.594-18.055-3.609-23.549,1.878c-5.238,5.235-1.443,17.858,2.161,26.634v8.126  c0,2.247,1.821,4.066,4.066,4.066h40.756c2.246,0,4.066-1.821,4.066-4.066v-8.126C416.461,299.198,420.256,286.575,415.018,281.34z   M410.697,285.661c2.333,2.335-0.28,12.567-4.49,22.284h-14.739v-22.17C398.329,283.832,407.727,282.684,410.697,285.661z   M366.13,285.661c2.968-2.976,12.366-1.828,19.229,0.114v22.169H370.62C366.41,298.228,363.797,287.996,366.13,285.661z"/>
<g>
</g>
<g>
</g>
<g>
</g>
<g>
</g>
<g>
</g>
<g>
</g>
<g>
</g>
<g>
</g>
<g>
</g>
<g>
</g>
<g>
</g>
<g>
</g>
<g>
</g>
<g>
</g>
<g>
</g>
</svg>
