<?xml version="1.0" encoding="iso-8859-1"?>
<!-- Generator: Adobe Illustrator 19.0.0, SVG Export Plug-In . SVG Version: 6.00 Build 0)  -->
<svg xmlns="http://www.w3.org/2000/svg" xmlns:xlink="http://www.w3.org/1999/xlink" version="1.1" id="Layer_1" x="0px" y="0px" viewBox="0 0 512 512" style="enable-background:new 0 0 512 512;" xml:space="preserve">
<path style="fill:#FF4B55;" d="M473.655,88.276H38.345C17.167,88.276,0,105.443,0,126.621v73.471h512v-73.471  C512,105.443,494.833,88.276,473.655,88.276z"/>
<path style="fill:#464655;" d="M0,385.379c0,21.177,17.167,38.345,38.345,38.345h435.31c21.177,0,38.345-17.167,38.345-38.345  v-73.471H0V385.379z"/>
<rect y="200.09" style="fill:#F5F5F5;" width="512" height="111.81"/>
<g>
	<path style="fill:#73AF00;" d="M308.065,233.525c-0.928-0.483-2.027-2.211-1.684-2.967c0.361-0.793-0.201-0.725,1.696-0.161   c3.43,0.888,5.65,0.483,7.829-1.372l1.937-1.533l2.261,1.13c1.25,0.564,2.541,0.967,2.905,0.886   c1.049-0.242,3.069-2.825,3.027-3.713c-0.041-1.208,0.847-0.886,1.291,0.405c0.928,2.422-0.779,6.599-3.121,7.164   c-1.128,0.322-2.178,0.242-3.955-0.322c-2.098-0.808-2.422-0.808-3.55,0C314.361,234.898,311.011,235.061,308.065,233.525"/>
	<path style="fill:#73AF00;" d="M316.9,224.182c-1.132-1.587-2.493-7.14-2.095-8.499c0.395-1.248,0.792-1.474,1.869-1.134   c1.927,0.679,2.382,1.927,2.153,6.462C318.487,224.408,318.035,225.543,316.9,224.182"/>
	<path style="fill:#73AF00;" d="M241.005,248.73c-4.651,2.646-11.569,3.101-11.569,10.434c-10.13,0.377-22.076,0.831-32.85,0.604   c2.92-3.772,21.401-20.853,29.086-27.623c1.272-1.12,1.704-3.288,0.964-4.813l-0.199-0.41c-1.108-2.285-4.122-2.829-5.958-1.074   c-7.658,7.326-15.247,14.152-16.483,15.322c-9.916,10.02-12.822,12.94-14.38,14.508c-1.109,1.117-1.726,2.627-1.718,4.2   l0.001,0.103c0.017,3.27,2.673,5.911,5.942,5.911h43.381c2.457,0-0.565-8.543,2.609-8.543c2.207,0,2.41,3.065,2.313,6.312   c-0.074,2.47-2.109,4.424-4.579,4.427c-18.755,0.026-38.279,0.205-56.651,0.222c-1.517,0.001-2.735-1.23-2.735-2.748v-3.305   c0-2.802-3.112-4.431-5.454-2.893c-0.086,0.056-0.17,0.11-0.254,0.162c-1.224,0.765-1.85,2.263-1.372,3.624   c0.31,0.884,0.445,1.96,0.474,3.085c0.04,1.487-1.171,2.713-2.658,2.759c-6.076,0.186-12.679,0.241-14.554-3.342   c-1.058-2.02-3.309-2.975-5.35-1.954l-0.271,0.136c-2.148,1.074-3.009,3.731-1.832,5.824c2.238,3.979,4.28,8.595,3.22,15.06   c-0.864,2.038-2.492,3.313-4.256,4.461c-1.96,1.276-0.73,4.262,1.569,3.837c5.574-1.03,9.415-5.442,10.589-10.642h86.42   c3.169,0,5.739-2.57,5.739-5.739V257.88C249.397,252.285,243.385,252.511,241.005,248.73z"/>
	<path style="fill:#73AF00;" d="M350.62,223.947c1.275,0.82,2.552,1.641,3.975,2.319c1.556,0.743,2.151,2.643,1.241,4.107   c-0.241,0.387-0.441,0.82-0.556,1.346v37.197c2.542,0.527,4.001,0.028,5.16-0.771c1.308-0.902,3.076-0.246,3.489,1.288   c0.877,3.263,2.313,6.45,3.079,9.352c0.479,1.814-0.883,3.588-2.759,3.588h-14.572c-1.29,0-2.336-1.046-2.336-2.336v-54.3   C347.339,224.055,349.204,223.036,350.62,223.947z"/>
	<path style="fill:#73AF00;" d="M332.975,233.005c0.011,10.272,0.131,21.335,0.148,32.345c0.002,1.427-1.155,2.583-2.582,2.583   h-0.167c-1.425,0-2.58-1.155-2.58-2.58v-26.09c0-1.42-1.669-2.179-2.737-1.245l-3.42,2.955c-0.698,0.604-1.102,1.473-1.105,2.397   c-0.011,4.244-0.049,16.6-0.064,21.994c-0.004,1.421-1.158,2.569-2.58,2.569h-0.234c-1.418,0-2.57-1.139-2.58-2.557   c-0.025-3.591-0.069-10.246-0.087-15.238c-0.006-1.436-1.704-2.186-2.784-1.24c-3.543,3.105-4.361,3.808-6.22,5.728   c0.151,0.983,0.908,0,1.361,0.755v4.991c-12.908-2.43-13.871,7.882-13.388,18.946c0.073,1.663,1.438,2.978,3.102,2.978h40.526   c1.503,0,2.721-1.218,2.721-2.721v-50.381c0-1.683-1.997-2.547-3.239-1.41c-0.99,0.906-2.047,1.813-2.955,2.634   C333.383,231.083,332.974,232.017,332.975,233.005z M303.15,267.556c-0.793-2.268,3.668-3.101,4.196-1.058   C307.535,268.993,304.134,269.068,303.15,267.556z"/>
	<path style="fill:#73AF00;" d="M169.295,286.38c1.55,0,2.797,1.286,2.797,2.796c0,1.589-1.247,2.798-2.797,2.798   c-1.587,0-2.874-1.209-2.874-2.798C166.422,287.666,167.709,286.38,169.295,286.38"/>
	<path style="fill:#73AF00;" d="M261.44,225.087c0.757,0.455,1.535,0.89,2.364,1.281c1.496,0.707,2.086,2.566,1.171,3.945   c-0.275,0.415-0.51,0.886-0.648,1.482v37.121c2.694,0.599,4.167,0.012,5.342-0.857c1.17-0.865,2.854-0.267,3.229,1.138   c0.672,2.52,1.685,5.012,2.466,7.378c0.956,2.893-1.19,5.874-4.237,5.874H259.76c-1.841,0-3.333-1.492-3.333-3.334v-51.153   C256.427,225.39,259.234,223.762,261.44,225.087z"/>
</g>
<g>
</g>
<g>
</g>
<g>
</g>
<g>
</g>
<g>
</g>
<g>
</g>
<g>
</g>
<g>
</g>
<g>
</g>
<g>
</g>
<g>
</g>
<g>
</g>
<g>
</g>
<g>
</g>
<g>
</g>
</svg>
