<?xml version="1.0" encoding="iso-8859-1"?>
<!-- Generator: Adobe Illustrator 19.0.0, SVG Export Plug-In . SVG Version: 6.00 Build 0)  -->
<svg xmlns="http://www.w3.org/2000/svg" xmlns:xlink="http://www.w3.org/1999/xlink" version="1.1" id="Layer_1" x="0px" y="0px" viewBox="0 0 512 512" style="enable-background:new 0 0 512 512;" xml:space="preserve">
<path style="fill:#73AF00;" d="M473.655,423.724H38.345C17.167,423.724,0,406.557,0,385.379V126.621  c0-21.177,17.167-38.345,38.345-38.345h435.31c21.177,0,38.345,17.167,38.345,38.345V385.38  C512,406.557,494.833,423.724,473.655,423.724z"/>
<path style="fill:#FFE15A;" d="M511.47,391.713L304.329,256L511.47,120.287c-3.021-18.162-18.796-32.011-37.815-32.011h-9.984  L256,224.337L48.329,88.276h-9.984c-19.019,0-34.795,13.849-37.815,32.011L207.671,256L0.53,391.713  c3.02,18.162,18.796,32.011,37.815,32.011h9.984L256,287.663l207.671,136.061h9.984C492.674,423.724,508.449,409.875,511.47,391.713  z"/>
<g>
	<polygon style="fill:#464655;" points="512,119.939 512,392.061 304.329,256  "/>
	<polygon style="fill:#464655;" points="0,392.061 0,119.939 207.671,256  "/>
</g>
<g>
</g>
<g>
</g>
<g>
</g>
<g>
</g>
<g>
</g>
<g>
</g>
<g>
</g>
<g>
</g>
<g>
</g>
<g>
</g>
<g>
</g>
<g>
</g>
<g>
</g>
<g>
</g>
<g>
</g>
</svg>
