<?xml version="1.0" encoding="iso-8859-1"?>
<!-- Generator: Adobe Illustrator 19.0.0, SVG Export Plug-In . SVG Version: 6.00 Build 0)  -->
<svg xmlns="http://www.w3.org/2000/svg" xmlns:xlink="http://www.w3.org/1999/xlink" version="1.1" id="Layer_1" x="0px" y="0px" viewBox="0 0 512 512" style="enable-background:new 0 0 512 512;" xml:space="preserve">
<path style="fill:#464655;" d="M473.655,88.276H38.345c-8.98,0-17.233,3.095-23.767,8.266l191.171,103.55H512v-73.471  C512,105.443,494.833,88.276,473.655,88.276z"/>
<path style="fill:#73AF00;" d="M14.578,415.458c6.535,5.171,14.787,8.266,23.767,8.266h435.31c21.177,0,38.345-17.167,38.345-38.345  v-73.471H205.75L14.578,415.458z"/>
<path style="fill:#F5F5F5;" d="M302.368,252.427c2.838,1.537,2.838,5.61,0,7.147l-96.618,52.334H512V200.092H205.749  L302.368,252.427z"/>
<path style="fill:#FF4B55;" d="M302.368,259.574c2.838-1.537,2.838-5.61,0-7.147l-96.619-52.334L14.578,96.542  C5.702,103.565,0,114.423,0,126.621v73.471v111.816v73.471c0,12.198,5.702,23.057,14.578,30.079l191.171-103.55L302.368,259.574z"/>
<path style="fill:#F5F5F5;" d="M95.399,233.164l5.247,11.381l12.169-2.994c0.759-0.186,1.389,0.602,1.038,1.302l-5.626,11.198  l9.928,7.648c0.62,0.478,0.395,1.462-0.371,1.623l-12.263,2.583l0.211,12.53c0.013,0.782-0.897,1.22-1.5,0.723l-9.665-7.977  l-9.665,7.977c-0.604,0.498-1.513,0.06-1.5-0.723l0.211-12.53l-12.263-2.583c-0.766-0.161-0.991-1.145-0.371-1.623l9.928-7.648  l-5.626-11.198c-0.351-0.7,0.278-1.489,1.038-1.302l12.169,2.994l5.247-11.381C94.061,232.454,95.071,232.454,95.399,233.164z"/>
<g>
</g>
<g>
</g>
<g>
</g>
<g>
</g>
<g>
</g>
<g>
</g>
<g>
</g>
<g>
</g>
<g>
</g>
<g>
</g>
<g>
</g>
<g>
</g>
<g>
</g>
<g>
</g>
<g>
</g>
</svg>
