<?xml version="1.0" encoding="iso-8859-1"?>
<!-- Generator: Adobe Illustrator 19.0.0, SVG Export Plug-In . SVG Version: 6.00 Build 0)  -->
<svg xmlns="http://www.w3.org/2000/svg" xmlns:xlink="http://www.w3.org/1999/xlink" version="1.1" id="Layer_1" x="0px" y="0px" viewBox="0 0 512 512" style="enable-background:new 0 0 512 512;" xml:space="preserve">
<path style="fill:#FF4B55;" d="M473.655,423.724H38.345C17.167,423.724,0,406.557,0,385.379V126.621  c0-21.177,17.167-38.345,38.345-38.345h435.31c21.177,0,38.345,17.167,38.345,38.345V385.38  C512,406.557,494.833,423.724,473.655,423.724z"/>
<g>
	<path style="fill:#FFE15A;" d="M349.373,282.327c0,0-17.586-2.932-30.613-13.735c-3.843-3.187-9.42-5.622-14.852-7.422   c4.367-0.194,8.999-0.072,13.376,0.813c18.132,3.666,35.713-5.135,35.713-5.135s-17.739,1.79-33.145-5.213   c-4.167-1.894-9.571-2.786-14.846-3.162c3.794-1.091,7.82-1.945,11.795-2.165c18.471-1.024,33.265-13.973,33.265-13.973   s-16.714,6.204-33.388,3.311c-4.856-0.843-10.817-0.212-16.364,0.903c3.649-2.292,7.667-4.434,11.836-5.813   c17.562-5.811,28.462-22.174,28.462-22.174s-14.515,10.353-31.366,11.914c-5.004,0.463-10.703,2.71-15.846,5.297   c2.967-3.253,6.354-6.473,10.104-8.961c15.413-10.229,21.622-28.884,21.622-28.884s-11.277,13.809-27.124,19.751   c-4.32,1.62-8.797,4.864-12.818,8.36c1.922-3.494,4.181-6.989,6.865-9.991c12.329-13.791,13.622-33.409,13.622-33.409   s-7.423,16.21-21.253,25.963c-4.032,2.844-7.8,7.512-10.934,12.23c0.958-4.206,2.281-8.568,4.254-12.499   c8.299-16.533,4.424-35.808,4.424-35.808s-2.932,17.586-13.735,30.613c-3.187,3.843-5.622,9.42-7.422,14.854   c-0.194-4.367-0.072-8.999,0.813-13.376c3.666-18.132-5.135-35.713-5.135-35.713s1.79,17.739-5.214,33.145   c-1.894,4.167-2.786,9.571-3.162,14.846c-1.091-3.794-1.945-7.82-2.165-11.795c-1.024-18.471-13.973-33.265-13.973-33.265   s6.204,16.714,3.311,33.388c-0.843,4.856-0.212,10.817,0.903,16.365c-2.292-3.649-4.434-7.667-5.813-11.837   c-5.811-17.562-22.174-28.462-22.174-28.462s10.353,14.515,11.914,31.366c0.463,5.004,2.71,10.705,5.298,15.847   c-3.253-2.967-6.473-6.354-8.962-10.105c-10.229-15.413-28.884-21.621-28.884-21.621s13.809,11.277,19.751,27.124   c1.62,4.32,4.864,8.798,8.36,12.818c-3.494-1.922-6.989-4.181-9.991-6.865c-13.791-12.329-33.409-13.622-33.409-13.622   s16.21,7.423,25.963,21.254c2.842,4.031,7.511,7.8,12.227,10.934c-4.205-0.958-8.567-2.281-12.497-4.254   c-16.533-8.299-35.808-4.424-35.808-4.424s17.586,2.932,30.613,13.735c3.843,3.187,9.42,5.622,14.854,7.422   c-4.367,0.194-8.999,0.072-13.376-0.813c-18.132-3.666-35.713,5.135-35.713,5.135s17.739-1.79,33.145,5.214   c4.167,1.894,9.571,2.786,14.846,3.162c-3.794,1.091-7.82,1.945-11.795,2.165c-18.471,1.024-33.265,13.973-33.265,13.973   s16.714-6.204,33.388-3.311c4.856,0.843,10.817,0.212,16.365-0.903c-3.649,2.292-7.667,4.434-11.837,5.813   c-17.562,5.811-28.462,22.174-28.462,22.174s14.515-10.353,31.366-11.914c5.004-0.463,10.705-2.71,15.847-5.298   c-2.967,3.253-6.354,6.473-10.105,8.962c-15.413,10.229-21.622,28.884-21.622,28.884s11.277-13.809,27.124-19.751   c4.319-1.62,8.797-4.864,12.817-8.36c-1.921,3.493-4.181,6.989-6.863,9.99c-12.329,13.791-13.622,33.409-13.622,33.409   s7.423-16.21,21.254-25.963c4.032-2.844,7.8-7.512,10.934-12.228c-0.958,4.206-2.281,8.567-4.254,12.498   c-8.299,16.533-4.424,35.808-4.424,35.808s2.932-17.586,13.735-30.613c3.187-3.843,5.622-9.42,7.422-14.854   c0.194,4.369,0.072,9-0.813,13.377c-3.666,18.132,5.135,35.712,5.135,35.712s-1.79-17.738,5.214-33.144   c1.894-4.167,2.786-9.572,3.162-14.846c1.091,3.794,1.945,7.82,2.165,11.795c1.024,18.471,13.973,33.265,13.973,33.265   s-6.204-16.715-3.311-33.388c0.843-4.856,0.212-10.817-0.903-16.364c2.292,3.649,4.434,7.666,5.813,11.836   c5.811,17.562,22.174,28.462,22.174,28.462s-10.353-14.515-11.914-31.367c-0.463-5.004-2.71-10.705-5.298-15.847   c3.253,2.967,6.473,6.354,8.962,10.105c10.229,15.413,28.884,21.622,28.884,21.622s-13.809-11.277-19.751-27.124   c-1.62-4.319-4.864-8.797-8.36-12.817c3.493,1.921,6.988,4.181,9.99,6.863c13.791,12.329,33.409,13.622,33.409,13.622   s-16.21-7.423-25.963-21.254c-2.844-4.032-7.512-7.801-12.23-10.934c4.206,0.958,8.567,2.281,12.498,4.254   C330.098,286.202,349.373,282.327,349.373,282.327z M255.979,300.824c-24.753,0-44.819-20.066-44.819-44.819   s20.066-44.819,44.819-44.819s44.819,20.066,44.819,44.819S280.732,300.824,255.979,300.824z"/>
	<path style="fill:#FFE15A;" d="M241.769,237.867c0.956-0.746,1.907-1.495,2.873-2.161c-6.35-2.888-12.066-4.275-16.076-4.896   c-0.638,0.694-1.214,1.439-1.799,2.179C230.705,233.754,235.996,235.214,241.769,237.867z"/>
	<path style="fill:#FFE15A;" d="M230.494,228.832c4.309,0.487,10.547,1.77,17.468,4.747c1.16-0.692,2.314-1.304,3.47-1.895   c-7.473-3.068-14.219-4.211-18.862-4.564C231.872,227.686,231.148,228.218,230.494,228.832z"/>
	<path style="fill:#FFE15A;" d="M252.932,249.606c-0.894-0.844-1.799-1.643-2.712-2.398c-8.391,7.986-15.732,19.633-19.046,36.532   c1.205,1.078,2.401,2.168,3.738,3.085C237.347,269.638,244.484,257.775,252.932,249.606z"/>
	<path style="fill:#FFE15A;" d="M249.678,242.183c0.951-0.765,1.901-1.533,2.865-2.217c-1.174-0.749-2.344-1.407-3.51-2.048   c-0.999,0.684-1.999,1.346-2.986,2.115C247.255,240.698,248.463,241.406,249.678,242.183z"/>
	<path style="fill:#FFE15A;" d="M272.866,240.019c7.194,6.319,13.77,15.217,18.449,27.553c1.201-3.663,2.013-7.503,2.013-11.567   c0-7.716-2.345-14.883-6.354-20.835C283.264,235.908,278.283,237.35,272.866,240.019z"/>
	<path style="fill:#FFE15A;" d="M253.202,244.584c0.937,0.696,1.855,1.482,2.777,2.255c0.921-0.774,1.839-1.559,2.777-2.255   c-0.922-0.768-1.842-1.524-2.777-2.214C255.044,243.061,254.125,243.816,253.202,244.584z"/>
	<path style="fill:#FFE15A;" d="M255.979,233.769c-1.173,0.595-2.347,1.266-3.527,1.964c1.174,0.617,2.346,1.279,3.527,2.004   c1.181-0.724,2.354-1.386,3.527-2.004C258.326,235.034,257.152,234.364,255.979,233.769z"/>
	<path style="fill:#FFE15A;" d="M227.104,279.426c3.951-16.135,11.399-27.189,19.734-34.793c-1.165-0.823-2.326-1.578-3.49-2.276   c-8.021,7.053-15.279,17.245-19.751,31.929C224.628,276.108,225.793,277.813,227.104,279.426z"/>
	<path style="fill:#FFE15A;" d="M239.092,240.019c-5.417-2.67-10.398-4.11-14.109-4.85c-4.009,5.952-6.354,13.119-6.354,20.835   c0,4.064,0.812,7.904,2.013,11.567C225.322,255.235,231.897,246.338,239.092,240.019z"/>
	<path style="fill:#FFE15A;" d="M255.979,229.578c7.946-3.283,15.276-4.449,20.489-4.757c-5.887-3.876-12.914-6.165-20.489-6.165   s-14.602,2.29-20.489,6.165C240.703,225.129,248.033,226.294,255.979,229.578z"/>
	<path style="fill:#FFE15A;" d="M255.979,252.765c-7.449,8.255-13.597,20.107-15.592,37.081c4.758,2.198,10.007,3.508,15.592,3.508   c5.586,0,10.834-1.31,15.592-3.508C269.576,272.873,263.428,261.02,255.979,252.765z"/>
	<path style="fill:#FFE15A;" d="M268.61,242.357c-1.163,0.7-2.324,1.453-3.49,2.276c8.334,7.603,15.783,18.658,19.734,34.793   c1.311-1.614,2.476-3.318,3.507-5.14C283.89,259.603,276.631,249.41,268.61,242.357z"/>
	<path style="fill:#FFE15A;" d="M280.783,283.74c-3.314-16.899-10.655-28.545-19.046-36.532c-0.914,0.755-1.818,1.554-2.712,2.398   c8.448,8.169,15.585,20.032,18.019,37.218C278.382,285.908,279.578,284.818,280.783,283.74z"/>
	<path style="fill:#FFE15A;" d="M260.526,231.683c1.156,0.591,2.311,1.204,3.47,1.895c6.921-2.977,13.159-4.26,17.468-4.747   c-0.654-0.614-1.378-1.146-2.076-1.713C274.745,227.473,267.999,228.616,260.526,231.683z"/>
	<path style="fill:#FFE15A;" d="M262.28,242.183c1.215-0.777,2.423-1.484,3.631-2.15c-0.986-0.769-1.987-1.431-2.986-2.115   c-1.166,0.642-2.335,1.299-3.51,2.048C260.378,240.65,261.329,241.419,262.28,242.183z"/>
	<path style="fill:#FFE15A;" d="M270.189,237.867c5.773-2.653,11.064-4.113,15-4.877c-0.585-0.74-1.16-1.486-1.799-2.179   c-4.01,0.621-9.726,2.007-16.076,4.896C268.282,236.371,269.234,237.121,270.189,237.867z"/>
</g>
<g>
</g>
<g>
</g>
<g>
</g>
<g>
</g>
<g>
</g>
<g>
</g>
<g>
</g>
<g>
</g>
<g>
</g>
<g>
</g>
<g>
</g>
<g>
</g>
<g>
</g>
<g>
</g>
<g>
</g>
</svg>
