<?xml version="1.0" encoding="iso-8859-1"?>
<!-- Generator: Adobe Illustrator 19.0.0, SVG Export Plug-In . SVG Version: 6.00 Build 0)  -->
<svg xmlns="http://www.w3.org/2000/svg" xmlns:xlink="http://www.w3.org/1999/xlink" version="1.1" id="Layer_1" x="0px" y="0px" viewBox="0 0 512 512" style="enable-background:new 0 0 512 512;" xml:space="preserve">
<path style="fill:#41479B;" d="M473.654,423.724H38.345C17.167,423.724,0,406.557,0,385.379V126.621  c0-21.177,17.167-38.345,38.345-38.345h435.309c21.177,0,38.345,17.167,38.345,38.345v258.758  C511.999,406.557,494.831,423.724,473.654,423.724z"/>
<rect y="167.721" style="fill:#FF4B55;" width="512" height="176.55"/>
<polygon style="fill:#F5F5F5;" points="372.816,322.933 372.816,310.417 368.644,310.417 368.644,302.073 364.471,302.073   364.471,293.729 360.299,293.729 360.299,285.385 347.783,285.385 347.783,260.354 347.782,260.354 351.955,256.181   351.955,243.665 347.783,243.665 347.783,235.322 343.611,235.322 343.611,222.805 339.44,222.805 339.44,214.461 335.268,214.461   335.268,206.117 331.096,206.117 331.096,201.946 322.751,201.946 322.751,206.117 318.579,206.117 318.579,214.461   314.407,214.461 314.407,222.805 310.236,222.805 310.236,235.322 306.064,235.322 306.064,243.665 281.031,243.665 281.031,231.15   276.86,231.15 276.86,218.633 272.688,218.633 272.688,206.117 268.516,206.117 268.516,197.774 264.344,197.774 264.344,189.43   260.172,189.43 260.172,185.257 258.086,185.257 258.086,181.085 253.914,181.085 253.914,185.257 251.827,185.257 251.827,189.43   247.656,189.43 247.656,197.774 243.484,197.774 243.484,206.117 239.312,206.117 239.312,218.633 235.14,218.633 235.14,231.15   230.968,231.15 230.968,243.665 205.936,243.665 205.936,235.322 201.764,235.322 201.764,222.805 197.592,222.805 197.592,214.461   193.42,214.461 193.42,206.117 189.248,206.117 189.248,201.946 180.904,201.946 180.904,206.117 176.732,206.117 176.732,214.461   172.56,214.461 172.56,222.805 168.388,222.805 168.388,235.322 164.216,235.322 164.216,243.665 160.044,243.665 160.044,256.181   164.214,260.354 164.216,260.354 164.216,285.385 151.701,285.385 151.701,293.729 147.529,293.729 147.529,302.073   143.356,302.073 143.356,310.417 139.184,310.417 139.184,322.933 135.012,322.933 135.012,335.449 376.987,335.449   376.987,322.933 "/>
<g>
</g>
<g>
</g>
<g>
</g>
<g>
</g>
<g>
</g>
<g>
</g>
<g>
</g>
<g>
</g>
<g>
</g>
<g>
</g>
<g>
</g>
<g>
</g>
<g>
</g>
<g>
</g>
<g>
</g>
</svg>
