<?xml version="1.0" encoding="iso-8859-1"?>
<!-- Generator: Adobe Illustrator 19.0.0, SVG Export Plug-In . SVG Version: 6.00 Build 0)  -->
<svg xmlns="http://www.w3.org/2000/svg" xmlns:xlink="http://www.w3.org/1999/xlink" version="1.1" id="Layer_1" x="0px" y="0px" viewBox="0 0 512.001 512.001" style="enable-background:new 0 0 512.001 512.001;" xml:space="preserve">
<path style="fill:#73AF00;" d="M473.655,423.724H38.345C17.167,423.724,0,406.557,0,385.379V126.621  c0-21.177,17.167-38.345,38.345-38.345h435.31c21.177,0,38.345,17.167,38.345,38.345V385.38  C512,406.557,494.833,423.724,473.655,423.724z"/>
<g>
	<polygon style="fill:#FFE15A;" points="0,334.022 0,360.406 415.356,88.276 375.085,88.276  "/>
	<polygon style="fill:#FFE15A;" points="136.914,423.724 512,177.977 512,151.594 96.644,423.724  "/>
</g>
<path style="fill:#464655;" d="M473.655,88.276h-58.3L0,360.406v24.973c0,21.177,17.167,38.345,38.345,38.345h58.3L512,151.594  v-24.973C512,105.443,494.833,88.276,473.655,88.276z"/>
<g>
	<path style="fill:#F5F5F5;" d="M156.019,275.898l18.119,14.59l19.67-12.419c2.547-1.608,5.675,0.951,4.602,3.766l-8.277,21.74   l17.89,14.869c2.316,1.926,0.849,5.691-2.159,5.542l-23.234-1.154l-8.614,21.61c-1.116,2.797-5.15,2.567-5.938-0.341l-6.082-22.454   l-23.213-1.514c-3.006-0.196-4.032-4.105-1.511-5.752l19.475-12.724l-5.734-22.546C150.272,276.194,153.673,274.01,156.019,275.898   z"/>
	<path style="fill:#F5F5F5;" d="M323.007,166.29l18.119,14.59l19.67-12.42c2.547-1.608,5.675,0.951,4.602,3.766l-8.277,21.74   l17.89,14.869c2.316,1.926,0.85,5.69-2.159,5.542l-23.234-1.154l-8.613,21.61c-1.116,2.797-5.15,2.566-5.938-0.341l-6.082-22.454   l-23.213-1.514c-3.006-0.196-4.032-4.105-1.511-5.752l19.475-12.724l-5.734-22.546C317.261,166.584,320.661,164.401,323.007,166.29   z"/>
</g>
<path style="fill:#FF4B55;" d="M512,177.977L136.914,423.724h336.742c21.177,0,38.345-17.167,38.345-38.345L512,177.977L512,177.977  z"/>
<g>
</g>
<g>
</g>
<g>
</g>
<g>
</g>
<g>
</g>
<g>
</g>
<g>
</g>
<g>
</g>
<g>
</g>
<g>
</g>
<g>
</g>
<g>
</g>
<g>
</g>
<g>
</g>
<g>
</g>
</svg>
