<?xml version="1.0" encoding="iso-8859-1"?>
<!-- Generator: Adobe Illustrator 19.0.0, SVG Export Plug-In . SVG Version: 6.00 Build 0)  -->
<svg xmlns="http://www.w3.org/2000/svg" xmlns:xlink="http://www.w3.org/1999/xlink" version="1.1" id="Layer_1" x="0px" y="0px" viewBox="0 0 512 512" style="enable-background:new 0 0 512 512;" xml:space="preserve">
<g>
	<path style="fill:#41479B;" d="M0,385.379c0,21.177,17.167,38.345,38.345,38.345h435.31c21.177,0,38.345-17.167,38.345-38.345   v-5.793H0V385.379z"/>
	<path style="fill:#41479B;" d="M473.655,88.276H38.345C17.167,88.276,0,105.443,0,126.621v5.793h512v-5.793   C512,105.443,494.833,88.276,473.655,88.276z"/>
</g>
<g>
	<rect y="132.41" style="fill:#F5F5F5;" width="512" height="17.655"/>
	<rect y="361.93" style="fill:#F5F5F5;" width="512" height="17.655"/>
</g>
<rect y="150.07" style="fill:#FF4B55;" width="512" height="211.86"/>
<circle style="fill:#F5F5F5;" cx="141.24" cy="256" r="70.62"/>
<path style="fill:#FF4B55;" d="M143.122,191.705l14.167,42.478l44.777,0.348c1.905,0.014,2.695,2.445,1.162,3.577l-36.021,26.6  l13.506,42.692c0.575,1.816-1.493,3.318-3.042,2.211l-36.429-26.039l-36.429,26.038c-1.549,1.108-3.617-0.395-3.042-2.211  l13.507-42.692l-36.021-26.6c-1.533-1.131-0.743-3.562,1.162-3.577l44.777-0.348l14.167-42.478  C139.964,189.898,142.519,189.898,143.122,191.705z"/>
<g>
</g>
<g>
</g>
<g>
</g>
<g>
</g>
<g>
</g>
<g>
</g>
<g>
</g>
<g>
</g>
<g>
</g>
<g>
</g>
<g>
</g>
<g>
</g>
<g>
</g>
<g>
</g>
<g>
</g>
</svg>
