<?xml version="1.0" encoding="iso-8859-1"?>
<!-- Generator: Adobe Illustrator 19.0.0, SVG Export Plug-In . SVG Version: 6.00 Build 0)  -->
<svg xmlns="http://www.w3.org/2000/svg" xmlns:xlink="http://www.w3.org/1999/xlink" version="1.1" id="Layer_1" x="0px" y="0px" viewBox="0 0 512 512" style="enable-background:new 0 0 512 512;" xml:space="preserve">
<path style="fill:#82C3D2;" d="M473.655,88.275H38.345C17.167,88.275,0,105.442,0,126.62V385.38  c0,21.177,17.167,38.345,38.345,38.345h435.31c21.177,0,38.345-17.167,38.345-38.345V126.62  C512,105.442,494.833,88.275,473.655,88.275z"/>
<g>
	<path style="fill:#FFE15A;" d="M59.516,128.447c-0.799-3.382-0.998-4.63,0.52-6.147c0.74-0.74,0.74-1.939,0-2.679   s-1.939-0.74-2.679,0c-3.072,3.073-2.339,6.262-1.544,9.638c-2.422-0.791-4.934-0.204-6.28,1.494   c-0.668,0.847-1.96,3.223,0.461,7.017c0.563,0.881,1.727,1.14,2.616,0.582c0.883-0.563,1.14-1.736,0.577-2.616   c-0.908-1.429-0.935-2.31-0.681-2.632c0.3-0.381,1.23-0.582,2.204-0.237c0.629,0.218,2.091,0.973,2.091,3.253   c0,1.821-0.842,3.49-2.31,4.575c-1.471,1.088-3.375,1.395-5.21,0.825c-2.266-0.692-3.849-3.079-3.849-5.806   c0-1.951,0.418-3.923,1.186-5.651c0.122-0.255,3.018-6.254,3.764-8.49c1.475-4.423-0.024-6.647-1.047-7.576   c-1.369-1.247-3.37-1.558-5.092-0.803c-0.262,0.116-0.478,0.284-0.705,0.44c-0.227-0.157-0.444-0.324-0.705-0.44   c-1.721-0.755-3.721-0.445-5.092,0.803c-1.023,0.929-2.522,3.154-1.047,7.576c0.746,2.236,3.641,8.235,3.738,8.435   c0.793,1.784,1.212,3.756,1.212,5.707c0,2.728-1.582,5.114-3.849,5.806c-1.842,0.569-3.74,0.266-5.21-0.825   c-1.468-1.085-2.31-2.753-2.31-4.575c0-2.28,1.462-3.034,2.091-3.253c0.977-0.344,1.902-0.145,2.204,0.237   c0.254,0.322,0.227,1.203-0.681,2.632c-0.563,0.881-0.306,2.055,0.577,2.616c0.89,0.563,2.058,0.3,2.616-0.582   c2.421-3.794,1.129-6.169,0.461-7.017c-1.347-1.698-3.858-2.286-6.28-1.494c0.796-3.375,1.528-6.566-1.544-9.638   c-0.74-0.74-1.939-0.74-2.679,0s-0.74,1.939,0,2.679c1.517,1.517,1.32,2.764,0.52,6.147c-0.481,2.027-1.077,4.555-1.077,7.671   c0,2.074,0.728,4.056,1.955,5.685h-0.061c-1.047,0-1.895,0.847-1.895,1.895s0.847,1.895,1.895,1.895h0.061   c-1.227,1.628-1.955,3.611-1.955,5.684c0,3.116,0.596,5.644,1.075,7.672c0.799,3.383,0.998,4.63-0.52,6.147   c-0.74,0.74-0.74,1.939,0,2.679c0.37,0.37,0.855,0.555,1.34,0.555c0.484,0,0.97-0.185,1.34-0.555   c3.072-3.073,2.339-6.263,1.544-9.638c2.422,0.788,4.934,0.204,6.28-1.494c0.668-0.847,1.96-3.223-0.461-7.017   c-0.561-0.881-1.732-1.143-2.616-0.582c-0.883,0.563-1.14,1.736-0.577,2.616c0.908,1.429,0.935,2.31,0.681,2.632   c-0.301,0.377-1.227,0.577-2.204,0.237c-0.629-0.218-2.091-0.973-2.091-3.253c0-1.821,0.842-3.49,2.31-4.574   c1.471-1.088,3.373-1.399,5.21-0.825c2.266,0.692,3.849,3.079,3.849,5.806c0,1.951-0.418,3.923-1.212,5.707L28.02,185.311   c-1.02,2.295-1.538,4.734-1.538,7.246c0,3.233,1.47,6.185,3.784,7.987c-2.313,1.802-3.784,4.754-3.784,7.987   c0,2.513,0.519,4.952,1.538,7.246l12.409,27.919c0.793,1.784,1.212,3.756,1.212,5.707c0,2.728-1.582,5.114-3.849,5.806   c-1.842,0.574-3.74,0.267-5.21-0.825c-1.468-1.085-2.31-2.753-2.31-4.574c0-2.28,1.462-3.034,2.091-3.253   c0.977-0.341,1.902-0.145,2.204,0.237c0.254,0.322,0.227,1.203-0.681,2.632c-0.563,0.881-0.306,2.053,0.577,2.616   c0.89,0.563,2.058,0.303,2.616-0.582c2.421-3.794,1.129-6.169,0.461-7.017c-1.347-1.699-3.858-2.283-6.28-1.494   c0.796-3.375,1.528-6.566-1.544-9.638c-0.74-0.74-1.939-0.74-2.679,0c-0.74,0.74-0.74,1.939,0,2.679   c1.517,1.517,1.32,2.764,0.52,6.147c-0.479,2.026-1.075,4.554-1.075,7.67c0,2.073,0.728,4.056,1.955,5.685h-0.061   c-1.047,0-1.895,0.847-1.895,1.895c0,1.047,0.847,1.895,1.895,1.895h0.061c-1.227,1.629-1.955,3.611-1.955,5.685   c0,3.116,0.596,5.644,1.075,7.672c0.799,3.383,0.998,4.63-0.52,6.147c-0.74,0.74-0.74,1.939,0,2.679   c0.37,0.37,0.855,0.555,1.34,0.555c0.484,0,0.97-0.185,1.34-0.555c3.072-3.073,2.339-6.263,1.544-9.638   c2.422,0.788,4.934,0.204,6.28-1.494c0.668-0.847,1.96-3.223-0.461-7.017c-0.561-0.881-1.732-1.143-2.616-0.582   c-0.883,0.563-1.14,1.736-0.577,2.616c0.908,1.429,0.935,2.31,0.681,2.632c-0.301,0.381-1.227,0.58-2.204,0.237   c-0.629-0.218-2.091-0.973-2.091-3.253c0-1.821,0.842-3.49,2.31-4.574c1.471-1.088,3.373-1.399,5.21-0.825   c2.266,0.692,3.849,3.079,3.849,5.806c0,1.951-0.418,3.923-1.212,5.707l-12.41,27.924c-1.02,2.294-1.538,4.734-1.538,7.246   c0,3.233,1.47,6.185,3.784,7.987c-2.313,1.801-3.784,4.754-3.784,7.987c0,2.513,0.519,4.952,1.538,7.246l12.409,27.919   c0.793,1.784,1.212,3.756,1.212,5.707c0,2.728-1.582,5.115-3.849,5.806c-1.842,0.574-3.74,0.263-5.21-0.825   c-1.468-1.085-2.31-2.753-2.31-4.574c0-2.28,1.462-3.034,2.091-3.253c0.977-0.341,1.902-0.145,2.204,0.237   c0.254,0.322,0.227,1.203-0.681,2.632c-0.563,0.881-0.306,2.054,0.577,2.616c0.89,0.563,2.058,0.303,2.616-0.582   c2.421-3.794,1.129-6.169,0.461-7.017c-1.347-1.703-3.858-2.285-6.28-1.494c0.796-3.375,1.528-6.566-1.544-9.638   c-0.74-0.74-1.939-0.74-2.679,0c-0.74,0.74-0.74,1.939,0,2.679c1.517,1.517,1.32,2.764,0.52,6.147   c-0.479,2.026-1.075,4.553-1.075,7.669c0,2.969,1.423,5.798,3.802,7.58c-2.379,1.782-3.802,4.61-3.802,7.58   c0,3.116,0.596,5.644,1.075,7.672c0.799,3.382,0.998,4.63-0.52,6.147c-0.74,0.74-0.74,1.94,0,2.679   c0.37,0.37,0.855,0.555,1.34,0.555c0.484,0,0.97-0.185,1.34-0.555c3.072-3.073,2.339-6.263,1.544-9.639   c2.422,0.788,4.934,0.204,6.28-1.494c0.668-0.847,1.96-3.223-0.461-7.017c-0.561-0.881-1.732-1.14-2.616-0.582   c-0.883,0.563-1.14,1.736-0.577,2.616c0.908,1.429,0.935,2.31,0.681,2.632c-0.301,0.381-1.227,0.577-2.204,0.237   c-0.629-0.218-2.091-0.973-2.091-3.253c0-1.821,0.842-3.49,2.31-4.575c1.471-1.088,3.373-1.395,5.21-0.825   c2.266,0.692,3.849,3.079,3.849,5.806c0,1.951-0.418,3.923-1.186,5.651c-0.122,0.255-3.018,6.254-3.764,8.49   c-1.475,4.423,0.024,6.647,1.047,7.576c0.875,0.796,2.002,1.214,3.154,1.214c0.653,0,1.315-0.137,1.939-0.41   c0.262-0.116,0.478-0.284,0.705-0.44c0.227,0.157,0.444,0.324,0.705,0.44c0.623,0.274,1.287,0.41,1.939,0.41   c1.149,0,2.278-0.418,3.154-1.214c1.023-0.929,2.522-3.154,1.047-7.576c-0.746-2.236-3.641-8.234-3.738-8.435   c-0.793-1.784-1.212-3.756-1.212-5.707c0-2.728,1.582-5.114,3.849-5.806c1.843-0.57,3.74-0.263,5.21,0.825   c1.468,1.085,2.31,2.753,2.31,4.575c0,2.28-1.462,3.034-2.091,3.253c-0.973,0.341-1.905,0.145-2.204-0.237   c-0.254-0.322-0.227-1.203,0.681-2.632c0.563-0.881,0.306-2.053-0.577-2.616c-0.885-0.555-2.052-0.296-2.616,0.582   c-2.421,3.794-1.129,6.169-0.461,7.017c1.347,1.698,3.858,2.283,6.28,1.494c-0.796,3.375-1.528,6.566,1.544,9.639   c0.37,0.37,0.855,0.555,1.34,0.555s0.97-0.185,1.34-0.555c0.74-0.74,0.74-1.94,0-2.679c-1.517-1.517-1.32-2.764-0.52-6.147   c0.479-2.028,1.075-4.556,1.075-7.672c0-2.97-1.423-5.798-3.801-7.58c2.378-1.782,3.801-4.609,3.801-7.58   c0-3.116-0.596-5.644-1.075-7.672c-0.799-3.382-0.998-4.63,0.52-6.147c0.74-0.74,0.74-1.939,0-2.679s-1.939-0.74-2.679,0   c-3.072,3.073-2.339,6.262-1.544,9.638c-2.422-0.791-4.934-0.209-6.28,1.494c-0.668,0.847-1.96,3.223,0.461,7.017   c0.563,0.881,1.727,1.14,2.616,0.582c0.883-0.563,1.14-1.736,0.577-2.616c-0.908-1.429-0.935-2.31-0.681-2.632   c0.3-0.381,1.23-0.577,2.204-0.237c0.629,0.218,2.091,0.973,2.091,3.253c0,1.821-0.842,3.49-2.31,4.574   c-1.471,1.088-3.375,1.399-5.21,0.825c-2.266-0.692-3.849-3.079-3.849-5.806c0-1.95,0.418-3.923,1.212-5.707l12.409-27.919   c1.02-2.294,1.538-4.734,1.538-7.246c0-3.233-1.47-6.185-3.784-7.987c2.314-1.802,3.784-4.754,3.784-7.987   c0-2.513-0.519-4.952-1.538-7.246l-12.409-27.919c-0.793-1.784-1.212-3.756-1.212-5.707c0-2.728,1.582-5.114,3.849-5.806   c1.843-0.569,3.74-0.263,5.21,0.825c1.468,1.085,2.31,2.753,2.31,4.574c0,2.28-1.462,3.034-2.091,3.253   c-0.973,0.344-1.905,0.145-2.204-0.237c-0.254-0.322-0.227-1.203,0.681-2.632c0.563-0.881,0.306-2.054-0.577-2.616   c-0.885-0.555-2.052-0.296-2.616,0.582c-2.421,3.794-1.129,6.169-0.461,7.017c1.347,1.698,3.858,2.283,6.28,1.494   c-0.796,3.375-1.528,6.566,1.544,9.638c0.37,0.37,0.855,0.555,1.34,0.555s0.97-0.185,1.34-0.555c0.74-0.74,0.74-1.94,0-2.679   c-1.517-1.517-1.32-2.764-0.52-6.147c0.479-2.028,1.075-4.556,1.075-7.672c0-2.074-0.728-4.056-1.955-5.685h0.061   c1.047,0,1.895-0.847,1.895-1.895c0-1.047-0.847-1.895-1.895-1.895h-0.061c1.227-1.629,1.955-3.61,1.955-5.685   c0-3.116-0.596-5.644-1.075-7.672c-0.799-3.383-0.998-4.63,0.52-6.147c0.74-0.74,0.74-1.939,0-2.679s-1.939-0.74-2.679,0   c-3.072,3.073-2.339,6.263-1.544,9.638c-2.422-0.788-4.934-0.204-6.28,1.494c-0.668,0.847-1.96,3.223,0.461,7.017   c0.563,0.881,1.727,1.137,2.616,0.582c0.883-0.563,1.14-1.736,0.577-2.616c-0.908-1.429-0.935-2.31-0.681-2.632   c0.3-0.381,1.23-0.577,2.204-0.237c0.629,0.218,2.091,0.973,2.091,3.253c0,1.821-0.842,3.49-2.31,4.574   c-1.471,1.088-3.375,1.395-5.21,0.825c-2.266-0.692-3.849-3.079-3.849-5.806c0-1.951,0.418-3.923,1.212-5.707l12.409-27.919   c1.02-2.294,1.538-4.734,1.538-7.246c0-3.233-1.47-6.185-3.784-7.987c2.314-1.801,3.784-4.754,3.784-7.987   c0-2.513-0.519-4.952-1.538-7.246l-12.409-27.919c-0.793-1.784-1.212-3.756-1.212-5.707c0-2.728,1.582-5.114,3.849-5.806   c1.843-0.569,3.74-0.263,5.21,0.825c1.468,1.085,2.31,2.753,2.31,4.574c0,2.28-1.462,3.034-2.091,3.253   c-0.973,0.341-1.905,0.141-2.204-0.237c-0.254-0.322-0.227-1.203,0.681-2.632c0.563-0.881,0.306-2.054-0.577-2.616   c-0.885-0.555-2.052-0.3-2.616,0.581c-2.421,3.794-1.129,6.169-0.461,7.017c1.347,1.698,3.858,2.283,6.28,1.494   c-0.796,3.375-1.528,6.566,1.544,9.638c0.37,0.37,0.855,0.555,1.34,0.555c0.484,0,0.97-0.185,1.34-0.555   c0.74-0.74,0.74-1.939,0-2.679c-1.517-1.517-1.32-2.764-0.52-6.147c0.479-2.028,1.075-4.556,1.075-7.672   c0-2.074-0.728-4.056-1.955-5.685H58.7c1.047,0,1.895-0.847,1.895-1.895s-0.847-1.895-1.895-1.895h-0.061   c1.227-1.629,1.955-3.61,1.955-5.685C60.59,133.003,59.994,130.475,59.516,128.447z M40.286,120.371   c-0.673-2.02-0.438-3.171,0.006-3.575c0.29-0.274,0.73-0.263,1.009-0.137c0.342,0.151,0.342,0.392,0.342,0.511   c0,1.047,0.847,1.895,1.895,1.895c1.047,0,1.895-0.847,1.895-1.895c0-0.118,0-0.359,0.342-0.511   c0.274-0.126,0.711-0.137,1.009,0.137c0.445,0.404,0.68,1.555,0.006,3.575c-0.49,1.465-2.263,5.279-3.251,7.349   C42.571,125.698,40.779,121.846,40.286,120.371z M43.537,198.557c0.544,0.739,1.159,1.427,1.907,1.987   c-0.748,0.561-1.363,1.248-1.907,1.987c-0.544-0.739-1.159-1.427-1.907-1.987C42.378,199.982,42.993,199.296,43.537,198.557z    M43.537,312.247c0.544,0.739,1.159,1.427,1.907,1.987c-0.748,0.561-1.363,1.248-1.907,1.987c-0.544-0.739-1.159-1.427-1.907-1.987   C42.378,313.674,42.993,312.989,43.537,312.247z M46.788,394.409c0.673,2.02,0.438,3.171-0.006,3.575   c-0.298,0.27-0.735,0.259-1.009,0.137c-0.342-0.152-0.342-0.392-0.342-0.511c0-1.047-0.847-1.895-1.895-1.895   s-1.895,0.847-1.895,1.895c0,0.118,0,0.359-0.342,0.511c-0.278,0.122-0.718,0.134-1.009-0.137   c-0.445-0.404-0.679-1.555-0.006-3.575c0.49-1.465,2.263-5.279,3.251-7.349C44.502,389.081,46.294,392.933,46.788,394.409z    M45.426,371.081c-0.717,0.558-1.353,1.226-1.889,1.981c-0.535-0.755-1.172-1.422-1.889-1.981c0.717-0.558,1.353-1.226,1.889-1.981   C44.072,369.855,44.707,370.523,45.426,371.081z M55.588,327.928l-12.052,27.116l-12.052-27.116   c-0.793-1.784-1.212-3.756-1.212-5.707c0-2.728,1.582-5.115,3.849-5.806c1.841-0.57,3.742-0.263,5.21,0.825   c1.468,1.085,2.31,2.753,2.31,4.575c0,2.28-1.462,3.034-2.091,3.253c-0.977,0.341-1.906,0.145-2.204-0.237   c-0.254-0.322-0.227-1.203,0.681-2.632c0.563-0.881,0.306-2.053-0.577-2.616c-0.885-0.555-2.052-0.296-2.616,0.582   c-2.42,3.794-1.129,6.169-0.461,7.017c1.372,1.732,3.953,2.328,6.421,1.465c0.281-0.098,0.566-0.218,0.847-0.362v4.792   c0-0.001-0.003-0.003-0.003-0.003c-0.057-0.998-0.883-1.785-1.891-1.785c-1.047,0-1.895,0.847-1.895,1.895   c0,1.236,0.864,3.38,3.79,4.044v3.535c0,1.047,0.847,1.895,1.895,1.895c1.047,0,1.895-0.847,1.895-1.895v-3.535   c2.925-0.664,3.79-2.808,3.79-4.044c0-1.047-0.845-1.957-1.891-1.957c-1.047,0-1.891,0.785-1.891,1.832   c-0.001,0.003-0.007,0.008-0.008,0.011v-4.783c0.281,0.143,0.566,0.264,0.847,0.362c2.468,0.862,5.048,0.266,6.421-1.465   c0.668-0.847,1.96-3.223-0.461-7.017c-0.563-0.881-1.732-1.14-2.616-0.582c-0.883,0.563-1.14,1.736-0.577,2.616   c0.908,1.429,0.935,2.31,0.681,2.632c-0.3,0.381-1.228,0.577-2.204,0.237c-0.629-0.218-2.091-0.973-2.091-3.253   c0-1.821,0.842-3.49,2.31-4.575c1.471-1.088,3.375-1.399,5.21-0.825c2.266,0.692,3.849,3.079,3.849,5.806   C56.801,324.172,56.383,326.146,55.588,327.928z M55.588,300.542c0.793,1.784,1.212,3.756,1.212,5.707   c0,2.728-1.582,5.114-3.849,5.806c-1.839,0.574-3.742,0.263-5.21-0.825c-1.468-1.085-2.31-2.753-2.31-4.574   c0-2.28,1.462-3.034,2.091-3.253c0.975-0.341,1.905-0.145,2.204,0.237c0.254,0.322,0.227,1.203-0.681,2.632   c-0.563,0.881-0.306,2.053,0.577,2.616c0.89,0.563,2.058,0.303,2.616-0.582c2.421-3.794,1.129-6.169,0.461-7.017   c-1.373-1.732-3.953-2.321-6.421-1.465c-0.281,0.098-0.566,0.219-0.847,0.361v-4.793l0.003,0.006   c0.057,0.995,0.883,1.784,1.891,1.784c1.047,0,1.895-0.847,1.895-1.895c0-1.236-0.864-3.38-3.79-4.044v-3.535   c0-1.047-0.847-1.895-1.895-1.895c-1.047,0-1.895,0.847-1.895,1.895v3.535c-2.925,0.664-3.79,2.808-3.79,4.044   c0,1.047,0.845,1.957,1.891,1.957c1.047,0,1.891-0.785,1.891-1.832c0.001-0.003,0.007-0.008,0.007-0.008l0.001,4.78   c-0.281-0.142-0.566-0.264-0.847-0.361c-2.468-0.855-5.049-0.267-6.421,1.465c-0.668,0.847-1.96,3.223,0.461,7.017   c0.563,0.881,1.732,1.137,2.616,0.582c0.883-0.563,1.14-1.736,0.577-2.616c-0.908-1.429-0.935-2.31-0.681-2.632   c0.298-0.381,1.227-0.577,2.204-0.237c0.629,0.218,2.091,0.973,2.091,3.253c0,1.821-0.842,3.49-2.31,4.574   c-1.471,1.088-3.371,1.399-5.21,0.825c-2.266-0.692-3.849-3.079-3.849-5.806c0-1.951,0.418-3.923,1.212-5.707l12.052-27.116   L55.588,300.542z M45.426,257.39c-0.717,0.558-1.353,1.226-1.889,1.981c-0.535-0.755-1.172-1.422-1.889-1.981   c0.717-0.558,1.353-1.226,1.889-1.981C44.072,256.164,44.707,256.831,45.426,257.39z M55.588,214.238l-12.052,27.116   l-12.052-27.116c-0.793-1.784-1.212-3.756-1.212-5.707c0-2.728,1.582-5.114,3.849-5.806c1.841-0.57,3.742-0.263,5.21,0.825   c1.468,1.085,2.31,2.753,2.31,4.575c0,2.28-1.462,3.034-2.091,3.253c-0.977,0.344-1.906,0.145-2.204-0.237   c-0.254-0.322-0.227-1.203,0.681-2.632c0.563-0.881,0.306-2.053-0.577-2.616c-0.885-0.559-2.052-0.3-2.616,0.58   c-2.42,3.794-1.129,6.169-0.461,7.017c1.372,1.732,3.953,2.324,6.421,1.465c0.281-0.098,0.566-0.218,0.847-0.361v4.792   l-0.003-0.006c-0.057-0.995-0.883-1.784-1.891-1.784c-1.047,0-1.895,0.847-1.895,1.895c0,1.236,0.864,3.38,3.79,4.044v3.535   c0,1.047,0.847,1.895,1.895,1.895c1.047,0,1.895-0.847,1.895-1.895v-3.535c2.925-0.664,3.79-2.808,3.79-4.044   c0-1.047-0.845-1.958-1.891-1.958c-1.047,0-1.891,0.785-1.891,1.832c-0.001,0.003-0.007,0.008-0.007,0.008l-0.001-4.78   c0.281,0.143,0.566,0.264,0.847,0.361c2.468,0.858,5.048,0.267,6.421-1.465c0.668-0.847,1.96-3.223-0.461-7.017   c-0.563-0.885-1.732-1.143-2.616-0.58c-0.883,0.563-1.14,1.736-0.577,2.616c0.908,1.429,0.935,2.31,0.681,2.632   c-0.3,0.381-1.228,0.582-2.204,0.237c-0.629-0.218-2.091-0.973-2.091-3.253c0-1.821,0.842-3.49,2.31-4.575   c1.471-1.088,3.375-1.395,5.21-0.825c2.266,0.692,3.849,3.079,3.849,5.806C56.801,210.481,56.383,212.453,55.588,214.238z    M55.588,186.85c0.793,1.784,1.212,3.756,1.212,5.707c0,2.728-1.582,5.114-3.849,5.806c-1.839,0.574-3.742,0.263-5.21-0.825   c-1.468-1.085-2.31-2.753-2.31-4.575c0-2.28,1.462-3.034,2.091-3.253c0.975-0.341,1.905-0.145,2.204,0.237   c0.254,0.322,0.227,1.203-0.681,2.632c-0.563,0.881-0.306,2.054,0.577,2.616c0.89,0.559,2.058,0.303,2.616-0.581   c2.421-3.794,1.129-6.169,0.461-7.017c-1.373-1.732-3.953-2.324-6.421-1.465c-0.281,0.097-0.566,0.218-0.847,0.361v-4.792   c0,0.001,0.003,0.003,0.003,0.003c0.057,0.998,0.883,1.785,1.891,1.785c1.047,0,1.895-0.847,1.895-1.895   c0-1.236-0.864-3.38-3.79-4.044v-3.535c0-1.047-0.847-1.895-1.895-1.895c-1.047,0-1.895,0.847-1.895,1.895v3.535   c-2.925,0.664-3.79,2.808-3.79,4.044c0,1.047,0.845,1.958,1.891,1.958c1.047,0,1.891-0.785,1.891-1.832   c0.001-0.003,0.007-0.008,0.008-0.011v4.783c-0.281-0.143-0.566-0.264-0.847-0.361c-2.468-0.858-5.049-0.267-6.421,1.465   c-0.668,0.847-1.96,3.223,0.461,7.017c0.563,0.881,1.732,1.137,2.616,0.581c0.883-0.563,1.14-1.736,0.577-2.616   c-0.908-1.429-0.935-2.31-0.681-2.632c0.298-0.381,1.227-0.577,2.204-0.237c0.629,0.218,2.091,0.973,2.091,3.253   c0,1.821-0.842,3.49-2.31,4.575c-1.471,1.088-3.371,1.399-5.21,0.825c-2.266-0.692-3.849-3.079-3.849-5.806   c0-1.951,0.418-3.923,1.212-5.707l12.052-27.116L55.588,186.85z M41.647,143.699c0.717-0.558,1.353-1.226,1.889-1.981   c0.535,0.755,1.171,1.422,1.889,1.981c-0.717,0.558-1.353,1.226-1.889,1.981C43.001,144.923,42.366,144.255,41.647,143.699z"/>
	<circle style="fill:#FFE15A;" cx="270.74" cy="235.029" r="45.606"/>
	<path style="fill:#FFE15A;" d="M274.167,176.882c0,1.889-1.532,3.421-3.421,3.421c-1.889,0-3.421-1.532-3.421-3.421   s3.421-10.262,3.421-10.262S274.167,174.993,274.167,176.882z"/>
	<path style="fill:#FFE15A;" d="M267.326,293.185c0-1.889,1.532-3.421,3.421-3.421c1.889,0,3.421,1.532,3.421,3.421   s-3.421,10.262-3.421,10.262S267.326,295.075,267.326,293.185z"/>
	<path style="fill:#FFE15A;" d="M328.898,238.454c-1.889,0-3.421-1.532-3.421-3.421s1.532-3.421,3.421-3.421   c1.889,0,10.262,3.421,10.262,3.421S330.787,238.454,328.898,238.454z"/>
	<path style="fill:#FFE15A;" d="M212.595,231.613c1.889,0,3.421,1.532,3.421,3.421s-1.532,3.421-3.421,3.421   s-10.262-3.421-10.262-3.421S210.706,231.613,212.595,231.613z"/>
	<path style="fill:#FFE15A;" d="M314.285,196.333c-1.336,1.336-3.502,1.336-4.838,0s-1.336-3.502,0-4.838   c1.336-1.335,9.675-4.838,9.675-4.838S315.622,194.997,314.285,196.333z"/>
	<path style="fill:#FFE15A;" d="M227.209,273.734c1.336-1.336,3.501-1.336,4.838,0s1.336,3.501,0,4.838   c-1.336,1.337-9.675,4.837-9.675,4.837S225.873,275.07,227.209,273.734z"/>
	<path style="fill:#FFE15A;" d="M309.448,278.571c-1.336-1.336-1.336-3.501,0-4.838c1.336-1.337,3.501-1.336,4.838,0   s4.838,9.675,4.838,9.675S310.783,279.907,309.448,278.571z"/>
	<path style="fill:#FFE15A;" d="M232.046,191.495c1.336,1.336,1.336,3.501,0,4.838s-3.501,1.336-4.838,0s-4.838-9.675-4.838-9.675   S230.71,190.16,232.046,191.495z"/>
	<path style="fill:#FFE15A;" d="M251.654,179.999c0.723,1.746-0.106,3.746-1.852,4.469c-1.746,0.723-3.746-0.106-4.469-1.852   c-0.723-1.746-0.767-10.79-0.767-10.79S250.931,178.253,251.654,179.999z"/>
	<path style="fill:#FFE15A;" d="M289.841,290.068c-0.723-1.746,0.106-3.746,1.852-4.469c1.746-0.723,3.746,0.106,4.469,1.852   c0.723,1.746,0.767,10.79,0.767,10.79S290.563,291.815,289.841,290.068z"/>
	<path style="fill:#FFE15A;" d="M325.781,215.941c-1.746,0.723-3.746-0.106-4.469-1.852s0.106-3.746,1.852-4.469   c1.746-0.723,10.789-0.767,10.789-0.767S327.527,215.217,325.781,215.941z"/>
	<path style="fill:#FFE15A;" d="M215.713,254.126c1.746-0.723,3.746,0.106,4.469,1.852c0.723,1.746-0.106,3.746-1.852,4.469   c-1.746,0.723-10.79,0.767-10.79,0.767S213.967,254.85,215.713,254.126z"/>
	<path style="fill:#FFE15A;" d="M296.161,182.617c-0.723,1.746-2.724,2.574-4.469,1.852c-1.746-0.723-2.574-2.724-1.852-4.469   c0.723-1.746,7.087-8.172,7.087-8.172S296.884,180.872,296.161,182.617z"/>
	<path style="fill:#FFE15A;" d="M245.333,287.451c0.723-1.746,2.724-2.574,4.469-1.852c1.745,0.723,2.574,2.724,1.852,4.469   c-0.723,1.746-7.087,8.172-7.087,8.172S244.61,289.195,245.333,287.451z"/>
	<path style="fill:#FFE15A;" d="M323.162,260.448c-1.746-0.723-2.574-2.724-1.852-4.469c0.723-1.746,2.724-2.574,4.469-1.852   c1.746,0.723,8.172,7.087,8.172,7.087S324.908,261.172,323.162,260.448z"/>
	<path style="fill:#FFE15A;" d="M218.33,209.62c1.746,0.723,2.574,2.724,1.852,4.469c-0.723,1.746-2.724,2.574-4.469,1.852   c-1.746-0.723-8.172-7.087-8.172-7.087S216.586,208.896,218.33,209.62z"/>
	<path style="fill:#FFE15A;" d="M262.758,177.332c0.369,1.853-0.835,3.654-2.688,4.022c-1.853,0.369-3.654-0.835-4.022-2.688   c-0.369-1.853,1.353-10.732,1.353-10.732S262.389,175.479,262.758,177.332z"/>
	<path style="fill:#FFE15A;" d="M278.737,292.735c-0.369-1.853,0.835-3.654,2.688-4.022c1.853-0.369,3.654,0.835,4.022,2.688   c0.369,1.853-1.353,10.732-1.353,10.732S279.105,294.589,278.737,292.735z"/>
	<path style="fill:#FFE15A;" d="M328.449,227.044c-1.853,0.369-3.654-0.834-4.022-2.688c-0.369-1.853,0.834-3.654,2.688-4.022   c1.853-0.369,10.732,1.353,10.732,1.353S330.302,226.675,328.449,227.044z"/>
	<path style="fill:#FFE15A;" d="M213.045,243.024c1.853-0.369,3.654,0.834,4.022,2.688c0.369,1.853-0.835,3.654-2.688,4.022   c-1.853,0.369-10.732-1.353-10.732-1.353S211.192,243.393,213.045,243.024z"/>
	<path style="fill:#FFE15A;" d="M305.898,188.583c-1.049,1.571-3.174,1.993-4.745,0.943c-1.571-1.049-1.993-3.174-0.943-4.745   c1.049-1.57,8.545-6.632,8.545-6.632S306.948,187.011,305.898,188.583z"/>
	<path style="fill:#FFE15A;" d="M235.595,281.484c1.049-1.57,3.174-1.993,4.745-0.943c1.571,1.049,1.993,3.174,0.943,4.745   c-1.049,1.57-8.545,6.632-8.545,6.632S234.546,283.057,235.595,281.484z"/>
	<path style="fill:#FFE15A;" d="M317.198,270.185c-1.571-1.049-1.993-3.174-0.943-4.745c1.049-1.57,3.174-1.993,4.745-0.943   c1.571,1.049,6.632,8.545,6.632,8.545S318.769,271.234,317.198,270.185z"/>
	<path style="fill:#FFE15A;" d="M224.296,199.882c1.571,1.049,1.994,3.174,0.943,4.745c-1.049,1.571-3.174,1.993-4.745,0.943   s-6.632-8.545-6.632-8.545S222.726,198.833,224.296,199.882z"/>
	<path style="fill:#FFE15A;" d="M241.283,184.781c1.049,1.571,0.627,3.695-0.943,4.745c-1.571,1.049-3.695,0.627-4.745-0.943   c-1.049-1.571-2.857-10.433-2.857-10.433S240.234,183.212,241.283,184.781z"/>
	<path style="fill:#FFE15A;" d="M300.21,285.286c-1.049-1.571-0.627-3.695,0.943-4.745c1.571-1.049,3.695-0.627,4.745,0.943   c1.049,1.571,2.857,10.433,2.857,10.433S301.26,286.857,300.21,285.286z"/>
	<path style="fill:#FFE15A;" d="M320.999,205.57c-1.57,1.049-3.695,0.627-4.745-0.943c-1.049-1.571-0.627-3.695,0.943-4.745   c1.57-1.049,10.433-2.857,10.433-2.857S322.57,204.521,320.999,205.57z"/>
	<path style="fill:#FFE15A;" d="M220.495,264.497c1.57-1.049,3.695-0.627,4.745,0.943c1.049,1.571,0.627,3.695-0.943,4.745   c-1.571,1.049-10.433,2.857-10.433,2.857S218.924,265.547,220.495,264.497z"/>
	<path style="fill:#FFE15A;" d="M285.447,178.667c-0.369,1.853-2.169,3.057-4.022,2.688s-3.057-2.169-2.688-4.022   s5.357-9.397,5.357-9.397S285.815,176.813,285.447,178.667z"/>
	<path style="fill:#FFE15A;" d="M256.047,291.401c0.369-1.853,2.169-3.057,4.022-2.688s3.057,2.169,2.688,4.022   c-0.369,1.853-5.357,9.397-5.357,9.397S255.679,293.255,256.047,291.401z"/>
	<path style="fill:#FFE15A;" d="M327.114,249.734c-1.853-0.369-3.057-2.169-2.688-4.022c0.369-1.853,2.169-3.057,4.022-2.688   s9.398,5.357,9.398,5.357S328.967,250.102,327.114,249.734z"/>
	<path style="fill:#FFE15A;" d="M214.38,220.333c1.853,0.369,3.057,2.169,2.688,4.022s-2.169,3.057-4.022,2.688   s-9.398-5.357-9.398-5.357S212.527,219.965,214.38,220.333z"/>
	<path style="fill:#FFE15A;" d="M378.027,247.033c-1.336-0.562-2.863,0.082-3.42,1.41c0,0.006,0,0.006,0,0.006   c-0.01,0.025-0.062,0.148-0.151,0.358c-1.977,4.618-6.067,11.367-10.197,17.716c3.847-12.383,7.363-25.609,7.609-26.539   c0.367-1.389-0.455-2.815-1.842-3.192c-1.389-0.373-2.817,0.435-3.206,1.818c-1.795,6.432-5.466,14.897-8.853,22.063   c0.621-7.99,0.738-15.392,0.746-15.928c0.02-1.415-1.088-2.585-2.504-2.652c-1.331,0.041-2.615,1.012-2.72,2.426   c-3.349,46.068-47.678,66.676-51.995,68.572c-2.258,0.225-12.777,1.41-22.324,4.725c-1.084,0.376-2.004,0.753-2.922,1.127   c-0.341-0.128-0.707-0.2-1.092-0.177c-29.302,2.12-52.666-9.9-69.458-35.652c-12.687-19.458-16.666-39.882-16.705-40.086   c-0.268-1.42-1.628-2.335-3.054-2.084c-1.42,0.27-2.353,1.634-2.084,3.054c0.106,0.564,1.852,9.479,6.66,21.212   c-6.433-10.155-10.916-22.457-12.494-28.864c-0.032-0.128-0.114-0.225-0.162-0.343c-0.073-0.181-0.136-0.363-0.245-0.52   c-0.077-0.111-0.178-0.192-0.269-0.289c-0.143-0.151-0.28-0.299-0.455-0.412c-0.1-0.065-0.212-0.097-0.321-0.148   c-0.193-0.09-0.382-0.179-0.597-0.218c-0.149-0.029-0.301-0.01-0.456-0.013c-0.157-0.002-0.305-0.042-0.465-0.014   c-0.035,0.006-0.062,0.03-0.097,0.038c-0.034,0.007-0.066-0.004-0.1,0.003c-0.14,0.034-0.247,0.122-0.375,0.177   c-0.163,0.071-0.33,0.124-0.473,0.223c-0.141,0.097-0.246,0.223-0.363,0.344c-0.117,0.12-0.239,0.226-0.331,0.365   c-0.093,0.141-0.143,0.3-0.209,0.457c-0.063,0.153-0.136,0.297-0.169,0.462c-0.034,0.169-0.019,0.343-0.018,0.52   c0,0.141-0.039,0.276-0.014,0.42c0.01,0.061,0.03,0.124,0.041,0.184v0.01c0.003,0.011,0.007,0.026,0.01,0.038   c1.618,9.533,5.474,19.415,8.961,26.951c-5.537-6.283-10.164-13.523-11.804-17.809c-0.047-0.125-0.142-0.212-0.206-0.324   c-0.097-0.173-0.182-0.35-0.313-0.493c-0.093-0.102-0.206-0.168-0.312-0.253c-0.159-0.128-0.31-0.257-0.494-0.345   c-0.118-0.056-0.246-0.074-0.371-0.113c-0.193-0.058-0.38-0.122-0.585-0.135c-0.161-0.011-0.321,0.03-0.484,0.051   c-0.151,0.019-0.3,0-0.45,0.047c-0.029,0.009-0.049,0.032-0.076,0.042c-0.028,0.009-0.056,0.003-0.084,0.014   c-0.142,0.054-0.243,0.159-0.37,0.234c-0.149,0.088-0.308,0.161-0.435,0.275c-0.13,0.117-0.22,0.262-0.322,0.401   c-0.097,0.131-0.205,0.248-0.277,0.394c-0.075,0.153-0.103,0.319-0.146,0.484c-0.043,0.161-0.1,0.311-0.111,0.48   c-0.012,0.169,0.03,0.338,0.052,0.509c0.019,0.148-0.001,0.295,0.045,0.441c2.846,9.18,9.69,20.102,15.052,27.796   c-4.468-3.443-7.752-7.167-8.705-8.291c-0.103-0.122-0.204-0.245-0.307-0.367c-0.922-1.109-2.552-1.267-3.668-0.363   c-1.113,0.909-1.288,2.545-0.388,3.662c0.049,0.062,0.245,0.307,0.572,0.69c3.924,4.67,8.199,9.027,12.072,12.705l-5.298-2.258   c-1.208-0.521-2.628-0.051-3.29,1.098c-0.661,1.15-0.363,2.605,0.697,3.402c0.515,0.383,9.898,7.392,18.02,11.534   c-0.766,0.046-1.665-0.01-2.671-0.087c-1.228-0.118-2.436,0.761-2.735,2.007c-0.294,1.251,0.36,2.529,1.548,3.019   c0.2,0.082,2.675,1.103,5.731,2.191c-0.713,0.291-1.28,0.889-1.515,1.665c-0.352,1.16,0.143,2.417,1.195,3.019   c0.274,0.159,3.972,2.279,8.546,4.158c-0.122,0.189-0.222,0.394-0.296,0.618c-0.358,1.098,0.051,2.304,1.004,2.963   c0.794,0.546,18.559,12.602,39.307,12.602c1.362,0,2.738-0.051,4.122-0.163c1.438-0.113,2.514-1.374,2.399-2.815   c-0.115-1.441-1.364-2.529-2.817-2.396c-13.034,1.063-25.591-3.831-33.059-7.571c0.986-0.241,1.553-0.46,1.694-0.516   c1.152-0.47,1.816-1.681,1.591-2.902c-0.225-1.222-1.277-2.115-2.521-2.141c-3.032-0.062-7.231-1.538-10.848-3.122   c1.366-0.684,2.164-1.339,2.234-1.395c0.787-0.659,1.119-1.711,0.851-2.702c-0.27-0.985-1.094-1.727-2.104-1.89   c-1.111-0.184-2.495-0.542-3.946-0.981c1.41-0.812,2.01-1.706,2.24-2.161c0.363-0.725,0.371-1.574,0.023-2.304   c-0.35-0.73-1.016-1.257-1.809-1.426c-0.684-0.148-1.459-0.398-2.296-0.725c0.153-0.153,0.294-0.327,0.408-0.526   c0.666-1.129,0.391-2.58-0.643-3.392c-0.054-0.041-2.084-1.635-5.158-4.286c0.488-0.179,0.919-0.511,1.231-0.96   c0.659-0.95,0.612-2.222-0.11-3.122c-0.058-0.072-2.091-2.628-4.893-6.51c0.925,0.718,1.849,1.452,2.773,2.046   c0.435,0.276,0.927,0.414,1.415,0.414c0.662,0,1.315-0.25,1.818-0.736c0.207-0.2,0.369-0.43,0.497-0.675   c1.587,1.695,3.254,3.234,5.005,4.547c0.228,0.171,0.505,0.168,0.761,0.254c0.742,1.244,1.514,2.49,2.324,3.736   c15.883,24.438,38.278,37.528,65.138,38.314c-2.473,1.502-5.158,3.054-9.409,4.71c-0.928,0.362-1.748,0.724-2.572,1.087   c-0.398,0.078-0.771,0.222-1.084,0.469c-7.42,3.435-10.492,6.829-11.738,9.203c-1.244,2.36-0.171,4.781,1.348,6.038   c0.472,0.388,1.073,0.587,1.676,0.587c0.414,0,0.828-0.092,1.203-0.281c0.925-0.46,1.543-1.436,1.502-2.462   c0.107-0.118,0.562-0.495,1.987-0.542c1.039-0.087,3.226,0.148,5.778,0.353c2.428,0.2,5.34,0.427,8.436,0.586   c-1.937,2.258-4.188,4.875-4.188,4.875c-0.676,0.787-0.825,1.9-0.375,2.835c0.452,0.94,1.426,1.523,2.447,1.486   c2.067-0.072,3.471-0.113,4.393-0.132c0.804,1.053,1.791,1.471,2.426,1.634c1.799,0.46,3.591-0.26,4.942-1.113   c1.022,0.736,2.044,1.047,2.854,1.164c1.826,0.25,3.518-0.281,4.74-0.884c1.267,0.818,2.508,1.027,3.454,1.027   c0.013,0,0.029,0,0.043,0c2.04-0.01,3.826-0.996,5.09-1.962c1.117,0.664,2.184,0.878,3.009,0.915   c1.873,0.066,3.425-0.654,4.457-1.329c3.686,0.74,6.863-0.996,8.963-2.912c0.958,0.557,1.869,0.695,2.595,0.659   c1.867-0.066,3.289-1.201,4.202-2.217c4.179,0.505,7.178-0.266,8.911-2.324c0.946-1.119,1.329-2.38,1.433-3.53   c11.594-0.066,12.643-6.396,12.728-7.178c0.076-0.71-0.14-1.42-0.602-1.966c-0.46-0.546-1.127-0.884-1.839-0.925l-30.396-1.828   c-1.272-0.092-2.407,0.761-2.702,2.003c-0.006,0.021-0.523,1.951-2.145,3.495c-2.181,2.083-5.695,3.183-9.516,3.766   c0.014-0.35-0.035-0.706-0.169-1.054c-0.521-1.348-2.038-2.003-3.382-1.497c-6.275,2.435-16.435,2.129-24.383,1.576   c1.219-0.996,2.687-1.983,3.86-2.627c0.991-0.546,1.523-1.665,1.313-2.779c-0.152-0.809-0.737-1.372-1.442-1.734   c2.21-1.116,4.022-2.194,5.741-3.242c2.984-1.828,5.803-3.55,10.937-5.333c9.91-3.443,21.379-4.49,21.494-4.501   c0.26-0.02,0.516-0.087,0.759-0.184c0.408-0.169,32.758-13.721,47.999-44.991c-0.2,0.945-0.414,1.809-0.647,2.564   c-0.398,1.288,0.245,2.662,1.486,3.182c0.96,0.404,2.051,0.194,2.79-0.49c-0.963,2.539-1.834,4.536-2.545,5.716   c-0.725,1.201-0.375,2.759,0.792,3.535c0.274,0.179,0.567,0.301,0.868,0.373c-1.18,1.727-2.376,3.361-3.569,4.859   c-0.794,0.996-0.748,2.417,0.082,3.357c-2.049,2.145-3.864,3.913-5.244,5.037c-0.902,0.73-1.195,1.952-0.781,2.994   c-1.331,0.761-2.424,1.298-3.182,1.527c-1.272,0.383-2.053,1.665-1.813,2.973c0.125,0.69,0.513,1.272,1.049,1.655   c-1.599,0.429-3.349,0.843-5.249,1.22c-1.07,0.214-1.895,1.067-2.071,2.145c-0.174,1.078,0.338,2.151,1.284,2.692   c0.082,0.046,0.975,0.552,2.343,1.134c-5.059,2.038-14.094,4.7-28.919,6.161c-1.436,0.143-2.488,1.426-2.345,2.861   c0.14,1.436,1.382,2.432,2.86,2.35c28.142-2.784,36.832-9.828,37.187-10.131c0.812-0.68,1.134-1.788,0.812-2.799   c-0.214-0.67-0.684-1.21-1.288-1.523c8.991-2.83,12.851-5.962,13.052-6.13c0.985-0.818,1.234-2.232,0.585-3.341   c-0.654-1.109-2.015-1.589-3.203-1.109c-0.334,0.128-0.868,0.26-1.543,0.393c6.034-4.132,12.439-9.053,15.256-11.249   c0.495-0.367,0.946-0.721,1.341-1.053c1.094-0.919,1.247-2.543,0.345-3.652c-0.897-1.103-2.529-1.288-3.647-0.404   c-0.408,0.322-0.833,0.654-1.272,0.996c-1.3,0.966-2.963,2.059-4.777,3.182c6.848-7.775,13.741-16.204,15.711-18.625   c0.179-0.22,0.355-0.439,0.534-0.659c0.904-1.124,0.728-2.769-0.396-3.673c-1.127-0.919-2.774-0.73-3.676,0.388l-0.006,0.005   l-0.002,0.006c-0.049,0.056-0.27,0.332-0.643,0.792c-2.063,2.518-4.235,4.956-6.378,7.233   c6.976-12.643,12.258-25.088,13.032-26.932c0.028-0.066,0.054-0.132,0.082-0.2C379.991,249.118,379.361,247.585,378.027,247.033z    M255.437,335.201l0.714,0.093c-0.876,0.819-1.588,1.737-2.155,2.685c-1.242-0.1-2.369-0.186-3.252-0.227   C251.961,336.956,253.527,336.094,255.437,335.201z"/>
</g>
<g>
</g>
<g>
</g>
<g>
</g>
<g>
</g>
<g>
</g>
<g>
</g>
<g>
</g>
<g>
</g>
<g>
</g>
<g>
</g>
<g>
</g>
<g>
</g>
<g>
</g>
<g>
</g>
<g>
</g>
</svg>
