<?xml version="1.0" encoding="iso-8859-1"?>
<!-- Generator: Adobe Illustrator 19.0.0, SVG Export Plug-In . SVG Version: 6.00 Build 0)  -->
<svg xmlns="http://www.w3.org/2000/svg" xmlns:xlink="http://www.w3.org/1999/xlink" version="1.1" id="Layer_1" x="0px" y="0px" viewBox="0 0 512 512" style="enable-background:new 0 0 512 512;" xml:space="preserve">
<path style="fill:#41479B;" d="M473.655,88.276H38.345C17.167,88.276,0,105.443,0,126.621V256h512V126.621  C512,105.443,494.833,88.276,473.655,88.276z"/>
<path style="fill:#FF4B55;" d="M0,385.379c0,21.177,17.167,38.345,38.345,38.345h435.31c21.177,0,38.345-17.167,38.345-38.345V256H0  V385.379z"/>
<path style="fill:#FFE15A;" d="M164.028,188.687c-0.115-0.339-0.374-0.615-0.708-0.749c-0.034-0.013-0.727-0.277-1.839-0.59  c0.489-0.662,0.834-1.438,0.834-2.322c0-0.758-0.269-1.427-0.638-2.031c1.222-0.683,2.083-1.94,2.083-3.435  c0-1.185-0.544-2.221-1.368-2.952c0.988-0.726,1.672-1.841,1.672-3.157c0-1.469-0.836-2.702-2.023-3.394  c0.623-0.704,1.033-1.604,1.033-2.616c0-1.761-1.167-3.212-2.755-3.738c0.362-0.6,0.627-1.265,0.627-2.016  c0-2.164-1.739-3.913-3.892-3.968c0.089-0.332,0.205-0.655,0.205-1.015c0-2.199-1.789-3.988-3.989-3.988  c-0.371,0-0.705,0.117-1.046,0.212c0.006-0.088,0.051-0.163,0.051-0.254c0-2.199-1.789-3.988-3.988-3.988  c-0.756,0-1.422,0.267-2.026,0.633c-0.465-1.686-1.947-2.954-3.778-2.954c-1.099,0-2.095,0.447-2.817,1.169  c-0.675-1.246-1.95-2.125-3.464-2.125c-1.382,0-2.541,0.749-3.257,1.818c-0.728-0.774-1.743-1.271-2.887-1.271  c-1.476,0-2.716,0.843-3.405,2.037c-0.73-0.818-1.763-1.356-2.944-1.356c-1.46,0-2.684,0.826-3.379,1.998  c-0.679-0.534-1.496-0.904-2.424-0.904c-1.676,0-3.101,1.046-3.69,2.515c-0.718-0.694-1.687-1.132-2.763-1.132  c-1.521,0-2.802,0.886-3.474,2.141c-0.294-0.182-0.594-0.326-0.931-0.427c0.841-1.242,1.332-2.74,1.332-4.35  c0-3.125-1.862-5.807-4.525-7.046l1.118-2.237c0.173-0.345,0.173-0.755,0-1.101l-1.346-2.692c0.098-0.089,0.191-0.182,0.28-0.28  l2.695,1.346c0.173,0.086,0.36,0.128,0.548,0.128s0.376-0.045,0.548-0.131l6.554-3.277c0.418-0.209,0.68-0.633,0.68-1.098  c0-0.465-0.263-0.889-0.68-1.098l-6.554-3.277c-0.345-0.173-0.753-0.173-1.098,0l-2.692,1.346c-0.09-0.099-0.184-0.193-0.282-0.284  l1.346-2.692c0.173-0.345,0.173-0.755,0-1.101l-3.277-6.554c-0.416-0.832-1.783-0.832-2.199,0l-3.277,6.554  c-0.173,0.345-0.173,0.756,0,1.101l1.346,2.692c-0.098,0.089-0.191,0.182-0.28,0.28l-2.695-1.346  c-0.345-0.173-0.753-0.17-1.098,0.003l-6.554,3.277c-0.418,0.209-0.68,0.633-0.68,1.098c0,0.465,0.263,0.889,0.68,1.098l6.554,3.277  c0.173,0.086,0.36,0.131,0.548,0.131c0.189,0,0.376-0.045,0.548-0.131l2.692-1.346c0.09,0.099,0.184,0.193,0.282,0.284l-1.346,2.692  c-0.173,0.345-0.173,0.756,0,1.101l1.118,2.237c-2.663,1.238-4.525,3.921-4.525,7.046c0,1.577,0.479,3.041,1.288,4.268  c-0.487,0.093-0.928,0.256-1.336,0.51c-0.672-1.255-1.953-2.141-3.474-2.141c-1.075,0-2.045,0.437-2.763,1.132  c-0.588-1.469-2.013-2.515-3.69-2.515c-0.929,0-1.747,0.37-2.424,0.904c-0.695-1.172-1.92-1.998-3.379-1.998  c-1.181,0-2.214,0.538-2.944,1.356c-0.69-1.195-1.929-2.037-3.405-2.037c-1.143,0-2.159,0.498-2.887,1.271  c-0.716-1.069-1.876-1.818-3.257-1.818c-1.514,0-2.788,0.879-3.464,2.125c-0.722-0.722-1.718-1.169-2.817-1.169  c-1.832,0-3.314,1.268-3.778,2.954c-0.602-0.366-1.27-0.633-2.026-0.633c-2.199,0-3.988,1.789-3.988,3.988  c0,0.089,0.045,0.166,0.051,0.254c-0.341-0.095-0.675-0.212-1.046-0.212c-2.2,0-3.989,1.789-3.989,3.988  c0,0.36,0.116,0.683,0.205,1.015c-2.153,0.055-3.892,1.804-3.892,3.968c0,0.751,0.265,1.416,0.627,2.016  c-1.588,0.526-2.755,1.976-2.755,3.738c0,1.012,0.409,1.912,1.033,2.616c-1.186,0.692-2.023,1.924-2.023,3.394  c0,1.318,0.684,2.431,1.672,3.157c-0.824,0.732-1.368,1.767-1.368,2.952c0,1.495,0.862,2.752,2.083,3.435  c-0.369,0.605-0.638,1.273-0.638,2.031c0,0.931,0.371,1.751,0.907,2.43c-0.888,0.263-1.433,0.47-1.463,0.482  c-0.334,0.135-0.594,0.409-0.708,0.749c-0.115,0.342-0.074,0.717,0.11,1.027c0.097,0.16,9.76,16.386,12.959,32.378  c0.079,0.396,0.366,0.651,0.704,0.811c2.457,3.319,23.746,5.913,49.66,5.913s47.202-2.594,49.66-5.913  c0.338-0.161,0.626-0.415,0.704-0.811c3.196-15.98,12.861-32.218,12.959-32.378C164.102,189.405,164.143,189.03,164.028,188.687z"/>
<g>
	<path style="fill:#464655;" d="M164.028,188.687c-0.115-0.339-0.374-0.615-0.708-0.749c-0.034-0.013-0.727-0.277-1.839-0.59   c0.489-0.662,0.834-1.438,0.834-2.322c0-0.758-0.269-1.427-0.638-2.031c1.222-0.683,2.083-1.94,2.083-3.435   c0-1.185-0.544-2.221-1.368-2.952c0.988-0.726,1.672-1.841,1.672-3.157c0-1.469-0.836-2.702-2.023-3.394   c0.623-0.704,1.033-1.604,1.033-2.616c0-1.761-1.167-3.212-2.755-3.738c0.362-0.6,0.627-1.265,0.627-2.016   c0-2.164-1.739-3.913-3.892-3.968c0.089-0.332,0.205-0.655,0.205-1.015c0-2.199-1.789-3.988-3.989-3.988   c-0.371,0-0.705,0.117-1.046,0.212c0.006-0.088,0.051-0.163,0.051-0.254c0-2.199-1.789-3.988-3.988-3.988   c-0.756,0-1.422,0.267-2.026,0.633c-0.465-1.686-1.947-2.954-3.778-2.954c-1.099,0-2.095,0.447-2.817,1.169   c-0.675-1.246-1.95-2.125-3.464-2.125c-1.382,0-2.541,0.749-3.257,1.818c-0.728-0.774-1.743-1.271-2.887-1.271   c-1.476,0-2.716,0.843-3.405,2.037c-0.73-0.818-1.763-1.356-2.944-1.356c-1.46,0-2.684,0.826-3.379,1.998   c-0.679-0.534-1.496-0.904-2.424-0.904c-1.676,0-3.101,1.046-3.69,2.515c-0.718-0.694-1.687-1.132-2.763-1.132   c-1.521,0-2.802,0.886-3.474,2.141c-0.294-0.182-0.594-0.326-0.931-0.427c0.841-1.242,1.332-2.74,1.332-4.35   c0-3.125-1.862-5.807-4.525-7.046l1.118-2.237c0.173-0.345,0.173-0.755,0-1.101l-1.346-2.692c0.098-0.089,0.191-0.182,0.28-0.28   l2.695,1.346c0.173,0.086,0.36,0.128,0.548,0.128s0.376-0.045,0.548-0.131l6.554-3.277c0.418-0.209,0.68-0.633,0.68-1.098   c0-0.465-0.263-0.889-0.68-1.098l-6.554-3.277c-0.345-0.173-0.753-0.173-1.098,0l-2.692,1.346c-0.09-0.099-0.184-0.193-0.282-0.284   l1.346-2.692c0.173-0.345,0.173-0.755,0-1.101l-3.277-6.554c-0.416-0.832-1.783-0.832-2.199,0l-3.277,6.554   c-0.173,0.345-0.173,0.756,0,1.101l1.346,2.692c-0.098,0.089-0.191,0.182-0.28,0.28l-2.695-1.346   c-0.345-0.173-0.753-0.17-1.098,0.003l-6.554,3.277c-0.418,0.209-0.68,0.633-0.68,1.098c0,0.465,0.263,0.889,0.68,1.098   l6.554,3.277c0.173,0.086,0.36,0.131,0.548,0.131c0.189,0,0.376-0.045,0.548-0.131l2.692-1.346c0.09,0.099,0.184,0.193,0.282,0.284   l-1.346,2.692c-0.173,0.345-0.173,0.756,0,1.101l1.118,2.237c-2.663,1.238-4.525,3.921-4.525,7.046   c0,1.577,0.479,3.041,1.288,4.268c-0.487,0.093-0.928,0.256-1.336,0.51c-0.672-1.255-1.953-2.141-3.474-2.141   c-1.075,0-2.045,0.437-2.763,1.132c-0.588-1.469-2.013-2.515-3.69-2.515c-0.929,0-1.747,0.37-2.424,0.904   c-0.695-1.172-1.92-1.998-3.379-1.998c-1.181,0-2.214,0.538-2.944,1.356c-0.69-1.195-1.929-2.037-3.405-2.037   c-1.143,0-2.159,0.498-2.887,1.271c-0.716-1.069-1.876-1.818-3.257-1.818c-1.514,0-2.788,0.879-3.464,2.125   c-0.722-0.722-1.718-1.169-2.817-1.169c-1.832,0-3.314,1.268-3.778,2.954c-0.602-0.366-1.27-0.633-2.026-0.633   c-2.199,0-3.988,1.789-3.988,3.988c0,0.089,0.045,0.166,0.051,0.254c-0.341-0.095-0.675-0.212-1.046-0.212   c-2.2,0-3.989,1.789-3.989,3.988c0,0.36,0.116,0.683,0.205,1.015c-2.153,0.055-3.892,1.804-3.892,3.968   c0,0.751,0.265,1.416,0.627,2.016c-1.588,0.526-2.755,1.976-2.755,3.738c0,1.012,0.409,1.912,1.033,2.616   c-1.186,0.692-2.023,1.924-2.023,3.394c0,1.318,0.684,2.431,1.672,3.157c-0.824,0.732-1.368,1.767-1.368,2.952   c0,1.495,0.862,2.752,2.083,3.435c-0.369,0.605-0.638,1.273-0.638,2.031c0,0.931,0.371,1.751,0.907,2.43   c-0.888,0.263-1.433,0.47-1.463,0.482c-0.334,0.135-0.594,0.409-0.708,0.749c-0.115,0.342-0.074,0.717,0.11,1.027   c0.097,0.16,9.76,16.386,12.959,32.378c0.079,0.396,0.366,0.651,0.704,0.811c2.457,3.319,23.746,5.913,49.66,5.913   s47.202-2.594,49.66-5.913c0.338-0.161,0.626-0.415,0.704-0.811c3.196-15.98,12.861-32.218,12.959-32.378   C164.102,189.405,164.143,189.03,164.028,188.687z M129.286,180.771v-19.233c1.559-0.135,3.075-0.178,4.533-0.127v19.98   C132.463,180.736,130.932,180.545,129.286,180.771z M115.14,154.575c0.034,0.033,0.082,0.047,0.117,0.079   c-0.052,0.011-0.104,0.022-0.157,0.034C115.117,154.65,115.126,154.613,115.14,154.575z M158.326,183.497   c0.843,0,1.529,0.685,1.529,1.529c0,0.845-0.686,1.529-1.529,1.529s-1.529-0.685-1.529-1.529   C156.797,184.181,157.483,183.497,158.326,183.497z M159.769,181.089c-0.843,0-1.529-0.685-1.529-1.529   c0-0.845,0.686-1.529,1.529-1.529c0.845,0,1.532,0.685,1.532,1.529C161.301,180.405,160.615,181.089,159.769,181.089z    M158.546,173.45c0-0.845,0.686-1.529,1.529-1.529s1.529,0.685,1.529,1.529c0,0.845-0.686,1.529-1.529,1.529   C159.232,174.98,158.546,174.295,158.546,173.45z M112.845,188.687c-1.468-5.581-3.373-13.982-4.177-22.38   c0.845-0.296,2.297-0.781,4.177-1.35V188.687z M92.359,166.407c-0.865,8.937-2.976,17.889-4.463,23.4v-24.852   C90.004,165.593,91.585,166.132,92.359,166.407z M102.125,156.309c0,0.845-0.686,1.529-1.529,1.529s-1.529-0.685-1.529-1.529   c0-0.845,0.686-1.529,1.529-1.529C101.439,154.778,102.125,155.464,102.125,156.309z M85.602,154.583l-0.01-0.002   c0,0,0.006-0.003,0.008-0.006C85.601,154.578,85.601,154.581,85.602,154.583z M40.665,171.921c0.843,0,1.529,0.685,1.529,1.529   c0,0.845-0.686,1.529-1.529,1.529s-1.529-0.685-1.529-1.529C39.135,172.605,39.822,171.921,40.665,171.921z M42.5,179.56   c0,0.845-0.686,1.529-1.529,1.529c-0.845,0-1.532-0.685-1.532-1.529c0-0.845,0.686-1.529,1.532-1.529   C41.814,178.03,42.5,178.714,42.5,179.56z M42.414,183.497c0.843,0,1.529,0.685,1.529,1.529c0,0.845-0.686,1.529-1.529,1.529   s-1.529-0.685-1.529-1.529C40.884,184.181,41.571,183.497,42.414,183.497z M48.725,162.79c2.406-3.892,7.102-8.53,15.82-8.53   c8.512,0,20.522,2.601,28.214,4.513c0.003,1.668-0.073,3.378-0.191,5.098c-5.248-1.827-26.121-8.508-34.999-2.432   c-10.047,6.89-6.872,20.033-4.995,25.476c-1.598-0.433-3.214-0.629-4.761-0.66C44.184,178.974,44.548,169.549,48.725,162.79z    M55.648,188.107c-0.864-2.009-6.389-15.905,1.824-23.42v24.518C56.882,188.783,56.27,188.426,55.648,188.107z M59.93,162.956   c1.298-0.673,2.828-1.109,4.533-1.341v21.87c-2.465,2.499-3.561,5.938-4.044,8.524c-0.156-0.196-0.328-0.354-0.49-0.537v-28.516   L59.93,162.956L59.93,162.956z M66.922,161.409c1.458-0.051,2.974-0.008,4.533,0.127v19.213c-0.268-0.024-0.548-0.093-0.81-0.093   c-1.208,0-2.342,0.253-3.372,0.771c-0.127,0.063-0.23,0.149-0.352,0.216v-20.235h0.001V161.409z M73.913,161.8   c1.523,0.202,3.043,0.467,4.533,0.765v21.037c-1.56-1.076-3.078-1.854-4.533-2.329V161.8z M80.905,163.093   c1.611,0.371,3.132,0.76,4.533,1.151v26.012c-1.355-1.715-2.916-3.337-4.533-4.748V163.093z M95.206,159.394   c1.848,0.48,3.306,0.879,4.161,1.12v20.844c-3.331,0.337-5.876,2.038-7.818,4.129C93.279,178.281,95.142,168.447,95.206,159.394z    M101.824,160.514c0.833-0.234,2.231-0.618,4.009-1.08c0.068,8.961,1.895,18.677,3.609,25.856c-1.918-1.996-4.396-3.605-7.617-3.93   v-20.845h-0.001V160.514z M115.303,164.246c1.402-0.39,2.922-0.78,4.533-1.151v22.606c0,0.057,0.025,0.107,0.033,0.163   c-1.655,1.495-3.222,3.21-4.566,4.989C115.303,190.853,115.303,164.246,115.303,164.246z M122.294,162.567   c1.491-0.298,3.01-0.563,4.533-0.765v19.586c-1.458,0.535-2.979,1.384-4.533,2.507V162.567z M136.277,161.617   c1.706,0.232,3.235,0.666,4.533,1.34v28.788c0,0.064,0.026,0.12,0.036,0.181c-0.024,0.031-0.052,0.054-0.076,0.084   c-0.51-2.732-1.724-6.398-4.493-8.919V161.617z M143.268,164.689c8.799,8.056,1.79,23.505,1.714,23.669   c-0.008,0.017-0.006,0.034-0.012,0.051c-0.584,0.332-1.149,0.722-1.702,1.151L143.268,164.689L143.268,164.689z M143.17,161.439   c-8.702-5.96-28.974,0.36-34.709,2.332c-0.113-1.673-0.186-3.335-0.183-4.959c7.684-1.917,19.798-4.552,28.366-4.552   c8.718,0,13.415,4.638,15.82,8.53c4.177,6.76,4.542,16.184,0.913,23.466c-1.71,0.034-3.502,0.275-5.262,0.81   C149.984,181.715,153.308,168.391,143.17,161.439z M159.085,168.97c-0.843,0-1.529-0.685-1.529-1.529   c0-0.845,0.686-1.529,1.529-1.529c0.845,0,1.532,0.685,1.532,1.529S159.929,168.97,159.085,168.97z M158.488,161.685   c0,0.845-0.686,1.533-1.532,1.533c-0.843,0-1.529-0.689-1.529-1.533c0-0.845,0.686-1.529,1.529-1.529   C157.802,160.156,158.488,160.841,158.488,161.685z M154.802,156.702c0,0.845-0.686,1.529-1.532,1.529   c-0.843,0-1.529-0.685-1.529-1.529c0-0.845,0.686-1.529,1.529-1.529C154.114,155.172,154.802,155.858,154.802,156.702z    M148.287,151.143c0.843,0,1.529,0.685,1.529,1.529c0,0.845-0.686,1.533-1.529,1.533c-0.845,0-1.532-0.689-1.532-1.533   S147.442,151.143,148.287,151.143z M142.483,148.822c0.843,0,1.529,0.685,1.529,1.529c0,0.845-0.686,1.529-1.529,1.529   s-1.529-0.685-1.529-1.529C140.953,149.507,141.64,148.822,142.483,148.822z M136.202,147.865c0.843,0,1.529,0.685,1.529,1.529   c0,0.844-0.686,1.533-1.529,1.533c-0.845,0-1.532-0.689-1.532-1.533C134.67,148.551,135.357,147.865,136.202,147.865z    M130.057,148.413c0.843,0,1.529,0.685,1.529,1.529s-0.686,1.529-1.529,1.529c-0.845,0-1.532-0.685-1.532-1.529   S129.212,148.413,130.057,148.413z M123.708,149.095c0.843,0,1.529,0.685,1.529,1.529c0,0.845-0.686,1.533-1.529,1.533   c-0.845,0-1.532-0.689-1.532-1.533S122.862,149.095,123.708,149.095z M117.903,150.189c0.843,0,1.529,0.685,1.529,1.529   c0,0.844-0.686,1.529-1.529,1.529s-1.529-0.685-1.529-1.529S117.06,150.189,117.903,150.189z M111.452,151.572   c0.843,0,1.529,0.685,1.529,1.529s-0.686,1.529-1.529,1.529s-1.529-0.685-1.529-1.529S110.607,151.572,111.452,151.572z    M105.921,156.117c-0.843,0-1.529-0.685-1.529-1.529c0-0.845,0.686-1.529,1.529-1.529s1.529,0.685,1.529,1.529   S106.764,156.117,105.921,156.117z M98.547,130.09c0-1.13,0.918-2.048,2.048-2.048s2.048,0.918,2.048,2.048   s-0.918,2.048-2.048,2.048C99.466,132.139,98.547,131.22,98.547,130.09z M107.149,128.186l3.807,1.905l-3.807,1.905l-2.133-1.067   c0.052-0.273,0.085-0.551,0.085-0.838s-0.033-0.566-0.085-0.839L107.149,128.186z M98.692,123.535l1.902-3.806l1.902,3.806   l-1.067,2.133c-0.271-0.052-0.55-0.085-0.836-0.085c-0.287,0-0.565,0.033-0.836,0.085L98.692,123.535z M94.04,131.994l-3.807-1.905   l3.807-1.905l2.133,1.067c-0.052,0.273-0.085,0.551-0.085,0.838s0.033,0.566,0.085,0.839L94.04,131.994z M98.692,136.644   l1.067-2.133c0.271,0.052,0.55,0.085,0.836,0.085s0.565-0.033,0.836-0.085l1.067,2.133l-1.066,2.133   c-0.278-0.03-0.55-0.085-0.836-0.085c-0.287,0-0.558,0.054-0.836,0.085L98.692,136.644z M100.595,141.151   c2.936,0,5.325,2.388,5.325,5.325c0,2.938-2.389,5.325-5.325,5.325s-5.325-2.388-5.325-5.325   C95.27,143.539,97.658,141.151,100.595,141.151z M94.82,153.057c0.843,0,1.529,0.685,1.529,1.529c0,0.845-0.686,1.529-1.529,1.529   s-1.529-0.685-1.529-1.529C93.29,153.741,93.976,153.057,94.82,153.057z M89.29,151.572c0.843,0,1.529,0.685,1.529,1.529   s-0.686,1.529-1.529,1.529s-1.529-0.685-1.529-1.529S88.446,151.572,89.29,151.572z M82.837,150.189   c0.843,0,1.529,0.685,1.529,1.529c0,0.844-0.686,1.529-1.529,1.529s-1.529-0.685-1.529-1.529S81.994,150.189,82.837,150.189z    M77.034,149.095c0.845,0,1.532,0.685,1.532,1.529c0,0.845-0.686,1.533-1.532,1.533c-0.843,0-1.529-0.689-1.529-1.533   C75.503,149.78,76.19,149.095,77.034,149.095z M70.684,148.413c0.845,0,1.532,0.685,1.532,1.529s-0.686,1.529-1.532,1.529   c-0.843,0-1.529-0.685-1.529-1.529S69.841,148.413,70.684,148.413z M64.538,147.865c0.845,0,1.532,0.685,1.532,1.529   c0,0.844-0.686,1.533-1.532,1.533c-0.843,0-1.529-0.689-1.529-1.533C63.009,148.551,63.695,147.865,64.538,147.865z    M58.258,148.822c0.843,0,1.529,0.685,1.529,1.529c0,0.845-0.686,1.529-1.529,1.529s-1.529-0.685-1.529-1.529   C56.728,149.507,57.415,148.822,58.258,148.822z M52.454,151.143c0.845,0,1.532,0.685,1.532,1.529c0,0.845-0.686,1.533-1.532,1.533   c-0.843,0-1.529-0.689-1.529-1.533C50.924,151.828,51.61,151.143,52.454,151.143z M47.471,155.172c0.843,0,1.529,0.685,1.529,1.529   c0,0.845-0.686,1.529-1.529,1.529c-0.845,0-1.532-0.685-1.532-1.529C45.94,155.858,46.626,155.172,47.471,155.172z M43.784,160.156   c0.843,0,1.529,0.685,1.529,1.529c0,0.845-0.686,1.533-1.529,1.533c-0.845,0-1.532-0.689-1.532-1.533S42.94,160.156,43.784,160.156   z M41.655,165.91c0.843,0,1.529,0.685,1.529,1.529c0,0.845-0.686,1.529-1.529,1.529c-0.845,0-1.532-0.685-1.532-1.529   C40.125,166.594,40.811,165.91,41.655,165.91z M148.777,220.579c-5.667-2.803-25.06-4.871-48.181-4.871s-42.515,2.068-48.182,4.871   c-2.931-13.569-9.939-26.697-12.275-30.823c3.892-1.194,15.034-3.562,20.03,6.43c0.256,0.509,0.831,0.778,1.382,0.647   c0.555-0.131,0.948-0.627,0.948-1.197c0-0.089,0.067-9.106,5.875-12.011c5.751-2.861,15.055,6.637,18.015,12.562   c0,0,0.003,0.002,0.003,0.004c0.097,0.193,0.259,0.342,0.446,0.462c0.039,0.024,0.075,0.046,0.117,0.065   c0.053,0.026,0.095,0.067,0.153,0.086c0.127,0.042,0.255,0.061,0.38,0.061c0.023,0,0.042-0.02,0.065-0.021   c0.024,0,0.043,0.015,0.068,0.014c0.116-0.013,0.201-0.092,0.305-0.135c0.11-0.044,0.221-0.065,0.314-0.138   c0.114-0.089,0.174-0.218,0.252-0.343c0.051-0.083,0.136-0.132,0.168-0.228c0.036-0.113,0.189-0.59,0.415-1.334   c1.074-3.105,4.477-10.923,11.524-10.923c5.981,0,9.336,5.633,10.873,9.237c0.501,1.731,0.854,2.84,0.913,3.02   c0.17,0.522,0.651,0.851,1.17,0.851c0.125,0,0.253-0.019,0.38-0.061c0.022-0.008,0.038-0.025,0.06-0.033   c0.342-0.087,0.651-0.258,0.814-0.584c2.962-5.928,12.274-15.404,18.015-12.562c0.386,0.193,0.743,0.417,1.079,0.66   c0.333,0.281,0.558,0.489,0.938,0.794c3.785,3.694,3.858,10.478,3.858,10.557c0.001,0.569,0.394,1.066,0.948,1.197   c0.558,0.128,1.127-0.138,1.382-0.647c4.986-9.97,16.13-7.617,20.029-6.426C158.714,193.889,151.708,207.014,148.777,220.579z"/>
	<path style="fill:#464655;" d="M105.443,193.561c-0.159,0.131-0.314,0.27-0.468,0.414c-1.192,1.122-3.153,0.241-3.153-1.397v-0.221   c0-0.679-0.551-1.229-1.229-1.229s-1.229,0.551-1.229,1.229v0.221c0,1.638-1.96,2.519-3.153,1.397   c-0.152-0.143-0.309-0.281-0.468-0.414c-0.522-0.429-1.298-0.365-1.73,0.163c-0.434,0.522-0.362,1.297,0.161,1.731   c3.358,2.781,5.188,9.358,5.188,11.957v1.332c0,0.679,0.551,1.229,1.229,1.229s1.229-0.551,1.229-1.229v-1.332   c0-2.599,1.831-9.175,5.188-11.957c0.523-0.435,0.595-1.209,0.161-1.731C106.74,193.201,105.965,193.133,105.443,193.561z"/>
	<path style="fill:#464655;" d="M133.309,198.724c-0.145-0.011-0.288-0.015-0.433-0.011c-1.151,0.079-2.275-1.555-1.717-2.823   c0.023-0.053,0.047-0.107,0.071-0.161c0.215-0.49,0.051-1.292-0.359-1.813c-0.409-0.52-0.94-0.492-1.194,0.084   c-0.026,0.062-0.054,0.122-0.082,0.185c-0.58,1.318-2.251,0.924-2.514-1.013c-0.033-0.249-0.067-0.502-0.106-0.754   c-0.129-0.819-0.6-1.387-1.102-1.16c-0.499,0.218-0.836,1.137-0.716,1.969c0.711,5.494-0.104,11.288-1.035,13.395   c-0.163,0.372-0.328,0.744-0.491,1.117c-0.253,0.574,0.07,1.018,0.729,0.97c0.66-0.05,1.377-0.503,1.593-0.992   c0.143-0.324,0.286-0.649,0.428-0.974c0.882-2.01,4.577-6.467,7.604-6.236c0.487-0.003,0.694-0.32,0.5-0.796   C134.292,199.239,133.779,198.764,133.309,198.724z"/>
	<path style="fill:#464655;" d="M151.542,202.548c-0.12,0-0.239,0.007-0.36,0.021c-0.966,0.161-1.785-1.338-1.227-2.606   c0.023-0.053,0.047-0.107,0.071-0.161c0.215-0.49,0.137-1.255-0.167-1.728c-0.303-0.473-0.748-0.408-1.002,0.169   c-0.026,0.062-0.054,0.122-0.082,0.184c-0.58,1.318-1.945,1.058-2.024-0.797c-0.009-0.239-0.02-0.481-0.033-0.722   c-0.047-0.783-0.399-1.299-0.835-1.042c-0.433,0.248-0.78,1.162-0.74,1.958c0.192,5.267-0.91,10.934-1.841,13.041   c-0.163,0.372-0.328,0.744-0.491,1.117c-0.253,0.574-0.015,0.98,0.538,0.886c0.555-0.097,1.186-0.587,1.401-1.077   c0.143-0.324,0.286-0.649,0.428-0.974c0.882-2.01,4.29-6.593,6.798-6.59c0.407-0.039,0.602-0.36,0.476-0.807   C152.326,202.975,151.932,202.552,151.542,202.548z"/>
	<path style="fill:#464655;" d="M77.049,206.624c-0.931-2.106-1.746-7.901-1.035-13.395c0.12-0.831-0.217-1.749-0.716-1.969   c-0.502-0.227-0.974,0.341-1.102,1.16c-0.039,0.252-0.073,0.503-0.106,0.754c-0.264,1.937-1.934,2.329-2.514,1.013   c-0.028-0.062-0.054-0.124-0.082-0.185c-0.254-0.577-0.783-0.604-1.194-0.084c-0.409,0.521-0.574,1.322-0.359,1.813   c0.023,0.054,0.047,0.108,0.071,0.161c0.558,1.268-0.567,2.902-1.717,2.823c-0.145-0.004-0.288,0-0.433,0.011   c-0.47,0.04-0.984,0.514-1.178,0.988c-0.194,0.476,0.013,0.792,0.5,0.796c3.027-0.232,6.722,4.225,7.604,6.236   c0.142,0.324,0.286,0.649,0.428,0.974c0.215,0.49,0.932,0.942,1.593,0.992c0.66,0.049,0.982-0.395,0.729-0.97   C77.376,207.368,77.213,206.996,77.049,206.624z"/>
	<path style="fill:#464655;" d="M57.869,210.863c-0.93-2.106-2.033-7.774-1.841-13.041c0.04-0.796-0.309-1.709-0.74-1.958   c-0.436-0.257-0.788,0.259-0.835,1.042c-0.014,0.241-0.024,0.482-0.033,0.722c-0.078,1.855-1.443,2.114-2.024,0.797   c-0.028-0.062-0.054-0.124-0.082-0.184c-0.254-0.577-0.698-0.642-1.002-0.169c-0.303,0.473-0.383,1.238-0.167,1.728   c0.023,0.054,0.047,0.108,0.071,0.161c0.558,1.268-0.262,2.767-1.227,2.606c-0.121-0.014-0.241-0.021-0.36-0.021   c-0.39,0.003-0.783,0.426-0.911,0.871c-0.127,0.446,0.07,0.768,0.476,0.807c2.508-0.003,5.917,4.579,6.798,6.59   c0.142,0.324,0.286,0.649,0.428,0.974c0.215,0.49,0.847,0.98,1.401,1.077c0.554,0.095,0.791-0.311,0.538-0.886   C58.197,211.608,58.033,211.235,57.869,210.863z"/>
</g>
<g>
</g>
<g>
</g>
<g>
</g>
<g>
</g>
<g>
</g>
<g>
</g>
<g>
</g>
<g>
</g>
<g>
</g>
<g>
</g>
<g>
</g>
<g>
</g>
<g>
</g>
<g>
</g>
<g>
</g>
</svg>
