<?xml version="1.0" encoding="iso-8859-1"?>
<svg xmlns="http://www.w3.org/2000/svg" xmlns:xlink="http://www.w3.org/1999/xlink" viewBox="0 0 100 100" preserveAspectRatio="xMidYMid">
<defs> <clipPath id="ldio-x3jsygn7oea-cp"> <circle cx="50" cy="50" r="35"></circle> </clipPath> </defs>
<circle cx="50" cy="50" r="35" fill="#009ef7"></circle>
<g clip-path="url(#ldio-x3jsygn7oea-cp)">
  <path transform="scale(2) translate(-25 -25)" fill="#dbfb54" d="M64.4,74.4c0.3,0.3,0.2,0.3-0.3,0.3C64.1,74.3,64.2,74.5,64.4,74.4z M31.4,75.4c-0.2,0.1-0.3-0.2-0.5,0.1c0.3,0.2,0.6,0.1,0.8-0.1C31.6,75.2,31.6,75.4,31.4,75.4z M84.9,36.9c-0.3,0.2-0.8-0.1-1.1-0.5 c0.1,0.2,0.1,0.6,0.3,0.9c-0.5,0.2-0.2,0.6,0.2,0.7c0-0.1,0-0.3,0-0.4c0.2,0.1,0.4,0.2,0.5,0.3c0.2-0.2,0.2-0.3,0.4-0.5 C85.1,37.2,85,37,84.9,36.9z M85.1,40.6c0-0.6-0.1-2.1-0.6-2.4c-0.6-0.4,0.5,2.1-0.6,1.6c0,0.2-0.1,0.5,0,0.7 c-0.8-0.3-0.9,0.5-1.4,0.9c0.3,0.3,0.4,0.6,0.6,0.9c0.3-0.4,0.2-0.9-0.3-1.2c0.2,0,0.4-0.2,0.6-0.2c0.2,0,0.6,0.2,0.6,0.2 C84.2,41,84.5,40.7,85.1,40.6z M83.7,41c-0.4-0.1-0.7,0.2-0.3,0.6c0.2-0.4,0-0.1,0.3-0.2C83.8,41.2,83.6,41.1,83.7,41z M93.5,62.8 c0.1,0.5,0.3,0.9,0.7,0.8C94.1,63.3,93.8,63,93.5,62.8z M93,71.2c-0.1-0.1-2.5,1.6-2.9,2.1c0.8,0.5,2.9-1.2,3.1-2.1 C93,71.5,92.9,71.2,93,71.2z M95,69.9c-0.4,0.2-0.6,0-0.5-0.4c0,0.1-0.1,0.2-0.1,0.3c0.1-0.5,0.1-0.8-0.1-1.1 c-0.3,0.7,0.1,1.4-0.7,2c0.3,0.3,0.3,0.4-0.1,0.7c0.1,0,0.1,0.1,0.1,0.2C93.9,71.3,95,70.2,95,69.9z M82,50.6 c0.2-0.2,0.3-0.2,0.3-0.5c-0.1,0-0.3-0.1-0.4-0.1C81.9,50.2,81.9,50.4,82,50.6z M82.4,50.6c-0.3-0.4-0.2,0.1-0.1,0.5 c0.2-0.3,0.3-0.5,0.2-0.9C82.5,50.4,82.4,50.5,82.4,50.6z M82.8,49.7c-0.1,0-0.2,0-0.3,0c0,0.1,0.2,0.4,0.2,0.5c-0.1,0-0.1,0-0.2,0 c0.1,0.2,0.1,0.3,0.2,0.5c0.1-0.2,0.1-0.2,0-0.5c0.1,0,0.2,0.1,0.2,0.1C83,50.1,82.9,49.9,82.8,49.7z M81,51 c0.2-0.3,0.3-0.4,0.2-0.8c-0.1,0.5-0.4,0.8-0.6,1.2C80.8,51.3,80.9,51.1,81,51z M81.2,48.6c0.1,0.2,0.1,0.5,0.3,0.3 c0,0.4,0.3,0.6,0.6,0.6c0,0,0-0.1,0.1-0.1c0.1,0.2,0.2,0.3,0.4,0.4c0-0.7-0.6-0.5-0.8-1c-0.2-0.4,0.2-0.9,0-1.4 c-0.5-0.1-0.6,0.3-0.4,1c0,0-0.1-0.1-0.1-0.1C81.1,48.3,81.1,48.4,81.2,48.6z M83.3,52.2c0.1-0.5,0.1-1.1-0.3-1.4c0,0.1,0,0.2,0,0.3 c-0.4,0.2-0.9,0.1-0.9,0.8c0.7-0.7,0.4,0.2,1,0.5c0-0.2,0.1-0.5,0.1-0.7C83.2,52,83.3,52.1,83.3,52.2z M81.5,49.6 c0.1-0.1,0.3-0.1-0.2-0.3C81.4,49.4,81.5,49.5,81.5,49.6z M91.8,57.4c0.1,0.1,0,0.2,0.2,0.1c-0.1-0.2-0.2-0.5-0.3-0.7 C91.6,57,91.7,57.1,91.8,57.4z M90.2,57.3c0.4-0.1,1.1-0.5,0.6-0.9c-0.1,0.4-0.2,0.6-0.4,0.3c-0.1,0-0.5,0.2-0.5,0.3 C89.9,57.2,90,57.2,90.2,57.3z M90.9,56.1c0.1,0.2,0.2,0.3,0.2,0.5c0.1-0.5-0.2-0.8-0.6-0.8C90.7,55.9,90.8,56,90.9,56.1z M90.3,59 c-0.2-0.4-0.7-0.7-1-1.6c0.1,0,0.2,0,0.3,0c-0.7-0.7-1.4-1.7-2.5-1.8c-0.5-0.1-1,0.5-1.3,0.3c-0.5-0.2-0.1-1.4-1.2-0.8 c0.3,0.4,0.6,0.5,0.9,0.6c-0.2,0-0.3,0.1-0.5,0.1c0.1,0.2,0.2,0.4,0.3,0.5c0.1,0,0.2-0.2,0.2-0.2c0.6,0.5,2,1,1,2 c0.6-0.3,0.7,0.4,1.2,0.3c0.4-0.1,0.4-0.5,0.6-0.5C89.2,57.9,89.5,58.9,90.3,59z M93.2,58.5c-0.1,0.1-0.2-0.2-0.2,0.1 C93.3,58.8,93.2,58.6,93.2,58.5z M92.4,57.7c0,0-0.1-0.2-0.2-0.3C92.2,57.6,92.3,57.6,92.4,57.7z M92.9,58c0.1,0.1,0.1,0.1,0.2,0.2 c-0.2-0.2-0.3-0.3-0.5-0.4C92.7,57.8,92.8,57.9,92.9,58z M93.5,59.1C93.6,58.9,93.6,58.8,93.5,59.1z M93.5,58.7c0-0.2,0-0.4-0.2-0.6 C93.3,58.3,93.4,58.5,93.5,58.7z M81,45.9c0.1-0.5,0.2-1-0.1-1.3C80.6,45,80.6,45.5,81,45.9z M94.8,61c0,0,0.1-0.2,0-0.4 C94.7,60.8,94.8,61.1,94.8,61z M94.8,61.2c0.1,0.1,0,0.3,0.2,0.1C94.9,61.1,94.8,61.2,94.8,61.2z M29.5,76.3 c-0.4-0.8-0.5-0.2-0.7-0.2c0.2,0-0.3,0.2-0.3,0.2c-0.2,0-0.6-0.3-0.9-0.4c0.9,0.9,1.9,1.2,2.6,0.7C30,76.6,29.8,76.4,29.5,76.3z M89.6,64.4c0-0.2-0.2-0.3-0.1-0.7c-0.2,0-0.1-0.1-0.3,0c0.1-0.8-0.5-1.1-0.7-1.7c-0.1-0.5,0-1-0.2-1.6c-0.1,0.1-0.1,0.1-0.2,0.2 c0-0.5-0.1-1.1-0.2-1.6c-0.5,0.9-0.5,3.8-1.7,2.2c-0.3-0.5-0.4-0.2-0.4-0.8c0-0.3,0.4-0.5,0.4-0.7c0-0.1-1.1-0.4-1.4-0.5 c0.3,0.3-0.7,0.7-0.8,1.5c-0.5-0.2-0.7-0.4-1.1-0.2c-0.4,0.1-0.7,0.9-0.7,1.1c0,0-0.1,0.1-0.1,0.1c0-0.1,0-0.2-0.1-0.3 c-0.4,0.8-0.6,1.1-1.3,1.4c-0.6,0.3-1.1,0.4-1.6,1c0-0.1,0-0.2,0-0.3c-0.3,0.6-0.5,1.1-0.3,1.8c-0.1-0.1-0.1-0.2-0.2-0.3 c0,0.1,0,0.3,0,0.4c0-0.1-0.1-0.1-0.1-0.2c0.1,1,0.1,1.7,0,2.7c0,0.4-0.6,0.5,0,0.9c0.4,0.2,0.7-0.3,1-0.4c0.8-0.2,1.4-0.5,2.3-0.7 c1.4-0.5,1.7-0.2,2.1,1.1c0.2-0.3,0.5-0.6,0.8-0.8c-0.1,0.4-0.3,0.7-0.6,1c0.2-0.1,0.3-0.2,0.5-0.4c-0.1,0.2-0.1,0.3-0.2,0.5 c0.5,0.2,0.5,2.1,1.5,0.9c0,0.1-0.1,0.1-0.1,0.2C86.9,71.3,90.8,66.1,89.6,64.4z M85.9,71.3c-0.4-0.2-1,0.2-0.7,0.8 c0.2,0.6,0.9-0.4,1.1-0.9C86.2,71.2,86.1,71.2,85.9,71.3z M24.6,44.3c0-0.2,0.2-0.3-0.1-0.5C24.5,44,24.6,44.2,24.6,44.3z M24.2,44.9c0.1,0.1,0.1,0.2,0.1,0.4c0.1-0.2,0.1-0.3,0-0.6C24.1,44.6,24.3,44.8,24.2,44.9z M24.4,43.9c-0.2,0-0.3-0.1-0.3,0.2 C24.3,44.1,24.4,43.9,24.4,43.9z M36.2,56.9c-1-0.3-1.6-1.5-2.7-1.1c0-0.7-0.8-0.9-1.2-0.6c0-0.4-0.4-0.5-0.5-0.8 c-0.1-0.1-0.1-0.7-0.2-1c-0.3-0.7-0.6-0.8-1.2-1.1c-0.6-0.3-0.6-0.2-1.1-0.8c-0.3-0.4-0.6-0.7-1-1c0.1,0,0.2-0.1,0.3-0.1 c-0.9-0.2-1.7,0.6-2.3-0.6c-0.4,0.3-0.4,0.8-0.6,1.2c0-0.3,0-0.7,0-0.9c0.4-0.6-0.1-0.2-0.5,0.1c-0.3,0.2-0.7,0.9-1,1 c0,0-1.6-0.3-1.6-0.3c-0.8-0.7,0.1-1.4-0.1-2.2c-0.2-0.8-1.1-0.3-1.6-0.5c0.2-0.3,0.3-0.7,0.3-1.1c0.1,0,0.1,0,0.1,0.1 c0.2-1.2,0.5-1.7-0.7-0.8c-0.6,0.5-1.3,1.5-1.8,0c-0.3-0.8,0-2.4,0.4-3.1c0.7-1.1,1.6-0.5,2.3-0.6c-0.1-0.7,1.4-0.4,1.6-0.3 c0.2,0.3,0.2,2.8,0.8,1.6c0.5-1-0.4-1.7,0.5-2.7c0.6-0.7,2-1.1,1.3-2.2c0.1,0,0.1,0,0.2,0.1c0-0.2,0-0.3,0.1-0.4 c0,0.4,0,0.4-0.1,0.8c0.3-0.4,0.3-0.4,0.3-0.9c0.1,0.1,0.1,0.1,0.1,0.2c0.2-0.3,0.4-0.5,0.4-0.7c0,0,0.4-0.1,0.6-0.1 c-0.1,0-0.3,0-0.5,0c0.4-0.2,0.8-0.2,1.1-0.4c-0.1,0,0,0-0.2,0c-0.1-0.9,1.4-1.5,1.9-1.4c-0.5,0.2-0.4,0.3-0.6,0.7 c0.5-0.1,1.4-0.5,1.9-0.9c0-0.1-0.1-0.3-0.1-0.4c-0.6,1.2-1.7-0.1-0.8-0.7c-0.7-0.6-1.3,0.5-2,0.8c0.5-0.5,1.1-1.2,1.7-1.3 c0.8-0.2,1.5,0.2,2.2-0.4c1.2-0.9,0.1-1.1-0.6-1.9c0.2-0.5-0.1-0.9-0.2-1.5c-0.5,0.5-1.8,1-1.1-0.3c-0.5,0-0.6-0.4-1.2-0.4 c-1,0-0.4,0.7-1.2,1.3c0.6,0.8-0.3,1.4-0.9,1.5c0.6,1.6-1.5,1.4-0.5-0.2c-0.8,0-1.4-1-2.2-0.7c0-0.6,0.1-0.4-0.3-0.7 c0.5-1.3,2.5-2.2,3.5-2.7c0.3-0.1,1.4-0.2,1.3-0.9c-0.2-1-1.3,0.4-1.7,0.6c0.1-0.2,0-0.2,0.1-0.5c-0.2,0-0.2-0.2-0.6,0 c0.1-0.1,0.1-0.2,0.2-0.3c-0.1,0-0.2,0-0.4-0.1c0.7-0.6-0.4-1-0.8-0.1c0.5,0.5-0.1,0.7-0.5,1c0.1-0.1,0.1-0.2,0.2-0.3 c-0.5-0.2-1,0.1-1.6,0c-0.4-0.1-0.7-0.4-1.2-0.1c0,0,0.1,0.1,0.1,0.1c-0.4,0.1-1.1,0.1-1.7,0c0.1-0.1,0.3-0.1,0.4-0.2 c-0.6-0.3-1.5-0.7-2.1-0.3c0.1-0.1,0.1-0.2,0.2-0.3c-0.4,0.3-0.9,0-1.4,0c-0.6,0.1-1.2,0.4-1.8,0.4c-0.6,0-2.5-0.4-2.7-0.6 c-1.3-0.2-2.7,0.3-4,0.8c0.3,0.2,0.3,0.4,0.4,0.8c-0.2,0-0.3,0-0.5,0c0.1-0.1,0.1-0.1,0.2-0.2c-0.4,0-0.9,0.2-1.3,0.3 c0.2,0.7,0.9,0.5,1.4,0.3c-0.3,0.5-0.9,0.4-1.5,0.6c-0.5,0.2-1.4,1.3-0.4,1.1c-0.1,0.1-0.1,0.3-0.3,0.5c0.2-0.1,0.3-0.1,0.5-0.1 c0,0.1,0,0.1-0.1,0.2c0.1,0,0.1-0.1,0.2-0.1c0,0.1,0,0.1,0,0.2c0.2-0.1,0.4-0.1,0.6-0.2c-1,0.9-2.2,1-3.2,1.7 c2.1-0.4,3.5-1.8,5.4-2.6c-0.3,0.1-0.7,0.4-0.8,0.8c0.8-0.2,1.2-0.4,1.9-0.4c0.8,0.1,1.3,0.9,2.1,0.8c-0.1,0.6-0.1,1.8,0.3,2.2 c-0.6,0.8,1.3,1,0.4,2c-0.2-1.2-0.9,1-1.2,1.6c-0.4,0.8-0.5,2-0.2,2.8c0.2,0.4,1.7,3,0.9,3.3c0.6,0.7,0.6,1.2,1,2 c0.6-0.7-1.1-2.5-0.6-3.6c0.4,0.2,0.8,1.8,1,2.3c0.2,0.4,0.6,1.1,0.8,1.6c0.1,0.7-0.2,0.6,0.2,1.3c0.2,0.4,0.9,0.7,1.3,0.9 c0.5,0.3,1,0.1,1.3,0.2c0.8,0.3,1.4,1.1,2.1,1.3c0,0-0.1,0-0.1,0c0.4,0.5,0.5,0.9,0.7,1.3c0.1-0.1,0.1-0.1,0.1-0.2 c0.4,0.6,0.9,1.2,1.4,1c-0.1-0.8,0.3-0.4,0.5-0.1c0.3,0.5,0.3,1.3,0.2,1.7c-0.2,0.7-1.6,1.6-0.9,2.5c0-0.1,0.1-0.1,0.1-0.2 c0,0.6-0.4,0.8-0.3,1.5c0.1,0.3,0.7,1.2,0.9,1.6c0.3,0.7,0.5,1.6,1,2.1c0.5,0.6,1.3,0.7,1.6,1.4c0.3,0.7,0.2,2,0.2,2.8 c0,1,0.2,1.8,0.2,2.7c0.1,1.2-0.5,3.5,0.3,4.4c0-0.2,0-0.3,0-0.5c0.3,0.3,0.2,0.4,0.3,0.9c-0.1,0-0.2-0.1-0.3-0.1c0,0.5,0,0.6-0.1,1 c0.1,0,0.3,0.1,0.4,0.1c-0.8,1.1,0.7,2.6,1.6,2.7c-0.1-0.5,0.1-0.6,0.6-0.6c-0.6-0.4-0.2-0.6-0.2-1c0-0.2,0.3-0.7,0.3-0.7 c0-0.2-0.3-0.5-0.3-0.4c0-0.1-0.3-0.3-0.3-0.6c0-0.2,0.4-0.2,0.4-0.2c0.1-0.5-0.2-0.7,0.3-1c0-0.1-0.1-0.1-0.1-0.2 c-0.8,0,0-0.5,0-0.4c0.1-0.3,0.5-0.3,0.1-0.9c1.8,0.4,1.2-1.1,0.8-2c1,0.9,1.4,0,1.9-1c0.6-1.3,0.3-2.4,1.5-3.2 c0.7-0.5,0.7-0.1,1.1-1c0.3-0.8,0.3-1.4,0.4-2.2C35.4,59.7,36.6,58.3,36.2,56.9z M24.2,26.2c-0.2,0-0.3-0.1-0.5,0 C23.9,26.6,23.9,26.3,24.2,26.2z M22.4,25.3c-0.2,0.1-0.4,0.2-0.5,0.3c0.4,0.1,0.8,0,1.2,0c-0.2,0-0.4,0.2-0.6,0.2 c0.5,0,1.7,0,2-0.5c-0.2,0-0.3,0-0.4,0c0-0.1,0-0.2,0.1-0.3c-0.4,0.1-0.3-0.1-0.4,0.4C23.3,25.5,22.8,25.2,22.4,25.3z M24.2,27.3 c-0.5-0.1-0.6-1.9-1.2-0.5c0-0.6-0.7-0.4-1.2-0.3c0.1-0.1,0.1-0.1,0.2-0.2c-0.5-0.1-1.1,0.2-1.5,0.5c0.2,0,0.4,0.1,0.7,0.1 c-0.2,0-0.4,0.1-0.6,0.1c0.3,0.2,0.8,0.1,1.2,0.2c-0.4,0-0.8,0.1-1.2,0.1C21.2,28.1,23.6,27.9,24.2,27.3z M24,24.9 c0-0.3-0.3-0.1-0.7,0C23.6,25,23.8,24.9,24,24.9z M21.6,25.4c0.4-0.1,0.9-0.1,1.2-0.5c-0.6,0-1.2,0.2-1.8,0.5 C21.2,25.4,21.4,25.4,21.6,25.4z M32.4,34.8c-0.1,0-0.2,0.2-0.3,0c0,0,0.1-0.1,0.1-0.1c-0.1,0-0.3,0-0.4,0c0.2-0.2,0.3-0.5,0.5-0.7 c-0.6,0.1-1.2,1.1-1.3,1.6c0.3,0,0.7,0,1,0.1c-0.1,0.1-0.1,0.1-0.2,0.2c0.1-0.1,0.4-0.2,0.5-0.3c0,0.1,0,0.2-0.1,0.4 c0.4,0,0.5-0.3,0.4-0.7c-0.1,0-0.1,0-0.2,0.1c0-0.1,0.1-0.2,0.1-0.3C32.6,34.9,32.5,34.9,32.4,34.8z M14,35c0.7,0.6,0.5-0.1,0.2-0.5 C13.7,34.1,13.5,34.6,14,35z M19.6,27.1c0.8-0.1,1.5-0.7,2.3-0.8c-0.9-0.9-1.9,0-2.6,0.5C19.5,26.8,19.5,27,19.6,27.1z M27.7,29.4 c-0.8-0.6-0.7-0.5-1.6,0.2c0.1,0,0.4,0.2,0.3,0.2C27,29.4,27.6,29.7,27.7,29.4z M13.3,33.1c-0.2,0.2-0.3,0.4,0,0.7 c0.1-0.2,0.2-0.5,0.3-0.7C13.4,33.1,13.4,33.1,13.3,33.1z M27.5,30.1c0.1,0,0.1,0.3,0.2-0.1C27.6,30,27.6,30.1,27.5,30.1z M29.8,36 c-0.1,0,0-0.3-0.2-0.1c0.3,0.2,0.2,0.2,0.6,0.1C30.1,36.1,29.9,36.1,29.8,36z M26.7,30c0.2,0,0.3,0.1,0.6-0.2 C27,29.8,26.9,29.9,26.7,30z M30.5,35c-0.2-0.2-0.3-0.3-0.6-0.3C30.1,34.9,30.3,34.9,30.5,35z M27,25.3c0,0.2,0.1,0.2,0,0.5 c0.7,0.2,2.2,0.4,2.7-0.2c-0.7-0.3-1.4,0.1-2.1-0.2c0,0,0.1-0.1,0.1-0.1c-0.4-0.2-0.8-0.3-1.3-0.1C26.7,25.3,26.8,25.3,27,25.3z M26.8,24.9c0.2,0,0.3,0,0.5,0C27.2,24.8,26.9,24.9,26.8,24.9z M27.5,24.4c0.1,0,0.2,0,0.4,0c-0.1,0.1-0.2,0.1-0.3,0.2 c0.6,0.4,1.2,0,1.8-0.2c-0.5-0.6-1.3-0.6-2-0.2C27.3,24.4,27.4,24.2,27.5,24.4z M26.3,25.8c0.2,0,0.3,0.1,0.5-0.1 C26.6,25.6,26.1,25.4,26.3,25.8z M27,24.8c-0.1-0.2-0.1-0.3-0.5,0C26.8,24.9,26.8,24.7,27,24.8z M29.7,26.4c0.1,0,0.3,0,0.5,0 c-0.2-0.3-0.6-0.4-0.9-0.2C29.4,26.5,29.4,26.4,29.7,26.4z M26.9,26c-0.5-0.1-0.9,0.1-1,0.7c0.5-0.1,1-0.3,1.4-0.6 C27.1,26.1,27,26,26.9,26z M31.5,27.3c-0.4-0.3-0.7-0.5-1.2-0.4c-0.2-0.6-0.9-0.4-1.3-0.2c0.3-0.8-0.6-0.5-1-0.2 c0-0.1,0-0.1-0.1-0.2c0.1-0.1,0.2-0.1,0.3-0.2c-0.6,0-1.1,0.2-1.4,0.8c0.1,0,0.2,0,0.3,0C27.1,27,27,27,26.9,27.1 c0.6,0.3,2.7,0.1,2.5,0.6c0.8,0.1,0.7,0.4,0.2,0.9c-0.3,0.3-0.9,0.1-1.3,0.6c0.5,0.2,0.9-0.2,1.4,0.3c0,0-0.1,0.1-0.1,0.1 c0.4,0.3,0.8,0.5,1.2,0.5c-0.1-0.2-0.2-0.5-0.4-0.7c1.4,1.5,0.5-0.9,0.4-0.7c0.3-0.6,0.9,0.8,1.6-0.4c-0.5-0.1-0.8-0.5-1.3-0.6 c0.2-0.1,0.3-0.1,0.5-0.2C31.6,27.5,31.5,27.4,31.5,27.3z M25.7,24.7c0.2,0.1,0.4,0.1,0.6,0.1c-0.1-0.4-0.5-0.5-0.9-0.3 c0.1,0,0.1,0,0.2,0.1c-0.1,0-0.2,0.1-0.3,0.1C25.4,24.7,25.5,24.7,25.7,24.7z M29,24c0.5,0.1,0.9,0.1,1.4,0.1 c-0.3,0.1-0.7,0.1-1,0.1c0.1,0.2,0,0.1,0.2,0.3c-0.2,0.1-0.5,0.2-0.8,0.3c0.2,0.1,0.3,0.2,0.4,0.3c-0.4-0.2-0.8,0-1.1,0.3 c0.7,0.1,1.9,0.3,2.5-0.2c-0.1,0-0.2,0-0.4,0c0.4-0.3,1-0.4,1.2-0.7c-0.1,0-0.2,0-0.3,0c0.9,0,1.8-0.4,2.7-0.6c-0.1,0-0.3,0-0.4,0 c0.4-0.1,0.9-0.1,1.3-0.3c-1.6-0.4-4.4-0.4-5.9,0.3C28.9,23.8,28.9,23.9,29,24z M29.5,28.2c-0.2-0.3-0.3-0.3-0.5,0.2 C29.3,28.4,29.4,28.3,29.5,28.2z M24.4,24.6c-0.2,0-0.4-0.1-0.6,0.1C24,24.7,24.2,24.6,24.4,24.6z M25,27.4c-0.2,0-0.4,0-0.7,0.2 c0.3,0.2,0.6,0.2,0.9,0.1C25.2,27.4,25.1,27.5,25,27.4z M24.4,26.5c0.4,0.5,0.9,0.5,1.3,0c-0.1,0-0.2-0.1-0.2-0.1 c0.2-0.1,0.2-0.1,0.3-0.3c-0.4,0-0.9-0.1-0.9,0.3C24.7,26.4,24.6,26.5,24.4,26.5z M25.3,25.7c0.4,0.2,0.9-0.1,0.9-0.5 c-0.4,0-0.8,0-1.1,0.4C25.5,25.4,25.3,25.7,25.3,25.7z M78.1,46.7c-0.7,0.3-0.2,0.9,0,0.7C78.4,47,78.4,46.8,78.1,46.7z M24.7,46.8 c0.2,0,0.3,0,0.4-0.2c-0.8-0.5-2-1.9-3-0.7c0.3-0.1,0.6-0.2,0.9-0.3c0,0-0.1,0.1-0.1,0.1c0.6,0.3,1,0.3,1.4,0.8 c-0.1,0.1-0.1,0.2-0.2,0.2C24.3,46.7,24.5,46.8,24.7,46.8z M55.7,40.5c-0.1,0.1-0.2,0.1-0.4,0.1c0.4,0.2,0.3,0.1,0.6-0.2 C55.9,40.4,55.8,40.4,55.7,40.5z M49.5,32.8c0.1-0.4,0.2-0.6-0.3-0.4C49.2,32.7,49.3,32.7,49.5,32.8z M48.9,38.1 c0-0.3,0.1-0.4,0-0.7C48.6,37.7,48.8,37.8,48.9,38.1z M45.1,32.6c0.1-0.1,0.1-0.3,0.2-0.1c0,0.1,0.4,0.4,0.4,0.6 c0,0.4-0.6-0.1-0.3,0.6c-0.1,0-0.2,0.1-0.3,0.1c0.1,0,0.3,0.2,0.5,0.2c-0.2,0.1-0.4,0.3-0.6,0.5c0.7,0,1.9,0,1.9-1 c-0.6-0.2-0.6-1-1.2-1.2c0.2-0.2,0.2-0.5,0.3-0.6c-0.2,0-0.3,0-0.5,0c0.1-0.1,0.2-0.3,0.3-0.4C45,31.2,44.9,32,45.1,32.6z M53.3,40.5c-0.2,0-0.2,0.1-0.4-0.1c0,0.1,0,0.1,0,0.2c0.3,0.1,0.5,0.2,0.8,0C53.5,40.5,53.5,40.5,53.3,40.5z M41.5,27.3 c-0.3,0-0.6,0-0.9,0c0-0.1,0.2-0.4,0.2-0.4c0.3,0.3,0.4,0.3,0.8,0.3c-0.2-0.3-0.2-0.4-0.6-0.6c0.1,0,0.3,0,0.5,0 c-0.1-0.1,0-0.2-0.2-0.4c0.3,0,0.5-0.1,0.7-0.2C42,26,42,26,41.9,26c0.2,0,0.3,0,0.5,0c-0.1-0.1-0.2-0.2-0.2-0.3 c0.3-0.2,0.3-0.2-0.1-0.5c0.2,0,0.5-0.1,0.7-0.1c-0.3-0.4-0.2-0.7,0.3-0.9c-0.2,0-0.3,0-0.5,0c0.5,0,1-0.2,1.6-0.3 c-0.6-0.3-1.5-0.1-2.1,0c0.1-0.1,0.2-0.1,0.2-0.2c-0.6-0.1-1.3-0.1-1.9-0.1c0.7,0,1.5,0.1,2.2-0.1c-1.4-0.2-3.8-0.7-5,0.1 c0.1,0,0.3,0.1,0.4,0.1c-1.6-0.3-3.3-0.2-4.8,0.4c0.2,0,0.3,0.1,0.5,0.1c-0.6,0.3-1.4,0.1-1.9,0.5c0.4,0.1,0.8,0.2,1.2,0.2 c-0.3,0-0.7,0-1,0.1c0.2,0.2,4.1,0.7,2.5,1.7c0.3,0.1,0.5,0.2,0.8,0.4c-0.9-0.5-1,0.9,0,0.2c-0.6,1-1.2,0.7-0.8,2.1 c0.2,0.7,0.5,0.9,0.9,1.1c0.7,0.4,0.6,0.2,1.1-0.4c0.1-0.1,0.4-0.9,0.6-1.1c0.4-0.3,0.8-0.2,1.1-0.4C39.3,28.2,40.4,27.9,41.5,27.3z M25.3,47.4c0.3,0.1,0.4-0.1,0.6,0.3c0.2-0.4,0.6-0.3,0.9-0.4c-0.3-0.4-0.9-0.7-1.4-0.4c0.2,0.2,0.1,0.2,0.3,0.4 c-0.2,0-0.3,0.1-0.6,0C25,47.6,25.1,47.4,25.3,47.4z M80.8,58.3c0.1,0,0.2-0.1,0.3-0.1C81,58,80.7,58,80.5,58.4 C80.6,58.4,80.7,58.3,80.8,58.3z M82.5,56.6c-0.2-0.4-0.3-0.7-0.5-1.1c0.2-0.1,0.3-0.3,0.5-0.3c0-0.1,0-0.1,0-0.2 c-0.4,0.2-1.4,0.1-0.8-0.4c0.5-0.4,1.2,0.5,1.3-0.5c-0.4,0.6-0.9,0-1.3,0.2c-0.3,0.2-0.5,1.1-0.5,1.5c0,0,0.3,1.2,0.2,1.2 c0.4,0.2,0.2-0.9,0.4-1.2c0,0.4,0.1,0.6,0.2,0.9c0.1-0.1,0.2-0.1,0.3-0.2c-0.1,0.3,0,0.3,0,0.5C82.5,56.9,82.4,56.8,82.5,56.6z M78.5,55.3c0.1,0.8,1.5,1.1,1.9,1.1c0.1-0.7,0.3-1.8,0.9-2c-0.6-0.8-0.4-1.3,0-1.8c-0.4-0.2-0.5-0.6-0.8-0.5 c-0.3,0.1-0.6,0.9-0.8,1.1C79.1,53.9,77.9,54,78.5,55.3z M85.8,57.1c-0.1,0.1-0.2,0-0.2,0.5C85.8,57.4,85.7,57.2,85.8,57.1z M83.6,56c-0.1,0-0.2,0-0.3,0C83.6,56.5,83.5,56.1,83.6,56z M81.6,58.9c-0.1-0.2-0.1-0.4-0.5-0.3C81.3,58.8,81.4,58.8,81.6,58.9z M82.3,58.2c-0.1-0.2-0.5-0.1-0.8,0.1C81.7,58.4,82,58.3,82.3,58.2z M78.7,58c0.5,0.1,1,0.2,1.5,0.1c-0.6-0.3-2.6-1.5-3-0.6 C77.7,57.7,78.2,57.8,78.7,58z M77.4,56.5c0.3-1-2-4.1-3.1-3.9c0.4,0.9,1,1.6,1.5,2.5C76,55.4,77.5,58.3,77.4,56.5z M84.2,56.1 c0.2,0.1,0.3,0,0.5,0.2c-0.2-0.5-0.6-0.6-0.9-0.2C84,56.1,84.1,56.1,84.2,56.1z M83.9,55.1c0.1-0.4,0.3-0.8-0.1-1.2 C83.7,54.3,83.7,54.7,83.9,55.1z M82.7,58.8c0.2-0.3,0.6-0.5,0.9-0.7c-0.5,0-1,0.2-1.2,0.8C82.5,58.9,82.6,58.9,82.7,58.8z M44.1,33.6c-0.1,0.1-0.1,0.3-0.2,0.4c0.4,0.1,1.4-0.5,1.1-1C44.7,32.3,44,33,44.1,33.6z M41.8,29.6c0.5,0.1,1.1-0.1,1.5-0.5 c0-0.1-0.2-0.4-0.2-0.5c-0.6,0.1-1.9-0.2-2.3,0.3c0.2,0,0.3,0.1,0.5,0.1c-0.1,0-0.2,0.1-0.4,0.2c0.2,0.1,0.3,0.1,0.5,0.2 c-0.1,0.1-0.2,0.1-0.2,0.2C41.4,29.5,41.6,29.5,41.8,29.6z M48.7,38.5C48.8,40.2,49,37.2,48.7,38.5z M50.5,39.4 c-0.2,0-0.4,0.1-0.6,0c0.1,0.3,0.4,0.5,0.7,0.6C50.7,39.5,50.6,39.5,50.5,39.4z M24.1,47.3c-0.1,0.1-0.2-0.1-0.2,0.1 c0.3,0.2,0.3,0.2,0.6,0.1C24.4,47.3,24.3,47.4,24.1,47.3z M70,51c-0.1-0.1-0.1-0.1-0.2-0.2C69.3,52.7,70.9,52.3,70,51z M61,60.2 c0-0.2-0.1-0.4-0.2-0.6c-0.1,0.3-0.3,0.5-0.4,0.7c-0.1,0.8-0.9,0.8-1.1,1.4c-0.2,0.4,0.1,0.7,0,1.1c-0.1,0.4-0.3,0.6-0.4,1 c-0.1,1.2,0.5,1.5,1.1,0.7c0.5-0.7,0.9-2.6,0.9-3.5c0,0.1,0.1,0.2,0.1,0.2C61.1,60.9,61,60.6,61,60.2z M74.3,48.1 c-0.9,0.8-1-2.4-2-2.6c0,0.2,0,0.2,0,0.4c-0.3-0.1-0.5,0-0.9,0.1c0.1,0.9-1.3,1.5-1.5,2.2c-0.2,0.6-0.2,2.1-0.3,2.7 c-0.1,0.1-0.3,0.4-0.5,0.5c-1-1.2-1.5-3.8-1.8-5.4c-0.6,0.6-1.1-0.6-1.6-1c-0.5-0.5-0.4-0.4-1.1-0.5c-0.5-0.1-0.9,0.1-1.3-0.1 c-0.4-0.2-0.5-0.6-0.8-0.7c-0.3-0.1-0.5,0.2-1,0c-0.7-0.3-0.8-1.5-1.5-1.1c0.1,0.9,0.8,1.3,1,2.1c0-0.2,0.1-0.4,0.1-0.5 c0.1,1.3,1,0.8,1.4-0.1c-0.1,0.9,0.5,0.7,0.8,1.1c0.4,0.8,0.2,0.6-0.1,1.2c-0.4,1-0.6,1.2-1.5,1.7c-0.6,0.4-2,1.9-2.6,1.1 c-0.3-0.4-0.1-0.9-0.2-1.3c-0.2-0.5-0.7-1-0.9-1.4c-0.4-0.8-1.8-3-1.6-3.7c0,0.3-0.2,0.5-0.2,0.7c-0.2-0.3-0.4-0.5-0.5-0.9 c0.1,0.8,0.6,1.5,0.9,2.2c0.3,0.7,0.4,1.4,0.7,2.1c0.3,0.7,2,2.5,1.7,3c0.5,0.9,1.8,0.2,2.4-0.1c0.1,3.4-3.7,4.9-3.4,7.8 c0.1,1.4,0.7,2.7-0.3,3.9c-0.7,0.8-1,0.7-1.1,1.7c0,0.5,0.2,0.8-0.1,1.3c-0.1,0.2-0.6,0.3-0.7,0.5c0,0.1,0,0.5-0.1,0.7 c-0.2,0.5-0.5,1.1-0.9,1.5c-0.5,0.6-0.9,0.8-1.4,1c-0.2,0.1-1.4,0.4-1.5,0.4c-0.6-0.2-0.2-0.7-0.3-1.2c-0.2-0.8-0.6-1.4-0.8-2.2 c-0.2-0.9-0.2-1.6-0.5-2.5c-0.3-0.8-0.5-1.3-0.2-2.2c0.3-1.4,0.5-2.2,0.1-3.5c-0.3-1-0.9-1.5-0.9-2.5c0-0.8,0.3-1.3-0.2-1.9 c-0.9,0.6-1.1-0.8-2.2-0.5c-0.7,0.2-1.9,0.8-2.6,0.6c-1.5-0.3-2.2-3.1-2.8-4.2c0.8-0.8,0.2-2.2,0.4-3c0.1-0.4,0.4-1.2,0.6-1.5 c0.4-0.6,0.9-0.7,1.2-1.3c0.5-0.8,0.3-1.3,1-2c0.8-0.9,0.3-0.3,1.4-0.5c0.9-0.1,2.7-1.4,3.4-0.6c0.1,0,0.2-0.1,0.2-0.1 c-0.2,0.8-0.3,1.2,0.3,1.7c0.5,0.4,1.7,1.1,2.2,0.8c0.1,0,0-0.6,0.5-0.7c0.2-0.1,0.7,0.4,0.9,0.5c0.5,0.2,1.7-0.1,1.9,0.3 c0.9,0.2,1-1.5,1-2.3c-0.6,0-1.4,0.3-1.9,0.1c-1.2-0.5-0.9-1.5,0-1.9c0.4-0.2,1.1-0.3,1.6-0.3c0.4,0,1,0.7,1.4,0.3 c0.6-0.6-0.9-1.3-1.3-1.6c0.3-0.4,0.2-0.2,0.2-0.5c0.1-0.1,0.2-0.1,0.4-0.2c-0.4-0.1-1.6,0.5-0.6,0.6c-0.4,0.4-0.8,0.5-1.1,0.1 c0.1-0.1,0.2-0.1,0.3-0.2c-1-0.9-1.9,1.4-1,1.8c-0.2,0.1-0.5,0.3-0.7,0.5c-0.2-0.4-0.3-0.3-0.7-0.2c0.1,0.1,0.1,0.1,0.2,0.2 c-0.3-0.1-0.2,0.1-0.4-0.1c0,0.5,0.2,0.7,0.4,1.1c-0.1,0-0.2-0.1-0.3-0.1c0.1,0.2,0.1,0.2-0.1,0.2c0,0.1,0.1,0.2,0.1,0.4 C52,40,52,38.4,51.7,37.9c-0.3-0.5-1.4-1.3-1.6-1.2c-0.1-0.2,0-0.2,0-0.3c-1.3,0,1.2,2,1.3,2.3c-0.7-0.5-0.1,0.3-0.7,0.8 c0.3-1-0.8-1.3-1.3-1.8c-0.6-0.6-0.2-0.5-0.9-0.6c-0.5-0.1-1.1,0.5-1.3,0.7c-0.8,0.6-0.7,1.7-1.5,2.2c-0.8,0.5-1.1-0.4-1.8-0.1 c-0.1-0.5-0.2-2.3,0.1-2.6c0.4-0.5,1.5,0.4,1.9-0.1c0.7-0.8-0.5-1.5-0.8-2c0.3,0,0.5-0.1,0.8,0c0-0.1-0.1-0.3-0.1-0.4 c0.5,0.3,0.9-0.3,1.2-0.6c0.3-0.3,0.8-0.7,1-0.9c0.1-0.2,0.3,0.2,0.4-0.1c0,0-0.1-0.3-0.1-0.4c0.2-0.4-0.2-0.8,0.5-1 c0,0.1,0.1,0.4,0.1,0.5c-1.1,0.9,1.1,0.8,1.5,0.7c0.6-0.1,0.7,0.1,1.1-0.3c0.2-0.2-0.2-1.4,0.7-0.6c0-0.2,0-0.3,0-0.5 c-0.2-0.1-0.1-0.1-0.3-0.3c0.5-0.2,0.9,0,1.3-0.3c-0.6-0.4-1.5,0.5-1.9-0.3c-0.4-0.7,0.2-1.2,0.8-1.5c-0.5-0.8-0.9,0.1-1.2,0.5 c-0.7,0.9-0.3,0.8-0.4,1.8c0,0.2-0.6,1.4-0.9,1.3c-0.4-0.1-0.7-1.2-1-1.4c-0.3-0.1-1.5,0.8-1.2-0.8c0.1-0.6,1.1-1,1.6-1.5 c1-1.1,2.6-2.5,4.1-1.6c-0.1,0-0.2,0.1-0.3,0.1c0.4,0.2,2.3,0.3,2.6,0.9c0.4,1-1.2,0.3-1.6,0.4c0.5,0.3,0.5,0.9,1.1,1 c-0.1-0.1-0.1-0.2-0.2-0.3c0.2,0,0.6,0,0.9,0c-0.1-0.1-0.1-0.2-0.2-0.3c0.3-0.3,0.6-0.4,0.9-0.2c0-0.3-0.1-0.6-0.3-0.9 c0.4,0,0.6,0.1,0.8,0.3c-0.1,0-0.2,0-0.3,0c0.4,0.6,1.1-0.3,1.9-0.4c-0.1,0.1-0.1,0.1-0.2,0.2c0.5,0,1.2-0.1,1.6-0.3 c-0.1-0.1-0.2-0.1-0.3-0.2c0.6-0.2,1.5,0.2,2.1,0.5c0-0.1,0.1-0.1,0.1-0.2c-0.7-0.3-1.2-1.5-0.2-1.4c0.5,0,1.4,1.7,1,2.2 c0.4,0,0.5-0.1,0.6-0.5c-0.4-0.4-0.6-0.8-1-1.2c0.1-0.1,0.2-0.1,0.3-0.2c-0.1-0.1-0.1-0.2-0.2-0.2c0.2,0.2,0.4,0.4,0.6,0.6 c-0.1-0.1-0.1-0.2-0.2-0.2c0.4-0.2,0.8-0.2,1.2,0c-0.3-0.2-0.3-0.4-0.5-0.6c0.4-0.1,0.9-0.1,1.3-0.1c-0.1-0.1-0.2-0.1-0.3-0.2 c0.6-0.7,1.8-0.5,2.7-0.6c0.1-0.4,0.5-0.5,0.9-0.3C68.1,25,68,25,67.9,25c0.7,0.2,1.8-0.1,2.3,0.6c-0.2,0.1-0.5,0.3-0.7,0.4 c1.1,0.1,2.1,0.5,3.2,0.4c-0.1-0.1-0.1-0.2-0.2-0.2c1.1,0,1.5,0.7,2.5,1c0-0.1-0.1-0.2-0.1-0.4c0.6,0.2,1.2,0.1,1.8,0.1 c-0.1-0.1-0.3-0.2-0.4-0.3c0.5-0.3,1.7-0.1,2.3,0.1c0.7,0.2,1.4,0.2,2.1,0.4c1.1,0.2,2.5,0.9,3.6,0.7c-0.2-0.1-0.3-0.2-0.5-0.4 c1.8,0.3,2.5,0.3,3.9,1.8c-0.2,0-0.2,0.1-0.5,0.1c0.4,0.2,0.9,0.4,1.2,0.8c-0.6-0.2-1.3,0.2-1.3,0.9c-0.5-0.4-1.1,0-1.6,0 c0,0.9,0.6,0.7,1,1.4c-0.1,0-0.1,0-0.2,0c0.1,0.2,0.2,0.3,0.3,0.5c-0.1,0.1-0.2,0.1-0.3,0.2c0.1,0.1,0.1,0.3,0.2,0.4 c-0.1,0-0.2,0.1-0.3,0.1c0.2,0.4,0,0.4,0,0.7c-0.7-0.7-1.6-1.6-1.8-2.6c0.5-0.2,1-1.7,0.2-1.7c0.2,1-0.4,0.2-0.7,0.3 c-0.4,0.2-1.1,0.3-0.3,0.9c-0.6,0.3-1.3-0.1-2,0c-1.2,0.1-1.2,0.4-1.8,1.7c1.2,0.2,2.2,0.4,2.5,2.1c0.1,0.6,0.1,1.6-0.2,2.1 c-0.4,0.5-0.6,0.3-0.9,0.6c0,0-0.4,0.9-0.4,0.9c0.1,0.5,0.3,0.4,0.6,0.9c1.1,1.9-0.9,1.2-0.5,0.3c-0.2-0.2-0.7-0.8-0.7-0.8 c-0.4-0.2-0.5-0.6-1.1,0c0.4-1.3-0.9-0.4-0.9,0c0,0.9,1.3,0.4,1.6,0.8c-1.4,0.4,0.5,2.1,0.6,2.8c0.2,1.5-0.7,2.5-1.6,3.1 c-0.3,0.2-0.4,0.3-0.8,0.4c-0.1,0,0.1,0.4-0.1,0.4c-0.1,0-0.2-0.3-0.2-0.3c-0.1,0-1-0.5-1,0.7c0,0.8,1.1,1.3,1.3,2.1 c0.2,1.1-0.4,1.4-1,2.1c0-0.5-0.9-1.6-1.4-1.6c0-0.1,0-0.2,0-0.3c-0.1,0-0.2,0-0.3,0c0,0.6-0.1,1.2,0,1.7c0.1,0.4,0.5,0.7,0.7,1.1 c0.4,0.8,0.5,1.3,0.8,2.1c-1.2-0.2-1.1-2-1.8-2.8c0,0.1,0,0.2,0,0.2C75.1,51,75,47.7,74.3,48.1z M53.6,51.4 c-0.1-0.1-0.1-0.1-0.2-0.2C53.5,51.3,53.5,51.4,53.6,51.4z M61.2,39.7c-0.1-0.7-0.4-0.9-0.5-1.5c0.3,0.1,0.3,0,0.5,0 c-0.2-0.4-0.5-0.6-0.5-0.1c-0.1-0.7-0.6-0.8-0.9-1.4c0.1,0,0.2,0,0.3,0c0.2-0.4-0.1-0.3,0.4-0.3c0.1-1-1-0.7-1.3-0.2 C58.7,37,59.4,38,60,38.5C59.1,39.1,60.4,40.4,61.2,39.7z M50.4,24.2c0.4,0.2,1,0.2,1.5-0.1c-0.6-0.2-1.4-0.2-2-0.1 C50.1,24.2,50.2,24.2,50.4,24.2z M51,25c0.1,0,0.3-0.1,0.4-0.1c-0.3-0.1-0.5-0.1-0.8-0.1c0.1,0.3,0.1-0.1,0,0.2 C50.8,24.9,50.9,24.9,51,25z M49.1,24.8c0.1,0,0.2,0.1,0.3,0.1c-0.1,0-0.1,0.1-0.2,0.1c0.7,0.5,0.8-0.4,1.5-0.5 c-0.9-0.3-1.4-0.2-2.2-0.2C48.7,24.5,48.9,24.7,49.1,24.8z M27.1,47.3c0.1,0.1,0,0.4,0.4,0.1C27.4,47.3,27.3,47.3,27.1,47.3z M55.6,24.1c0.3,0.1,0.6,0,0.9-0.1c-0.5,0-0.8,0-1.3,0C55.5,24,55.7,24.2,55.6,24.1z M57.7,26.9c0.4,0.2,0.9,0.4,1.4,0.3 c-2-0.4,1.3-1.7,1.6-1.9c-0.7-0.3-1.8,0.1-2.5,0.5c-0.1,0.2,0,0.1-0.3,0.4c0.1,0,0.1,0,0.2,0C57.7,26.4,57.7,26.6,57.7,26.9z M65.1,24.4c0.5,0.1,1,0.2,1.5,0.2c-0.4-0.6-1.5-0.9-2.1-0.4C64.7,24.1,64.8,24.3,65.1,24.4z M75.7,25.8c0.3-0.1,0.7-0.1,1.1-0.1 c-0.3-0.5-1.3-0.5-1.8-0.4C75.2,25.7,75.4,25.8,75.7,25.8z M67.6,24.6c-0.5-0.2-0.9-0.4-1,0.2C67,24.8,67.5,24.8,67.6,24.6z M76.6,26.1c-0.2,0.1-0.2,0-0.3,0.2c0.3,0.1,0.6,0.1,0.8,0.1C77,26.2,76.8,26.1,76.6,26.1z M5,29.1C5,29.1,5,29.1,5,29.1z M7.7,27 c-0.2-0.1-0.3-0.2-0.6,0.1C7.3,27.1,7.5,27,7.7,27z M82.3,33.9c0.6,0.5,0.9,1.6,1.4,2.3c0-0.1,0-0.2,0-0.3c0.1,0.1,0.2,0.2,0.3,0.2 c-0.3-0.4-0.7-0.7-0.7-1.2c0.2,0,0.3,0.1,0.5,0.1c-0.6-0.6-1.2-1.8-1.8-2C82.1,33.3,82.2,33.4,82.3,33.9z M5.5,28.8 c0,0,0.3,0.1,0.5,0.1c0.1,0.8,1.1-0.1,1.7-0.2c-0.2-0.5-0.7-0.4-1-0.2c0.1-0.1,0.2-0.1,0.2-0.2C6.4,27,5.6,28.5,5,29.1 C5.2,28.9,5.7,28.4,5.5,28.8z M77.6,25.8c0.2,0,0.3,0.1,0.5-0.1c-0.3-0.1-0.7-0.1-1.1-0.1C77.2,25.7,77.3,25.7,77.6,25.8z M85.8,27.1c-0.1-0.1-0.2-0.2-0.3-0.2c0,0-0.1,0.1-0.1,0.1C85.6,27.1,85.7,27,85.8,27.1z M28.5,50.6c0,0,0.1,0.3,0.2-0.2 C28.6,50.3,28.5,50.6,28.5,50.6z M7.1,29.7c-0.3-0.1-0.4-0.2-0.7,0C6.6,29.8,6.8,29.7,7.1,29.7z M9.2,31.6c-0.3,0.1-0.5,0.1-0.5,0.5 c0.2-0.1,0.5-0.2,0.7-0.3C9.3,31.5,9.3,31.7,9.2,31.6z M6.4,30.8c0.2,0,0.3,0.3,0.4,0C6.7,30.7,6.5,30.8,6.4,30.8z">
    <animateTransform attributeName="transform" type="translate" repeatCount="indefinite" dur="2s" keyTimes="0;1" values="-100 0;0 0"></animateTransform>
  </path>
  <path transform="scale(2)" fill="#dbfb54" d="M64.4,74.4c0.3,0.3,0.2,0.3-0.3,0.3C64.1,74.3,64.2,74.5,64.4,74.4z M31.4,75.4c-0.2,0.1-0.3-0.2-0.5,0.1c0.3,0.2,0.6,0.1,0.8-0.1C31.6,75.2,31.6,75.4,31.4,75.4z M84.9,36.9c-0.3,0.2-0.8-0.1-1.1-0.5 c0.1,0.2,0.1,0.6,0.3,0.9c-0.5,0.2-0.2,0.6,0.2,0.7c0-0.1,0-0.3,0-0.4c0.2,0.1,0.4,0.2,0.5,0.3c0.2-0.2,0.2-0.3,0.4-0.5 C85.1,37.2,85,37,84.9,36.9z M85.1,40.6c0-0.6-0.1-2.1-0.6-2.4c-0.6-0.4,0.5,2.1-0.6,1.6c0,0.2-0.1,0.5,0,0.7 c-0.8-0.3-0.9,0.5-1.4,0.9c0.3,0.3,0.4,0.6,0.6,0.9c0.3-0.4,0.2-0.9-0.3-1.2c0.2,0,0.4-0.2,0.6-0.2c0.2,0,0.6,0.2,0.6,0.2 C84.2,41,84.5,40.7,85.1,40.6z M83.7,41c-0.4-0.1-0.7,0.2-0.3,0.6c0.2-0.4,0-0.1,0.3-0.2C83.8,41.2,83.6,41.1,83.7,41z M93.5,62.8 c0.1,0.5,0.3,0.9,0.7,0.8C94.1,63.3,93.8,63,93.5,62.8z M93,71.2c-0.1-0.1-2.5,1.6-2.9,2.1c0.8,0.5,2.9-1.2,3.1-2.1 C93,71.5,92.9,71.2,93,71.2z M95,69.9c-0.4,0.2-0.6,0-0.5-0.4c0,0.1-0.1,0.2-0.1,0.3c0.1-0.5,0.1-0.8-0.1-1.1 c-0.3,0.7,0.1,1.4-0.7,2c0.3,0.3,0.3,0.4-0.1,0.7c0.1,0,0.1,0.1,0.1,0.2C93.9,71.3,95,70.2,95,69.9z M82,50.6 c0.2-0.2,0.3-0.2,0.3-0.5c-0.1,0-0.3-0.1-0.4-0.1C81.9,50.2,81.9,50.4,82,50.6z M82.4,50.6c-0.3-0.4-0.2,0.1-0.1,0.5 c0.2-0.3,0.3-0.5,0.2-0.9C82.5,50.4,82.4,50.5,82.4,50.6z M82.8,49.7c-0.1,0-0.2,0-0.3,0c0,0.1,0.2,0.4,0.2,0.5c-0.1,0-0.1,0-0.2,0 c0.1,0.2,0.1,0.3,0.2,0.5c0.1-0.2,0.1-0.2,0-0.5c0.1,0,0.2,0.1,0.2,0.1C83,50.1,82.9,49.9,82.8,49.7z M81,51 c0.2-0.3,0.3-0.4,0.2-0.8c-0.1,0.5-0.4,0.8-0.6,1.2C80.8,51.3,80.9,51.1,81,51z M81.2,48.6c0.1,0.2,0.1,0.5,0.3,0.3 c0,0.4,0.3,0.6,0.6,0.6c0,0,0-0.1,0.1-0.1c0.1,0.2,0.2,0.3,0.4,0.4c0-0.7-0.6-0.5-0.8-1c-0.2-0.4,0.2-0.9,0-1.4 c-0.5-0.1-0.6,0.3-0.4,1c0,0-0.1-0.1-0.1-0.1C81.1,48.3,81.1,48.4,81.2,48.6z M83.3,52.2c0.1-0.5,0.1-1.1-0.3-1.4c0,0.1,0,0.2,0,0.3 c-0.4,0.2-0.9,0.1-0.9,0.8c0.7-0.7,0.4,0.2,1,0.5c0-0.2,0.1-0.5,0.1-0.7C83.2,52,83.3,52.1,83.3,52.2z M81.5,49.6 c0.1-0.1,0.3-0.1-0.2-0.3C81.4,49.4,81.5,49.5,81.5,49.6z M91.8,57.4c0.1,0.1,0,0.2,0.2,0.1c-0.1-0.2-0.2-0.5-0.3-0.7 C91.6,57,91.7,57.1,91.8,57.4z M90.2,57.3c0.4-0.1,1.1-0.5,0.6-0.9c-0.1,0.4-0.2,0.6-0.4,0.3c-0.1,0-0.5,0.2-0.5,0.3 C89.9,57.2,90,57.2,90.2,57.3z M90.9,56.1c0.1,0.2,0.2,0.3,0.2,0.5c0.1-0.5-0.2-0.8-0.6-0.8C90.7,55.9,90.8,56,90.9,56.1z M90.3,59 c-0.2-0.4-0.7-0.7-1-1.6c0.1,0,0.2,0,0.3,0c-0.7-0.7-1.4-1.7-2.5-1.8c-0.5-0.1-1,0.5-1.3,0.3c-0.5-0.2-0.1-1.4-1.2-0.8 c0.3,0.4,0.6,0.5,0.9,0.6c-0.2,0-0.3,0.1-0.5,0.1c0.1,0.2,0.2,0.4,0.3,0.5c0.1,0,0.2-0.2,0.2-0.2c0.6,0.5,2,1,1,2 c0.6-0.3,0.7,0.4,1.2,0.3c0.4-0.1,0.4-0.5,0.6-0.5C89.2,57.9,89.5,58.9,90.3,59z M93.2,58.5c-0.1,0.1-0.2-0.2-0.2,0.1 C93.3,58.8,93.2,58.6,93.2,58.5z M92.4,57.7c0,0-0.1-0.2-0.2-0.3C92.2,57.6,92.3,57.6,92.4,57.7z M92.9,58c0.1,0.1,0.1,0.1,0.2,0.2 c-0.2-0.2-0.3-0.3-0.5-0.4C92.7,57.8,92.8,57.9,92.9,58z M93.5,59.1C93.6,58.9,93.6,58.8,93.5,59.1z M93.5,58.7c0-0.2,0-0.4-0.2-0.6 C93.3,58.3,93.4,58.5,93.5,58.7z M81,45.9c0.1-0.5,0.2-1-0.1-1.3C80.6,45,80.6,45.5,81,45.9z M94.8,61c0,0,0.1-0.2,0-0.4 C94.7,60.8,94.8,61.1,94.8,61z M94.8,61.2c0.1,0.1,0,0.3,0.2,0.1C94.9,61.1,94.8,61.2,94.8,61.2z M29.5,76.3 c-0.4-0.8-0.5-0.2-0.7-0.2c0.2,0-0.3,0.2-0.3,0.2c-0.2,0-0.6-0.3-0.9-0.4c0.9,0.9,1.9,1.2,2.6,0.7C30,76.6,29.8,76.4,29.5,76.3z M89.6,64.4c0-0.2-0.2-0.3-0.1-0.7c-0.2,0-0.1-0.1-0.3,0c0.1-0.8-0.5-1.1-0.7-1.7c-0.1-0.5,0-1-0.2-1.6c-0.1,0.1-0.1,0.1-0.2,0.2 c0-0.5-0.1-1.1-0.2-1.6c-0.5,0.9-0.5,3.8-1.7,2.2c-0.3-0.5-0.4-0.2-0.4-0.8c0-0.3,0.4-0.5,0.4-0.7c0-0.1-1.1-0.4-1.4-0.5 c0.3,0.3-0.7,0.7-0.8,1.5c-0.5-0.2-0.7-0.4-1.1-0.2c-0.4,0.1-0.7,0.9-0.7,1.1c0,0-0.1,0.1-0.1,0.1c0-0.1,0-0.2-0.1-0.3 c-0.4,0.8-0.6,1.1-1.3,1.4c-0.6,0.3-1.1,0.4-1.6,1c0-0.1,0-0.2,0-0.3c-0.3,0.6-0.5,1.1-0.3,1.8c-0.1-0.1-0.1-0.2-0.2-0.3 c0,0.1,0,0.3,0,0.4c0-0.1-0.1-0.1-0.1-0.2c0.1,1,0.1,1.7,0,2.7c0,0.4-0.6,0.5,0,0.9c0.4,0.2,0.7-0.3,1-0.4c0.8-0.2,1.4-0.5,2.3-0.7 c1.4-0.5,1.7-0.2,2.1,1.1c0.2-0.3,0.5-0.6,0.8-0.8c-0.1,0.4-0.3,0.7-0.6,1c0.2-0.1,0.3-0.2,0.5-0.4c-0.1,0.2-0.1,0.3-0.2,0.5 c0.5,0.2,0.5,2.1,1.5,0.9c0,0.1-0.1,0.1-0.1,0.2C86.9,71.3,90.8,66.1,89.6,64.4z M85.9,71.3c-0.4-0.2-1,0.2-0.7,0.8 c0.2,0.6,0.9-0.4,1.1-0.9C86.2,71.2,86.1,71.2,85.9,71.3z M24.6,44.3c0-0.2,0.2-0.3-0.1-0.5C24.5,44,24.6,44.2,24.6,44.3z M24.2,44.9c0.1,0.1,0.1,0.2,0.1,0.4c0.1-0.2,0.1-0.3,0-0.6C24.1,44.6,24.3,44.8,24.2,44.9z M24.4,43.9c-0.2,0-0.3-0.1-0.3,0.2 C24.3,44.1,24.4,43.9,24.4,43.9z M36.2,56.9c-1-0.3-1.6-1.5-2.7-1.1c0-0.7-0.8-0.9-1.2-0.6c0-0.4-0.4-0.5-0.5-0.8 c-0.1-0.1-0.1-0.7-0.2-1c-0.3-0.7-0.6-0.8-1.2-1.1c-0.6-0.3-0.6-0.2-1.1-0.8c-0.3-0.4-0.6-0.7-1-1c0.1,0,0.2-0.1,0.3-0.1 c-0.9-0.2-1.7,0.6-2.3-0.6c-0.4,0.3-0.4,0.8-0.6,1.2c0-0.3,0-0.7,0-0.9c0.4-0.6-0.1-0.2-0.5,0.1c-0.3,0.2-0.7,0.9-1,1 c0,0-1.6-0.3-1.6-0.3c-0.8-0.7,0.1-1.4-0.1-2.2c-0.2-0.8-1.1-0.3-1.6-0.5c0.2-0.3,0.3-0.7,0.3-1.1c0.1,0,0.1,0,0.1,0.1 c0.2-1.2,0.5-1.7-0.7-0.8c-0.6,0.5-1.3,1.5-1.8,0c-0.3-0.8,0-2.4,0.4-3.1c0.7-1.1,1.6-0.5,2.3-0.6c-0.1-0.7,1.4-0.4,1.6-0.3 c0.2,0.3,0.2,2.8,0.8,1.6c0.5-1-0.4-1.7,0.5-2.7c0.6-0.7,2-1.1,1.3-2.2c0.1,0,0.1,0,0.2,0.1c0-0.2,0-0.3,0.1-0.4 c0,0.4,0,0.4-0.1,0.8c0.3-0.4,0.3-0.4,0.3-0.9c0.1,0.1,0.1,0.1,0.1,0.2c0.2-0.3,0.4-0.5,0.4-0.7c0,0,0.4-0.1,0.6-0.1 c-0.1,0-0.3,0-0.5,0c0.4-0.2,0.8-0.2,1.1-0.4c-0.1,0,0,0-0.2,0c-0.1-0.9,1.4-1.5,1.9-1.4c-0.5,0.2-0.4,0.3-0.6,0.7 c0.5-0.1,1.4-0.5,1.9-0.9c0-0.1-0.1-0.3-0.1-0.4c-0.6,1.2-1.7-0.1-0.8-0.7c-0.7-0.6-1.3,0.5-2,0.8c0.5-0.5,1.1-1.2,1.7-1.3 c0.8-0.2,1.5,0.2,2.2-0.4c1.2-0.9,0.1-1.1-0.6-1.9c0.2-0.5-0.1-0.9-0.2-1.5c-0.5,0.5-1.8,1-1.1-0.3c-0.5,0-0.6-0.4-1.2-0.4 c-1,0-0.4,0.7-1.2,1.3c0.6,0.8-0.3,1.4-0.9,1.5c0.6,1.6-1.5,1.4-0.5-0.2c-0.8,0-1.4-1-2.2-0.7c0-0.6,0.1-0.4-0.3-0.7 c0.5-1.3,2.5-2.2,3.5-2.7c0.3-0.1,1.4-0.2,1.3-0.9c-0.2-1-1.3,0.4-1.7,0.6c0.1-0.2,0-0.2,0.1-0.5c-0.2,0-0.2-0.2-0.6,0 c0.1-0.1,0.1-0.2,0.2-0.3c-0.1,0-0.2,0-0.4-0.1c0.7-0.6-0.4-1-0.8-0.1c0.5,0.5-0.1,0.7-0.5,1c0.1-0.1,0.1-0.2,0.2-0.3 c-0.5-0.2-1,0.1-1.6,0c-0.4-0.1-0.7-0.4-1.2-0.1c0,0,0.1,0.1,0.1,0.1c-0.4,0.1-1.1,0.1-1.7,0c0.1-0.1,0.3-0.1,0.4-0.2 c-0.6-0.3-1.5-0.7-2.1-0.3c0.1-0.1,0.1-0.2,0.2-0.3c-0.4,0.3-0.9,0-1.4,0c-0.6,0.1-1.2,0.4-1.8,0.4c-0.6,0-2.5-0.4-2.7-0.6 c-1.3-0.2-2.7,0.3-4,0.8c0.3,0.2,0.3,0.4,0.4,0.8c-0.2,0-0.3,0-0.5,0c0.1-0.1,0.1-0.1,0.2-0.2c-0.4,0-0.9,0.2-1.3,0.3 c0.2,0.7,0.9,0.5,1.4,0.3c-0.3,0.5-0.9,0.4-1.5,0.6c-0.5,0.2-1.4,1.3-0.4,1.1c-0.1,0.1-0.1,0.3-0.3,0.5c0.2-0.1,0.3-0.1,0.5-0.1 c0,0.1,0,0.1-0.1,0.2c0.1,0,0.1-0.1,0.2-0.1c0,0.1,0,0.1,0,0.2c0.2-0.1,0.4-0.1,0.6-0.2c-1,0.9-2.2,1-3.2,1.7 c2.1-0.4,3.5-1.8,5.4-2.6c-0.3,0.1-0.7,0.4-0.8,0.8c0.8-0.2,1.2-0.4,1.9-0.4c0.8,0.1,1.3,0.9,2.1,0.8c-0.1,0.6-0.1,1.8,0.3,2.2 c-0.6,0.8,1.3,1,0.4,2c-0.2-1.2-0.9,1-1.2,1.6c-0.4,0.8-0.5,2-0.2,2.8c0.2,0.4,1.7,3,0.9,3.3c0.6,0.7,0.6,1.2,1,2 c0.6-0.7-1.1-2.5-0.6-3.6c0.4,0.2,0.8,1.8,1,2.3c0.2,0.4,0.6,1.1,0.8,1.6c0.1,0.7-0.2,0.6,0.2,1.3c0.2,0.4,0.9,0.7,1.3,0.9 c0.5,0.3,1,0.1,1.3,0.2c0.8,0.3,1.4,1.1,2.1,1.3c0,0-0.1,0-0.1,0c0.4,0.5,0.5,0.9,0.7,1.3c0.1-0.1,0.1-0.1,0.1-0.2 c0.4,0.6,0.9,1.2,1.4,1c-0.1-0.8,0.3-0.4,0.5-0.1c0.3,0.5,0.3,1.3,0.2,1.7c-0.2,0.7-1.6,1.6-0.9,2.5c0-0.1,0.1-0.1,0.1-0.2 c0,0.6-0.4,0.8-0.3,1.5c0.1,0.3,0.7,1.2,0.9,1.6c0.3,0.7,0.5,1.6,1,2.1c0.5,0.6,1.3,0.7,1.6,1.4c0.3,0.7,0.2,2,0.2,2.8 c0,1,0.2,1.8,0.2,2.7c0.1,1.2-0.5,3.5,0.3,4.4c0-0.2,0-0.3,0-0.5c0.3,0.3,0.2,0.4,0.3,0.9c-0.1,0-0.2-0.1-0.3-0.1c0,0.5,0,0.6-0.1,1 c0.1,0,0.3,0.1,0.4,0.1c-0.8,1.1,0.7,2.6,1.6,2.7c-0.1-0.5,0.1-0.6,0.6-0.6c-0.6-0.4-0.2-0.6-0.2-1c0-0.2,0.3-0.7,0.3-0.7 c0-0.2-0.3-0.5-0.3-0.4c0-0.1-0.3-0.3-0.3-0.6c0-0.2,0.4-0.2,0.4-0.2c0.1-0.5-0.2-0.7,0.3-1c0-0.1-0.1-0.1-0.1-0.2 c-0.8,0,0-0.5,0-0.4c0.1-0.3,0.5-0.3,0.1-0.9c1.8,0.4,1.2-1.1,0.8-2c1,0.9,1.4,0,1.9-1c0.6-1.3,0.3-2.4,1.5-3.2 c0.7-0.5,0.7-0.1,1.1-1c0.3-0.8,0.3-1.4,0.4-2.2C35.4,59.7,36.6,58.3,36.2,56.9z M24.2,26.2c-0.2,0-0.3-0.1-0.5,0 C23.9,26.6,23.9,26.3,24.2,26.2z M22.4,25.3c-0.2,0.1-0.4,0.2-0.5,0.3c0.4,0.1,0.8,0,1.2,0c-0.2,0-0.4,0.2-0.6,0.2 c0.5,0,1.7,0,2-0.5c-0.2,0-0.3,0-0.4,0c0-0.1,0-0.2,0.1-0.3c-0.4,0.1-0.3-0.1-0.4,0.4C23.3,25.5,22.8,25.2,22.4,25.3z M24.2,27.3 c-0.5-0.1-0.6-1.9-1.2-0.5c0-0.6-0.7-0.4-1.2-0.3c0.1-0.1,0.1-0.1,0.2-0.2c-0.5-0.1-1.1,0.2-1.5,0.5c0.2,0,0.4,0.1,0.7,0.1 c-0.2,0-0.4,0.1-0.6,0.1c0.3,0.2,0.8,0.1,1.2,0.2c-0.4,0-0.8,0.1-1.2,0.1C21.2,28.1,23.6,27.9,24.2,27.3z M24,24.9 c0-0.3-0.3-0.1-0.7,0C23.6,25,23.8,24.9,24,24.9z M21.6,25.4c0.4-0.1,0.9-0.1,1.2-0.5c-0.6,0-1.2,0.2-1.8,0.5 C21.2,25.4,21.4,25.4,21.6,25.4z M32.4,34.8c-0.1,0-0.2,0.2-0.3,0c0,0,0.1-0.1,0.1-0.1c-0.1,0-0.3,0-0.4,0c0.2-0.2,0.3-0.5,0.5-0.7 c-0.6,0.1-1.2,1.1-1.3,1.6c0.3,0,0.7,0,1,0.1c-0.1,0.1-0.1,0.1-0.2,0.2c0.1-0.1,0.4-0.2,0.5-0.3c0,0.1,0,0.2-0.1,0.4 c0.4,0,0.5-0.3,0.4-0.7c-0.1,0-0.1,0-0.2,0.1c0-0.1,0.1-0.2,0.1-0.3C32.6,34.9,32.5,34.9,32.4,34.8z M14,35c0.7,0.6,0.5-0.1,0.2-0.5 C13.7,34.1,13.5,34.6,14,35z M19.6,27.1c0.8-0.1,1.5-0.7,2.3-0.8c-0.9-0.9-1.9,0-2.6,0.5C19.5,26.8,19.5,27,19.6,27.1z M27.7,29.4 c-0.8-0.6-0.7-0.5-1.6,0.2c0.1,0,0.4,0.2,0.3,0.2C27,29.4,27.6,29.7,27.7,29.4z M13.3,33.1c-0.2,0.2-0.3,0.4,0,0.7 c0.1-0.2,0.2-0.5,0.3-0.7C13.4,33.1,13.4,33.1,13.3,33.1z M27.5,30.1c0.1,0,0.1,0.3,0.2-0.1C27.6,30,27.6,30.1,27.5,30.1z M29.8,36 c-0.1,0,0-0.3-0.2-0.1c0.3,0.2,0.2,0.2,0.6,0.1C30.1,36.1,29.9,36.1,29.8,36z M26.7,30c0.2,0,0.3,0.1,0.6-0.2 C27,29.8,26.9,29.9,26.7,30z M30.5,35c-0.2-0.2-0.3-0.3-0.6-0.3C30.1,34.9,30.3,34.9,30.5,35z M27,25.3c0,0.2,0.1,0.2,0,0.5 c0.7,0.2,2.2,0.4,2.7-0.2c-0.7-0.3-1.4,0.1-2.1-0.2c0,0,0.1-0.1,0.1-0.1c-0.4-0.2-0.8-0.3-1.3-0.1C26.7,25.3,26.8,25.3,27,25.3z M26.8,24.9c0.2,0,0.3,0,0.5,0C27.2,24.8,26.9,24.9,26.8,24.9z M27.5,24.4c0.1,0,0.2,0,0.4,0c-0.1,0.1-0.2,0.1-0.3,0.2 c0.6,0.4,1.2,0,1.8-0.2c-0.5-0.6-1.3-0.6-2-0.2C27.3,24.4,27.4,24.2,27.5,24.4z M26.3,25.8c0.2,0,0.3,0.1,0.5-0.1 C26.6,25.6,26.1,25.4,26.3,25.8z M27,24.8c-0.1-0.2-0.1-0.3-0.5,0C26.8,24.9,26.8,24.7,27,24.8z M29.7,26.4c0.1,0,0.3,0,0.5,0 c-0.2-0.3-0.6-0.4-0.9-0.2C29.4,26.5,29.4,26.4,29.7,26.4z M26.9,26c-0.5-0.1-0.9,0.1-1,0.7c0.5-0.1,1-0.3,1.4-0.6 C27.1,26.1,27,26,26.9,26z M31.5,27.3c-0.4-0.3-0.7-0.5-1.2-0.4c-0.2-0.6-0.9-0.4-1.3-0.2c0.3-0.8-0.6-0.5-1-0.2 c0-0.1,0-0.1-0.1-0.2c0.1-0.1,0.2-0.1,0.3-0.2c-0.6,0-1.1,0.2-1.4,0.8c0.1,0,0.2,0,0.3,0C27.1,27,27,27,26.9,27.1 c0.6,0.3,2.7,0.1,2.5,0.6c0.8,0.1,0.7,0.4,0.2,0.9c-0.3,0.3-0.9,0.1-1.3,0.6c0.5,0.2,0.9-0.2,1.4,0.3c0,0-0.1,0.1-0.1,0.1 c0.4,0.3,0.8,0.5,1.2,0.5c-0.1-0.2-0.2-0.5-0.4-0.7c1.4,1.5,0.5-0.9,0.4-0.7c0.3-0.6,0.9,0.8,1.6-0.4c-0.5-0.1-0.8-0.5-1.3-0.6 c0.2-0.1,0.3-0.1,0.5-0.2C31.6,27.5,31.5,27.4,31.5,27.3z M25.7,24.7c0.2,0.1,0.4,0.1,0.6,0.1c-0.1-0.4-0.5-0.5-0.9-0.3 c0.1,0,0.1,0,0.2,0.1c-0.1,0-0.2,0.1-0.3,0.1C25.4,24.7,25.5,24.7,25.7,24.7z M29,24c0.5,0.1,0.9,0.1,1.4,0.1 c-0.3,0.1-0.7,0.1-1,0.1c0.1,0.2,0,0.1,0.2,0.3c-0.2,0.1-0.5,0.2-0.8,0.3c0.2,0.1,0.3,0.2,0.4,0.3c-0.4-0.2-0.8,0-1.1,0.3 c0.7,0.1,1.9,0.3,2.5-0.2c-0.1,0-0.2,0-0.4,0c0.4-0.3,1-0.4,1.2-0.7c-0.1,0-0.2,0-0.3,0c0.9,0,1.8-0.4,2.7-0.6c-0.1,0-0.3,0-0.4,0 c0.4-0.1,0.9-0.1,1.3-0.3c-1.6-0.4-4.4-0.4-5.9,0.3C28.9,23.8,28.9,23.9,29,24z M29.5,28.2c-0.2-0.3-0.3-0.3-0.5,0.2 C29.3,28.4,29.4,28.3,29.5,28.2z M24.4,24.6c-0.2,0-0.4-0.1-0.6,0.1C24,24.7,24.2,24.6,24.4,24.6z M25,27.4c-0.2,0-0.4,0-0.7,0.2 c0.3,0.2,0.6,0.2,0.9,0.1C25.2,27.4,25.1,27.5,25,27.4z M24.4,26.5c0.4,0.5,0.9,0.5,1.3,0c-0.1,0-0.2-0.1-0.2-0.1 c0.2-0.1,0.2-0.1,0.3-0.3c-0.4,0-0.9-0.1-0.9,0.3C24.7,26.4,24.6,26.5,24.4,26.5z M25.3,25.7c0.4,0.2,0.9-0.1,0.9-0.5 c-0.4,0-0.8,0-1.1,0.4C25.5,25.4,25.3,25.7,25.3,25.7z M78.1,46.7c-0.7,0.3-0.2,0.9,0,0.7C78.4,47,78.4,46.8,78.1,46.7z M24.7,46.8 c0.2,0,0.3,0,0.4-0.2c-0.8-0.5-2-1.9-3-0.7c0.3-0.1,0.6-0.2,0.9-0.3c0,0-0.1,0.1-0.1,0.1c0.6,0.3,1,0.3,1.4,0.8 c-0.1,0.1-0.1,0.2-0.2,0.2C24.3,46.7,24.5,46.8,24.7,46.8z M55.7,40.5c-0.1,0.1-0.2,0.1-0.4,0.1c0.4,0.2,0.3,0.1,0.6-0.2 C55.9,40.4,55.8,40.4,55.7,40.5z M49.5,32.8c0.1-0.4,0.2-0.6-0.3-0.4C49.2,32.7,49.3,32.7,49.5,32.8z M48.9,38.1 c0-0.3,0.1-0.4,0-0.7C48.6,37.7,48.8,37.8,48.9,38.1z M45.1,32.6c0.1-0.1,0.1-0.3,0.2-0.1c0,0.1,0.4,0.4,0.4,0.6 c0,0.4-0.6-0.1-0.3,0.6c-0.1,0-0.2,0.1-0.3,0.1c0.1,0,0.3,0.2,0.5,0.2c-0.2,0.1-0.4,0.3-0.6,0.5c0.7,0,1.9,0,1.9-1 c-0.6-0.2-0.6-1-1.2-1.2c0.2-0.2,0.2-0.5,0.3-0.6c-0.2,0-0.3,0-0.5,0c0.1-0.1,0.2-0.3,0.3-0.4C45,31.2,44.9,32,45.1,32.6z M53.3,40.5c-0.2,0-0.2,0.1-0.4-0.1c0,0.1,0,0.1,0,0.2c0.3,0.1,0.5,0.2,0.8,0C53.5,40.5,53.5,40.5,53.3,40.5z M41.5,27.3 c-0.3,0-0.6,0-0.9,0c0-0.1,0.2-0.4,0.2-0.4c0.3,0.3,0.4,0.3,0.8,0.3c-0.2-0.3-0.2-0.4-0.6-0.6c0.1,0,0.3,0,0.5,0 c-0.1-0.1,0-0.2-0.2-0.4c0.3,0,0.5-0.1,0.7-0.2C42,26,42,26,41.9,26c0.2,0,0.3,0,0.5,0c-0.1-0.1-0.2-0.2-0.2-0.3 c0.3-0.2,0.3-0.2-0.1-0.5c0.2,0,0.5-0.1,0.7-0.1c-0.3-0.4-0.2-0.7,0.3-0.9c-0.2,0-0.3,0-0.5,0c0.5,0,1-0.2,1.6-0.3 c-0.6-0.3-1.5-0.1-2.1,0c0.1-0.1,0.2-0.1,0.2-0.2c-0.6-0.1-1.3-0.1-1.9-0.1c0.7,0,1.5,0.1,2.2-0.1c-1.4-0.2-3.8-0.7-5,0.1 c0.1,0,0.3,0.1,0.4,0.1c-1.6-0.3-3.3-0.2-4.8,0.4c0.2,0,0.3,0.1,0.5,0.1c-0.6,0.3-1.4,0.1-1.9,0.5c0.4,0.1,0.8,0.2,1.2,0.2 c-0.3,0-0.7,0-1,0.1c0.2,0.2,4.1,0.7,2.5,1.7c0.3,0.1,0.5,0.2,0.8,0.4c-0.9-0.5-1,0.9,0,0.2c-0.6,1-1.2,0.7-0.8,2.1 c0.2,0.7,0.5,0.9,0.9,1.1c0.7,0.4,0.6,0.2,1.1-0.4c0.1-0.1,0.4-0.9,0.6-1.1c0.4-0.3,0.8-0.2,1.1-0.4C39.3,28.2,40.4,27.9,41.5,27.3z M25.3,47.4c0.3,0.1,0.4-0.1,0.6,0.3c0.2-0.4,0.6-0.3,0.9-0.4c-0.3-0.4-0.9-0.7-1.4-0.4c0.2,0.2,0.1,0.2,0.3,0.4 c-0.2,0-0.3,0.1-0.6,0C25,47.6,25.1,47.4,25.3,47.4z M80.8,58.3c0.1,0,0.2-0.1,0.3-0.1C81,58,80.7,58,80.5,58.4 C80.6,58.4,80.7,58.3,80.8,58.3z M82.5,56.6c-0.2-0.4-0.3-0.7-0.5-1.1c0.2-0.1,0.3-0.3,0.5-0.3c0-0.1,0-0.1,0-0.2 c-0.4,0.2-1.4,0.1-0.8-0.4c0.5-0.4,1.2,0.5,1.3-0.5c-0.4,0.6-0.9,0-1.3,0.2c-0.3,0.2-0.5,1.1-0.5,1.5c0,0,0.3,1.2,0.2,1.2 c0.4,0.2,0.2-0.9,0.4-1.2c0,0.4,0.1,0.6,0.2,0.9c0.1-0.1,0.2-0.1,0.3-0.2c-0.1,0.3,0,0.3,0,0.5C82.5,56.9,82.4,56.8,82.5,56.6z M78.5,55.3c0.1,0.8,1.5,1.1,1.9,1.1c0.1-0.7,0.3-1.8,0.9-2c-0.6-0.8-0.4-1.3,0-1.8c-0.4-0.2-0.5-0.6-0.8-0.5 c-0.3,0.1-0.6,0.9-0.8,1.1C79.1,53.9,77.9,54,78.5,55.3z M85.8,57.1c-0.1,0.1-0.2,0-0.2,0.5C85.8,57.4,85.7,57.2,85.8,57.1z M83.6,56c-0.1,0-0.2,0-0.3,0C83.6,56.5,83.5,56.1,83.6,56z M81.6,58.9c-0.1-0.2-0.1-0.4-0.5-0.3C81.3,58.8,81.4,58.8,81.6,58.9z M82.3,58.2c-0.1-0.2-0.5-0.1-0.8,0.1C81.7,58.4,82,58.3,82.3,58.2z M78.7,58c0.5,0.1,1,0.2,1.5,0.1c-0.6-0.3-2.6-1.5-3-0.6 C77.7,57.7,78.2,57.8,78.7,58z M77.4,56.5c0.3-1-2-4.1-3.1-3.9c0.4,0.9,1,1.6,1.5,2.5C76,55.4,77.5,58.3,77.4,56.5z M84.2,56.1 c0.2,0.1,0.3,0,0.5,0.2c-0.2-0.5-0.6-0.6-0.9-0.2C84,56.1,84.1,56.1,84.2,56.1z M83.9,55.1c0.1-0.4,0.3-0.8-0.1-1.2 C83.7,54.3,83.7,54.7,83.9,55.1z M82.7,58.8c0.2-0.3,0.6-0.5,0.9-0.7c-0.5,0-1,0.2-1.2,0.8C82.5,58.9,82.6,58.9,82.7,58.8z M44.1,33.6c-0.1,0.1-0.1,0.3-0.2,0.4c0.4,0.1,1.4-0.5,1.1-1C44.7,32.3,44,33,44.1,33.6z M41.8,29.6c0.5,0.1,1.1-0.1,1.5-0.5 c0-0.1-0.2-0.4-0.2-0.5c-0.6,0.1-1.9-0.2-2.3,0.3c0.2,0,0.3,0.1,0.5,0.1c-0.1,0-0.2,0.1-0.4,0.2c0.2,0.1,0.3,0.1,0.5,0.2 c-0.1,0.1-0.2,0.1-0.2,0.2C41.4,29.5,41.6,29.5,41.8,29.6z M48.7,38.5C48.8,40.2,49,37.2,48.7,38.5z M50.5,39.4 c-0.2,0-0.4,0.1-0.6,0c0.1,0.3,0.4,0.5,0.7,0.6C50.7,39.5,50.6,39.5,50.5,39.4z M24.1,47.3c-0.1,0.1-0.2-0.1-0.2,0.1 c0.3,0.2,0.3,0.2,0.6,0.1C24.4,47.3,24.3,47.4,24.1,47.3z M70,51c-0.1-0.1-0.1-0.1-0.2-0.2C69.3,52.7,70.9,52.3,70,51z M61,60.2 c0-0.2-0.1-0.4-0.2-0.6c-0.1,0.3-0.3,0.5-0.4,0.7c-0.1,0.8-0.9,0.8-1.1,1.4c-0.2,0.4,0.1,0.7,0,1.1c-0.1,0.4-0.3,0.6-0.4,1 c-0.1,1.2,0.5,1.5,1.1,0.7c0.5-0.7,0.9-2.6,0.9-3.5c0,0.1,0.1,0.2,0.1,0.2C61.1,60.9,61,60.6,61,60.2z M74.3,48.1 c-0.9,0.8-1-2.4-2-2.6c0,0.2,0,0.2,0,0.4c-0.3-0.1-0.5,0-0.9,0.1c0.1,0.9-1.3,1.5-1.5,2.2c-0.2,0.6-0.2,2.1-0.3,2.7 c-0.1,0.1-0.3,0.4-0.5,0.5c-1-1.2-1.5-3.8-1.8-5.4c-0.6,0.6-1.1-0.6-1.6-1c-0.5-0.5-0.4-0.4-1.1-0.5c-0.5-0.1-0.9,0.1-1.3-0.1 c-0.4-0.2-0.5-0.6-0.8-0.7c-0.3-0.1-0.5,0.2-1,0c-0.7-0.3-0.8-1.5-1.5-1.1c0.1,0.9,0.8,1.3,1,2.1c0-0.2,0.1-0.4,0.1-0.5 c0.1,1.3,1,0.8,1.4-0.1c-0.1,0.9,0.5,0.7,0.8,1.1c0.4,0.8,0.2,0.6-0.1,1.2c-0.4,1-0.6,1.2-1.5,1.7c-0.6,0.4-2,1.9-2.6,1.1 c-0.3-0.4-0.1-0.9-0.2-1.3c-0.2-0.5-0.7-1-0.9-1.4c-0.4-0.8-1.8-3-1.6-3.7c0,0.3-0.2,0.5-0.2,0.7c-0.2-0.3-0.4-0.5-0.5-0.9 c0.1,0.8,0.6,1.5,0.9,2.2c0.3,0.7,0.4,1.4,0.7,2.1c0.3,0.7,2,2.5,1.7,3c0.5,0.9,1.8,0.2,2.4-0.1c0.1,3.4-3.7,4.9-3.4,7.8 c0.1,1.4,0.7,2.7-0.3,3.9c-0.7,0.8-1,0.7-1.1,1.7c0,0.5,0.2,0.8-0.1,1.3c-0.1,0.2-0.6,0.3-0.7,0.5c0,0.1,0,0.5-0.1,0.7 c-0.2,0.5-0.5,1.1-0.9,1.5c-0.5,0.6-0.9,0.8-1.4,1c-0.2,0.1-1.4,0.4-1.5,0.4c-0.6-0.2-0.2-0.7-0.3-1.2c-0.2-0.8-0.6-1.4-0.8-2.2 c-0.2-0.9-0.2-1.6-0.5-2.5c-0.3-0.8-0.5-1.3-0.2-2.2c0.3-1.4,0.5-2.2,0.1-3.5c-0.3-1-0.9-1.5-0.9-2.5c0-0.8,0.3-1.3-0.2-1.9 c-0.9,0.6-1.1-0.8-2.2-0.5c-0.7,0.2-1.9,0.8-2.6,0.6c-1.5-0.3-2.2-3.1-2.8-4.2c0.8-0.8,0.2-2.2,0.4-3c0.1-0.4,0.4-1.2,0.6-1.5 c0.4-0.6,0.9-0.7,1.2-1.3c0.5-0.8,0.3-1.3,1-2c0.8-0.9,0.3-0.3,1.4-0.5c0.9-0.1,2.7-1.4,3.4-0.6c0.1,0,0.2-0.1,0.2-0.1 c-0.2,0.8-0.3,1.2,0.3,1.7c0.5,0.4,1.7,1.1,2.2,0.8c0.1,0,0-0.6,0.5-0.7c0.2-0.1,0.7,0.4,0.9,0.5c0.5,0.2,1.7-0.1,1.9,0.3 c0.9,0.2,1-1.5,1-2.3c-0.6,0-1.4,0.3-1.9,0.1c-1.2-0.5-0.9-1.5,0-1.9c0.4-0.2,1.1-0.3,1.6-0.3c0.4,0,1,0.7,1.4,0.3 c0.6-0.6-0.9-1.3-1.3-1.6c0.3-0.4,0.2-0.2,0.2-0.5c0.1-0.1,0.2-0.1,0.4-0.2c-0.4-0.1-1.6,0.5-0.6,0.6c-0.4,0.4-0.8,0.5-1.1,0.1 c0.1-0.1,0.2-0.1,0.3-0.2c-1-0.9-1.9,1.4-1,1.8c-0.2,0.1-0.5,0.3-0.7,0.5c-0.2-0.4-0.3-0.3-0.7-0.2c0.1,0.1,0.1,0.1,0.2,0.2 c-0.3-0.1-0.2,0.1-0.4-0.1c0,0.5,0.2,0.7,0.4,1.1c-0.1,0-0.2-0.1-0.3-0.1c0.1,0.2,0.1,0.2-0.1,0.2c0,0.1,0.1,0.2,0.1,0.4 C52,40,52,38.4,51.7,37.9c-0.3-0.5-1.4-1.3-1.6-1.2c-0.1-0.2,0-0.2,0-0.3c-1.3,0,1.2,2,1.3,2.3c-0.7-0.5-0.1,0.3-0.7,0.8 c0.3-1-0.8-1.3-1.3-1.8c-0.6-0.6-0.2-0.5-0.9-0.6c-0.5-0.1-1.1,0.5-1.3,0.7c-0.8,0.6-0.7,1.7-1.5,2.2c-0.8,0.5-1.1-0.4-1.8-0.1 c-0.1-0.5-0.2-2.3,0.1-2.6c0.4-0.5,1.5,0.4,1.9-0.1c0.7-0.8-0.5-1.5-0.8-2c0.3,0,0.5-0.1,0.8,0c0-0.1-0.1-0.3-0.1-0.4 c0.5,0.3,0.9-0.3,1.2-0.6c0.3-0.3,0.8-0.7,1-0.9c0.1-0.2,0.3,0.2,0.4-0.1c0,0-0.1-0.3-0.1-0.4c0.2-0.4-0.2-0.8,0.5-1 c0,0.1,0.1,0.4,0.1,0.5c-1.1,0.9,1.1,0.8,1.5,0.7c0.6-0.1,0.7,0.1,1.1-0.3c0.2-0.2-0.2-1.4,0.7-0.6c0-0.2,0-0.3,0-0.5 c-0.2-0.1-0.1-0.1-0.3-0.3c0.5-0.2,0.9,0,1.3-0.3c-0.6-0.4-1.5,0.5-1.9-0.3c-0.4-0.7,0.2-1.2,0.8-1.5c-0.5-0.8-0.9,0.1-1.2,0.5 c-0.7,0.9-0.3,0.8-0.4,1.8c0,0.2-0.6,1.4-0.9,1.3c-0.4-0.1-0.7-1.2-1-1.4c-0.3-0.1-1.5,0.8-1.2-0.8c0.1-0.6,1.1-1,1.6-1.5 c1-1.1,2.6-2.5,4.1-1.6c-0.1,0-0.2,0.1-0.3,0.1c0.4,0.2,2.3,0.3,2.6,0.9c0.4,1-1.2,0.3-1.6,0.4c0.5,0.3,0.5,0.9,1.1,1 c-0.1-0.1-0.1-0.2-0.2-0.3c0.2,0,0.6,0,0.9,0c-0.1-0.1-0.1-0.2-0.2-0.3c0.3-0.3,0.6-0.4,0.9-0.2c0-0.3-0.1-0.6-0.3-0.9 c0.4,0,0.6,0.1,0.8,0.3c-0.1,0-0.2,0-0.3,0c0.4,0.6,1.1-0.3,1.9-0.4c-0.1,0.1-0.1,0.1-0.2,0.2c0.5,0,1.2-0.1,1.6-0.3 c-0.1-0.1-0.2-0.1-0.3-0.2c0.6-0.2,1.5,0.2,2.1,0.5c0-0.1,0.1-0.1,0.1-0.2c-0.7-0.3-1.2-1.5-0.2-1.4c0.5,0,1.4,1.7,1,2.2 c0.4,0,0.5-0.1,0.6-0.5c-0.4-0.4-0.6-0.8-1-1.2c0.1-0.1,0.2-0.1,0.3-0.2c-0.1-0.1-0.1-0.2-0.2-0.2c0.2,0.2,0.4,0.4,0.6,0.6 c-0.1-0.1-0.1-0.2-0.2-0.2c0.4-0.2,0.8-0.2,1.2,0c-0.3-0.2-0.3-0.4-0.5-0.6c0.4-0.1,0.9-0.1,1.3-0.1c-0.1-0.1-0.2-0.1-0.3-0.2 c0.6-0.7,1.8-0.5,2.7-0.6c0.1-0.4,0.5-0.5,0.9-0.3C68.1,25,68,25,67.9,25c0.7,0.2,1.8-0.1,2.3,0.6c-0.2,0.1-0.5,0.3-0.7,0.4 c1.1,0.1,2.1,0.5,3.2,0.4c-0.1-0.1-0.1-0.2-0.2-0.2c1.1,0,1.5,0.7,2.5,1c0-0.1-0.1-0.2-0.1-0.4c0.6,0.2,1.2,0.1,1.8,0.1 c-0.1-0.1-0.3-0.2-0.4-0.3c0.5-0.3,1.7-0.1,2.3,0.1c0.7,0.2,1.4,0.2,2.1,0.4c1.1,0.2,2.5,0.9,3.6,0.7c-0.2-0.1-0.3-0.2-0.5-0.4 c1.8,0.3,2.5,0.3,3.9,1.8c-0.2,0-0.2,0.1-0.5,0.1c0.4,0.2,0.9,0.4,1.2,0.8c-0.6-0.2-1.3,0.2-1.3,0.9c-0.5-0.4-1.1,0-1.6,0 c0,0.9,0.6,0.7,1,1.4c-0.1,0-0.1,0-0.2,0c0.1,0.2,0.2,0.3,0.3,0.5c-0.1,0.1-0.2,0.1-0.3,0.2c0.1,0.1,0.1,0.3,0.2,0.4 c-0.1,0-0.2,0.1-0.3,0.1c0.2,0.4,0,0.4,0,0.7c-0.7-0.7-1.6-1.6-1.8-2.6c0.5-0.2,1-1.7,0.2-1.7c0.2,1-0.4,0.2-0.7,0.3 c-0.4,0.2-1.1,0.3-0.3,0.9c-0.6,0.3-1.3-0.1-2,0c-1.2,0.1-1.2,0.4-1.8,1.7c1.2,0.2,2.2,0.4,2.5,2.1c0.1,0.6,0.1,1.6-0.2,2.1 c-0.4,0.5-0.6,0.3-0.9,0.6c0,0-0.4,0.9-0.4,0.9c0.1,0.5,0.3,0.4,0.6,0.9c1.1,1.9-0.9,1.2-0.5,0.3c-0.2-0.2-0.7-0.8-0.7-0.8 c-0.4-0.2-0.5-0.6-1.1,0c0.4-1.3-0.9-0.4-0.9,0c0,0.9,1.3,0.4,1.6,0.8c-1.4,0.4,0.5,2.1,0.6,2.8c0.2,1.5-0.7,2.5-1.6,3.1 c-0.3,0.2-0.4,0.3-0.8,0.4c-0.1,0,0.1,0.4-0.1,0.4c-0.1,0-0.2-0.3-0.2-0.3c-0.1,0-1-0.5-1,0.7c0,0.8,1.1,1.3,1.3,2.1 c0.2,1.1-0.4,1.4-1,2.1c0-0.5-0.9-1.6-1.4-1.6c0-0.1,0-0.2,0-0.3c-0.1,0-0.2,0-0.3,0c0,0.6-0.1,1.2,0,1.7c0.1,0.4,0.5,0.7,0.7,1.1 c0.4,0.8,0.5,1.3,0.8,2.1c-1.2-0.2-1.1-2-1.8-2.8c0,0.1,0,0.2,0,0.2C75.1,51,75,47.7,74.3,48.1z M53.6,51.4 c-0.1-0.1-0.1-0.1-0.2-0.2C53.5,51.3,53.5,51.4,53.6,51.4z M61.2,39.7c-0.1-0.7-0.4-0.9-0.5-1.5c0.3,0.1,0.3,0,0.5,0 c-0.2-0.4-0.5-0.6-0.5-0.1c-0.1-0.7-0.6-0.8-0.9-1.4c0.1,0,0.2,0,0.3,0c0.2-0.4-0.1-0.3,0.4-0.3c0.1-1-1-0.7-1.3-0.2 C58.7,37,59.4,38,60,38.5C59.1,39.1,60.4,40.4,61.2,39.7z M50.4,24.2c0.4,0.2,1,0.2,1.5-0.1c-0.6-0.2-1.4-0.2-2-0.1 C50.1,24.2,50.2,24.2,50.4,24.2z M51,25c0.1,0,0.3-0.1,0.4-0.1c-0.3-0.1-0.5-0.1-0.8-0.1c0.1,0.3,0.1-0.1,0,0.2 C50.8,24.9,50.9,24.9,51,25z M49.1,24.8c0.1,0,0.2,0.1,0.3,0.1c-0.1,0-0.1,0.1-0.2,0.1c0.7,0.5,0.8-0.4,1.5-0.5 c-0.9-0.3-1.4-0.2-2.2-0.2C48.7,24.5,48.9,24.7,49.1,24.8z M27.1,47.3c0.1,0.1,0,0.4,0.4,0.1C27.4,47.3,27.3,47.3,27.1,47.3z M55.6,24.1c0.3,0.1,0.6,0,0.9-0.1c-0.5,0-0.8,0-1.3,0C55.5,24,55.7,24.2,55.6,24.1z M57.7,26.9c0.4,0.2,0.9,0.4,1.4,0.3 c-2-0.4,1.3-1.7,1.6-1.9c-0.7-0.3-1.8,0.1-2.5,0.5c-0.1,0.2,0,0.1-0.3,0.4c0.1,0,0.1,0,0.2,0C57.7,26.4,57.7,26.6,57.7,26.9z M65.1,24.4c0.5,0.1,1,0.2,1.5,0.2c-0.4-0.6-1.5-0.9-2.1-0.4C64.7,24.1,64.8,24.3,65.1,24.4z M75.7,25.8c0.3-0.1,0.7-0.1,1.1-0.1 c-0.3-0.5-1.3-0.5-1.8-0.4C75.2,25.7,75.4,25.8,75.7,25.8z M67.6,24.6c-0.5-0.2-0.9-0.4-1,0.2C67,24.8,67.5,24.8,67.6,24.6z M76.6,26.1c-0.2,0.1-0.2,0-0.3,0.2c0.3,0.1,0.6,0.1,0.8,0.1C77,26.2,76.8,26.1,76.6,26.1z M5,29.1C5,29.1,5,29.1,5,29.1z M7.7,27 c-0.2-0.1-0.3-0.2-0.6,0.1C7.3,27.1,7.5,27,7.7,27z M82.3,33.9c0.6,0.5,0.9,1.6,1.4,2.3c0-0.1,0-0.2,0-0.3c0.1,0.1,0.2,0.2,0.3,0.2 c-0.3-0.4-0.7-0.7-0.7-1.2c0.2,0,0.3,0.1,0.5,0.1c-0.6-0.6-1.2-1.8-1.8-2C82.1,33.3,82.2,33.4,82.3,33.9z M5.5,28.8 c0,0,0.3,0.1,0.5,0.1c0.1,0.8,1.1-0.1,1.7-0.2c-0.2-0.5-0.7-0.4-1-0.2c0.1-0.1,0.2-0.1,0.2-0.2C6.4,27,5.6,28.5,5,29.1 C5.2,28.9,5.7,28.4,5.5,28.8z M77.6,25.8c0.2,0,0.3,0.1,0.5-0.1c-0.3-0.1-0.7-0.1-1.1-0.1C77.2,25.7,77.3,25.7,77.6,25.8z M85.8,27.1c-0.1-0.1-0.2-0.2-0.3-0.2c0,0-0.1,0.1-0.1,0.1C85.6,27.1,85.7,27,85.8,27.1z M28.5,50.6c0,0,0.1,0.3,0.2-0.2 C28.6,50.3,28.5,50.6,28.5,50.6z M7.1,29.7c-0.3-0.1-0.4-0.2-0.7,0C6.6,29.8,6.8,29.7,7.1,29.7z M9.2,31.6c-0.3,0.1-0.5,0.1-0.5,0.5 c0.2-0.1,0.5-0.2,0.7-0.3C9.3,31.5,9.3,31.7,9.2,31.6z M6.4,30.8c0.2,0,0.3,0.3,0.4,0C6.7,30.7,6.5,30.8,6.4,30.8z">
    <animateTransform attributeName="transform" type="translate" repeatCount="indefinite" dur="2s" keyTimes="0;1" values="0 0;100 0"></animateTransform>
  </path>
</g>
</svg>