<?xml version="1.0" encoding="iso-8859-1"?>
<!-- Generator: Adobe Illustrator 19.0.0, SVG Export Plug-In . SVG Version: 6.00 Build 0)  -->
<svg xmlns="http://www.w3.org/2000/svg" xmlns:xlink="http://www.w3.org/1999/xlink" version="1.1" id="Layer_1" x="0px" y="0px" viewBox="0 0 512 512" style="enable-background:new 0 0 512 512;" xml:space="preserve">
<path style="fill:#73AF00;" d="M0,385.379c0,21.177,17.167,38.345,38.345,38.345h435.31c21.177,0,38.345-17.167,38.345-38.345  v-49.931H0V385.379z"/>
<path style="fill:#FF4B55;" d="M473.655,88.276H38.345C17.167,88.276,0,105.443,0,126.621v49.931h512v-49.931  C512,105.443,494.833,88.276,473.655,88.276z"/>
<rect y="176.55" style="fill:#464655;" width="512" height="158.9"/>
<g>
	<path style="fill:#F5F5F5;" d="M306.058,227.432l13.286,17.379l20.745-6.944c1.16-0.388,2.146,0.924,1.452,1.93l-12.424,18.006   l13.014,17.583c0.727,0.983-0.215,2.327-1.387,1.977l-20.963-6.251l-12.701,17.811c-0.711,0.996-2.28,0.514-2.31-0.708   l-0.533-21.869l-20.864-6.575c-1.166-0.367-1.194-2.008-0.04-2.415l20.634-7.264l-0.193-21.875   C303.763,226.993,305.315,226.46,306.058,227.432z"/>
	<path style="fill:#F5F5F5;" d="M270.001,298.898c-23.672,0-42.876-19.203-42.876-42.898c0-23.65,19.203-42.897,42.876-42.897   c8.808,0,16.93,2.709,23.699,7.294c1.036,0.702,2.22-0.66,1.352-1.562c-10.116-10.517-24.434-16.934-40.309-16.392   c-27.274,0.93-49.852,22.797-51.594,50.031c-1.996,31.194,22.703,57.118,53.455,57.118c15.148,0,28.762-6.333,38.485-16.459   c0.858-0.895-0.327-2.236-1.354-1.54C286.959,296.185,278.824,298.898,270.001,298.898z"/>
</g>
<g>
</g>
<g>
</g>
<g>
</g>
<g>
</g>
<g>
</g>
<g>
</g>
<g>
</g>
<g>
</g>
<g>
</g>
<g>
</g>
<g>
</g>
<g>
</g>
<g>
</g>
<g>
</g>
<g>
</g>
</svg>
