<?xml version="1.0" encoding="iso-8859-1"?>
<!-- Generator: Adobe Illustrator 19.0.0, SVG Export Plug-In . SVG Version: 6.00 Build 0)  -->
<svg xmlns="http://www.w3.org/2000/svg" xmlns:xlink="http://www.w3.org/1999/xlink" version="1.1" id="Layer_1" x="0px" y="0px" viewBox="0 0 512 512" style="enable-background:new 0 0 512 512;" xml:space="preserve">
<g>
	<rect x="17.655" y="105.929" style="fill:#F5F5F5;" width="476.69" height="300.14"/>
	<path style="fill:#F5F5F5;" d="M473.655,88.275H38.345C17.167,88.275,0,105.442,0,126.62V385.38   c0,21.177,17.167,38.345,38.345,38.345h435.31c21.177,0,38.345-17.167,38.345-38.345V126.62   C512,105.442,494.833,88.275,473.655,88.275z M494.345,406.068H17.655V105.93h476.69V406.068z"/>
	<circle style="fill:#F5F5F5;" cx="328.43" cy="311.37" r="13.433"/>
	<path style="fill:#F5F5F5;" d="M352.003,234.242c-9.886,8.311-16.535,8.661-16.535,8.661c17.586-7.174,15.748-20.822,15.748-20.822   c-8.311,10.936-16.798,13.998-16.798,13.998c17.673-11.986,14.873-28.084,14.873-28.084c-5.774,12.774-13.079,17.76-13.079,17.76   c14.698-19.554,7.48-32.152,7.48-32.152c-5.774,18.11-10.63,23.36-10.63,23.36c11.286-30.184,1.619-38.889,1.619-38.889   c0,16.185-6.037,25.459-6.037,25.459c6.3-21.347-3.587-33.596-3.587-33.596s-0.093,17.404-3.445,26.52   c-0.804-1.222-1.28-1.06-1.28-1.06c-1.704,11.179-7.712,19.049-10.306,22.01c-0.576-2.786-2.308-3.639-2.308-3.639   s-0.312,2.735-2.766,6.769c-1.608,2.643-9.204,8.806-10.429,14.23c-0.982,4.349,3.325,7.961,4.724,8.836   c1.4,0.875,2.887,2.45,2.274,4.986c-0.612,2.537-5.162,2.274-8.399,2.187s-3.674,5.249-7.262,5.075l-0.608,3.98l-1.405,0.307   c0,0-14.698,29.289-15.949,39.255l-10.823,1.427l-10.823-1.427c-1.251-9.966-15.949-39.255-15.949-39.255l-1.405-0.307l-0.608-3.98   c-3.587,0.175-4.024-5.162-7.262-5.075c-3.238,0.087-7.787,0.35-8.399-2.187s0.875-4.113,2.274-4.986   c1.4-0.875,5.707-4.488,4.724-8.836c-1.225-5.425-8.821-11.587-10.429-14.23c-2.454-4.033-2.766-6.769-2.766-6.769   s-1.732,0.853-2.308,3.639c-2.593-2.963-8.601-10.831-10.305-22.01c0,0-0.476-0.161-1.28,1.06   c-3.352-9.117-3.445-26.52-3.445-26.52s-9.886,12.248-3.587,33.596c0,0-6.037-9.273-6.037-25.459c0,0-9.667,8.705,1.619,38.889   c0,0-4.855-5.249-10.63-23.36c0,0-7.218,12.598,7.48,32.152c0,0-7.305-4.986-13.079-17.76c0,0-2.799,16.098,14.873,28.084   c0,0-8.487-3.062-16.798-13.998c0,0-1.837,13.649,15.748,20.822c0,0-6.649-0.35-16.535-8.661c0,0-1.75,12.074,21.172,18.285   c0,0-9.362-0.175-18.898-6.562c0,0-0.263,11.898,19.335,14.261c0,0-6.474,0.962-13.736-1.662c0,0,0.263,9.623,17.323,10.848   c0,0-6.737,0.525-11.111-0.525c0,0,0.437,9.886,13.911,8.224c0,0-4.55,1.487-6.037,1.924c0,0,0.263,8.071,14.304,5.184   c0,0-2.494,1.553-5.906,2.078c0,0,2.887,6.737,14.611,3.762l-2.406,2.625c0,0,9.055,5.249,16.01-1.969l-2.494,4.462   c0,0,5.906,2.231,9.58-3.543c0,0-1.006,8.661-13.255,10.237c0,0,0.437,1.837,0.962,2.537c0,0-0.788,1.487-7.874,2.712   c0,0,1.487,2.274,3.062,2.975c0,0-3.062,2.625-4.724,3.149c0,0,2.625,1.312,4.287,1.575c0,0-3.674,3.587-8.224,3.674   c-4.55,0.087-12.685-0.438-12.685-0.438s-0.087-4.374-2.187-8.137c-2.1-3.762-2.799-4.046-2.799-4.046s0.459-3.018-0.853-4.265   s-2.034-1.837-2.034-1.837s0.7-6.037-1.225-9.799c-1.924-3.762-8.749-11.986-9.099-18.11s-0.087-8.399-0.087-8.399l-2.1,0.525   l-1.4-2.887l2.362-0.263l-0.962-4.374l-3.238,1.225l-0.438-3.762l-3.849,1.575l1.924,3.412l-3.412,0.962l2.013,4.024l2.625-1.662   l0.7,3.499c0,0-1.575,0.35-2.45,1.75c0,0,4.329,2.873,5.599,6.3c2.013,5.425,1.4,17.673,4.287,21.347   c2.887,3.674,5.162,6.211,5.162,6.211s-0.809,2.494,0.109,3.871c0.919,1.378,2.231,1.772,2.231,1.772s-0.788,5.578,1.247,9.252   c2.034,3.674,3.215,4.594,3.215,4.594s-7.415,4.527-2.165,9.777c0,0-0.7,4.768,4.287,5.906c0,0,0.263,3.762,4.55,3.325   c0,0,2.1-0.612,2.625,0.438c0.525,1.049,0,7.086,0,7.086s1.924-0.175,3.149-1.049l3.849,1.924l0.087-4.287l4.812-1.924   c0,0-2.1,0.35-6.387-3.674c0,0,0.7-0.438,1.225-3.85c0,0,3.412-2.712,4.113-4.899c0.7-2.187,5.512-6.999,11.111-8.574l0.766,3.412   c0,0,8.006-7.086,11.351-7.48l2.756,3.63c0,0,10.324-15.31,14.873-18.023c-0.35,1.225,2.187,1.4-3.456,7.699   c-5.643,6.3-2.144,11.286-2.144,11.286c-3.499,2.887-2.799,5.512-3.238,8.487c-0.437,2.975-12.074,10.674-12.074,10.674   c3.674,4.637,7.787,3.587,7.787,3.587c-2.275,1.487-1.575,6.474-1.575,6.474c3.325,0.875,6.649-0.612,6.649-0.612   c-1.138,3.149,0.612,5.336,0.612,5.336c2.1-1.312,6.912-2.1,6.912-2.1c-0.612,5.425,2.887,8.311,2.887,8.311l3.062-3.325   c0.525,6.124,5.95,9.624,5.95,9.624s5.425-3.5,5.95-9.624l3.062,3.325c0,0,3.5-2.887,2.887-8.311c0,0,4.812,0.788,6.912,2.1   c0,0,1.75-2.187,0.612-5.336c0,0,3.325,1.487,6.649,0.612c0,0,0.7-4.987-1.575-6.474c0,0,4.113,1.049,7.787-3.587   c0,0-11.636-7.699-12.074-10.674c-0.437-2.975,0.263-5.599-3.238-8.487c0,0,3.499-4.987-2.144-11.286   c-5.643-6.3-3.106-6.475-3.456-7.699c4.55,2.712,14.873,18.023,14.873,18.023l2.756-3.63c3.347,0.394,11.351,7.48,11.351,7.48   l0.766-3.412l0.145-0.158c4.174,2.248,11.068,5.288,13.854,7.418c2.975,2.275,5.425,2.45,12.598,0   c7.175-2.45,20.522-6.217,18.548-10.674c-0.108-0.243-0.23-0.406-0.348-0.596c0.313-1.151,0.442-3.16-1.665-4.916   c0,0,0.025,0.489,0.008,1.117l-6.839-2.549c-0.226-0.605-0.564-1.198-1.217-1.717c0,0,0.01,0.525-0.084,1.233l-1.754-0.654   l3.501-9.849c-0.265-0.148-0.563-0.231-0.838-0.361c0.071-0.892,0.239-2.125,0.5-3.414c0.855,0.299,1.636,0.668,2.202,1.131   l0.988-3.606c0,0-1.063-0.07-2.464-0.332c0.354-1.088,0.774-2.065,1.273-2.696l-4.637-1.4c0,0,0.12,1.405,0.038,3.158   c-0.885-0.359-1.729-0.815-2.411-1.399l-1.087,4.002c0.373,0.022,1.639,0.131,3.106,0.393c-0.265,1.175-0.732,2.217-1.401,2.999   c-0.165-0.022-0.318-0.082-0.486-0.098l-3.4,9.565l-9.22-3.436c-0.395,0.622-0.7,1.3-0.985,1.986   c0.049-0.1,0.093-0.256,0.145-0.319c0,0-3.567,1.866-3.518,4.607c-0.657,0.249-1.233,0.742-1.558,1.597   c-1.049,2.756,5.38,8.924,3.806,9.711c-1.546,0.772-9.623-5.88-10.918-6.997c1.665-0.323,4.094-1.533,4.094-1.533   c-1.663-0.525-4.724-3.149-4.724-3.149c1.575-0.7,3.062-2.975,3.062-2.975c-7.086-1.225-7.874-2.712-7.874-2.712   c0.525-0.7,0.962-2.537,0.962-2.537c-12.248-1.575-13.255-10.237-13.255-10.237c3.674,5.774,9.58,3.543,9.58,3.543l-2.494-4.462   c6.955,7.218,16.01,1.969,16.01,1.969l-2.406-2.625c11.723,2.975,14.611-3.762,14.611-3.762c-3.412-0.525-5.906-2.078-5.906-2.078   c14.042,2.887,14.304-5.184,14.304-5.184c-1.487-0.438-6.037-1.924-6.037-1.924c13.473,1.663,13.911-8.224,13.911-8.224   c-4.374,1.049-11.111,0.525-11.111,0.525c17.06-1.225,17.323-10.848,17.323-10.848c-7.262,2.625-13.736,1.662-13.736,1.662   c19.597-2.362,19.335-14.261,19.335-14.261c-9.536,6.387-18.898,6.562-18.898,6.562   C353.753,246.314,352.003,234.242,352.003,234.242z M332.121,320.789c-0.935-1.518,1.293-2.876,2.296-4.321l3.878,1.444   C336.978,319.484,333.085,322.354,332.121,320.789z M329.53,314.648c-1.258,1.949-2.133,4.135-6.005,4.239   c-4.855,0.131-5.643-4.2-6.692-6.562c-0.306-0.689-0.834-1.209-1.44-1.566c-0.002-0.424,0.02-0.889,0.057-1.359L329.53,314.648z"/>
	<path style="fill:#F5F5F5;" d="M255.635,222.212c0,0-6.233-5.315-8.071-8.202c0,0,2.1-0.853,3.149-2.165   c0,0-5.643-3.018-8.661-6.102c0,0,1.969-0.328,3.478-1.575c0,0-5.068-0.916-7.638-5.066c5.859-2.001,3.898-7.467,3.898-7.467   c-1.181,1.575-6.037,3.543-11.286,1.312s-11.023-0.657-11.023,2.231c0,0-11.811-3.412-8.858,8.006c0,0,1.902-4.265,6.102-2.69   c4.2,1.575,8.465,6.955,8.465,6.955s-2.625,1.443-7.48-0.131c0,0,1.969,7.545,10.827,3.74c0,0,3.499,1.881,3.674,7.393   c0,0,1.487-0.788,2.45-2.537c0,0,1.4,5.336-0.437,9.711c0,0,2.45-0.437,3.238-1.225c0,0,0.7,4.637-2.362,8.399   c0,0,13.451,6.409,21.982-0.612c0,0-3.215-3.674-4.265-7.086C252.813,225.098,254.584,224.376,255.635,222.212z"/>
	<path style="fill:#F5F5F5;" d="M294.677,195.177c0-2.887-5.774-4.462-11.023-2.231c-5.249,2.231-10.105,0.263-11.286-1.312   c0,0-1.962,5.466,3.898,7.467c-2.57,4.15-7.638,5.066-7.638,5.066c1.51,1.247,3.478,1.575,3.478,1.575   c-3.018,3.084-8.661,6.102-8.661,6.102c1.049,1.312,3.149,2.165,3.149,2.165c-1.837,2.887-8.071,8.202-8.071,8.202   c1.049,2.165,2.822,2.887,2.822,2.887c-1.049,3.412-4.265,7.086-4.265,7.086c8.53,7.021,21.982,0.612,21.982,0.612   c-3.062-3.762-2.362-8.399-2.362-8.399c0.788,0.788,3.238,1.225,3.238,1.225c-1.837-4.374-0.437-9.711-0.437-9.711   c0.962,1.75,2.45,2.537,2.45,2.537c0.175-5.512,3.674-7.393,3.674-7.393c8.858,3.806,10.827-3.74,10.827-3.74   c-4.855,1.575-7.48,0.131-7.48,0.131s4.265-5.38,8.465-6.955c4.2-1.575,6.102,2.69,6.102,2.69   C306.487,191.766,294.677,195.177,294.677,195.177z"/>
	<path style="fill:#F5F5F5;" d="M289.329,264.883c-1.152-6.706-2.145-12.498,0.748-19.134l0.54-1.239l-11.457-13.156l-1.354,0.451   c-0.117,0.04-12.092,3.955-19.769,0.115l-0.958-0.479l-0.958,0.479c-7.641,3.829-19.648-0.075-19.772-0.117l-1.354-0.447   L223.54,244.51l0.54,1.239c2.893,6.636,1.9,12.428,0.748,19.134c-1.085,6.332-2.316,13.51-0.15,22.263   c2.351,9.502,10.268,12.879,17.25,15.863c5.383,2.297,10.466,4.467,13.34,9.022l1.81,2.87l1.81-2.87   c2.874-4.555,7.957-6.724,13.34-9.022c6.984-2.983,14.899-6.36,17.25-15.863C291.645,278.393,290.413,271.214,289.329,264.883z    M228.522,245.307l7.863-9.027c3.562,0.979,13.19,3.097,20.693-0.088c7.502,3.186,17.13,1.066,20.693,0.088l7.863,9.027   c-2.761,7.272-1.674,13.611-0.526,20.3c0.859,5.012,1.714,10.175,0.996,16.121h-58.052c-0.717-5.946,0.138-11.109,0.996-16.121   C230.196,258.919,231.283,252.578,228.522,245.307z M270.548,299.071c-4.866,2.078-9.873,4.214-13.47,8.269   c-3.597-4.055-8.604-6.191-13.47-8.269c-6.828-2.915-12.719-5.463-14.662-12.618h56.262   C283.267,293.609,277.376,296.156,270.548,299.071z"/>
	<path style="fill:#F5F5F5;" d="M228.522,245.307l7.863-9.027c3.562,0.979,13.19,3.097,20.693-0.088   c7.502,3.186,17.13,1.066,20.693,0.088l7.863,9.027c-2.761,7.272-1.674,13.611-0.526,20.3c0.859,5.012,1.714,10.175,0.996,16.121   h-58.052c-0.717-5.946,0.138-11.109,0.996-16.121C230.196,258.919,231.283,252.578,228.522,245.307z"/>
	<path style="fill:#F5F5F5;" d="M228.646,285.204c0.067,0.307,0.11,0.602,0.188,0.914c1.839,7.431,7.834,9.99,14.776,12.953   c4.866,2.078,9.873,4.214,13.47,8.269c3.597-4.055,8.604-6.191,13.47-8.269c6.942-2.964,12.937-5.523,14.776-12.953   c0.077-0.311,0.12-0.607,0.188-0.914H228.646z"/>
	<path style="fill:#F5F5F5;" d="M282.763,260.391c0-3.871-3.679-4.481-7.023-4.415c-3.345,0.067-8.237-0.544-8.361-3.144   c-0.077-1.621,2.643-1.772,4.415-1.204c1.028,0.33,7.424,1.472,9.431-2.809c0,0-2.339,0.075-4.808-0.479   c-1.902-0.427-9.707,0.545-11.112,3.555s3.125,6.014,8.342,6.014s5.933,1.044,5.892,2.316c-0.054,1.672-4.191,2.145-6.569,2.123   c-3.743-1.359-12.477-0.295-12.519-0.46c-0.05-0.202-2.015-3.575-2.015-3.575s3.576-0.252,4.029-0.907   c0.453-0.654-2.713-3.169-2.713-3.169s2.663-1.062,2.764-1.817c0.11-0.831-2.162-2.798-2.162-2.798s0.878-0.865,1.538-2.342   c0.472-1.055-3.277-1.337-3.277-1.337c0.201-0.802,0.124-1.581-0.87-1.94c-0.768-0.277-3.612,0.802-5.551,0.802   s-2.676,1.405-2.676,1.405s-3.411,0.402-3.88,0.802c-0.468,0.402,0.134,3.01,0.134,3.01c-1.739-0.267-2.541-1.806-2.541-1.806   c-0.87,3.946,3.211,4.348,3.211,4.348l0.669,2.141c0,0,0,0,1.672,0.201s0.87,1.806-1.739,1.806s-3.716,3.112-3.716,3.112   c-1.813,0.051-2.82-1.41-3.223-3.274c-0.444-2.051-0.182-5.203,0.151-7.201c0.403-2.418-0.806-3.123-0.806-3.123l-0.806,2.015   c-0.05-2.065-1.864-2.266-1.864-2.266l-0.302,2.518c-0.907-1.662-2.467-0.907-2.467-0.907s1.511,5.439,1.461,5.741   c-0.051,0.302-0.554,0.554-1.259-0.202s-1.208-0.252-1.208-0.252c0.756,5.439,3.672,4.641,3.672,4.641s0.13,1.704,1.011,5.163   c0.94,3.693,4.808,2.998,4.808,2.998c0,1.204,0.937,2.943,1.204,6.956s-3.411,6.823-3.411,6.823   c-3.345-0.067-3.01,3.211-3.01,3.211h9.23c0-8.535,3.669-9.998,3.669-9.998c5.439,0.252,10.677-2.015,10.677-2.015   c-0.806,3.274,0.605,4.633,0.605,4.633c2.216-0.302,1.108,4.079,0.453,4.079c-0.654,0-2.015,0-2.82,0s-3.123,2.518-3.123,2.518   h9.569c0,0,1.461-2.115,1.964-3.172c0.503-1.058-1.108-2.518-1.208-3.626c-0.1-1.108,1.662-1.813,1.662-1.813   c1.864,2.618,6.144,2.77,6.144,2.77l-0.1-1.964c0,0,2.216,0.756,2.72,1.41c0.503,0.654,0.403,3.677-2.266,4.029   s-2.871,2.266-2.871,2.266s6.094,0,7.303,0s2.165-2.266,2.165-3.123c0-0.856,0-6.446,0-7.656c0-1.208-1.007-1.057-3.374-1.31   c-2.15-0.228-1.944-2.581-2.83-5.312C277.956,264.276,282.763,263.596,282.763,260.391z"/>
	<path style="fill:#F5F5F5;" d="M282.197,168.871c-0.599-5.281-4.809-12.006-20.844-15.158c-0.053-1.704-1.101-3.148-2.6-3.756   v-2.943h2.625v-3.149h-2.625v-2.624h-3.149v2.625h-2.625v3.149h2.625v2.943c-1.497,0.608-2.547,2.052-2.6,3.756   c-16.035,3.153-20.245,9.877-20.844,15.158c-0.747,6.585,3.969,12.829,8.221,15.222v3.341h33.596v-3.341   C278.228,181.701,282.943,175.456,282.197,168.871z M264.609,179.036h-4.702v-19.369c3.876,1.751,6.274,4.436,6.972,8.124   C267.748,172.383,265.912,177.065,264.609,179.036z M247.477,167.788c0.698-3.688,3.095-6.372,6.972-8.122v19.369h-4.703   C248.441,177.065,246.606,172.382,247.477,167.788z M243.59,162.47c-0.772,1.547-1.265,3.094-1.516,4.515   c-0.76,4.302,0.111,8.674,1.551,12.051h-1.103c-2.356-1.622-5.383-5.612-4.936-9.549   C237.897,166.732,239.986,164.369,243.59,162.47z M271.835,179.036h-1.106c1.44-3.375,2.312-7.747,1.553-12.049   c-0.252-1.421-0.744-2.97-1.517-4.518c3.605,1.899,5.694,4.264,6.005,7.017C277.217,173.424,274.19,177.414,271.835,179.036z"/>
</g>
<rect x="17.655" y="105.929" style="fill:#C8414B;" width="476.69" height="300.14"/>
<path style="fill:#E6B432;" d="M473.655,88.275H38.345C17.167,88.275,0,105.442,0,126.62V385.38  c0,21.177,17.167,38.345,38.345,38.345h435.31c21.177,0,38.345-17.167,38.345-38.345V126.62  C512,105.442,494.833,88.275,473.655,88.275z M494.345,406.068H17.655V105.93h476.69V406.068z"/>
<circle style="fill:#41479B;" cx="328.43" cy="311.37" r="13.433"/>
<g>
	<path style="fill:#E6B432;" d="M352.003,234.242c-9.886,8.311-16.535,8.661-16.535,8.661c17.586-7.174,15.748-20.822,15.748-20.822   c-8.311,10.936-16.798,13.998-16.798,13.998c17.673-11.986,14.873-28.084,14.873-28.084c-5.774,12.774-13.079,17.76-13.079,17.76   c14.698-19.554,7.48-32.152,7.48-32.152c-5.774,18.11-10.63,23.36-10.63,23.36c11.286-30.184,1.619-38.889,1.619-38.889   c0,16.185-6.037,25.459-6.037,25.459c6.3-21.347-3.587-33.596-3.587-33.596s-0.093,17.404-3.445,26.52   c-0.804-1.222-1.28-1.06-1.28-1.06c-1.704,11.179-7.712,19.049-10.306,22.01c-0.576-2.786-2.308-3.639-2.308-3.639   s-0.312,2.735-2.766,6.769c-1.608,2.643-9.204,8.806-10.429,14.23c-0.982,4.349,3.325,7.961,4.724,8.836   c1.4,0.875,2.887,2.45,2.274,4.986c-0.612,2.537-5.162,2.274-8.399,2.187s-3.674,5.249-7.262,5.075l-0.608,3.98l-1.405,0.307   c0,0-14.698,29.289-15.949,39.255l-10.823,1.427l-10.823-1.427c-1.251-9.966-15.949-39.255-15.949-39.255l-1.405-0.307l-0.608-3.98   c-3.587,0.175-4.024-5.162-7.262-5.075c-3.238,0.087-7.787,0.35-8.399-2.187s0.875-4.113,2.274-4.986   c1.4-0.875,5.707-4.488,4.724-8.836c-1.225-5.425-8.821-11.587-10.429-14.23c-2.454-4.033-2.766-6.769-2.766-6.769   s-1.732,0.853-2.308,3.639c-2.593-2.963-8.601-10.831-10.305-22.01c0,0-0.476-0.161-1.28,1.06   c-3.352-9.117-3.445-26.52-3.445-26.52s-9.886,12.248-3.587,33.596c0,0-6.037-9.273-6.037-25.459c0,0-9.667,8.705,1.619,38.889   c0,0-4.855-5.249-10.63-23.36c0,0-7.218,12.598,7.48,32.152c0,0-7.305-4.986-13.079-17.76c0,0-2.799,16.098,14.873,28.084   c0,0-8.487-3.062-16.798-13.998c0,0-1.837,13.649,15.748,20.822c0,0-6.649-0.35-16.535-8.661c0,0-1.75,12.074,21.172,18.285   c0,0-9.362-0.175-18.898-6.562c0,0-0.263,11.898,19.335,14.261c0,0-6.474,0.962-13.736-1.662c0,0,0.263,9.623,17.323,10.848   c0,0-6.737,0.525-11.111-0.525c0,0,0.437,9.886,13.911,8.224c0,0-4.55,1.487-6.037,1.924c0,0,0.263,8.071,14.304,5.184   c0,0-2.494,1.553-5.906,2.078c0,0,2.887,6.737,14.611,3.762l-2.406,2.625c0,0,9.055,5.249,16.01-1.969l-2.494,4.462   c0,0,5.906,2.231,9.58-3.543c0,0-1.006,8.661-13.255,10.237c0,0,0.437,1.837,0.962,2.537c0,0-0.788,1.487-7.874,2.712   c0,0,1.487,2.274,3.062,2.975c0,0-3.062,2.625-4.724,3.149c0,0,2.625,1.312,4.287,1.575c0,0-3.674,3.587-8.224,3.674   c-4.55,0.087-12.685-0.438-12.685-0.438s-0.087-4.374-2.187-8.137c-2.1-3.762-2.799-4.046-2.799-4.046s0.459-3.018-0.853-4.265   s-2.034-1.837-2.034-1.837s0.7-6.037-1.225-9.799c-1.924-3.762-8.749-11.986-9.099-18.11s-0.087-8.399-0.087-8.399l-2.1,0.525   l-1.4-2.887l2.362-0.263l-0.962-4.374l-3.238,1.225l-0.438-3.762l-3.849,1.575l1.924,3.412l-3.412,0.962l2.013,4.024l2.625-1.662   l0.7,3.499c0,0-1.575,0.35-2.45,1.75c0,0,4.329,2.873,5.599,6.3c2.013,5.425,1.4,17.673,4.287,21.347   c2.887,3.674,5.162,6.211,5.162,6.211s-0.809,2.494,0.109,3.871c0.919,1.378,2.231,1.772,2.231,1.772s-0.788,5.578,1.247,9.252   c2.034,3.674,3.215,4.594,3.215,4.594s-7.415,4.527-2.165,9.777c0,0-0.7,4.768,4.287,5.906c0,0,0.263,3.762,4.55,3.325   c0,0,2.1-0.612,2.625,0.438c0.525,1.049,0,7.086,0,7.086s1.924-0.175,3.149-1.049l3.849,1.924l0.087-4.287l4.812-1.924   c0,0-2.1,0.35-6.387-3.674c0,0,0.7-0.438,1.225-3.85c0,0,3.412-2.712,4.113-4.899c0.7-2.187,5.512-6.999,11.111-8.574l0.766,3.412   c0,0,8.006-7.086,11.351-7.48l2.756,3.63c0,0,10.324-15.31,14.873-18.023c-0.35,1.225,2.187,1.4-3.456,7.699   c-5.643,6.3-2.144,11.286-2.144,11.286c-3.499,2.887-2.799,5.512-3.238,8.487c-0.437,2.975-12.074,10.674-12.074,10.674   c3.674,4.637,7.787,3.587,7.787,3.587c-2.275,1.487-1.575,6.474-1.575,6.474c3.325,0.875,6.649-0.612,6.649-0.612   c-1.138,3.149,0.612,5.336,0.612,5.336c2.1-1.312,6.912-2.1,6.912-2.1c-0.612,5.425,2.887,8.311,2.887,8.311l3.062-3.325   c0.525,6.124,5.95,9.624,5.95,9.624s5.425-3.5,5.95-9.624l3.062,3.325c0,0,3.5-2.887,2.887-8.311c0,0,4.812,0.788,6.912,2.1   c0,0,1.75-2.187,0.612-5.336c0,0,3.325,1.487,6.649,0.612c0,0,0.7-4.987-1.575-6.474c0,0,4.113,1.049,7.787-3.587   c0,0-11.636-7.699-12.074-10.674c-0.437-2.975,0.263-5.599-3.238-8.487c0,0,3.499-4.987-2.144-11.286   c-5.643-6.3-3.106-6.475-3.456-7.699c4.55,2.712,14.873,18.023,14.873,18.023l2.756-3.63c3.347,0.394,11.351,7.48,11.351,7.48   l0.766-3.412l0.145-0.158c4.174,2.248,11.068,5.288,13.854,7.418c2.975,2.275,5.425,2.45,12.598,0   c7.175-2.45,20.522-6.217,18.548-10.674c-0.108-0.243-0.23-0.406-0.348-0.596c0.313-1.151,0.442-3.16-1.665-4.916   c0,0,0.025,0.489,0.008,1.117l-6.839-2.549c-0.226-0.605-0.564-1.198-1.217-1.717c0,0,0.01,0.525-0.084,1.233l-1.754-0.654   l3.501-9.849c-0.265-0.148-0.563-0.231-0.838-0.361c0.071-0.892,0.239-2.125,0.5-3.414c0.855,0.299,1.636,0.668,2.202,1.131   l0.988-3.606c0,0-1.063-0.07-2.464-0.332c0.354-1.088,0.774-2.065,1.273-2.696l-4.637-1.4c0,0,0.12,1.405,0.038,3.158   c-0.885-0.359-1.729-0.815-2.411-1.399l-1.087,4.002c0.373,0.022,1.639,0.131,3.106,0.393c-0.265,1.175-0.732,2.217-1.401,2.999   c-0.165-0.022-0.318-0.082-0.486-0.098l-3.4,9.565l-9.22-3.436c-0.395,0.622-0.7,1.3-0.985,1.986   c0.049-0.1,0.093-0.256,0.145-0.319c0,0-3.567,1.866-3.518,4.607c-0.657,0.249-1.233,0.742-1.558,1.597   c-1.049,2.756,5.38,8.924,3.806,9.711c-1.546,0.772-9.623-5.88-10.918-6.997c1.665-0.323,4.094-1.533,4.094-1.533   c-1.663-0.525-4.724-3.149-4.724-3.149c1.575-0.7,3.062-2.975,3.062-2.975c-7.086-1.225-7.874-2.712-7.874-2.712   c0.525-0.7,0.962-2.537,0.962-2.537c-12.248-1.575-13.255-10.237-13.255-10.237c3.674,5.774,9.58,3.543,9.58,3.543l-2.494-4.462   c6.955,7.218,16.01,1.969,16.01,1.969l-2.406-2.625c11.723,2.975,14.611-3.762,14.611-3.762c-3.412-0.525-5.906-2.078-5.906-2.078   c14.042,2.887,14.304-5.184,14.304-5.184c-1.487-0.438-6.037-1.924-6.037-1.924c13.473,1.663,13.911-8.224,13.911-8.224   c-4.374,1.049-11.111,0.525-11.111,0.525c17.06-1.225,17.323-10.848,17.323-10.848c-7.262,2.625-13.736,1.662-13.736,1.662   c19.597-2.362,19.335-14.261,19.335-14.261c-9.536,6.387-18.898,6.562-18.898,6.562   C353.753,246.314,352.003,234.242,352.003,234.242z M332.121,320.789c-0.935-1.518,1.293-2.876,2.296-4.321l3.878,1.444   C336.978,319.484,333.085,322.354,332.121,320.789z M329.53,314.648c-1.258,1.949-2.133,4.135-6.005,4.239   c-4.855,0.131-5.643-4.2-6.692-6.562c-0.306-0.689-0.834-1.209-1.44-1.566c-0.002-0.424,0.02-0.889,0.057-1.359L329.53,314.648z"/>
	<path style="fill:#E6B432;" d="M255.635,222.212c0,0-6.233-5.315-8.071-8.202c0,0,2.1-0.853,3.149-2.165   c0,0-5.643-3.018-8.661-6.102c0,0,1.969-0.328,3.478-1.575c0,0-5.068-0.916-7.638-5.066c5.859-2.001,3.898-7.467,3.898-7.467   c-1.181,1.575-6.037,3.543-11.286,1.312s-11.023-0.657-11.023,2.231c0,0-11.811-3.412-8.858,8.006c0,0,1.902-4.265,6.102-2.69   c4.2,1.575,8.465,6.955,8.465,6.955s-2.625,1.443-7.48-0.131c0,0,1.969,7.545,10.827,3.74c0,0,3.499,1.881,3.674,7.393   c0,0,1.487-0.788,2.45-2.537c0,0,1.4,5.336-0.437,9.711c0,0,2.45-0.437,3.238-1.225c0,0,0.7,4.637-2.362,8.399   c0,0,13.451,6.409,21.982-0.612c0,0-3.215-3.674-4.265-7.086C252.813,225.098,254.584,224.376,255.635,222.212z"/>
	<path style="fill:#E6B432;" d="M294.677,195.177c0-2.887-5.774-4.462-11.023-2.231c-5.249,2.231-10.105,0.263-11.286-1.312   c0,0-1.962,5.466,3.898,7.467c-2.57,4.15-7.638,5.066-7.638,5.066c1.51,1.247,3.478,1.575,3.478,1.575   c-3.018,3.084-8.661,6.102-8.661,6.102c1.049,1.312,3.149,2.165,3.149,2.165c-1.837,2.887-8.071,8.202-8.071,8.202   c1.049,2.165,2.822,2.887,2.822,2.887c-1.049,3.412-4.265,7.086-4.265,7.086c8.53,7.021,21.982,0.612,21.982,0.612   c-3.062-3.762-2.362-8.399-2.362-8.399c0.788,0.788,3.238,1.225,3.238,1.225c-1.837-4.374-0.437-9.711-0.437-9.711   c0.962,1.75,2.45,2.537,2.45,2.537c0.175-5.512,3.674-7.393,3.674-7.393c8.858,3.806,10.827-3.74,10.827-3.74   c-4.855,1.575-7.48,0.131-7.48,0.131s4.265-5.38,8.465-6.955c4.2-1.575,6.102,2.69,6.102,2.69   C306.487,191.766,294.677,195.177,294.677,195.177z"/>
	<path style="fill:#E6B432;" d="M289.329,264.883c-1.152-6.706-2.145-12.498,0.748-19.134l0.54-1.239l-11.457-13.156l-1.354,0.451   c-0.117,0.04-12.092,3.955-19.769,0.115l-0.958-0.479l-0.958,0.479c-7.641,3.829-19.648-0.075-19.772-0.117l-1.354-0.447   L223.54,244.51l0.54,1.239c2.893,6.636,1.9,12.428,0.748,19.134c-1.085,6.332-2.316,13.51-0.15,22.263   c2.351,9.502,10.268,12.879,17.25,15.863c5.383,2.297,10.466,4.467,13.34,9.022l1.81,2.87l1.81-2.87   c2.874-4.555,7.957-6.724,13.34-9.022c6.984-2.983,14.899-6.36,17.25-15.863C291.645,278.393,290.413,271.214,289.329,264.883z    M228.522,245.307l7.863-9.027c3.562,0.979,13.19,3.097,20.693-0.088c7.502,3.186,17.13,1.066,20.693,0.088l7.863,9.027   c-2.761,7.272-1.674,13.611-0.526,20.3c0.859,5.012,1.714,10.175,0.996,16.121h-58.052c-0.717-5.946,0.138-11.109,0.996-16.121   C230.196,258.919,231.283,252.578,228.522,245.307z M270.548,299.071c-4.866,2.078-9.873,4.214-13.47,8.269   c-3.597-4.055-8.604-6.191-13.47-8.269c-6.828-2.915-12.719-5.463-14.662-12.618h56.262   C283.267,293.609,277.376,296.156,270.548,299.071z"/>
</g>
<path style="fill:#41479B;" d="M228.522,245.307l7.863-9.027c3.562,0.979,13.19,3.097,20.693-0.088  c7.502,3.186,17.13,1.066,20.693,0.088l7.863,9.027c-2.761,7.272-1.674,13.611-0.526,20.3c0.859,5.012,1.714,10.175,0.996,16.121  h-58.052c-0.717-5.946,0.138-11.109,0.996-16.121C230.196,258.919,231.283,252.578,228.522,245.307z"/>
<path style="fill:#73AF00;" d="M228.646,285.204c0.067,0.307,0.11,0.602,0.188,0.914c1.839,7.431,7.834,9.99,14.776,12.953  c4.866,2.078,9.873,4.214,13.47,8.269c3.597-4.055,8.604-6.191,13.47-8.269c6.942-2.964,12.937-5.523,14.776-12.953  c0.077-0.311,0.12-0.607,0.188-0.914H228.646z"/>
<g>
	<path style="fill:#E6B432;" d="M282.763,260.391c0-3.871-3.679-4.481-7.023-4.415c-3.345,0.067-8.237-0.544-8.361-3.144   c-0.077-1.621,2.643-1.772,4.415-1.204c1.028,0.33,7.424,1.472,9.431-2.809c0,0-2.339,0.075-4.808-0.479   c-1.902-0.427-9.707,0.545-11.112,3.555s3.125,6.014,8.342,6.014s5.933,1.044,5.892,2.316c-0.054,1.672-4.191,2.145-6.569,2.123   c-3.743-1.359-12.477-0.295-12.519-0.46c-0.05-0.202-2.015-3.575-2.015-3.575s3.576-0.252,4.029-0.907   c0.453-0.654-2.713-3.169-2.713-3.169s2.663-1.062,2.764-1.817c0.11-0.831-2.162-2.798-2.162-2.798s0.878-0.865,1.538-2.342   c0.472-1.055-3.277-1.337-3.277-1.337c0.201-0.802,0.124-1.581-0.87-1.94c-0.768-0.277-3.612,0.802-5.551,0.802   s-2.676,1.405-2.676,1.405s-3.411,0.402-3.88,0.802c-0.468,0.402,0.134,3.01,0.134,3.01c-1.739-0.267-2.541-1.806-2.541-1.806   c-0.87,3.946,3.211,4.348,3.211,4.348l0.669,2.141c0,0,0,0,1.672,0.201s0.87,1.806-1.739,1.806s-3.716,3.112-3.716,3.112   c-1.813,0.051-2.82-1.41-3.223-3.274c-0.444-2.051-0.182-5.203,0.151-7.201c0.403-2.418-0.806-3.123-0.806-3.123l-0.806,2.015   c-0.05-2.065-1.864-2.266-1.864-2.266l-0.302,2.518c-0.907-1.662-2.467-0.907-2.467-0.907s1.511,5.439,1.461,5.741   c-0.051,0.302-0.554,0.554-1.259-0.202s-1.208-0.252-1.208-0.252c0.756,5.439,3.672,4.641,3.672,4.641s0.13,1.704,1.011,5.163   c0.94,3.693,4.808,2.998,4.808,2.998c0,1.204,0.937,2.943,1.204,6.956s-3.411,6.823-3.411,6.823   c-3.345-0.067-3.01,3.211-3.01,3.211h9.23c0-8.535,3.669-9.998,3.669-9.998c5.439,0.252,10.677-2.015,10.677-2.015   c-0.806,3.274,0.605,4.633,0.605,4.633c2.216-0.302,1.108,4.079,0.453,4.079c-0.654,0-2.015,0-2.82,0s-3.123,2.518-3.123,2.518   h9.569c0,0,1.461-2.115,1.964-3.172c0.503-1.058-1.108-2.518-1.208-3.626c-0.1-1.108,1.662-1.813,1.662-1.813   c1.864,2.618,6.144,2.77,6.144,2.77l-0.1-1.964c0,0,2.216,0.756,2.72,1.41c0.503,0.654,0.403,3.677-2.266,4.029   s-2.871,2.266-2.871,2.266s6.094,0,7.303,0s2.165-2.266,2.165-3.123c0-0.856,0-6.446,0-7.656c0-1.208-1.007-1.057-3.374-1.31   c-2.15-0.228-1.944-2.581-2.83-5.312C277.956,264.276,282.763,263.596,282.763,260.391z"/>
	<path style="fill:#E6B432;" d="M282.197,168.871c-0.599-5.281-4.809-12.006-20.844-15.158c-0.053-1.704-1.101-3.148-2.6-3.756   v-2.943h2.625v-3.149h-2.625v-2.624h-3.149v2.625h-2.625v3.149h2.625v2.943c-1.497,0.608-2.547,2.052-2.6,3.756   c-16.035,3.153-20.245,9.877-20.844,15.158c-0.747,6.585,3.969,12.829,8.221,15.222v3.341h33.596v-3.341   C278.228,181.701,282.943,175.456,282.197,168.871z M264.609,179.036h-4.702v-19.369c3.876,1.751,6.274,4.436,6.972,8.124   C267.748,172.383,265.912,177.065,264.609,179.036z M247.477,167.788c0.698-3.688,3.095-6.372,6.972-8.122v19.369h-4.703   C248.441,177.065,246.606,172.382,247.477,167.788z M243.59,162.47c-0.772,1.547-1.265,3.094-1.516,4.515   c-0.76,4.302,0.111,8.674,1.551,12.051h-1.103c-2.356-1.622-5.383-5.612-4.936-9.549   C237.897,166.732,239.986,164.369,243.59,162.47z M271.835,179.036h-1.106c1.44-3.375,2.312-7.747,1.553-12.049   c-0.252-1.421-0.744-2.97-1.517-4.518c3.605,1.899,5.694,4.264,6.005,7.017C277.217,173.424,274.19,177.414,271.835,179.036z"/>
</g>
<g>
</g>
<g>
</g>
<g>
</g>
<g>
</g>
<g>
</g>
<g>
</g>
<g>
</g>
<g>
</g>
<g>
</g>
<g>
</g>
<g>
</g>
<g>
</g>
<g>
</g>
<g>
</g>
<g>
</g>
</svg>
