<?xml version="1.0" encoding="iso-8859-1"?>
<!-- Generator: Adobe Illustrator 19.0.0, SVG Export Plug-In . SVG Version: 6.00 Build 0)  -->
<svg xmlns="http://www.w3.org/2000/svg" xmlns:xlink="http://www.w3.org/1999/xlink" version="1.1" id="Layer_1" x="0px" y="0px" viewBox="0 0 512 512" style="enable-background:new 0 0 512 512;" xml:space="preserve">
<path style="fill:#FF4B55;" d="M473.885,88.279H38.115C17.045,88.403,0,105.517,0,126.617v129.385h512V126.617  C512,105.517,494.955,88.403,473.885,88.279z"/>
<path style="fill:#41479B;" d="M0,385.376c0,21.177,17.167,38.345,38.345,38.345h435.31c21.177,0,38.345-17.167,38.345-38.345  V256.003H0V385.376z"/>
<path style="fill:#F5F5F5;" d="M13.704,414.749l233.895-153.241c3.966-2.599,3.966-8.412,0-11.009L13.696,97.252  C5.325,104.286,0,114.828,0,126.617v258.759C0,397.17,5.329,407.714,13.704,414.749z"/>
<circle style="fill:#FFE15A;" cx="90.5" cy="221.93" r="27.719"/>
<path style="fill:#8CD7FF;" d="M124.39,247.608c0.11,3.363,0.476,6.833,0.829,10.187c1.385,13.163,2.582,24.533-10.06,28.943  c-2.988,1.042-7.06,1.626-10.996,2.19c-5.651,0.81-10.711,1.534-13.654,3.585c-2.943-2.05-8.002-2.775-13.654-3.585  c-3.936-0.564-8.009-1.149-10.996-2.19c-12.642-4.41-11.445-15.78-10.06-28.943c0.353-3.354,0.718-6.824,0.829-10.187  c0.393-11.918-2.12-23.596-3.885-30.197c2.941,1.207,7.018,2.296,12.017,2.208c2.154-0.043,4.573-0.35,7.133-0.674  c5.844-0.745,12.467-1.583,17.768,0.512l0.85,0.378l0.85-0.378c5.3-2.095,11.924-1.257,17.768-0.512  c2.56,0.324,4.979,0.631,7.133,0.674c4.999,0.088,9.077-1.002,12.017-2.208C126.509,224.012,123.997,235.691,124.39,247.608z"/>
<path style="fill:#FF4B55;" d="M129.007,247.455c-0.557-16.894,5.207-33.843,5.266-34.012l-3.633-2.551  c-0.047,0.039-5.511,4.277-14.291,4.108c-1.908-0.036-4.207-0.329-6.642-0.639c-6.113-0.774-13.009-1.651-19.199,0.486  c-6.19-2.136-13.085-1.259-19.199-0.486c-2.434,0.309-4.734,0.602-6.642,0.639c-8.78,0.169-14.243-4.07-14.291-4.108l-3.633,2.551  c0.057,0.169,5.823,17.118,5.266,34.012c-0.105,3.199-0.461,6.583-0.807,9.856c-1.389,13.206-2.964,28.175,13.133,33.791  c3.411,1.188,7.721,1.714,11.862,2.4c12.433,2.06,14.31,5.236,14.31,5.236s1.877-3.177,14.31-5.236  c4.141-0.686,8.451-1.212,11.862-2.4c16.098-5.615,14.524-20.585,13.133-33.791C129.469,254.038,129.112,250.654,129.007,247.455z   M124.39,247.608c0.11,3.363,0.476,6.833,0.829,10.187c1.385,13.163,2.582,24.533-10.06,28.943c-2.988,1.042-7.06,1.626-10.996,2.19  c-5.651,0.81-10.711,1.534-13.654,3.585c-2.943-2.05-8.002-2.775-13.654-3.585c-3.936-0.564-8.009-1.149-10.996-2.19  c-12.642-4.41-11.445-15.78-10.06-28.943c0.353-3.354,0.718-6.824,0.829-10.187c0.393-11.918-2.12-23.596-3.885-30.197  c2.941,1.207,7.018,2.296,12.017,2.208c2.154-0.043,4.573-0.35,7.133-0.674c5.844-0.745,12.467-1.583,17.768,0.512l0.85,0.378  l0.85-0.378c5.3-2.095,11.924-1.257,17.768-0.512c2.56,0.324,4.979,0.631,7.133,0.674c4.999,0.088,9.077-1.002,12.017-2.208  C126.509,224.012,123.997,235.691,124.39,247.608z"/>
<polygon style="fill:#F5F5F5;" points="114.33,276.007 114.33,265.824 116.075,265.824 116.075,262.822 111.807,262.822   111.807,252.363 116.075,252.363 96.557,238.537 96.557,233.335 99.272,233.335 90.508,227.127 81.746,233.335 84.459,233.335   84.459,238.537 64.941,252.363 69.21,252.363 69.21,262.822 64.941,262.822 64.941,265.824 66.687,265.824 66.687,276.007   64.137,276.007 64.137,280.403 116.881,280.403 116.881,276.007 "/>
<g>
	<path style="fill:#41AA5A;" d="M65.193,234.334c-0.622,1.474-0.516,3.036,0.145,4.185c1.286-0.328,2.478-1.341,3.101-2.814   c0.622-1.474,0.516-3.036-0.145-4.185C67.009,231.847,65.816,232.86,65.193,234.334z"/>
	<path style="fill:#41AA5A;" d="M68.216,234.797c0.407,1.547,1.446,2.719,2.671,3.225c0.818-1.044,1.143-2.575,0.736-4.122   s-1.446-2.719-2.671-3.225C68.135,231.719,67.809,233.249,68.216,234.797z"/>
	<path style="fill:#41AA5A;" d="M72.914,232.224c1.5,0.557,3.055,0.384,4.175-0.328c-0.383-1.27-1.448-2.418-2.947-2.975   c-1.5-0.557-3.055-0.384-4.175,0.328C70.35,230.519,71.414,231.667,72.914,232.224z"/>
	<path style="fill:#41AA5A;" d="M74.321,229.585c1.464-0.644,2.461-1.852,2.769-3.142c-1.16-0.644-2.722-0.727-4.186-0.084   c-1.464,0.644-2.46,1.852-2.769,3.142C71.293,230.146,72.856,230.229,74.321,229.585z"/>
	<path style="fill:#41AA5A;" d="M64.479,230.92c1.305-0.926,2.038-2.308,2.081-3.635c-1.265-0.398-2.813-0.165-4.118,0.76   c-1.305,0.925-2.038,2.308-2.081,3.635C61.626,232.077,63.175,231.844,64.479,230.92z"/>
	<path style="fill:#41AA5A;" d="M63.389,228.986c2.008,1.15,4.159,1.462,5.759,1c-0.412-1.614-1.769-3.311-3.777-4.461   c-2.008-1.15-4.159-1.462-5.759-1C60.024,226.14,61.382,227.837,63.389,228.986z"/>
</g>
<path style="fill:#FFE15A;" d="M71.86,231.343c0-0.78-0.621-1.408-1.395-1.437c-0.029-0.774-0.655-1.395-1.437-1.395  s-1.408,0.621-1.437,1.395c-0.774,0.029-1.395,0.655-1.395,1.437c0,0.78,0.621,1.407,1.395,1.437  c0.029,0.774,0.655,1.395,1.437,1.395s1.408-0.621,1.437-1.395C71.239,232.751,71.86,232.125,71.86,231.343z"/>
<circle style="fill:#F5F5F5;" cx="69.03" cy="231.35" r="0.85"/>
<path style="fill:#FFE15A;" d="M67.34,229.912c0-0.642-0.511-1.158-1.146-1.181c-0.024-0.636-0.54-1.146-1.181-1.146  c-0.642,0-1.158,0.511-1.181,1.146c-0.636,0.024-1.146,0.54-1.146,1.181c0,0.642,0.511,1.158,1.146,1.181  c0.024,0.636,0.54,1.146,1.181,1.146c0.642,0,1.158-0.511,1.181-1.146C66.829,231.07,67.34,230.554,67.34,229.912z"/>
<circle style="fill:#F5F5F5;" cx="65.01" cy="229.91" r="0.698"/>
<path style="fill:#FFE15A;" d="M71.676,227.91c0-0.462-0.369-0.834-0.826-0.851c-0.018-0.458-0.388-0.826-0.851-0.826  s-0.834,0.369-0.851,0.826c-0.458,0.018-0.826,0.388-0.826,0.851s0.369,0.834,0.826,0.851c0.018,0.458,0.388,0.826,0.851,0.826  s0.834-0.369,0.851-0.826C71.308,228.744,71.676,228.372,71.676,227.91z"/>
<circle style="fill:#F5F5F5;" cx="70" cy="227.91" r="0.503"/>
<path style="fill:#FFE15A;" d="M68.494,226.462c0-0.462-0.369-0.834-0.826-0.851c-0.018-0.458-0.388-0.826-0.851-0.826  c-0.462,0-0.834,0.369-0.851,0.826c-0.458,0.018-0.826,0.388-0.826,0.851c0,0.462,0.369,0.834,0.826,0.851  c0.018,0.458,0.388,0.826,0.851,0.826c0.462,0,0.834-0.369,0.851-0.826C68.126,227.296,68.494,226.925,68.494,226.462z"/>
<g>
	<circle style="fill:#F5F5F5;" cx="66.814" cy="226.46" r="0.503"/>
	<path style="fill:#F5F5F5;" d="M105.406,239.159h16.021c-1.026-2.349-3.039-4.167-5.535-4.907c0.182-1.166,0.294-2.461,0.294-3.85   c0-4.839-1.239-8.761-2.769-8.761s-2.769,3.923-2.769,8.761c0,1.388,0.111,2.684,0.294,3.85   C108.445,234.993,106.431,236.809,105.406,239.159z"/>
</g>
<path style="fill:#FFE15A;" d="M90.508,317.796c-33.754,0-61.216-27.46-61.216-61.216h11.55c0,27.386,22.28,49.665,49.665,49.665  s49.665-22.279,49.665-49.665h11.552C151.724,290.335,124.264,317.796,90.508,317.796z"/>
<path style="fill:#C87878;" d="M113.196,201.882h-9.983c1.002,0,1.815-0.812,1.815-1.815s-0.812-1.815-1.815-1.815H90.508  c-1.002,0-1.815,0.812-1.815,1.815s0.812,1.815,1.815,1.815H67.821c-1.504,0-2.722,1.219-2.722,2.722s1.219,2.722,2.722,2.722h8.167  c-1.002,0-1.814,0.812-1.814,1.815c0,1.002,0.812,1.815,1.815,1.815h16.335c1.002,0,1.815-0.812,1.815-1.815  c0-1.002-0.812-1.815-1.814-1.815h20.872c1.504,0,2.722-1.219,2.722-2.722S114.7,201.882,113.196,201.882z"/>
<g>
</g>
<g>
</g>
<g>
</g>
<g>
</g>
<g>
</g>
<g>
</g>
<g>
</g>
<g>
</g>
<g>
</g>
<g>
</g>
<g>
</g>
<g>
</g>
<g>
</g>
<g>
</g>
<g>
</g>
</svg>
