<?xml version="1.0" encoding="iso-8859-1"?>
<!-- Generator: Adobe Illustrator 19.0.0, SVG Export Plug-In . SVG Version: 6.00 Build 0)  -->
<svg xmlns="http://www.w3.org/2000/svg" xmlns:xlink="http://www.w3.org/1999/xlink" version="1.1" id="Layer_1" x="0px" y="0px" viewBox="0 0 512 512" style="enable-background:new 0 0 512 512;" xml:space="preserve">
<path style="fill:#41479B;" d="M473.655,423.724H38.345C17.167,423.724,0,406.557,0,385.379V126.621  c0-21.177,17.167-38.345,38.345-38.345h435.31c21.177,0,38.345,17.167,38.345,38.345V385.38  C512,406.557,494.833,423.724,473.655,423.724z"/>
<path style="fill:#F5F5F5;" d="M16.513,416.896L512,211.868v-61.793L9.117,410.187C11.278,412.73,13.764,414.988,16.513,416.896z"/>
<path style="fill:#FF9B55;" d="M497.983,96.982L4.451,403.311c1.306,2.464,2.874,4.767,4.665,6.874L512,150.074V126.62  C512,114.679,506.54,104.015,497.983,96.982z"/>
<polygon style="fill:#F5F5F5;" points="145.903,210.175 203.034,203.04 145.903,195.906 174.858,178.146 138.831,186.955   160.757,157.042 130.844,178.967 139.652,142.941 121.894,171.896 114.759,114.764 107.624,171.896 89.865,142.941 98.674,178.967   68.76,157.042 90.686,186.955 54.659,178.146 83.614,195.906 26.483,203.04 83.614,210.175 54.659,227.934 90.686,219.125   68.76,249.038 98.674,227.113 89.865,263.139 107.624,234.185 114.759,291.316 121.894,234.185 139.652,263.139 130.844,227.113   160.757,249.038 138.831,219.125 174.858,227.934 "/>
<g>
</g>
<g>
</g>
<g>
</g>
<g>
</g>
<g>
</g>
<g>
</g>
<g>
</g>
<g>
</g>
<g>
</g>
<g>
</g>
<g>
</g>
<g>
</g>
<g>
</g>
<g>
</g>
<g>
</g>
</svg>
