<?xml version="1.0" encoding="iso-8859-1"?>
<!-- Generator: Adobe Illustrator 19.0.0, SVG Export Plug-In . SVG Version: 6.00 Build 0)  -->
<svg xmlns="http://www.w3.org/2000/svg" xmlns:xlink="http://www.w3.org/1999/xlink" version="1.1" id="Layer_1" x="0px" y="0px" viewBox="0 0 512 512" style="enable-background:new 0 0 512 512;" xml:space="preserve">
<path style="fill:#5AA587;" d="M473.655,423.724H38.345C17.167,423.724,0,406.557,0,385.379V126.621  c0-21.177,17.167-38.345,38.345-38.345h435.31c21.177,0,38.345,17.167,38.345,38.345V385.38  C512,406.557,494.833,423.724,473.655,423.724z"/>
<g>
	<path style="fill:#F5F5F5;" d="M277.124,301.607c9.897,2.366,20.461,2.55,31.026-0.073c18.612-4.621,33.334-16.756,41.889-32.337   c-14.85-9.77-33.538-13.609-52.15-8.988c-10.006,2.485-18.784,7.249-26.183,13.45c0.07-0.093,0.128-0.184,0.198-0.277   c27.407-24.715,58.004-16.736,58.004-16.736l7.239-6.185c0,0-30.862-10.663-58.506,12.204c17.109-33.124-1.353-61.538-1.353-61.538   l-4.258,8.515c0,0,15.353,28.154-2.609,61.003c-0.021,0.024-0.042,0.05-0.063,0.074c4.377-8.792,6.93-18.648,6.93-29.143   c0-19.177-8.229-36.39-21.29-48.448c-13.06,12.058-21.29,29.271-21.29,48.448c0,10.496,2.552,20.351,6.93,29.143   c-0.021-0.024-0.042-0.051-0.063-0.074c-17.962-32.849-2.609-61.003-2.609-61.003l-4.258-8.515c0,0-18.461,28.414-1.353,61.538   c-27.644-22.866-58.506-12.204-58.506-12.204l7.239,6.185c0,0,30.596-7.98,58.004,16.736c0.07,0.093,0.128,0.184,0.198,0.277   c-7.398-6.201-16.177-10.965-26.183-13.45c-18.612-4.621-37.3-0.782-52.15,8.988c8.555,15.581,23.277,27.715,41.89,32.337   c10.564,2.623,21.129,2.439,31.026,0.073c-36.875,10.309-60.993-11.901-60.993-11.901l-9.291,2.08c0,0,37.269,39.964,91.409,0.76   c54.14,39.203,91.409-0.76,91.409-0.76l-9.291-2.08C338.118,289.706,313.999,311.917,277.124,301.607z"/>
	<path style="fill:#F5F5F5;" d="M202.194,347.609c3.848,2.389,7.871,4.518,12.036,6.387h83.539   c4.167-1.869,8.189-3.998,12.036-6.387H202.194z"/>
	<path style="fill:#F5F5F5;" d="M221.715,357.015c10.719,3.818,22.255,5.912,34.285,5.912s23.566-2.095,34.285-5.912H221.715z"/>
	<path style="fill:#F5F5F5;" d="M179.542,328.508c1.29,1.453,2.609,2.88,3.978,4.258h144.96c1.369-1.378,2.688-2.804,3.978-4.258   H179.542z"/>
	<path style="fill:#F5F5F5;" d="M188.886,337.763c2.133,1.86,4.334,3.642,6.618,5.322h120.992c2.283-1.681,4.486-3.463,6.618-5.322   H188.886z"/>
	<path style="fill:#F5F5F5;" d="M298.579,317.155c-23.847,0-40.163-15.938-40.326-16.1l-2.26-2.246l-2.252,2.25   c-0.162,0.162-16.373,16.096-40.321,16.096h-42.617c1.454,2.193,3,4.318,4.616,6.387h38.003c21.422,0,36.975-11.206,42.579-15.929   c5.603,4.724,21.156,15.929,42.579,15.929h38.003c1.615-2.069,3.161-4.194,4.616-6.387H298.579z"/>
</g>
<g>
	<path style="fill:#FFE15A;" d="M254.882,149.878l-3.736,11.203l-11.809,0.092c-1.132,0.009-1.602,1.454-0.691,2.126l9.501,7.016   l-3.562,11.26c-0.342,1.08,0.888,1.973,1.81,1.314l9.608-6.868l9.608,6.867c0.921,0.659,2.151-0.235,1.81-1.314l-3.562-11.26   l9.501-7.016c0.911-0.673,0.441-2.118-0.691-2.126l-11.809-0.092l-3.736-11.203C256.76,148.803,255.24,148.803,254.882,149.878z"/>
	<path style="fill:#FFE15A;" d="M198.994,172.809l2.163,7.854l-6.731,4.589c-0.646,0.44-0.36,1.449,0.422,1.484l8.139,0.371   l2.284,7.82c0.22,0.75,1.267,0.789,1.542,0.058l2.867-7.626l8.143,0.244c0.781,0.023,1.142-0.961,0.532-1.448l-6.367-5.084   l2.749-7.669c0.264-0.736-0.561-1.383-1.213-0.953l-6.802,4.484l-6.444-4.984C199.657,171.471,198.786,172.055,198.994,172.809z"/>
	<path style="fill:#FFE15A;" d="M166.41,212.37l5.891,5.628l-3.417,7.395c-0.328,0.71,0.436,1.428,1.123,1.057l7.172-3.863   l5.977,5.536c0.573,0.531,1.492,0.026,1.353-0.742l-1.458-8.015l7.112-3.975c0.682-0.381,0.487-1.411-0.288-1.515l-8.074-1.09   l-1.582-7.992c-0.151-0.767-1.192-0.898-1.53-0.194l-3.532,7.341l-8.089-0.966C166.292,210.882,165.845,211.83,166.41,212.37z"/>
	<path style="fill:#FFE15A;" d="M314.859,172.809l-2.163,7.854l6.731,4.589c0.646,0.44,0.36,1.449-0.422,1.484l-8.139,0.371   l-2.284,7.82c-0.22,0.75-1.267,0.789-1.542,0.058l-2.867-7.626l-8.143,0.244c-0.781,0.023-1.142-0.961-0.532-1.448l6.367-5.084   l-2.749-7.669c-0.264-0.736,0.561-1.383,1.213-0.953l6.802,4.484l6.444-4.984C314.196,171.471,315.066,172.055,314.859,172.809z"/>
	<path style="fill:#FFE15A;" d="M347.443,212.37l-5.891,5.628l3.417,7.395c0.328,0.71-0.436,1.428-1.123,1.057l-7.172-3.863   l-5.977,5.536c-0.573,0.531-1.492,0.026-1.353-0.742l1.458-8.015l-7.112-3.975c-0.682-0.381-0.487-1.411,0.288-1.515l8.074-1.09   l1.582-7.992c0.151-0.767,1.192-0.898,1.53-0.194l3.532,7.341l8.089-0.966C347.561,210.882,348.008,211.83,347.443,212.37z"/>
</g>
<g>
</g>
<g>
</g>
<g>
</g>
<g>
</g>
<g>
</g>
<g>
</g>
<g>
</g>
<g>
</g>
<g>
</g>
<g>
</g>
<g>
</g>
<g>
</g>
<g>
</g>
<g>
</g>
<g>
</g>
</svg>
