<?xml version="1.0" encoding="iso-8859-1"?>
<!-- Generator: Adobe Illustrator 19.0.0, SVG Export Plug-In . SVG Version: 6.00 Build 0)  -->
<svg xmlns="http://www.w3.org/2000/svg" xmlns:xlink="http://www.w3.org/1999/xlink" version="1.1" id="Layer_1" x="0px" y="0px" viewBox="0 0 512 512" style="enable-background:new 0 0 512 512;" xml:space="preserve">
<path style="fill:#41479B;" d="M473.654,423.724H38.345C17.167,423.724,0,406.556,0,385.379V126.621  c0-21.177,17.167-38.345,38.345-38.345h435.309c21.177,0,38.345,17.167,38.345,38.345v258.758  C511.999,406.556,494.831,423.724,473.654,423.724z"/>
<g>
	<polygon style="fill:#F5F5F5;" points="512,238.345 273.655,238.345 273.655,88.276 238.344,88.276 238.344,238.345 0,238.345    0,273.655 238.344,273.655 238.344,423.724 273.655,423.724 273.655,273.655 512,273.655  "/>
	<path style="fill:#F5F5F5;" d="M172.41,203.12c-0.253-1.502-0.823-3.281-1.543-4.426c-1.431-1.978-3.087-3.363-4.691-4.225   c-12.639-5.806-23.22-4.668-33.317-4.708c-9.973,0.257-19.303,1.977-26.877,3.635c-2.056,0.414-3.837,0.723-5.742,1.081   c0.942-1.946,4.395-4.381,9.045-5.857c11.336-3.872,24.276-5.427,36.994-7.905c3.212-0.629,6.468-1.366,9.802-2.314   c1.795-0.615,3.306-1.095,5.42-2.077c1.356-0.767,2.691-1.732,3.833-2.763c1.216-1.094,1.123-1.4,1.749-2.138   c2.888-5.497,0.154-9.411-2.138-11.455c-2.209-1.813-4.07-2.521-5.841-3.25c-3.438-1.206-6.623-1.962-9.697-2.603   c-5.923-1.185-11.746-2.35-17.447-3.491c-2.708-0.627-5.327-1.323-7.625-2.167c-2.029-0.541-4.896-2.546-4.47-1.999   c-5.239-0.452,7.175-6.295,16.126-9.559c2.379-1.05,4.744-2.11,7.167-3.606c2.377-1.571,4.826-2.904,7.467-7.304   c0.519-0.913,0.497-1.135,0.769-1.732l0.302-0.759c0.655-2.339,0.295-1.708,0.447-2.722c0.309-2.454-0.654-5.077-2.178-7.262   c-3.111-3.362-6.205-4.324-8.503-4.968c-9.504-2.252-16.342-1.636-22.283-1.613c-11.266,0.53-17.705,0.832-17.705,0.832   l-0.435,0.02c-0.013,0.001-0.025,0.001-0.039,0.002c-3.601,0.211-6.348,3.3-6.137,6.9c0.02,0.352,0.185,0.647,0.258,0.98   c-5.102,1.406-13.175,2.844-21.162,0.961c-1.216-0.28-2.339,0.451-2.62,1.615c-0.28,1.174,0.451,2.347,1.615,2.62   c3.138,0.74,6.251,1.03,9.219,1.03c6.305,0,11.691-1.283,15.369-2.41c1.186,0.881,2.628,1.436,4.218,1.343   c0,0,6.506-0.381,17.892-1.047c5.331-0.192,12.495-0.473,18.407,0.916c0.489,0.076,0.751,0.228,1.075,0.365   c0.046-0.524-0.954,0.952-2.517,1.711c-1.517,0.979-3.491,1.917-5.545,2.849c-4.2,1.903-9.006,3.539-14.334,6.406   c-2.572,1.518-5.752,3.06-8.394,7.571c-1.235,2.09-1.821,5.469-1.172,7.851l0.192,0.971l0.109,0.48l0.058,0.238   c-0.409-0.849,0.622,1.434,0.541,1.228l0.533,0.888c0.473,0.676,0.399,0.956,1.535,2.136c0.911,0.986,1.94,1.93,3.001,2.754   c0.93,0.64,1.624,0.942,2.461,1.416c1.649,0.972,3.146,1.422,4.708,2.035c3.08,1.085,6.079,1.822,9.074,2.484   c5.781,1.088,11.688,2.199,17.695,3.33c2.519,0.487,4.876,1.101,7.055,1.772c-2.791,1.006-6.697,2.02-10.066,2.669   c-12.255,2.586-25.25,4.15-38.467,8.792c-3.308,1.259-6.697,2.764-10.02,5.309c-3.129,2.371-6.418,7.1-5.997,12.295   c-1.121,0.157-2.409,0.386-3.445,0.501c-11.212,1.484-15.924-0.49-15.62-0.547c-1.464-0.864-3.351-0.38-4.215,1.085   c-0.865,1.463-0.38,3.351,1.084,4.215c0,0,1.922,1.305,5.353,2.057c3.414,0.772,8.217,1.126,14.067,0.665   c1.611-0.11,3.498-0.351,5.27-0.538c1.225,1.766,2.652,3.714,3.981,4.658c3.089,2.591,6.36,4.248,9.62,5.699   c13.123,5.076,26.239,6.142,39.027,5.639c6.42-0.482,12.738-1.231,19.226-4.126c3.025-1.411,7.177-3.633,8.459-10.06   C172.395,204.67,172.536,204.295,172.41,203.12z M162.972,205.144c-0.167-0.95-0.69,1.205-3.14,1.799   c-4.217,1.853-9.973,2.701-15.631,2.999c-11.41,0.375-23.87-0.957-34.554-5.29c-1.679-0.776-3.049-1.753-4.49-2.687   c0.792-0.121,1.479-0.205,2.291-0.333c7.939-1.265,16.214-2.754,25.719-2.911c9.053-0.166,20.581-0.041,28.236,3.767   c0.889,0.479,1.278,0.978,1.572,1.279c0,0-0.254-0.305,0.029-0.499C163.13,203.462,162.972,204.546,162.972,205.144z"/>
	<path style="fill:#F5F5F5;" d="M446.066,203.12c-0.253-1.502-0.823-3.281-1.543-4.426c-1.431-1.978-3.087-3.363-4.691-4.225   c-12.639-5.806-23.22-4.668-33.317-4.708c-9.973,0.257-19.303,1.977-26.877,3.635c-2.056,0.414-3.837,0.723-5.742,1.081   c0.942-1.946,4.395-4.381,9.045-5.857c11.336-3.872,24.276-5.427,36.994-7.905c3.212-0.629,6.468-1.366,9.802-2.314   c1.795-0.615,3.306-1.095,5.42-2.077c1.356-0.767,2.691-1.732,3.833-2.763c1.216-1.094,1.123-1.4,1.749-2.138   c2.888-5.497,0.155-9.411-2.138-11.455c-2.209-1.813-4.069-2.521-5.841-3.25c-3.438-1.206-6.623-1.962-9.697-2.603   c-5.923-1.185-11.746-2.35-17.447-3.491c-2.708-0.627-5.327-1.323-7.625-2.167c-2.029-0.541-4.896-2.546-4.47-1.999   c-5.239-0.452,7.175-6.295,16.126-9.559c2.379-1.05,4.744-2.11,7.167-3.606c2.377-1.571,4.826-2.904,7.467-7.304   c0.519-0.913,0.497-1.135,0.769-1.732l0.302-0.759c0.655-2.339,0.295-1.708,0.447-2.722c0.309-2.454-0.654-5.077-2.178-7.262   c-3.111-3.362-6.205-4.324-8.503-4.968c-9.504-2.252-16.342-1.636-22.283-1.613c-11.266,0.53-17.705,0.832-17.705,0.832   l-0.435,0.02c-0.013,0.001-0.025,0.001-0.039,0.002c-3.601,0.211-6.348,3.3-6.137,6.9c0.02,0.352,0.185,0.647,0.258,0.98   c-5.102,1.406-13.175,2.844-21.162,0.961c-1.216-0.28-2.339,0.451-2.62,1.615c-0.28,1.174,0.451,2.347,1.615,2.62   c3.138,0.74,6.251,1.03,9.219,1.03c6.305,0,11.691-1.283,15.369-2.41c1.186,0.881,2.628,1.436,4.218,1.343   c0,0,6.506-0.381,17.892-1.047c5.331-0.192,12.495-0.473,18.407,0.916c0.489,0.076,0.751,0.228,1.075,0.365   c0.046-0.524-0.954,0.952-2.517,1.711c-1.517,0.979-3.491,1.917-5.545,2.849c-4.2,1.903-9.006,3.539-14.334,6.406   c-2.572,1.518-5.752,3.06-8.394,7.571c-1.235,2.09-1.821,5.469-1.172,7.851l0.192,0.971l0.109,0.48l0.059,0.238   c-0.409-0.849,0.622,1.434,0.541,1.228l0.533,0.888c0.473,0.676,0.399,0.956,1.535,2.136c0.911,0.986,1.94,1.93,3.001,2.754   c0.93,0.64,1.624,0.942,2.461,1.416c1.649,0.972,3.146,1.422,4.708,2.035c3.08,1.085,6.079,1.822,9.074,2.484   c5.781,1.088,11.688,2.199,17.695,3.33c2.519,0.487,4.876,1.101,7.055,1.772c-2.791,1.006-6.697,2.02-10.066,2.669   c-12.255,2.586-25.25,4.15-38.467,8.792c-3.308,1.259-6.697,2.764-10.02,5.309c-3.129,2.371-6.418,7.1-5.997,12.295   c-1.121,0.157-2.409,0.386-3.445,0.501c-11.212,1.484-15.924-0.49-15.62-0.547c-1.464-0.864-3.351-0.38-4.215,1.085   c-0.865,1.463-0.38,3.351,1.084,4.215c0,0,1.922,1.305,5.353,2.057c3.414,0.772,8.217,1.126,14.067,0.665   c1.611-0.11,3.498-0.351,5.27-0.538c1.225,1.766,2.652,3.714,3.981,4.658c3.089,2.591,6.36,4.248,9.62,5.699   c13.123,5.076,26.24,6.142,39.027,5.639c6.42-0.482,12.738-1.231,19.226-4.126c3.025-1.411,7.177-3.633,8.459-10.06   C446.049,204.67,446.19,204.295,446.066,203.12z M436.627,205.144c-0.167-0.95-0.69,1.205-3.14,1.799   c-4.217,1.853-9.973,2.701-15.631,2.999c-11.41,0.375-23.87-0.957-34.554-5.29c-1.679-0.776-3.049-1.753-4.49-2.687   c0.792-0.121,1.479-0.205,2.291-0.333c7.939-1.265,16.214-2.754,25.719-2.911c9.053-0.166,20.581-0.041,28.236,3.767   c0.889,0.479,1.278,0.978,1.572,1.279c0,0-0.254-0.305,0.029-0.499C436.785,203.462,436.628,204.546,436.627,205.144z"/>
	<path style="fill:#F5F5F5;" d="M172.41,388.498c-0.253-1.502-0.823-3.281-1.543-4.426c-1.431-1.978-3.087-3.363-4.691-4.225   c-12.639-5.806-23.22-4.668-33.317-4.708c-9.973,0.257-19.303,1.977-26.877,3.635c-2.056,0.414-3.837,0.723-5.742,1.081   c0.942-1.946,4.395-4.381,9.045-5.857c11.336-3.872,24.276-5.427,36.994-7.905c3.212-0.629,6.468-1.366,9.802-2.314   c1.795-0.615,3.306-1.095,5.42-2.077c1.356-0.767,2.691-1.732,3.833-2.763c1.216-1.094,1.123-1.4,1.749-2.138   c2.888-5.497,0.154-9.411-2.138-11.455c-2.209-1.813-4.07-2.521-5.841-3.25c-3.438-1.206-6.623-1.962-9.697-2.603   c-5.923-1.185-11.746-2.35-17.447-3.491c-2.708-0.627-5.327-1.323-7.625-2.167c-2.029-0.541-4.896-2.546-4.47-1.999   c-5.239-0.452,7.175-6.295,16.126-9.559c2.379-1.05,4.744-2.111,7.167-3.606c2.377-1.571,4.826-2.904,7.467-7.304   c0.519-0.913,0.497-1.135,0.769-1.732l0.302-0.759c0.655-2.339,0.295-1.708,0.447-2.722c0.309-2.454-0.654-5.077-2.178-7.262   c-3.111-3.362-6.205-4.324-8.503-4.968c-9.504-2.252-16.342-1.636-22.283-1.613c-11.266,0.53-17.705,0.832-17.705,0.832   l-0.435,0.02c-0.013,0.001-0.025,0.001-0.039,0.002c-3.601,0.211-6.348,3.3-6.137,6.9c0.02,0.352,0.185,0.647,0.258,0.98   c-5.102,1.406-13.175,2.844-21.162,0.961c-1.216-0.28-2.339,0.451-2.62,1.615c-0.28,1.174,0.451,2.347,1.615,2.62   c3.138,0.74,6.251,1.03,9.219,1.03c6.305,0,11.691-1.283,15.369-2.41c1.186,0.881,2.628,1.436,4.218,1.343   c0,0,6.506-0.381,17.892-1.047c5.331-0.192,12.495-0.473,18.407,0.916c0.489,0.076,0.751,0.228,1.075,0.365   c0.046-0.524-0.954,0.952-2.517,1.711c-1.517,0.979-3.491,1.917-5.545,2.849c-4.2,1.903-9.006,3.539-14.334,6.405   c-2.572,1.518-5.752,3.06-8.394,7.571c-1.235,2.09-1.821,5.469-1.172,7.851l0.192,0.971l0.109,0.48l0.058,0.238   c-0.409-0.849,0.622,1.434,0.541,1.228l0.533,0.888c0.473,0.676,0.399,0.956,1.535,2.136c0.911,0.987,1.94,1.93,3.001,2.754   c0.93,0.64,1.624,0.942,2.461,1.416c1.649,0.972,3.146,1.422,4.708,2.035c3.08,1.085,6.079,1.822,9.074,2.484   c5.781,1.088,11.688,2.199,17.695,3.33c2.519,0.487,4.876,1.101,7.055,1.772c-2.791,1.006-6.697,2.02-10.066,2.669   c-12.255,2.586-25.25,4.15-38.467,8.792c-3.308,1.259-6.697,2.764-10.02,5.309c-3.129,2.371-6.418,7.1-5.997,12.295   c-1.121,0.157-2.409,0.386-3.445,0.501c-11.212,1.484-15.924-0.49-15.62-0.547c-1.464-0.864-3.351-0.38-4.215,1.085   c-0.865,1.463-0.38,3.351,1.084,4.215c0,0,1.922,1.305,5.353,2.057c3.414,0.772,8.217,1.125,14.067,0.665   c1.611-0.11,3.498-0.351,5.27-0.538c1.225,1.766,2.652,3.714,3.981,4.658c3.089,2.591,6.36,4.248,9.62,5.699   c13.123,5.076,26.239,6.142,39.027,5.639c6.42-0.482,12.738-1.231,19.226-4.126c3.025-1.411,7.177-3.633,8.459-10.06   C172.395,390.049,172.536,389.674,172.41,388.498z M162.972,390.523c-0.167-0.95-0.69,1.205-3.14,1.799   c-4.217,1.853-9.973,2.701-15.631,2.999c-11.41,0.375-23.87-0.957-34.554-5.29c-1.679-0.776-3.049-1.753-4.49-2.687   c0.792-0.121,1.479-0.205,2.291-0.333c7.939-1.265,16.214-2.754,25.719-2.911c9.053-0.165,20.581-0.041,28.236,3.767   c0.889,0.479,1.278,0.978,1.572,1.279c0,0-0.254-0.305,0.029-0.499C163.13,388.841,162.972,389.925,162.972,390.523z"/>
	<path style="fill:#F5F5F5;" d="M446.066,388.498c-0.253-1.502-0.823-3.281-1.543-4.426c-1.431-1.978-3.087-3.363-4.691-4.225   c-12.639-5.806-23.22-4.668-33.317-4.708c-9.973,0.257-19.303,1.977-26.877,3.635c-2.056,0.414-3.837,0.723-5.742,1.081   c0.942-1.946,4.395-4.381,9.045-5.857c11.336-3.872,24.276-5.427,36.994-7.905c3.212-0.629,6.468-1.366,9.802-2.314   c1.795-0.615,3.306-1.095,5.42-2.077c1.356-0.767,2.691-1.732,3.833-2.763c1.216-1.094,1.123-1.4,1.749-2.138   c2.888-5.497,0.155-9.411-2.138-11.455c-2.209-1.813-4.069-2.521-5.841-3.25c-3.438-1.206-6.623-1.962-9.697-2.603   c-5.923-1.185-11.746-2.35-17.447-3.491c-2.708-0.627-5.327-1.323-7.625-2.167c-2.029-0.541-4.896-2.546-4.47-1.999   c-5.239-0.452,7.175-6.295,16.126-9.559c2.379-1.05,4.744-2.111,7.167-3.606c2.377-1.571,4.826-2.904,7.467-7.304   c0.519-0.913,0.497-1.135,0.769-1.732l0.302-0.759c0.655-2.339,0.295-1.708,0.447-2.722c0.309-2.454-0.654-5.077-2.178-7.262   c-3.111-3.362-6.205-4.324-8.503-4.968c-9.504-2.252-16.342-1.636-22.283-1.613c-11.266,0.53-17.705,0.832-17.705,0.832   l-0.435,0.02c-0.013,0.001-0.025,0.001-0.039,0.002c-3.601,0.211-6.348,3.3-6.137,6.9c0.02,0.352,0.185,0.647,0.258,0.98   c-5.102,1.406-13.175,2.844-21.162,0.961c-1.216-0.28-2.339,0.451-2.62,1.615c-0.28,1.174,0.451,2.347,1.615,2.62   c3.138,0.74,6.251,1.03,9.219,1.03c6.305,0,11.691-1.283,15.369-2.41c1.186,0.881,2.628,1.436,4.218,1.343   c0,0,6.506-0.381,17.892-1.047c5.331-0.192,12.495-0.473,18.407,0.916c0.489,0.076,0.751,0.228,1.075,0.365   c0.046-0.524-0.954,0.952-2.517,1.711c-1.517,0.979-3.491,1.917-5.545,2.849c-4.2,1.903-9.006,3.539-14.334,6.405   c-2.572,1.518-5.752,3.06-8.394,7.571c-1.235,2.09-1.821,5.469-1.172,7.851l0.192,0.971l0.109,0.48l0.059,0.238   c-0.409-0.849,0.622,1.434,0.541,1.228l0.533,0.888c0.473,0.676,0.399,0.956,1.535,2.136c0.911,0.987,1.94,1.93,3.001,2.754   c0.93,0.64,1.624,0.942,2.461,1.416c1.649,0.972,3.146,1.422,4.708,2.035c3.08,1.085,6.079,1.822,9.074,2.484   c5.781,1.088,11.688,2.199,17.695,3.33c2.519,0.487,4.876,1.101,7.055,1.772c-2.791,1.006-6.697,2.02-10.066,2.669   c-12.255,2.586-25.25,4.15-38.467,8.792c-3.308,1.259-6.697,2.764-10.02,5.309c-3.129,2.371-6.418,7.1-5.997,12.295   c-1.121,0.157-2.409,0.386-3.445,0.501c-11.212,1.484-15.924-0.49-15.62-0.547c-1.464-0.864-3.351-0.38-4.215,1.085   c-0.865,1.463-0.38,3.351,1.084,4.215c0,0,1.922,1.305,5.353,2.057c3.414,0.772,8.217,1.125,14.067,0.665   c1.611-0.11,3.498-0.351,5.27-0.538c1.225,1.766,2.652,3.714,3.981,4.658c3.089,2.591,6.36,4.248,9.62,5.699   c13.123,5.076,26.24,6.142,39.027,5.639c6.42-0.482,12.738-1.231,19.226-4.126c3.025-1.411,7.177-3.633,8.459-10.06   C446.049,390.049,446.19,389.674,446.066,388.498z M436.627,390.523c-0.167-0.95-0.69,1.205-3.14,1.799   c-4.217,1.853-9.973,2.701-15.631,2.999c-11.41,0.375-23.87-0.957-34.554-5.29c-1.679-0.776-3.049-1.753-4.49-2.687   c0.792-0.121,1.479-0.205,2.291-0.333c7.939-1.265,16.214-2.754,25.719-2.911c9.053-0.165,20.581-0.041,28.236,3.767   c0.889,0.479,1.278,0.978,1.572,1.279c0,0-0.254-0.305,0.029-0.499C436.785,388.841,436.628,389.925,436.627,390.523z"/>
</g>
<g>
</g>
<g>
</g>
<g>
</g>
<g>
</g>
<g>
</g>
<g>
</g>
<g>
</g>
<g>
</g>
<g>
</g>
<g>
</g>
<g>
</g>
<g>
</g>
<g>
</g>
<g>
</g>
<g>
</g>
</svg>
