<?xml version="1.0" encoding="iso-8859-1"?>
<!-- Generator: Adobe Illustrator 19.0.0, SVG Export Plug-In . SVG Version: 6.00 Build 0)  -->
<svg xmlns="http://www.w3.org/2000/svg" xmlns:xlink="http://www.w3.org/1999/xlink" version="1.1" id="Layer_1" x="0px" y="0px" viewBox="0 0 512 512" style="enable-background:new 0 0 512 512;" xml:space="preserve">
<path style="fill:#73AF00;" d="M473.655,423.724H38.345C17.167,423.724,0,406.557,0,385.379V126.621  c0-21.177,17.167-38.345,38.345-38.345h435.31c21.177,0,38.345,17.167,38.345,38.345V385.38  C512,406.557,494.833,423.724,473.655,423.724z"/>
<g>
	<path style="fill:#FFE15A;" d="M351.049,224.986c-0.236-1.508-2.423-1.433-2.595,0.084c-5.266,46.402-44.626,82.453-92.452,82.453   c-47.811,0-87.185-36.051-92.452-82.451c-0.172-1.517-2.359-1.593-2.595-0.084c-0.732,4.668-1.132,9.441-1.132,14.315   c0,53.067,43.07,96.151,96.18,96.151c53.128,0,96.18-43.083,96.18-96.151C352.18,234.429,351.779,229.654,351.049,224.986z"/>
	<path style="fill:#FFE15A;" d="M254.81,185.272l-6.955,20.854l-21.983,0.17c-1.205,0.009-1.705,1.547-0.735,2.263l17.685,13.059   l-6.631,20.96c-0.363,1.149,0.945,2.1,1.926,1.399L256,231.196l17.885,12.783c0.981,0.701,2.289-0.249,1.926-1.399l-6.631-20.96   l17.685-13.059c0.97-0.716,0.47-2.254-0.735-2.263l-21.983-0.17l-6.955-20.854C256.809,184.129,255.191,184.129,254.81,185.272z"/>
</g>
<g>
</g>
<g>
</g>
<g>
</g>
<g>
</g>
<g>
</g>
<g>
</g>
<g>
</g>
<g>
</g>
<g>
</g>
<g>
</g>
<g>
</g>
<g>
</g>
<g>
</g>
<g>
</g>
<g>
</g>
</svg>
