<?xml version="1.0" encoding="iso-8859-1"?>
<!-- Generator: Adobe Illustrator 19.0.0, SVG Export Plug-In . SVG Version: 6.00 Build 0)  -->
<svg xmlns="http://www.w3.org/2000/svg" xmlns:xlink="http://www.w3.org/1999/xlink" version="1.1" id="Layer_1" x="0px" y="0px" viewBox="0 0 511.999 511.999" style="enable-background:new 0 0 511.999 511.999;" xml:space="preserve">
<path style="fill:#FF4B55;" d="M473.655,88.275H38.345C17.167,88.275,0,105.442,0,126.62v258.759  c0,21.175,17.165,38.342,38.339,38.345H473.66c21.174-0.003,38.339-17.17,38.339-38.345V126.62  C512,105.442,494.833,88.275,473.655,88.275z"/>
<path style="fill:#73AF00;" d="M441.379,158.896v194.207H70.621V158.896H441.379"/>
<path style="fill:#F5F5F5;" d="M238.378,256.025c0-33.425,22.767-61.417,53.587-69.525c1.026-0.27,0.952-1.754-0.1-1.889  c-2.796-0.36-5.64-0.566-8.533-0.566c-39.785,0-71.992,32.202-71.992,71.98c0,39.606,32.207,71.896,71.992,71.896  c2.898,0,5.745-0.209,8.544-0.569c1.052-0.136,1.125-1.619,0.1-1.889C261.15,317.342,238.378,289.309,238.378,256.025z"/>
<g>
</g>
<g>
</g>
<g>
</g>
<g>
</g>
<g>
</g>
<g>
</g>
<g>
</g>
<g>
</g>
<g>
</g>
<g>
</g>
<g>
</g>
<g>
</g>
<g>
</g>
<g>
</g>
<g>
</g>
</svg>
