<svg height="600" viewBox="-225 -114 450 300" width="900" xmlns="http://www.w3.org/2000/svg" xmlns:xlink="http://www.w3.org/1999/xlink"><path d="m-225-114h450v300h-450z"/><circle fill="#ce1126" r="64.5"/><g id="a"><g id="b"><g id="c"><g id="d"><path id="e" d="m0 0c-2.16666 0-3 3.25-3 6.5 0 7.833332.95963 11.928508 3 23.5 2.04036-11.571492 3-15.666668 3-23.5 0-3.25-.83333-6.5-3-6.5z" fill="#ce1126" transform="translate(0 -102)"/><use transform="matrix(.9961947 .08715574 -.08715574 .9961947 0 0)" xlink:href="#e"/></g><use transform="matrix(.98480775 .17364818 -.17364818 .98480775 0 0)" xlink:href="#d"/></g><use transform="matrix(.93969262 .34202014 -.34202014 .93969262 0 0)" xlink:href="#c"/></g><use transform="matrix(.76604444 .64278761 -.64278761 .76604444 0 0)" xlink:href="#b"/></g><use transform="matrix(.17364818 -.98480775 .98480775 .17364818 0 0)" xlink:href="#a"/><path d="m-225-21.5h450v207.5h-450z" stroke-width="5.259911"/><path d="m-225-14h450v200h-450z" fill="#ce1126" stroke-width="1.414214"/><path d="m-225 86h450v100h-450z" fill="#339e35"/></svg>