<?xml version="1.0" encoding="iso-8859-1"?>
<!-- Generator: Adobe Illustrator 19.0.0, SVG Export Plug-In . SVG Version: 6.00 Build 0)  -->
<svg xmlns="http://www.w3.org/2000/svg" xmlns:xlink="http://www.w3.org/1999/xlink" version="1.1" id="Layer_1" x="0px" y="0px" viewBox="0 0 512 512" style="enable-background:new 0 0 512 512;" xml:space="preserve">
<path style="fill:#F5F5F5;" d="M473.655,88.275H38.345C17.167,88.275,0,105.442,0,126.62V385.38  c0,21.177,17.167,38.345,38.345,38.345h435.31c21.177,0,38.345-17.167,38.345-38.345V126.62  C512,105.442,494.833,88.275,473.655,88.275z"/>
<path style="fill:#41479B;" d="M229.517,255.999L13.052,97.813C5.054,104.841,0,115.137,0,126.62V385.38  c0,21.177,17.167,38.345,38.345,38.345h191.172L79.144,255.999H229.517z M203.816,412.247H11.476V110.876l182.888,133.647H79.144  H53.442l17.156,19.137L203.816,412.247z"/>
<polygon style="fill:#FF4B55;" points="70.6,263.661 53.442,244.523 79.144,244.523 194.364,244.523 11.476,110.876 11.476,412.247   203.816,412.247 "/>
<g>
	<path style="fill:#F5F5F5;" d="M67.345,296.398l7.066,14.583l13.411-9.096c0.591-0.402,1.386,0.057,1.334,0.77l-1.171,16.162   l16.162-1.171c0.713-0.052,1.172,0.743,0.77,1.334l-9.096,13.411l14.583,7.068c0.643,0.312,0.643,1.228,0,1.54l-14.583,7.066   l9.096,13.411c0.402,0.591-0.057,1.386-0.77,1.334l-16.162-1.171l1.171,16.162c0.052,0.713-0.743,1.172-1.334,0.77l-13.411-9.096   l-7.066,14.583c-0.312,0.643-1.228,0.643-1.54,0l-7.066-14.583l-13.411,9.096c-0.591,0.402-1.386-0.057-1.334-0.77l1.171-16.162   l-16.162,1.171c-0.713,0.052-1.172-0.743-0.77-1.334l9.096-13.411l-14.583-7.066c-0.643-0.312-0.643-1.228,0-1.54l14.583-7.068   l-9.096-13.411c-0.402-0.591,0.057-1.386,0.77-1.334l16.162,1.171l-1.171-16.162c-0.052-0.713,0.743-1.172,1.334-0.77l13.411,9.096   l7.066-14.583C66.116,295.755,67.033,295.755,67.345,296.398z"/>
	<path style="fill:#F5F5F5;" d="M85.694,212.061l-6.135-4.191l5.401-5.661l-7.697-1.405l2.632-7.367l-7.603,1.847l-0.591-7.8   l-6.194,4.78l-3.714-6.886l-3.714,6.886l-6.194-4.78l-0.591,7.8l-7.603-1.847l2.632,7.367l-7.697,1.405l5.401,5.661l-6.135,4.191   c-7.741-3.614-14.547-8.895-19.904-15.427c3.598,20.961,21.815,36.929,43.804,36.929s40.206-15.968,43.804-36.929   C100.241,203.167,93.434,208.447,85.694,212.061z"/>
</g>
<g>
</g>
<g>
</g>
<g>
</g>
<g>
</g>
<g>
</g>
<g>
</g>
<g>
</g>
<g>
</g>
<g>
</g>
<g>
</g>
<g>
</g>
<g>
</g>
<g>
</g>
<g>
</g>
<g>
</g>
</svg>
