<?xml version="1.0" encoding="iso-8859-1"?>
<!-- Generator: Adobe Illustrator 19.0.0, SVG Export Plug-In . SVG Version: 6.00 Build 0)  -->
<svg xmlns="http://www.w3.org/2000/svg" xmlns:xlink="http://www.w3.org/1999/xlink" version="1.1" id="Layer_1" x="0px" y="0px" viewBox="0 0 512 512" style="enable-background:new 0 0 512 512;" xml:space="preserve">
<path style="fill:#41479B;" d="M473.654,423.724H38.345C17.167,423.724,0,406.557,0,385.379V126.621  c0-21.177,17.167-38.345,38.345-38.345h435.309c21.177,0,38.345,17.167,38.345,38.345v258.758  C511.999,406.557,494.831,423.724,473.654,423.724z"/>
<rect y="238.341" style="fill:#FFE15A;" width="512" height="35.31"/>
<polygon style="fill:#F5F5F5;" points="119.172,308.966 124.313,329.505 139.034,314.288 133.217,334.645 153.574,328.828   138.358,343.55 158.896,348.69 138.358,353.831 153.574,368.552 133.217,362.735 139.034,383.092 124.313,367.876 119.172,388.414   114.031,367.876 99.31,383.092 105.128,362.735 84.77,368.552 99.987,353.831 79.448,348.69 99.987,343.55 84.77,328.828   105.128,334.645 99.31,314.288 114.031,329.505 "/>
<g>
</g>
<g>
</g>
<g>
</g>
<g>
</g>
<g>
</g>
<g>
</g>
<g>
</g>
<g>
</g>
<g>
</g>
<g>
</g>
<g>
</g>
<g>
</g>
<g>
</g>
<g>
</g>
<g>
</g>
</svg>
