<?xml version="1.0" encoding="iso-8859-1"?>
<!-- Generator: Adobe Illustrator 19.0.0, SVG Export Plug-In . SVG Version: 6.00 Build 0)  -->
<svg xmlns="http://www.w3.org/2000/svg" xmlns:xlink="http://www.w3.org/1999/xlink" version="1.1" id="Layer_1" x="0px" y="0px" viewBox="0 0 512 512" style="enable-background:new 0 0 512 512;" xml:space="preserve">
<path style="fill:#41479B;" d="M473.655,423.724H38.345C17.167,423.724,0,406.557,0,385.379V126.621  c0-21.177,17.167-38.345,38.345-38.345h435.31c21.177,0,38.345,17.167,38.345,38.345V385.38  C512,406.557,494.833,423.724,473.655,423.724z"/>
<path style="fill:#F5F5F5;" d="M8.828,256h15.334l81.77-53.574V256h44.138v-53.574L231.839,256h15.334  c4.876,0,8.828-3.953,8.828-8.828v-7.002l-70.155-45.963H256v-44.138h-70.155L256,104.106v-7.002c0-4.875-3.951-8.828-8.828-8.828  h-15.334l-81.77,53.574V88.276H105.93v53.574L26.844,90.034c-9.234,2.9-16.954,9.203-21.711,17.434l65.023,42.601H0v44.138h70.155  L0,240.17v7.002C0,252.047,3.953,256,8.828,256z"/>
<g>
	<polygon style="fill:#FF4B55;" points="256,158.897 141.241,158.897 141.241,88.276 114.759,88.276 114.759,158.897 0,158.897    0,185.379 114.759,185.379 114.759,256 141.241,256 141.241,185.379 256,185.379  "/>
	<path style="fill:#FF4B55;" d="M8.227,102.902l72.662,47.167h16.214l-82.496-53.55C12.238,98.389,10.097,100.532,8.227,102.902z"/>
	<path style="fill:#FF4B55;" d="M166.283,150.069l88.374-57.366c-1.536-2.599-4.246-4.427-7.485-4.427h-1.909l-95.194,61.793   H166.283z"/>
	<path style="fill:#FF4B55;" d="M89.474,194.207L1.269,251.463C2.79,254.125,5.543,256,8.828,256h1.665l95.196-61.793H89.474z"/>
	<path style="fill:#FF4B55;" d="M255.86,247.865l-82.666-53.658H156.98l93.874,60.935   C253.666,253.837,255.595,251.102,255.86,247.865z"/>
	<path style="fill:#FF4B55;" d="M395.474,368.113c-0.358,0-0.719-0.113-1.026-0.328L384,360.319l-10.449,7.466   c-0.306,0.215-0.668,0.328-1.026,0.328c-0.366,0-0.728-0.113-1.038-0.337c-0.612-0.448-0.875-1.241-0.647-1.965l3.875-12.242   l-10.327-7.62c-0.612-0.457-0.866-1.241-0.633-1.965c0.237-0.724,0.905-1.216,1.668-1.224l12.841-0.104l4.061-12.181   c0.242-0.715,0.918-1.207,1.677-1.207s1.436,0.491,1.677,1.207l4.061,12.181l12.841,0.104c0.763,0.009,1.431,0.5,1.668,1.224   c0.233,0.724-0.022,1.508-0.633,1.965l-10.327,7.62l3.875,12.242c0.228,0.724-0.034,1.517-0.647,1.965   C396.203,368,395.837,368.113,395.474,368.113z"/>
</g>
<path style="fill:#F5F5F5;" d="M384,331.034l4.461,13.378l14.102,0.109l-11.345,8.377l4.254,13.445L384,358.144l-11.473,8.201  l4.254-13.445l-11.345-8.377l14.102-0.109L384,331.034 M384,327.503c-1.519,0-2.869,0.972-3.35,2.414l-3.663,10.984l-11.578,0.09  c-1.519,0.011-2.861,0.994-3.33,2.44c-0.47,1.446,0.038,3.029,1.26,3.932l9.314,6.878l-3.492,11.039  c-0.458,1.449,0.062,3.029,1.291,3.922c0.619,0.449,1.347,0.674,2.076,0.674c0.719,0,1.439-0.22,2.053-0.659l9.42-6.733l9.42,6.733  c0.615,0.438,1.334,0.659,2.054,0.659c0.728,0,1.457-0.225,2.076-0.674c1.229-0.894,1.749-2.473,1.291-3.922l-3.492-11.039  l9.314-6.878c1.223-0.903,1.73-2.486,1.26-3.932c-0.47-1.445-1.811-2.429-3.33-2.44l-11.578-0.09l-3.663-10.984  C386.869,328.476,385.519,327.503,384,327.503L384,327.503z"/>
<path style="fill:#FF4B55;" d="M395.474,225.793c-0.362,0-0.719-0.113-1.026-0.328L384,217.992l-10.449,7.474  c-0.306,0.215-0.668,0.328-1.026,0.328c-0.362,0-0.728-0.113-1.038-0.337c-0.612-0.448-0.875-1.241-0.647-1.965l3.875-12.242  l-10.327-7.629c-0.612-0.457-0.866-1.25-0.633-1.965c0.237-0.724,0.909-1.216,1.668-1.224l12.841-0.095l4.061-12.181  c0.242-0.715,0.918-1.207,1.677-1.207s1.436,0.491,1.677,1.207l4.061,12.181l12.841,0.095c0.759,0.009,1.431,0.5,1.668,1.224  c0.233,0.715-0.022,1.508-0.633,1.965l-10.327,7.629l3.875,12.242c0.228,0.724-0.034,1.517-0.647,1.965  C396.203,225.681,395.837,225.793,395.474,225.793z"/>
<path style="fill:#F5F5F5;" d="M384,188.713l4.461,13.378l14.102,0.109l-11.345,8.377l4.254,13.446L384,215.822l-11.473,8.201  l4.254-13.446l-11.345-8.377l14.102-0.109L384,188.713 M384,185.182c-1.519,0-2.869,0.972-3.35,2.414l-3.663,10.984l-11.578,0.09  c-1.519,0.011-2.861,0.994-3.33,2.44c-0.47,1.446,0.038,3.029,1.26,3.932l9.314,6.878l-3.492,11.039  c-0.458,1.449,0.062,3.029,1.291,3.922c0.619,0.449,1.347,0.674,2.076,0.674c0.719,0,1.439-0.22,2.053-0.659l9.42-6.733l9.42,6.733  c0.615,0.438,1.334,0.659,2.054,0.659c0.728,0,1.457-0.225,2.076-0.674c1.229-0.894,1.749-2.473,1.291-3.922l-3.492-11.039  l9.314-6.878c1.223-0.903,1.73-2.486,1.26-3.932s-1.811-2.429-3.33-2.44l-11.578-0.09l-3.663-10.984  C386.869,186.154,385.519,185.182,384,185.182L384,185.182z"/>
<path style="fill:#FF4B55;" d="M457.267,269.931c-0.362,0-0.719-0.113-1.026-0.328l-10.447-7.474l-10.449,7.474  c-0.306,0.215-0.668,0.328-1.026,0.328c-0.362,0-0.728-0.113-1.038-0.337c-0.612-0.448-0.875-1.241-0.647-1.965l3.875-12.242  l-10.327-7.629c-0.612-0.457-0.866-1.25-0.633-1.965c0.237-0.724,0.909-1.216,1.668-1.224l12.841-0.095l4.061-12.181  c0.242-0.715,0.918-1.207,1.677-1.207s1.436,0.491,1.677,1.207l4.061,12.181l12.841,0.095c0.759,0.009,1.431,0.5,1.668,1.224  c0.233,0.715-0.022,1.508-0.633,1.965l-10.327,7.629l3.875,12.242c0.228,0.724-0.034,1.517-0.647,1.965  C457.996,269.818,457.63,269.931,457.267,269.931z"/>
<path style="fill:#F5F5F5;" d="M445.793,232.851l4.461,13.378l14.102,0.109l-11.345,8.377l4.254,13.446l-11.473-8.201l-11.473,8.201  l4.254-13.445l-11.345-8.377l14.102-0.109L445.793,232.851 M445.793,229.32c-1.519,0-2.869,0.972-3.35,2.414l-3.663,10.984  l-11.578,0.09c-1.519,0.011-2.861,0.994-3.33,2.44c-0.47,1.446,0.038,3.029,1.26,3.932l9.314,6.878l-3.492,11.039  c-0.458,1.449,0.062,3.029,1.291,3.922c0.619,0.449,1.347,0.674,2.076,0.674c0.719,0,1.439-0.22,2.054-0.659l9.42-6.733l9.42,6.733  c0.615,0.438,1.334,0.659,2.053,0.659c0.728,0,1.457-0.225,2.076-0.674c1.229-0.894,1.749-2.473,1.291-3.922l-3.492-11.039  l9.314-6.878c1.223-0.903,1.73-2.486,1.26-3.932s-1.811-2.429-3.33-2.44l-11.578-0.09l-3.663-10.984  C448.662,230.292,447.313,229.32,445.793,229.32L445.793,229.32z"/>
<path style="fill:#FF4B55;" d="M333.681,287.586c-0.362,0-0.719-0.113-1.026-0.328l-10.447-7.474l-10.449,7.474  c-0.306,0.215-0.668,0.328-1.026,0.328c-0.362,0-0.728-0.113-1.038-0.337c-0.612-0.448-0.875-1.241-0.647-1.965l3.875-12.242  l-10.327-7.629c-0.612-0.457-0.866-1.25-0.633-1.965c0.237-0.724,0.909-1.216,1.668-1.224l12.841-0.095l4.061-12.181  c0.242-0.715,0.918-1.207,1.677-1.207s1.436,0.491,1.677,1.207l4.061,12.181l12.841,0.095c0.759,0.009,1.431,0.5,1.668,1.224  c0.233,0.715-0.022,1.508-0.633,1.965l-10.327,7.629l3.875,12.242c0.228,0.724-0.034,1.517-0.647,1.965  C334.41,287.474,334.044,287.586,333.681,287.586z"/>
<path style="fill:#F5F5F5;" d="M322.207,250.506l4.461,13.378l14.102,0.109l-11.345,8.377l4.254,13.446l-11.473-8.201l-11.473,8.201  l4.254-13.446l-11.345-8.377l14.102-0.109L322.207,250.506 M322.207,246.975c-1.519,0-2.869,0.972-3.35,2.414l-3.663,10.984  l-11.578,0.09c-1.519,0.011-2.861,0.994-3.33,2.44c-0.47,1.446,0.038,3.029,1.26,3.932l9.314,6.878l-3.492,11.039  c-0.458,1.449,0.062,3.029,1.291,3.922c0.619,0.449,1.347,0.674,2.076,0.674c0.719,0,1.439-0.22,2.054-0.659l9.42-6.733l9.42,6.733  c0.615,0.438,1.334,0.659,2.053,0.659c0.728,0,1.457-0.225,2.076-0.674c1.229-0.894,1.749-2.473,1.291-3.922l-3.492-11.039  l9.314-6.878c1.223-0.903,1.73-2.486,1.26-3.932s-1.811-2.429-3.33-2.44l-11.578-0.09l-3.663-10.984  C325.076,247.947,323.726,246.975,322.207,246.975L322.207,246.975z"/>
<g>
</g>
<g>
</g>
<g>
</g>
<g>
</g>
<g>
</g>
<g>
</g>
<g>
</g>
<g>
</g>
<g>
</g>
<g>
</g>
<g>
</g>
<g>
</g>
<g>
</g>
<g>
</g>
<g>
</g>
</svg>
