<?xml version="1.0" encoding="iso-8859-1"?>
<!-- Generator: Adobe Illustrator 19.0.0, SVG Export Plug-In . SVG Version: 6.00 Build 0)  -->
<svg xmlns="http://www.w3.org/2000/svg" xmlns:xlink="http://www.w3.org/1999/xlink" version="1.1" id="Layer_1" x="0px" y="0px" viewBox="0 0 512 512" style="enable-background:new 0 0 512 512;" xml:space="preserve">
<g>
	<path style="fill:#FF4B55;" d="M0,385.379c0,21.177,17.167,38.345,38.345,38.345h435.31c21.177,0,38.345-17.167,38.345-38.345   v-49.931H0V385.379z"/>
	<path style="fill:#FF4B55;" d="M473.655,88.276H38.345C17.167,88.276,0,105.443,0,126.621v49.931h512v-49.931   C512,105.443,494.833,88.276,473.655,88.276z"/>
</g>
<rect y="176.55" style="fill:#F5F5F5;" width="512" height="158.9"/>
<path style="fill:#FFB955;" d="M314.196,233.458l-56.036,22.873c-0.022-0.057-0.049-0.108-0.075-0.162l54.118-27.103  c-2.14-4.271-4.739-8.271-7.755-11.919l-46.657,38.585c-0.046-0.058-0.073-0.132-0.126-0.186l42.77-42.813  c-3.051-3.052-6.424-5.779-10.048-8.153l-33.113,50.686c-0.075-0.051-0.142-0.109-0.224-0.151l27.055-54.151  c-4.345-2.177-8.977-3.861-13.825-4.988l-13.749,58.966c-0.174-0.042-0.341-0.107-0.53-0.107s-0.354,0.065-0.53,0.107  l-13.749-58.966c-4.849,1.127-9.48,2.81-13.825,4.988l27.055,54.151c-0.081,0.042-0.149,0.1-0.224,0.151l-33.113-50.686  c-3.625,2.375-6.997,5.102-10.048,8.153l42.77,42.813c-0.052,0.054-0.078,0.127-0.126,0.186l-46.657-38.585  c-3.016,3.647-5.615,7.648-7.755,11.919l54.118,27.103c-0.026,0.055-0.053,0.106-0.075,0.162l-56.036-22.873  c-1.689,4.142-2.945,8.505-3.721,13.035l59.658,10.329c-0.008,0.052-0.026,0.099-0.031,0.152l-60.218-6.273  c-0.217,2.125-0.329,4.28-0.329,6.463c0,3.774,0.351,7.463,0.989,11.052L256,261.818l61.847,6.398  c0.638-3.591,0.989-7.279,0.989-11.052c0-2.183-0.113-4.338-0.329-6.463l-60.219,6.273c-0.004-0.053-0.023-0.1-0.031-0.152  l59.657-10.329C317.141,241.964,315.884,237.601,314.196,233.458z"/>
<g>
	<path style="fill:#4173CD;" d="M195.27,273.315c0.431,1.625,0.929,3.223,1.484,4.793h118.494c0.555-1.57,1.053-3.168,1.484-4.793   c-5.805-0.75-6.526-4.515-13.598-4.515c-7.851,0-7.851,4.654-15.703,4.654c-7.851,0-7.851-4.654-15.703-4.654   c-7.853,0-7.853,4.654-15.708,4.654c-7.849,0-7.849-4.654-15.699-4.654c-7.857,0-7.857,4.654-15.712,4.654   c-7.861,0-7.861-4.654-15.723-4.654C201.805,268.8,201.085,272.566,195.27,273.315z"/>
	<path style="fill:#4173CD;" d="M301.282,285.091c-7.558-0.001-7.559-4.654-15.118-4.654c-7.561,0-7.561,4.654-15.122,4.654   s-7.561-4.654-15.122-4.654c-7.563,0-7.563,4.654-15.125,4.654c-7.559,0-7.559-4.654-15.117-4.654   c-7.565,0-7.565,4.654-15.13,4.654c-6.712,0-7.484-3.652-12.846-4.482c1.28,3.18,2.797,6.239,4.558,9.137h99.019h0.006h8.456   c1.764-2.904,3.285-5.971,4.567-9.16C308.785,281.362,308.064,285.09,301.282,285.091z"/>
	<path style="fill:#4173CD;" d="M307.292,293.44c-1.463-0.767-3.196-1.367-5.903-1.367c-7.561,0-7.561,4.654-15.122,4.654   s-7.561-4.654-15.122-4.654c-7.563,0-7.563,4.654-15.125,4.654c-7.559,0-7.559-4.654-15.117-4.654   c-7.565,0-7.565,4.654-15.13,4.654c-7.571,0-7.571-4.654-15.14-4.654c-2.717,0-4.454,0.602-5.92,1.372   c2.003,2.825,4.222,5.484,6.653,7.938h89.271C303.068,298.927,305.289,296.267,307.292,293.44z"/>
	<path style="fill:#4173CD;" d="M294.721,306.633c-2.284-1.324-4.121-2.924-8.557-2.924c-7.561,0-7.561,4.654-15.122,4.654   s-7.561-4.654-15.122-4.654c-7.563,0-7.563,4.654-15.125,4.654c-7.559,0-7.559-4.654-15.117-4.654c-4.377,0-6.225,1.556-8.468,2.87   c3.115,2.449,6.465,4.607,10.014,6.44h57.551C288.299,311.2,291.625,309.059,294.721,306.633z"/>
	<path style="fill:#4173CD;" d="M240.903,315.346c-2.478,0-4.139,0.502-5.525,1.174C241.84,318.764,248.774,320,256,320h0.012   C248.461,319.997,248.459,315.346,240.903,315.346z"/>
	<path style="fill:#4173CD;" d="M256.056,319.999c7.217-0.007,14.141-1.242,20.594-3.488c-1.382-0.666-3.039-1.165-5.504-1.165   C263.595,315.346,263.581,319.982,256.056,319.999z"/>
</g>
<g>
	<path style="fill:#FF4B55;" d="M264.266,249.207l-19.912-5.754c-1.117-0.323-1.891-1.331-1.906-2.494   c-0.092-7.373-0.412-33.336-0.412-37.323c0-4.654,4.654-11.636,13.964-11.636h7.34c0.695,0,0.905,0.946,0.266,1.219   c-3.362,1.441-7.605,4.444-7.605,10.417c0,7.092,6.753,10.132,9.971,11.178c0.994,0.323,1.666,1.236,1.666,2.282v29.578   C267.636,248.429,265.953,249.695,264.266,249.207z"/>
	<path style="fill:#FF4B55;" d="M246.702,275.255c0.73-0.442,1.596,0.296,1.267,1.084c-1.949,4.679-6.726,13.407-15.243,13.407   c-11.636,0-13.964-9.309-13.964-16.291V224.09c0-1.014,0.822-1.835,1.835-1.835h3.311c1.014,0,1.835,0.822,1.835,1.835v47.038   C225.746,277.42,238.978,279.932,246.702,275.255z"/>
	<path style="fill:#FF4B55;" d="M264.321,275.255c-0.73-0.442-1.596,0.296-1.267,1.084c1.949,4.679,6.726,13.407,15.243,13.407   c11.636,0,13.964-9.309,13.964-16.291V224.09c0-1.014-0.822-1.835-1.835-1.835h-3.311c-1.014,0-1.835,0.822-1.835,1.835v47.038   C285.278,277.42,272.045,279.932,264.321,275.255z"/>
</g>
<g>
	<path style="fill:#AA4650;" d="M280.477,267.636h-48.953c-0.62,0-1.123-0.503-1.123-1.123v-0.081c0-0.62,0.503-1.123,1.123-1.123   h48.953c0.62,0,1.123,0.503,1.123,1.123v0.081C281.6,267.134,281.097,267.636,280.477,267.636z"/>
	<path style="fill:#AA4650;" d="M235.345,258.851l2.52-3.36c0.386-0.513,0.281-1.244-0.233-1.63   c-0.513-0.384-1.244-0.277-1.629,0.234l-0.981,1.308V254.5c0-0.643-0.521-1.164-1.164-1.164s-1.164,0.521-1.164,1.164v0.819   l-0.917-1.223c-0.385-0.513-1.114-0.62-1.629-0.234s-0.619,1.116-0.233,1.63l2.52,3.36l-2.52,3.36   c-0.386,0.513-0.281,1.244,0.233,1.63c0.209,0.157,0.454,0.232,0.696,0.232c0.354,0,0.703-0.161,0.931-0.466l2.112-2.817   l2.112,2.817c0.228,0.305,0.577,0.466,0.931,0.466c0.243,0,0.488-0.075,0.696-0.232c0.515-0.386,0.619-1.116,0.233-1.63   L235.345,258.851z"/>
	<path style="fill:#AA4650;" d="M257.066,258.851l2.52-3.36c0.386-0.513,0.281-1.244-0.233-1.63   c-0.513-0.384-1.244-0.277-1.629,0.234l-0.981,1.308V254.5c0-0.643-0.521-1.164-1.164-1.164s-1.164,0.521-1.164,1.164v0.819   l-0.917-1.223c-0.385-0.513-1.114-0.62-1.629-0.234s-0.619,1.116-0.233,1.63l2.52,3.36l-2.52,3.36   c-0.386,0.513-0.281,1.244,0.233,1.63c0.209,0.157,0.454,0.232,0.696,0.232c0.354,0,0.703-0.161,0.931-0.466l2.112-2.817   l2.112,2.817c0.228,0.305,0.577,0.466,0.931,0.466c0.243,0,0.488-0.075,0.696-0.232c0.515-0.386,0.619-1.116,0.233-1.63   L257.066,258.851z"/>
	<path style="fill:#AA4650;" d="M246.206,258.851l2.52-3.36c0.386-0.513,0.281-1.244-0.233-1.63   c-0.513-0.384-1.244-0.277-1.629,0.234l-0.981,1.308V254.5c0-0.643-0.521-1.164-1.164-1.164s-1.164,0.521-1.164,1.164v0.819   l-0.917-1.223c-0.385-0.513-1.114-0.62-1.629-0.234s-0.619,1.116-0.233,1.63l2.52,3.36l-2.52,3.36   c-0.386,0.513-0.281,1.244,0.233,1.63c0.209,0.157,0.454,0.232,0.696,0.232c0.354,0,0.703-0.161,0.931-0.466l2.112-2.817   l2.112,2.817c0.228,0.305,0.577,0.466,0.931,0.466c0.243,0,0.488-0.075,0.696-0.232c0.515-0.386,0.619-1.116,0.233-1.63   L246.206,258.851z"/>
	<path style="fill:#AA4650;" d="M267.927,258.851l2.52-3.36c0.386-0.513,0.281-1.244-0.233-1.63   c-0.513-0.384-1.244-0.277-1.629,0.234l-0.981,1.308V254.5c0-0.643-0.521-1.164-1.164-1.164s-1.164,0.521-1.164,1.164v0.819   l-0.917-1.223c-0.385-0.513-1.114-0.62-1.629-0.234c-0.515,0.386-0.619,1.116-0.233,1.63l2.52,3.36l-2.52,3.36   c-0.386,0.513-0.281,1.244,0.233,1.63c0.209,0.157,0.454,0.232,0.696,0.232c0.354,0,0.703-0.161,0.931-0.466l2.112-2.817   l2.112,2.817c0.228,0.305,0.577,0.466,0.931,0.466c0.243,0,0.488-0.075,0.696-0.232c0.515-0.386,0.619-1.116,0.233-1.63   L267.927,258.851z"/>
	<path style="fill:#AA4650;" d="M278.787,258.851l2.52-3.36c0.386-0.513,0.281-1.244-0.233-1.63   c-0.513-0.384-1.244-0.277-1.629,0.234l-0.981,1.308V254.5c0-0.643-0.521-1.164-1.164-1.164s-1.164,0.521-1.164,1.164v0.819   l-0.917-1.223c-0.385-0.513-1.114-0.62-1.629-0.234c-0.515,0.386-0.619,1.116-0.233,1.63l2.52,3.36l-2.52,3.36   c-0.386,0.513-0.281,1.244,0.233,1.63c0.209,0.157,0.454,0.232,0.696,0.232c0.354,0,0.703-0.161,0.931-0.466l2.112-2.817   l2.112,2.817c0.228,0.305,0.577,0.466,0.931,0.466c0.243,0,0.488-0.075,0.696-0.232c0.515-0.386,0.619-1.116,0.233-1.63   L278.787,258.851z"/>
	<path style="fill:#AA4650;" d="M233.196,274.824c1.721,0.753,11.832,0.861,14.413-1.828s2.044-3.872,2.044-3.872l-12.263,0.107   L233.196,274.824z"/>
	<path style="fill:#AA4650;" d="M278.312,274.824c-1.721,0.753-11.832,0.861-14.413-1.828s-2.044-3.872-2.044-3.872l12.263,0.107   L278.312,274.824z"/>
</g>
<g>
</g>
<g>
</g>
<g>
</g>
<g>
</g>
<g>
</g>
<g>
</g>
<g>
</g>
<g>
</g>
<g>
</g>
<g>
</g>
<g>
</g>
<g>
</g>
<g>
</g>
<g>
</g>
<g>
</g>
</svg>
