<?xml version="1.0" encoding="iso-8859-1"?>
<!-- Generator: Adobe Illustrator 19.0.0, SVG Export Plug-In . SVG Version: 6.00 Build 0)  -->
<svg xmlns="http://www.w3.org/2000/svg" xmlns:xlink="http://www.w3.org/1999/xlink" version="1.1" id="Layer_1" x="0px" y="0px" viewBox="0 0 512 512" style="enable-background:new 0 0 512 512;" xml:space="preserve">
<path style="fill:#73AF00;" d="M473.655,88.275H132.414v335.448h341.241c21.177,0,38.345-17.167,38.345-38.345V126.62  C512,105.442,494.833,88.275,473.655,88.275z"/>
<g>
	<path style="fill:#F5F5F5;" d="M38.345,88.275C17.167,88.275,0,105.442,0,126.62V385.38c0,21.177,17.167,38.345,38.345,38.345   h94.069V88.275H38.345z"/>
	<path style="fill:#F5F5F5;" d="M412.053,302.188c-40.632,36.196-102.833,32.477-138.956-8.227   c-36.054-40.629-32.405-103.01,8.226-139.204c0.06-0.053,0.118-0.105,0.178-0.157c0.96-0.844,0.032-2.377-1.16-1.913   c-40.07,15.604-68.479,54.579-68.479,100.214c0,59.444,48.071,107.587,107.373,107.587c41.023,0,76.574-23.083,94.633-56.969   c0.602-1.131-0.81-2.231-1.766-1.377C412.087,302.156,412.069,302.172,412.053,302.188z"/>
	<path style="fill:#F5F5F5;" d="M359.787,172.589l14.12,15.841l19.56-8.232c2.532-1.066,4.964,1.705,3.578,4.077L386.342,202.6   l13.873,16.058c1.796,2.079-0.088,5.248-2.772,4.663l-20.735-4.516l-10.986,18.156c-1.422,2.35-5.018,1.538-5.292-1.196   l-2.112-21.116l-20.662-4.838c-2.675-0.627-3.014-4.297-0.498-5.402l19.43-8.533l-1.784-21.145   C354.572,171.993,357.96,170.538,359.787,172.589z"/>
</g>
<g>
</g>
<g>
</g>
<g>
</g>
<g>
</g>
<g>
</g>
<g>
</g>
<g>
</g>
<g>
</g>
<g>
</g>
<g>
</g>
<g>
</g>
<g>
</g>
<g>
</g>
<g>
</g>
<g>
</g>
</svg>
