<?xml version="1.0" encoding="iso-8859-1"?>
<!-- Generator: Adobe Illustrator 19.0.0, SVG Export Plug-In . SVG Version: 6.00 Build 0)  -->
<svg xmlns="http://www.w3.org/2000/svg" xmlns:xlink="http://www.w3.org/1999/xlink" version="1.1" id="Layer_1" x="0px" y="0px" viewBox="0 0 512 512" style="enable-background:new 0 0 512 512;" xml:space="preserve">
<path style="fill:#FF4B55;" d="M473.655,88.276H38.345C17.167,88.276,0,105.443,0,126.621v73.471h512v-73.471  C512,105.443,494.833,88.276,473.655,88.276z"/>
<path style="fill:#41479B;" d="M0,385.379c0,21.177,17.167,38.345,38.345,38.345h435.31c21.177,0,38.345-17.167,38.345-38.345  v-73.471H0V385.379z"/>
<rect y="200.09" style="fill:#F5F5F5;" width="512" height="111.81"/>
<path style="fill:#FF4B55;" d="M256,211.862c-24.376,0-44.138,19.761-44.138,44.138s19.762,44.138,44.138,44.138  s44.138-19.761,44.138-44.138S280.376,211.862,256,211.862z M256,289.288c-18.385,0-33.288-14.903-33.288-33.288  c0-18.383,14.903-33.288,33.288-33.288s33.288,14.903,33.288,33.288C289.288,274.383,274.385,289.288,256,289.288z"/>
<circle style="fill:#41479B;" cx="256" cy="256" r="15.31"/>
<path style="fill:#FFE15A;" d="M256.998,244.403l2.467,7.4l7.799,0.061c1.01,0.008,1.429,1.297,0.616,1.897l-6.274,4.633  l2.353,7.436c0.305,0.962-0.791,1.759-1.613,1.172L256,262.467l-6.346,4.535c-0.821,0.587-1.918-0.21-1.613-1.172l2.353-7.436  l-6.274-4.633c-0.812-0.6-0.394-1.889,0.616-1.897l7.799-0.061l2.467-7.4C255.322,243.445,256.678,243.445,256.998,244.403z"/>
<path style="fill:#64C86E;" d="M284.96,256.356c0,0,0.875-4.046-3.43,0.809c0,0,0.063-1.382-0.059-2.521  c0.946-1.025,2.121-3.266,1.845-8.052c0,0-0.675-4.084-2.891,2.014c0,0-0.605-1.799-1.248-2.795  c0.534-1.107,0.946-3.125-0.334-6.947c0,0-1.497-3.268-1.963,2.348c0,0-1.229-1.838-2.027-2.29c0.154-0.906,0.033-2.462-1.775-4.981  c0,0-1.804-2.02-0.893,2.126c0,0-1.651-1.337-2.179-1.18c-0.274-0.792-1.067-2.131-3.73-3.893c0,0-2.307-1.263,0.34,2.034  c0,0-2.339-0.928-2.312-0.396c0.028,0.532,1.159,1.513,2.088,1.951c0,0-3.431,0.356-2.023,1.121c0,0,3.481,1.201,5.574,0.045  c0.168,0.609,0.509,1.292,1.015,1.783c0,0-4.084-0.792-2.978,0.433c0,0,3.063,2.251,6.09,1.906  c-0.014,0.834,0.238,1.911,0.681,2.718c0,0-4.87-2.603-3.947-0.616c0,0,2.912,3.895,6.786,4.74c-0.159,0.866-0.156,1.913,0.054,2.78  c0,0-4.622-4.365-4.199-1.878c0,0,1.932,5.122,5.848,7.298c-0.319,0.65-0.58,1.377-0.676,2.056c0,0-2.692-5.761-3.213-3.292  c0,0-0.089,5.754,2.983,9.195c-0.654,0.544-1.295,1.305-1.688,2.052c0,0-0.589-6.329-1.913-4.182c0,0-1.829,4.796-0.591,8.929  c-0.819,0.242-1.711,0.689-2.371,1.224c0,0,1.953-6.051-0.11-4.599c0,0-3.674,3.975-3.955,8.447  c-0.974-0.02-2.293,0.331-3.249,0.902c0,0,2.795-5.709,0.545-4.567c0,0-4.008,3.274-5.043,7.523  c-0.948,0.541-2.558,1.46-4.167,2.372c-0.936-0.543-1.845-1.071-2.622-1.525l0.026-0.042l-9.111-7.638l0.181,2.498l-4.575-8.182  l-0.565,2.784l-1.498-9.045l-1.329,1.335l0.514-8.438l-1.732,0.934l3.146-6.276l-1.478,0.417l3.886-3.726l-2.055,0.175l4.914-2.231  l-1.796-0.276l4.798-2.429l-2.067-0.1l6.219-2.152l-1.139-0.996l5.383-1.588l-6.45-0.492l1.837-2.261l-4.921,2.518l0.706-3.404  l-4.305,4.433l0.748-3.104l-4.029,4.009l0.26-3.026l-3.983,6.746l-0.514-3.019l-3.31,7.574l-0.911-3.3l-1.478,9.393l-1.233-1.397  l1.621,9.06l-2.056-1.542l3.769,8.138c0,0-2.741-1.199-3.084-1.199s6.553,7.004,6.553,7.004l-3.598-0.385l6.952,4.888l-2.583,0.638  l5.783,2.248l-1.414,1.092l11.972,0.856c0,0,1.154,0.961,2.724,2.074c-0.829,0.467-1.558,0.875-2.009,1.122  c-0.456,0.248-0.989,0.273-1.468,0.073c-1.137-0.476-2.781-1.149-3.574-1.466c0,0,0.077,3.403,3.62,3.488  c1.455,0.033,3.439-0.893,5.284-1.988c1.889,1.178,3.974,2.217,5.48,2.182c3.466-0.085,3.542-3.488,3.542-3.488  c-0.776,0.318-2.386,0.99-3.497,1.466c-0.469,0.2-0.991,0.174-1.436-0.073c-0.491-0.275-1.299-0.736-2.225-1.271  c0.946-0.641,1.739-1.223,2.296-1.652c0.872,0.685,3.368,1.889,8.946-0.205c0,0,3.7-1.858-2.781-2.163c0,0,1.203-0.883,2.015-1.721  c1.063,0.547,3.69,1.195,8.684-1.547c0,0,3.397-2.367-3.06-1.745c0,0,0.862-0.84,1.54-1.695c1.114,0.125,3.865-0.172,7.513-4.839  c0,0,2.19-3.513-3.5-0.397c0,0,0.736-1.754,0.909-2.927C281.539,262.56,283.456,260.907,284.96,256.356z"/>
<g>
</g>
<g>
</g>
<g>
</g>
<g>
</g>
<g>
</g>
<g>
</g>
<g>
</g>
<g>
</g>
<g>
</g>
<g>
</g>
<g>
</g>
<g>
</g>
<g>
</g>
<g>
</g>
<g>
</g>
</svg>
