<?xml version="1.0" encoding="iso-8859-1"?>
<!-- Generator: Adobe Illustrator 19.0.0, SVG Export Plug-In . SVG Version: 6.00 Build 0)  -->
<svg xmlns="http://www.w3.org/2000/svg" xmlns:xlink="http://www.w3.org/1999/xlink" version="1.1" id="Layer_1" x="0px" y="0px" viewBox="0 0 512.001 512.001" style="enable-background:new 0 0 512.001 512.001;" xml:space="preserve">
<path style="fill:#F5F5F5;" d="M221.446,407.367c2.225-0.676,2.226-3.826,0.002-4.504l-46.34-14.162  c-2.223-0.679-2.222-3.828,0.002-4.504l46.322-14.105c2.226-0.676,2.226-3.828,0-4.504l-46.322-14.105  c-2.225-0.678-2.226-3.826-0.002-4.505l46.339-14.161c2.223-0.679,2.222-3.828-0.002-4.504l-46.335-14.109  c-2.225-0.676-2.226-3.826-0.002-4.505l46.34-14.162c2.223-0.68,2.222-3.828-0.002-4.504l-46.336-14.108  c-2.225-0.679-2.226-3.826-0.002-4.505l46.34-14.162c2.223-0.68,2.222-3.829-0.002-4.505l-46.336-14.108  c-2.225-0.676-2.226-3.826-0.002-4.505l46.34-14.162c2.223-0.68,2.222-3.828-0.002-4.505l-46.322-14.103  c-2.226-0.679-2.226-3.828,0-4.506l46.322-14.104c2.225-0.676,2.226-3.826,0.002-4.504l-46.34-14.162  c-2.223-0.68-2.222-3.827,0.002-4.505l46.336-14.109c2.225-0.676,2.226-3.826,0.002-4.504l-46.34-14.162  c-2.223-0.68-2.222-3.828,0.002-4.505l46.335-14.108c2.225-0.678,2.226-3.827,0.002-4.505l-53.386-16.312  c-0.223-0.07-0.455-0.104-0.689-0.104H38.345C17.167,88.276,0,105.443,0,126.621V385.38c0,21.177,17.167,38.345,38.345,38.345  h129.028c0.233,0,0.463-0.034,0.686-0.102L221.446,407.367z"/>
<path style="fill:#873250;" d="M473.655,88.276h-235.31h-70.973c0.233,0,0.465,0.035,0.689,0.104l53.386,16.312  c2.223,0.679,2.222,3.828-0.002,4.505l-46.335,14.108c-2.225,0.678-2.226,3.826-0.002,4.505l46.34,14.162  c2.223,0.679,2.222,3.828-0.002,4.504l-46.336,14.109c-2.225,0.679-2.226,3.826-0.002,4.505l46.34,14.162  c2.223,0.679,2.222,3.828-0.002,4.504l-46.322,14.104c-2.226,0.679-2.226,3.828,0,4.506l46.322,14.103  c2.225,0.679,2.226,3.826,0.002,4.505l-46.34,14.162c-2.223,0.68-2.222,3.829,0.002,4.505l46.336,14.108  c2.225,0.676,2.226,3.826,0.002,4.505l-46.34,14.162c-2.223,0.68-2.222,3.827,0.002,4.505l46.336,14.108  c2.225,0.676,2.226,3.826,0.002,4.504l-46.34,14.162c-2.223,0.68-2.222,3.829,0.002,4.505l46.335,14.109  c2.225,0.676,2.226,3.826,0.002,4.504l-46.339,14.161c-2.223,0.68-2.222,3.828,0.002,4.505l46.322,14.105  c2.226,0.676,2.226,3.828,0,4.504l-46.322,14.105c-2.225,0.676-2.226,3.826-0.002,4.504l46.34,14.162  c2.223,0.679,2.222,3.828-0.002,4.504l-53.386,16.256c-0.222,0.067-0.454,0.102-0.686,0.102h70.972h235.31  c21.177,0,38.345-17.167,38.345-38.345V126.62C512,105.443,494.833,88.276,473.655,88.276z"/>
<g>
</g>
<g>
</g>
<g>
</g>
<g>
</g>
<g>
</g>
<g>
</g>
<g>
</g>
<g>
</g>
<g>
</g>
<g>
</g>
<g>
</g>
<g>
</g>
<g>
</g>
<g>
</g>
<g>
</g>
</svg>
