<?xml version="1.0" encoding="iso-8859-1"?>
<!-- Generator: Adobe Illustrator 19.0.0, SVG Export Plug-In . SVG Version: 6.00 Build 0)  -->
<svg xmlns="http://www.w3.org/2000/svg" xmlns:xlink="http://www.w3.org/1999/xlink" version="1.1" id="Layer_1" x="0px" y="0px" viewBox="0 0 512 512" style="enable-background:new 0 0 512 512;" xml:space="preserve">
<path style="fill:#4173CD;" d="M473.655,88.276H38.345C17.167,88.276,0,105.443,0,126.621V256h512V126.621  C512,105.443,494.833,88.276,473.655,88.276z"/>
<rect y="256" style="fill:#FFE15A;" width="512" height="83.86"/>
<path style="fill:#73AF00;" d="M0,385.379c0,21.177,17.167,38.345,38.345,38.345h435.31c21.177,0,38.345-17.167,38.345-38.345  v-45.517H0V385.379z"/>
<g>
	<path style="fill:#FFE15A;" d="M458.211,178.12l36.134-5.982l-36.134-5.982l31.094-19.354l-35.672,8.301l21.321-29.78   l-29.78,21.321l8.301-35.672l-19.354,31.094l-5.983-36.135l-5.982,36.134l-19.354-31.094l8.301,35.672l-29.78-21.321l21.321,29.78   l-35.672-8.301l31.094,19.354l-36.135,5.983l36.134,5.982l-31.094,19.354l35.672-8.301l-21.321,29.78l29.78-21.321l-8.301,35.672   l19.354-31.094l5.983,36.135l5.982-36.134l19.354,31.094l-8.301-35.672l29.78,21.321l-21.321-29.78l35.672,8.301L458.211,178.12z    M428.138,194.207c-12.189,0-22.069-9.88-22.069-22.069s9.88-22.069,22.069-22.069s22.069,9.88,22.069,22.069   S440.327,194.207,428.138,194.207z"/>
	<circle style="fill:#FFE15A;" cx="428.14" cy="172.14" r="16.552"/>
</g>
<g>
</g>
<g>
</g>
<g>
</g>
<g>
</g>
<g>
</g>
<g>
</g>
<g>
</g>
<g>
</g>
<g>
</g>
<g>
</g>
<g>
</g>
<g>
</g>
<g>
</g>
<g>
</g>
<g>
</g>
</svg>
