<?xml version="1.0" encoding="iso-8859-1"?>
<!-- Generator: Adobe Illustrator 19.0.0, SVG Export Plug-In . SVG Version: 6.00 Build 0)  -->
<svg xmlns="http://www.w3.org/2000/svg" xmlns:xlink="http://www.w3.org/1999/xlink" version="1.1" id="Layer_1" x="0px" y="0px" viewBox="0 0 512 512" style="enable-background:new 0 0 512 512;" xml:space="preserve">
<path style="fill:#73AF00;" d="M473.655,423.724H38.345C17.167,423.724,0,406.557,0,385.379V126.621  c0-21.177,17.167-38.345,38.345-38.345h435.31c21.177,0,38.345,17.167,38.345,38.345V385.38  C512,406.557,494.833,423.724,473.655,423.724z"/>
<g>
	<path style="fill:#F5F5F5;" d="M105.94,202.278c0.87,5.577,4.241,7.327,7.171,7.098c3.456-0.268,6.487-3.428,6.487-6.766v-19.138   c0-0.958,0.78-1.74,1.74-1.74s1.74,0.781,1.74,1.74v19.22c0,2.311,1.142,4.466,3.057,5.76c1.169,0.792,2.53,1.199,3.901,1.199   c0.873,0,1.75-0.167,2.586-0.5l1.739-0.695c0.16,16.065-0.817,30.184-0.835,30.443c-0.136,1.917,1.306,3.582,3.223,3.718   c0.085,0.007,0.168,0.01,0.252,0.01c1.81,0,3.337-1.4,3.468-3.232c0.081-1.131,1.153-16.594,0.831-33.715l1.052-0.42   c0.922-0.367,1.958-0.323,2.845,0.119c3.833,1.91,8.445,1.165,11.474-1.863l0.627-0.626c2.812-2.817,3.779-6.909,2.52-10.684   l-2.963-8.889c1.602,0.482,3.362-0.227,4.136-1.77c0.86-1.719,0.163-3.809-1.556-4.669l-6.959-3.48   c-1.259-0.632-2.77-0.438-3.837,0.482c-1.064,0.925-1.466,2.396-1.021,3.731l5.599,16.798c0.419,1.257,0.097,2.623-0.84,3.561   l-0.626,0.626c-0.907,0.907-2.289,1.128-3.444,0.557c-2.255-1.127-4.823-1.338-7.232-0.724c-0.489-11.169-1.692-22.291-4.254-29.98   c-0.607-1.822-2.574-2.81-4.403-2.199c-1.823,0.605-2.808,2.575-2.2,4.401c2.507,7.519,3.599,18.978,3.987,30.372l-4.166,1.666   v-19.22c0-4.798-3.903-8.7-8.7-8.7s-8.7,3.902-8.7,8.7v16.845l-3.55-17.535c-0.378-1.886-2.212-3.116-4.1-2.722   c-1.885,0.384-3.103,2.219-2.72,4.102L105.94,202.278z"/>
	<path style="fill:#F5F5F5;" d="M112.64,173.033c1.921,0,3.479-1.557,3.479-3.48v-3.479c0-1.923-1.558-3.48-3.479-3.48   c-1.922,0-3.48,1.556-3.48,3.48v3.479C109.16,171.476,110.718,173.033,112.64,173.033z"/>
	<path style="fill:#F5F5F5;" d="M147.437,169.553h3.48c1.922,0,3.48-1.556,3.48-3.479s-1.558-3.48-3.48-3.48h-3.48   c-1.922,0-3.48,1.556-3.48,3.48C143.957,167.997,145.515,169.553,147.437,169.553z"/>
	<path style="fill:#F5F5F5;" d="M124.768,215.286l-17.399,10.44c-1.649,0.989-2.182,3.126-1.193,4.775   c0.652,1.088,1.804,1.689,2.987,1.689c0.61,0,1.227-0.16,1.788-0.497l17.399-10.44c1.649-0.989,2.182-3.126,1.193-4.775   C128.553,214.83,126.418,214.297,124.768,215.286z"/>
	<path style="fill:#F5F5F5;" d="M171.681,221.441l0.082-0.055c0.292,1.176,0.793,2.314,1.606,3.27   c1.414,1.665,3.534,2.502,5.93,2.304c3.399-0.248,5.709-1.801,7.239-3.806c0.233,0.16,0.478,0.306,0.734,0.435   c1.881,0.948,4.056,0.876,6.127-0.198c5.259-2.708,6.392-8.974,6.232-12.25c-0.094-1.91-1.718-3.258-3.623-3.296   c-1.911,0.082-3.399,1.703-3.33,3.613c0.001,0.044,0.079,4.173-2.445,5.706c-0.412-0.574-0.9-1.866-1.084-2.933   c-0.294-1.791-1.939-3.038-3.709-2.895c-1.804,0.142-3.198,1.658-3.204,3.469c-0.001,0.506-0.114,4.972-3.561,5.345   c-0.401-0.547-0.408-2.851-0.013-4.554c0.333-1.397-0.227-2.855-1.408-3.67c-1.184-0.819-2.745-0.819-3.934-0.013l-1.942,1.321   c-0.922-20.18-3.047-43.695-3.073-43.996c-0.173-1.91-1.855-3.334-3.78-3.15c-1.914,0.173-3.325,1.866-3.151,3.783   c0.03,0.322,2.488,27.529,3.245,48.306c-0.178,0.169-0.361,0.354-0.535,0.516c-1.376-3.469-4.104-5.655-7.617-5.987   c-4.958-0.438-10.33,2.936-12.256,7.755c-1.66,4.146-0.615,8.221,2.66,10.378c2.355,1.553,5.909,2.042,10.378,0.476   c-1.091,3.833-3.078,7.721-5.66,10.728c-2.313,2.695-6.175,5.804-11.117,5.665c-2.877-0.113-5.087-1.054-6.758-2.881   c-4.029-4.401-3.682-12.366-3.679-12.451c0.1-1.917-1.367-3.551-3.283-3.657c-1.929-0.204-3.561,1.363-3.667,3.283   c-0.024,0.441-0.529,10.909,5.464,17.491c2.95,3.245,6.869,4.982,11.649,5.169c0.233,0.01,0.466,0.013,0.7,0.013   c5.821,0,11.469-2.855,15.968-8.098c4.232-4.928,7.106-11.622,7.968-17.836c-0.011,11.904-7.185,25.33-16.696,31.245   c-4.039,2.508-10.336,4.771-17.429,1.274c-8.744-4.316-7.702-14.31-7.656-14.718c0.239-1.907-1.114-3.647-3.021-3.884   c-1.898-0.231-3.648,1.111-3.884,3.021c-0.078,0.622-1.75,15.292,11.482,21.82c3.399,1.678,6.953,2.511,10.535,2.511   c4.601,0,9.245-1.376,13.647-4.115c11.58-7.198,19.985-22.836,19.985-37.183C171.796,226.468,171.753,224.018,171.681,221.441z    M150.699,225.028c-0.622-0.412-0.136-1.726-0.031-1.987c0.733-1.835,3.025-3.422,4.856-3.422c0.094,0,0.189,0.003,0.28,0.013   c0.445,0.041,1.626,0.153,2.134,2.78c0.054,0.279,0.1,0.564,0.136,0.856C154.196,225.545,151.596,225.617,150.699,225.028z"/>
	<path style="fill:#F5F5F5;" d="M114.397,257.033c-1.649-0.969-3.778-0.415-4.758,1.234c-0.16,0.268-0.372,0.561-0.588,0.825   c-0.038-0.088-0.075-0.183-0.113-0.286c-1.451-3.871-0.418-9.834,0.104-11.806c0.491-1.856-0.614-3.758-2.468-4.255   c-1.852-0.476-3.757,0.605-4.255,2.461c-0.253,0.941-2.392,9.389,0.102,16.043c1.597,4.255,4.049,5.329,5.826,5.474   c0.158,0.013,0.314,0.02,0.469,0.02c3.746,0,6.239-3.775,6.933-4.972C116.61,260.115,116.047,258.005,114.397,257.033z"/>
	<path style="fill:#F5F5F5;" d="M178.612,193.911c0.753,0,1.511-0.242,2.147-0.744l17.543-13.773   c0.242-0.19,0.397-0.439,0.574-0.673c2.526-1.524,4.236-4.268,4.236-7.427c0-4.798-3.903-8.7-8.7-8.7s-8.7,3.901-8.7,8.7   c0,2.685,1.248,5.058,3.164,6.655l-12.417,9.748c-1.511,1.186-1.774,3.374-0.588,4.883   C176.559,193.455,177.581,193.911,178.612,193.911z M194.414,169.553c0.96,0,1.74,0.781,1.74,1.74s-0.78,1.74-1.74,1.74   s-1.74-0.781-1.74-1.74S193.454,169.553,194.414,169.553z"/>
	<path style="fill:#F5F5F5;" d="M190.295,190.612c-1.833-0.611-3.796,0.377-4.403,2.199c-0.372,1.114-2.055,6.855,1.356,10.262   c1.323,1.325,3.063,1.988,5.199,1.985c1.428,0,3.031-0.292,4.807-0.887c1.823-0.605,2.808-2.575,2.2-4.401   c-0.608-1.822-2.575-2.814-4.403-2.199c-1.944,0.646-2.766,0.541-2.841,0.608c-0.205-0.516-0.07-2.07,0.287-3.181   C193.099,193.181,192.114,191.217,190.295,190.612z"/>
	<path style="fill:#F5F5F5;" d="M230.121,176.227c0.327,0.095,0.654,0.139,0.977,0.139c1.507,0,2.895-0.985,3.339-2.505l2.03-6.959   c0.538-1.845-0.522-3.778-2.365-4.316c-1.85-0.534-3.777,0.52-4.316,2.365l-2.03,6.959   C227.217,173.757,228.277,175.69,230.121,176.227z"/>
	<path style="fill:#F5F5F5;" d="M209.838,175.819c0.553,0.323,1.158,0.476,1.753,0.476c1.196,0,2.36-0.615,3.007-1.722   c0.97-1.658,0.412-3.793-1.247-4.76c-0.7-0.408-0.605-1.56-0.579-1.788c0.104-0.914,0.649-2.029,1.597-2.325   c1.835-0.57,2.86-2.521,2.289-4.356c-0.574-1.838-2.521-2.855-4.359-2.291c-3.469,1.08-5.998,4.292-6.443,8.18   C205.444,170.851,206.97,174.141,209.838,175.819z"/>
	<path style="fill:#F5F5F5;" d="M182.234,232.189c-1.922,0-3.48,1.557-3.48,3.48c0,1.699,1.217,3.113,2.827,3.418   c0.183,0.268,0.652,1.19,0.652,3.541c0,1.923,1.558,3.48,3.48,3.48s3.48-1.556,3.48-3.48   C189.194,232.308,182.518,232.189,182.234,232.189z"/>
	<path style="fill:#F5F5F5;" d="M241.27,217.78c0.437,0.072,0.872,0.106,1.309,0.106c2.734,0,5.496-1.379,8.232-4.115   c1.359-1.359,1.359-3.561,0-4.92s-3.561-1.359-4.92,0c-2.081,2.083-3.201,2.127-3.488,2.062c-0.664-0.095-1.266-0.962-1.4-1.199   c-0.873-1.693-2.943-2.368-4.647-1.516c-1.719,0.86-2.417,2.95-1.556,4.669C235.014,213.298,237.024,217.09,241.27,217.78z"/>
	<path style="fill:#F5F5F5;" d="M300.419,193.326c-0.022-0.054-0.043-0.106-0.06-0.153c-0.617-1.807-2.588-2.79-4.392-2.175   c-1.825,0.605-2.81,2.575-2.202,4.401c0.271,0.815,1.822,4.907,5.662,5.423c0.256,0.034,0.512,0.051,0.765,0.051   c2.411,0,4.673-1.56,6.73-4.646c1.065-1.597,0.633-3.758-0.966-4.825c-1.601-1.064-3.762-0.636-4.825,0.966   C300.856,192.779,300.618,193.092,300.419,193.326z"/>
	<path style="fill:#F5F5F5;" d="M293.587,256.547c0-14.839-0.652-28.76-1.558-40.958c4.941,8.569,9.386,17.228,12.218,24.782   c0.525,1.397,1.85,2.257,3.258,2.257c0.406,0,0.819-0.072,1.222-0.221c1.8-0.676,2.712-2.681,2.037-4.482   c-4.405-11.742-12.321-25.726-20.124-38.14c-1.902-18.745-4.032-30.643-4.07-30.855c-0.343-1.892-2.151-3.17-4.045-2.801   c-1.891,0.343-3.145,2.154-2.802,4.044c0.028,0.151,1.124,6.28,2.434,16.595c-2.674-3.967-5.156-7.546-7.242-10.492l0.17,0.054   c1.833,0.611,3.794-0.377,4.403-2.198c0.608-1.825-0.377-3.796-2.2-4.401l-10.44-3.48c-1.448-0.489-3.037,0.028-3.923,1.265   c-0.237,0.33-0.399,0.692-0.509,1.067c-2.083-1.54-4.755-2.793-7.263-1.742c-1.517,0.629-3.325,2.212-3.325,6.191   c0,3.055,1.165,6.358,2.401,9.858c2.049,5.804,3.332,10.072,1.162,12.108c-1.199,1.124-2.398,1.549-3.566,1.254   c-2.146-0.544-4.27-3.402-5.685-7.646c-0.062-0.184-0.19-0.318-0.278-0.483c0.732-5.39,0.413-11.884-1.062-19.253   c-0.375-1.886-2.204-3.113-4.095-2.729c-1.885,0.377-3.106,2.209-2.729,4.095c2.272,11.363,1.59,20.634-1.823,24.797   c-1.32,1.611-2.974,2.358-5.204,2.358c-0.705,0-1.186-0.224-1.665-0.775c-2.745-3.164-2.734-13.372-1.848-19.615   c0.141-0.995-0.158-2.008-0.819-2.77c-0.661-0.761-1.619-1.199-2.627-1.199c-5.987,0-8.258,6.809-10.261,12.818   c-0.878,2.641-2.516,7.551-3.658,8.061c-2.106,0-3.468-6.185-3.48-10.443c-0.006-1.92-1.561-3.473-3.48-3.473c0,0-0.003,0-0.006,0   c-1.92,0-3.475,1.557-3.475,3.477c0,8.026,2.734,17.399,10.44,17.399c5.738,0,8.062-6.252,10.008-12.064   c0.338,4.621,1.382,9.409,3.947,12.366c1.803,2.08,4.196,3.177,6.924,3.177c4.296,0,7.955-1.696,10.585-4.904   c0.477-0.58,0.887-1.247,1.292-1.92c2.02,2.873,4.499,4.767,7.292,5.472c0.819,0.207,1.643,0.312,2.458,0.312   c2.686,0,5.311-1.108,7.578-3.239c0.471-0.442,0.803-0.927,1.162-1.404c0.851,0.243,1.714,0.387,2.571,0.387   c2.819,0,5.533-1.135,7.217-2.216c1.611-1.033,2.077-3.167,1.054-4.785c-1.024-1.614-3.169-2.097-4.791-1.084   c-0.03,0.014-2.354,1.35-3.939,1.037c0.004-3.815-1.376-7.866-2.636-11.435c-0.717-2.033-1.452-4.115-1.8-5.817   c0.287,0.242,0.567,0.493,0.818,0.737c1.356,1.359,3.56,1.359,4.919,0c0.225-0.225,0.355-0.498,0.505-0.761   c3.607,4.969,11.026,15.411,18.657,27.447c1.457,14.795,2.735,33.668,2.735,54.368c0,1.923,1.558,3.48,3.48,3.48   C292.029,260.026,293.587,258.471,293.587,256.547z"/>
	<path style="fill:#F5F5F5;" d="M297.067,179.992c0,1.923,1.558,3.48,3.48,3.48s3.48-1.557,3.48-3.48   c0-4.095-3.204-10.711-3.847-11.996c-0.86-1.716-2.948-2.409-4.669-1.556c-1.719,0.86-2.417,2.95-1.556,4.669   C295.21,173.62,297.067,178.177,297.067,179.992z"/>
	<path style="fill:#F5F5F5;" d="M281.233,256.928c-1.706-0.87-3.802-0.18-4.671,1.533c-0.374,0.73-0.953,1.543-1.442,2.066   c-0.154-1.383,0.214-4.146,0.916-6.436c0.467-1.529-0.167-3.18-1.536-4.003c-1.365-0.825-3.123-0.611-4.252,0.52l-6.959,6.959   c-1.359,1.359-1.359,3.561,0,4.92s3.561,1.359,4.92,0l0.177-0.177c0.301,1.397,0.877,2.671,1.863,3.657   c1.304,1.305,2.881,1.995,4.521,1.995c0.318,0,0.637-0.028,0.957-0.078c3.942-0.639,6.396-4.985,7.054-6.301   C283.637,259.866,282.944,257.791,281.233,256.928z"/>
	<path style="fill:#F5F5F5;" d="M279.885,228.926H255.36c0.217-0.866,0.441-1.693,0.67-2.477c9.78-2.033,15.593-5.19,17.302-9.402   c0.591-1.461,1.208-4.414-1.309-7.809c-2.269-3.059-5.471-4.431-8.797-3.752c-4.945,1.002-9.35,6.33-12.512,14.86   c-9.824,1.682-16.111,5.208-20.092,8.689c-1.412-14.26-6.948-22.731-7.217-23.134c-1.067-1.601-3.229-2.033-4.825-0.966   c-1.599,1.067-2.03,3.225-0.966,4.825c0.063,0.095,6.375,9.749,6.375,25.908c0,15.883-12.665,27.838-20.878,27.838   c-3.907,0-5.618-4.644-6.369-8.572c8.042-5.636,15.138-12.158,16.705-18.424c2.121-8.479-0.548-14.728-2.314-18.863   c-0.083-0.19-0.17-0.394-0.258-0.605c0.075,0.068,0.146,0.139,0.217,0.207c1.356,1.359,3.56,1.359,4.919,0   c1.359-1.359,1.359-3.562,0-4.92c-2.034-2.036-5.984-5.234-9.575-3.732c-1.517,0.629-3.326,2.212-3.326,6.191   c0,1.798,0.751,3.554,1.621,5.593c1.567,3.667,3.516,8.231,1.963,14.442c-0.919,3.676-5.433,8.135-11.39,12.563   c-0.639-0.764-1.561-1.277-2.633-1.277h-0.006c-1.92,0.003-3.475,1.557-3.475,3.477c0,0.626,0.028,1.295,0.068,1.982   c-7.447,4.823-15.874,9.287-22.388,12.249c-1.749,0.796-2.521,2.858-1.726,4.608c0.583,1.281,1.847,2.039,3.169,2.039   c0.482,0,0.972-0.098,1.438-0.312c1.956-0.889,11.243-5.216,20.783-11.128c1.757,5.965,5.48,11.441,12.575,11.441   c8.348,0,17.818-6.826,23.284-17.017c0.66,1.165,1.418,2.281,2.322,3.322c8.759,10.1,25.867,10.215,26.591,10.215   c1.874,0,3.41-1.482,3.478-3.354c0.066-1.873-1.361-3.463-3.229-3.595c-0.028-0.003-2.801-0.309-4.343-2.111   c-0.931-1.088-1.303-2.582-1.139-4.57c0.356-4.288,14.189-7.494,26.38-7.683c1.452-0.024,2.739-0.945,3.226-2.314l3.48-9.786   c0.378-1.064,0.216-2.25-0.437-3.17C282.078,229.476,281.015,228.926,279.885,228.926z M264.611,212.309   c0.066-0.013,0.154-0.034,0.265-0.034c0.333,0,0.858,0.163,1.558,1.108c0.132,0.177,0.556,0.781,0.449,1.047   c-0.399,0.985-2.802,2.613-7.808,4.088C261.277,214.222,263.43,212.547,264.611,212.309z M243.596,258.052   c-3.535-1.149-7.138-2.97-9.632-5.855c-2.741-3.17-3.753-7.18-3.089-12.254c0.1-0.267,0.328-0.792,0.726-1.475   c4.9-0.449,17.991,1.483,18.898,5.231c-4.038,2.061-7.012,4.959-7.356,9.079C242.97,254.845,243.181,256.595,243.596,258.052z"/>
	<path style="fill:#F5F5F5;" d="M317.768,178.891l-3.48-10.44c-0.561-1.678-2.303-2.681-4.029-2.301   c-1.735,0.371-2.912,1.984-2.735,3.748c2.401,24.012,6.943,70.839,6.943,76.209c0,4.822-8.577,14.316-22.435,21.246   c-1.719,0.86-2.417,2.949-1.556,4.669c0.61,1.22,1.838,1.923,3.116,1.923c0.522,0,1.054-0.119,1.553-0.367   c12.659-6.33,26.282-17.626,26.282-27.471c0-5.142-3.556-42.134-5.593-62.914C317.483,182.489,318.345,180.625,317.768,178.891z"/>
	<path style="fill:#F5F5F5;" d="M346.803,210.291c0.67,0.67,1.56,1.02,2.462,1.02c0.588,0,1.181-0.149,1.719-0.456   c1.361-0.775,2.037-2.365,1.652-3.884c-0.623-2.446-0.831-5.505-0.501-6.755c1.743,0.054,3.361-1.186,3.617-2.984   c0.271-1.903-1.05-3.667-2.952-3.938c-2.301-0.312-4.321,0.363-5.732,1.933c-0.914,1.02-1.458,2.328-1.753,3.735l-4.03-4.03   c-1.359-1.359-3.562-1.359-4.92,0c-1.359,1.359-1.359,3.561,0,4.92L346.803,210.291z"/>
	<path style="fill:#F5F5F5;" d="M354.631,213.92l-13.049,9.352c-1.561,1.118-1.922,3.293-0.802,4.856   c0.68,0.948,1.748,1.451,2.833,1.451c0.702,0,1.41-0.211,2.024-0.652l13.049-9.352c1.561-1.118,1.921-3.293,0.802-4.856   C358.366,213.155,356.188,212.791,354.631,213.92z"/>
	<path style="fill:#F5F5F5;" d="M353.475,227.006c-1.095,1.41-0.938,3.394,0.305,4.615c0.149,0.252,0.828,1.583,0.705,5.009   c-0.068,1.923,1.434,3.534,3.354,3.602c0.042,0.003,0.085,0.003,0.126,0.003c1.866,0,3.409-1.479,3.477-3.354   c0.253-7.102-2.071-9.698-3.082-10.484C356.845,225.212,354.655,225.491,353.475,227.006z"/>
	<path style="fill:#F5F5F5;" d="M383.843,252.632c1.922,0,3.48-1.556,3.48-3.48c0-5.134-0.264-10.866-0.695-16.829   c3.451,5.654,6.317,10.867,8.155,15.154c0.564,1.322,1.848,2.11,3.2,2.11c0.457,0,0.922-0.088,1.369-0.282   c1.766-0.758,2.584-2.804,1.826-4.567c-3.186-7.435-9.14-17.283-15.921-27.45c-1.365-12.772-3.148-25.287-4.534-34.264   c0.737,0.075,1.502-0.105,2.173-0.541c1.099-0.704,1.614-1.927,1.54-3.144c0.089,0.342,0.185,0.685,0.385,1   c0.023,0.034,2.26,3.727,1.268,8.52c-0.39,1.879,0.821,3.721,2.703,4.111c0.238,0.047,0.476,0.072,0.708,0.072   c1.615,0,3.063-1.132,3.405-2.776c1.571-7.602-2.058-13.419-2.212-13.664c-1.033-1.618-3.185-2.093-4.806-1.067   c-1.103,0.703-1.625,1.927-1.554,3.147c-0.09-0.344-0.19-0.69-0.392-1.005l-5.873-9.134c-0.897-1.394-2.653-1.958-4.193-1.359   c-1.545,0.605-2.449,2.212-2.162,3.843c0.049,0.274,2.708,15.544,5.065,33.949c-2.668-3.767-5.335-7.452-7.922-10.966   c-0.42-5.265-0.842-10.132-1.207-14.157c0.192-0.057,0.381-0.132,0.566-0.224c1.719-0.86,2.417-2.95,1.557-4.669l-3.48-6.959   c-0.751-1.502-2.465-2.25-4.079-1.788c-1.612,0.469-2.663,2.018-2.496,3.69c0.415,4.153,0.847,8.75,1.271,13.579   c-2.201-2.902-4.238-5.557-5.98-7.806c0.34-0.292,0.63-0.655,0.844-1.084c0.86-1.719,0.163-3.809-1.556-4.669l-6.959-3.48   c-1.46-0.727-3.232-0.346-4.263,0.925c-1.026,1.271-1.032,3.085-0.01,4.363c0.188,0.234,8.756,10.974,19.005,24.836   c1.778,22.991,2.962,46.908,1.29,51.922c-0.306,0.918-0.84,1.998-1.341,2.036c-2.103,0.292-7.123-4.41-9.644-9.45   c-1.453-2.902-3.543-3.204-4.661-3.154c-3.74,0.231-5.199,4.346-7.851,11.816c-1.901,5.352-4.263,12.006-6.915,14.728   c-1.437-1.756-3.295-7.646-4.327-13.7c0.484,1.338,1.738,2.306,3.243,2.306c1.922,0,3.48-1.556,3.48-3.479   c0-5.19-3.629-44.711-5.656-66.37c1.693-0.68,2.582-2.572,1.998-4.326l-3.48-10.44c-0.559-1.678-2.276-2.668-4.022-2.304   c-1.731,0.367-2.912,1.974-2.744,3.735c2.365,24.824,6.799,72.772,6.937,79.39c-0.009-0.06-0.021-0.118-0.029-0.178   c-0.27-1.903-2.046-3.208-3.937-2.953c-1.903,0.275-3.223,2.036-2.952,3.938c1.016,7.113,3.613,19.342,9.593,21.334   c0.472,0.16,1.108,0.302,1.854,0.302c1.372,0,3.115-0.486,4.897-2.27c3.79-3.789,6.355-11.014,8.618-17.385   c0.512-1.441,1.117-3.147,1.687-4.608c3.192,4.662,8.763,10.466,14.406,10.012c1.984-0.142,5.593-1.209,7.449-6.776   c1.85-5.551,1.119-24.91-0.128-43.445c2.932,4.109,5.866,8.317,8.667,12.472c1.086,10.421,1.863,20.861,1.863,29.436   C380.364,251.075,381.922,252.632,383.843,252.632z"/>
	<path style="fill:#F5F5F5;" d="M410.251,234.329c-2.465-18.364-5.899-39.637-8.074-52.693c0.982,0.242,2.052,0.044,2.915-0.619   c1.529-1.165,1.822-3.35,0.655-4.876l-6.307-8.265c-0.973-1.271-2.69-1.719-4.159-1.077c-1.47,0.642-2.31,2.206-2.036,3.786   c0.063,0.356,6.268,36.078,10.106,64.668c1.466,10.925-0.674,20.689-5.729,26.112c-3.249,3.484-7.554,5.06-12.764,4.757   c-1.913-0.102-3.572,1.338-3.692,3.255s1.335,3.569,3.254,3.69c0.588,0.038,1.167,0.054,1.741,0.054   c6.562,0,12.257-2.405,16.551-7.014C409.271,259.075,412.019,247.49,410.251,234.329z"/>
	<path style="fill:#F5F5F5;" d="M371.97,257.268c-1.279,1.389-1.181,3.578,0.172,4.889c0.189,0.183,0.415,0.544,0.416,0.721   c0.001,0.098-0.139,0.391-0.526,0.778c-1.359,1.359-1.359,3.561,0,4.92c0.68,0.68,1.57,1.02,2.461,1.02   c0.89,0,1.781-0.34,2.461-1.02c2.207-2.206,2.612-4.445,2.562-5.937c-0.107-3.211-2.294-5.284-2.731-5.668   C375.363,255.735,373.248,255.884,371.97,257.268z"/>
	<path style="fill:#F5F5F5;" d="M359.703,333.58h-3.48h-20.878v-3.48c0-1.923-1.558-3.48-3.48-3.48s-3.48,1.557-3.48,3.48v3.48   H143.957c6.959,6.959,20.878,10.44,31.318,10.44c7.487,0,100.879,0,153.11,0v6.959c0,1.923,1.558,3.48,3.48,3.48h27.838   c5.757,0,10.44-4.683,10.44-10.44C370.142,338.263,365.46,333.58,359.703,333.58z M359.703,347.499h-24.359v-3.48   c16.77,0,27.838,0,27.838,0l-0.625-1.873c0.362,0.548,0.625,1.167,0.625,1.873C363.182,345.94,361.621,347.499,359.703,347.499z"/>
</g>
<g>
</g>
<g>
</g>
<g>
</g>
<g>
</g>
<g>
</g>
<g>
</g>
<g>
</g>
<g>
</g>
<g>
</g>
<g>
</g>
<g>
</g>
<g>
</g>
<g>
</g>
<g>
</g>
<g>
</g>
</svg>
