<?xml version="1.0" encoding="iso-8859-1"?>
<!-- Generator: Adobe Illustrator 19.0.0, SVG Export Plug-In . SVG Version: 6.00 Build 0)  -->
<svg xmlns="http://www.w3.org/2000/svg" xmlns:xlink="http://www.w3.org/1999/xlink" version="1.1" id="Layer_1" x="0px" y="0px" viewBox="0 0 512 512" style="enable-background:new 0 0 512 512;" xml:space="preserve">
<path style="fill:#41479B;" d="M473.885,88.276H38.115C17.045,88.399,0,105.515,0,126.615v258.759  c0,21.177,17.167,38.345,38.345,38.345h435.31c21.177,0,38.345-17.167,38.345-38.345V126.615  C512,105.515,494.955,88.399,473.885,88.276z"/>
<path style="fill:#73AF00;" d="M498.304,97.249l-484.6,317.496c6.665,5.597,15.257,8.972,24.641,8.972h435.31  c21.177,0,38.345-17.167,38.345-38.345V126.614C512,114.825,506.675,104.284,498.304,97.249z"/>
<path style="fill:#FFE15A;" d="M512,97.103c0-4.875-3.953-8.828-8.828-8.828h-15.339L0,407.891v7.006  c0,4.875,3.953,8.828,8.828,8.828h15.339L512,104.109V97.103z"/>
<g>
	<path style="fill:#F5F5F5;" d="M44.429,115.778l-4.726,14.169l-14.936,0.116c-1.432,0.011-2.026,1.839-0.874,2.69l12.015,8.873   l-4.505,14.241c-0.433,1.366,1.123,2.495,2.289,1.663l12.152-8.685l12.152,8.685c1.165,0.833,2.72-0.297,2.289-1.663l-4.505-14.241   l12.015-8.873c1.152-0.851,0.558-2.679-0.874-2.69l-14.936-0.116l-4.726-14.169C46.805,114.419,44.883,114.419,44.429,115.778z"/>
	<path style="fill:#F5F5F5;" d="M158.21,115.778l-4.726,14.169l-14.936,0.116c-1.432,0.011-2.026,1.839-0.874,2.69l12.015,8.873   l-4.505,14.241c-0.433,1.366,1.123,2.495,2.289,1.663l12.152-8.685l12.152,8.685c1.165,0.833,2.72-0.297,2.289-1.663l-4.505-14.241   l12.015-8.873c1.152-0.851,0.558-2.679-0.874-2.69l-14.936-0.116l-4.726-14.169C160.585,114.419,158.663,114.419,158.21,115.778z"/>
	<path style="fill:#F5F5F5;" d="M101.32,166.476l-4.726,14.169l-14.936,0.116c-1.432,0.011-2.026,1.839-0.874,2.69l12.015,8.873   l-4.505,14.241c-0.433,1.366,1.123,2.495,2.289,1.663l12.152-8.685l12.152,8.685c1.165,0.833,2.72-0.297,2.289-1.663l-4.505-14.241   l12.015-8.873c1.152-0.851,0.558-2.679-0.874-2.69l-14.936-0.116l-4.726-14.169C103.694,165.117,101.773,165.117,101.32,166.476z"/>
	<path style="fill:#F5F5F5;" d="M44.429,217.174l-4.726,14.169l-14.936,0.116c-1.432,0.011-2.026,1.839-0.874,2.69l12.015,8.873   l-4.505,14.241c-0.433,1.366,1.123,2.495,2.289,1.663l12.152-8.685l12.152,8.685c1.165,0.833,2.72-0.297,2.289-1.663l-4.505-14.241   l12.015-8.873c1.152-0.851,0.558-2.679-0.874-2.69l-14.936-0.116l-4.726-14.169C46.805,215.815,44.883,215.815,44.429,217.174z"/>
	<path style="fill:#F5F5F5;" d="M158.21,217.174l-4.726,14.169l-14.936,0.116c-1.432,0.011-2.026,1.839-0.874,2.69l12.015,8.873   l-4.505,14.241c-0.433,1.366,1.123,2.495,2.289,1.663l12.152-8.685l12.152,8.685c1.165,0.833,2.72-0.297,2.289-1.663l-4.505-14.241   l12.015-8.873c1.152-0.851,0.558-2.679-0.874-2.69l-14.936-0.116l-4.726-14.169C160.585,215.815,158.663,215.815,158.21,217.174z"/>
</g>
<g>
</g>
<g>
</g>
<g>
</g>
<g>
</g>
<g>
</g>
<g>
</g>
<g>
</g>
<g>
</g>
<g>
</g>
<g>
</g>
<g>
</g>
<g>
</g>
<g>
</g>
<g>
</g>
<g>
</g>
</svg>
