<?xml version="1.0" encoding="iso-8859-1"?>
<!-- Generator: Adobe Illustrator 19.0.0, SVG Export Plug-In . SVG Version: 6.00 Build 0)  -->
<svg xmlns="http://www.w3.org/2000/svg" xmlns:xlink="http://www.w3.org/1999/xlink" version="1.1" id="Layer_1" x="0px" y="0px" viewBox="0 0 512 512" style="enable-background:new 0 0 512 512;" xml:space="preserve">
<path style="fill:#F5F5F5;" d="M473.655,423.724H38.345C17.167,423.724,0,406.557,0,385.378V126.62  c0-21.177,17.167-38.345,38.345-38.345h435.31c21.177,0,38.345,17.167,38.345,38.345V385.38  C512,406.557,494.833,423.724,473.655,423.724z"/>
<path style="fill:#FF4B55;" d="M473.655,88.275H38.345C17.167,88.275,0,105.442,0,126.62v129.379h512V126.62  C512,105.442,494.833,88.275,473.655,88.275z"/>
<g>
	<path style="fill:#F5F5F5;" d="M0,255.999h512v158.897c0,4.875-3.953,8.828-8.828,8.828H8.828c-4.875,0-8.828-3.953-8.828-8.828   V255.999z"/>
	<path style="fill:#F5F5F5;" d="M72.569,172.262c0-29.028,21.3-53.091,49.113-57.543c1.51-0.242,1.578-2.319,0.088-2.663   c-6.886-1.583-14.199-2.034-21.793-1c-29.998,4.086-53.186,30.046-53.61,60.318c-0.483,34.566,27.383,62.712,61.785,62.712   c4.683,0,9.23-0.547,13.606-1.554c1.489-0.342,1.414-2.424-0.094-2.666C93.862,225.419,72.569,201.404,72.569,172.262z"/>
	<path style="fill:#F5F5F5;" d="M122.14,187.794l-2.613,7.836l-8.259,0.064c-1.069,0.009-1.513,1.373-0.652,2.008l6.644,4.907   l-2.492,7.875c-0.322,1.02,0.839,1.863,1.708,1.241l6.72-4.803l6.72,4.803c0.87,0.622,2.03-0.222,1.708-1.241l-2.492-7.875   l6.644-4.907c0.861-0.636,0.417-1.999-0.652-2.008l-8.259-0.064l-2.613-7.836C123.913,186.781,122.478,186.781,122.14,187.794z"/>
	<path style="fill:#F5F5F5;" d="M162.967,187.794l-2.613,7.836l-8.259,0.064c-1.069,0.009-1.513,1.373-0.652,2.008l6.644,4.907   l-2.492,7.875c-0.322,1.02,0.839,1.863,1.708,1.241l6.72-4.803l6.72,4.803c0.87,0.622,2.03-0.222,1.708-1.241l-2.492-7.875   l6.644-4.907c0.861-0.636,0.417-1.999-0.652-2.008l-8.259-0.064l-2.613-7.836C164.74,186.781,163.306,186.781,162.967,187.794z"/>
	<path style="fill:#F5F5F5;" d="M142.738,124.789l-2.613,7.836l-8.259,0.064c-1.069,0.008-1.513,1.373-0.652,2.008l6.644,4.907   l-2.492,7.875c-0.322,1.02,0.839,1.863,1.708,1.241l6.72-4.803l6.72,4.803c0.87,0.622,2.03-0.222,1.708-1.241l-2.492-7.875   l6.644-4.907c0.861-0.636,0.417-1.999-0.652-2.008l-8.259-0.064l-2.613-7.836C144.511,123.775,143.076,123.775,142.738,124.789z"/>
	<path style="fill:#F5F5F5;" d="M110.186,148.928l-2.613,7.836l-8.259,0.064c-1.069,0.008-1.513,1.373-0.652,2.008l6.644,4.907   l-2.492,7.875c-0.322,1.02,0.839,1.863,1.708,1.241l6.72-4.803l6.72,4.803c0.87,0.622,2.03-0.222,1.708-1.241l-2.492-7.875   l6.645-4.907c0.861-0.636,0.417-1.999-0.652-2.008l-8.259-0.064l-2.613-7.836C111.959,147.913,110.524,147.913,110.186,148.928z"/>
	<path style="fill:#F5F5F5;" d="M175.014,148.928l-2.613,7.836l-8.259,0.064c-1.069,0.008-1.513,1.373-0.652,2.008l6.644,4.907   l-2.492,7.875c-0.322,1.02,0.839,1.863,1.708,1.241l6.72-4.803l6.72,4.803c0.87,0.622,2.03-0.222,1.708-1.241l-2.492-7.875   l6.644-4.907c0.861-0.636,0.417-1.999-0.652-2.008l-8.259-0.064l-2.613-7.836C176.787,147.913,175.352,147.913,175.014,148.928z"/>
</g>
<g>
</g>
<g>
</g>
<g>
</g>
<g>
</g>
<g>
</g>
<g>
</g>
<g>
</g>
<g>
</g>
<g>
</g>
<g>
</g>
<g>
</g>
<g>
</g>
<g>
</g>
<g>
</g>
<g>
</g>
</svg>
