<?xml version="1.0" encoding="iso-8859-1"?>
<!-- Generator: Adobe Illustrator 19.0.0, SVG Export Plug-In . SVG Version: 6.00 Build 0)  -->
<svg xmlns="http://www.w3.org/2000/svg" xmlns:xlink="http://www.w3.org/1999/xlink" version="1.1" id="Layer_1" x="0px" y="0px" viewBox="0 0 512 512" style="enable-background:new 0 0 512 512;" xml:space="preserve">
<path style="fill:#F5F5F5;" d="M473.655,88.276H38.345C17.167,88.276,0,105.443,0,126.621v73.471h512v-73.471  C512,105.443,494.833,88.276,473.655,88.276z"/>
<path style="fill:#FF4B55;" d="M0,385.379c0,21.177,17.167,38.345,38.345,38.345h435.31c21.177,0,38.345-17.167,38.345-38.345  v-73.471H0V385.379z"/>
<g>
	<rect y="200.09" style="fill:#41479B;" width="512" height="111.81"/>
	<path style="fill:#41479B;" d="M172.014,157.37c0,0-1.778,56.628-9.724,72.53c-9.836,19.545-19.725,25.247-34.438,30.515   c-14.711-5.267-24.6-10.965-34.438-30.515c-7.945-15.903-9.725-72.524-9.724-72.53C111.767,144.693,143.937,144.693,172.014,157.37   z"/>
</g>
<g>
	<path style="fill:#F5F5F5;" d="M140.64,235.897c-1.076-0.69-1.852-1.184-3.618-1.184c-1.761,0-2.537,0.493-3.608,1.184   c-1.227,0.781-2.753,1.759-5.59,1.759c-2.839,0-4.365-0.978-5.592-1.763c-1.071-0.685-1.845-1.178-3.606-1.178   s-2.535,0.493-3.606,1.178c-1.159,0.743-2.624,1.628-5.171,1.727c5.361,6.538,10.983,9.64,17.998,12.333   c7.012-2.694,12.632-5.793,17.994-12.331C143.276,237.529,141.803,236.638,140.64,235.897z"/>
	<path style="fill:#F5F5F5;" d="M105.832,225.437c1.071,0.685,1.843,1.178,3.598,1.178c1.761,0,2.535-0.493,3.606-1.178   c1.227-0.786,2.753-1.763,5.59-1.763c2.837,0,4.363,0.978,5.59,1.759c1.071,0.69,1.847,1.184,3.608,1.184s2.535-0.493,3.606-1.178   c1.227-0.786,2.753-1.763,5.592-1.763c2.841,0,4.371,0.978,5.597,1.759c1.076,0.69,1.849,1.184,3.616,1.184   c1.766,0,2.542-0.493,3.618-1.184c1.025-0.653,2.312-1.409,4.35-1.651c0.534-1.39,1.053-2.975,1.536-4.9l-13.17-21.95l-4.907,9.814   l-9.814-19.627l-9.814,19.627l-4.907-9.814L99.966,218.87c0.481,1.924,0.999,3.516,1.534,4.915   C103.529,224.025,104.81,224.781,105.832,225.437z"/>
	<path style="fill:#F5F5F5;" d="M151.831,228.537c-1.227,0.781-2.755,1.759-5.597,1.759c-2.839,0-4.367-0.978-5.594-1.759   c-1.076-0.69-1.852-1.184-3.618-1.184c-1.761,0-2.537,0.493-3.608,1.184c-1.227,0.781-2.753,1.759-5.59,1.759   c-2.839,0-4.365-0.978-5.592-1.763c-1.071-0.685-1.845-1.178-3.606-1.178s-2.535,0.493-3.606,1.178   c-1.227,0.786-2.753,1.763-5.59,1.763c-2.835,0-4.359-0.978-5.582-1.763c-0.007-0.003-0.011-0.007-0.017-0.011   c0.962,1.746,1.923,3.349,2.881,4.803c0.716,0.393,1.465,0.651,2.718,0.651c1.761,0,2.535-0.493,3.606-1.178   c1.227-0.786,2.753-1.763,5.59-1.763s4.363,0.978,5.59,1.759c1.071,0.69,1.847,1.184,3.608,1.184s2.535-0.493,3.606-1.178   c1.227-0.786,2.753-1.763,5.592-1.763c2.841,0,4.371,0.978,5.597,1.759c1.076,0.69,1.849,1.184,3.616,1.184   c1.272,0,2.027-0.262,2.754-0.663c0.957-1.452,1.918-3.055,2.879-4.798C151.855,228.523,151.844,228.53,151.831,228.537z"/>
</g>
<g>
	<path style="fill:#FFE15A;" d="M128.046,170.222l0.861,2.814l2.867-0.661c0.194-0.045,0.33,0.19,0.194,0.335l-2.006,2.153   l2.006,2.153c0.136,0.146,0.001,0.381-0.194,0.335l-2.867-0.661l-0.861,2.814c-0.058,0.191-0.329,0.191-0.387,0l-0.861-2.814   l-2.867,0.661c-0.194,0.045-0.33-0.19-0.194-0.335l2.006-2.153l-2.006-2.153c-0.136-0.147-0.001-0.381,0.194-0.335l2.867,0.661   l0.861-2.814C127.718,170.031,127.988,170.031,128.046,170.222z"/>
	<path style="fill:#FFE15A;" d="M113.939,156.702l0.861,2.814l2.867-0.661c0.195-0.045,0.33,0.19,0.194,0.335l-2.006,2.153   l2.006,2.153c0.136,0.147,0.001,0.381-0.194,0.335l-2.867-0.661l-0.861,2.814c-0.058,0.191-0.329,0.191-0.387,0l-0.861-2.814   l-2.867,0.661c-0.194,0.045-0.33-0.19-0.194-0.335l2.006-2.153l-2.006-2.153c-0.136-0.146-0.001-0.381,0.194-0.335l2.867,0.661   l0.861-2.814C113.61,156.511,113.88,156.511,113.939,156.702z"/>
	<path style="fill:#FFE15A;" d="M142.255,156.702l0.861,2.814l2.867-0.661c0.194-0.045,0.33,0.19,0.194,0.335l-2.006,2.153   l2.006,2.153c0.136,0.147,0.001,0.381-0.194,0.335l-2.867-0.661l-0.861,2.814c-0.058,0.191-0.329,0.191-0.387,0l-0.861-2.814   l-2.867,0.661c-0.194,0.045-0.33-0.19-0.194-0.335l2.006-2.153l-2.006-2.153c-0.137-0.146-0.001-0.381,0.194-0.335l2.867,0.661   l0.861-2.814C141.927,156.511,142.197,156.511,142.255,156.702z"/>
</g>
<path style="fill:#FF1722;" d="M166.934,155.238c0.03,1.565,0.055,3.144,0.055,4.849c-0.708,17.704-3.342,56.258-9.082,67.87  c-8.463,16.996-16.277,22.614-30.055,27.791c-13.778-5.176-21.591-10.793-30.048-27.778c-5.761-11.656-8.414-50.866-9.091-67.882  c0-1.707,0.028-3.268,0.052-4.846c-1.698,0.664-3.386,1.368-5.058,2.123c0.118,3.438,0.974,25.992,3.545,45.823  c1.45,11.071,3.446,21.274,6.163,26.713c9.837,19.55,19.726,25.248,34.438,30.515c14.713-5.269,24.602-10.969,34.439-30.515  c2.718-5.439,4.713-15.642,6.164-26.713c2.57-19.831,3.425-42.385,3.544-45.823C170.325,156.608,168.636,155.903,166.934,155.238z"/>
<g>
</g>
<g>
</g>
<g>
</g>
<g>
</g>
<g>
</g>
<g>
</g>
<g>
</g>
<g>
</g>
<g>
</g>
<g>
</g>
<g>
</g>
<g>
</g>
<g>
</g>
<g>
</g>
<g>
</g>
</svg>
