<?xml version="1.0" encoding="iso-8859-1"?>
<!-- Generator: Adobe Illustrator 19.0.0, SVG Export Plug-In . SVG Version: 6.00 Build 0)  -->
<svg xmlns="http://www.w3.org/2000/svg" xmlns:xlink="http://www.w3.org/1999/xlink" version="1.1" id="Layer_1" x="0px" y="0px" viewBox="0 0 512 512" style="enable-background:new 0 0 512 512;" xml:space="preserve">
<path style="fill:#73AF00;" d="M38.345,88.273C17.167,88.273,0,105.44,0,126.618v258.759c0,21.177,17.167,38.345,38.345,38.345  h132.322V88.273H38.345z"/>
<rect x="170.67" y="88.277" style="fill:#FFE15A;" width="170.67" height="335.45"/>
<path style="fill:#FF4B55;" d="M473.655,88.273H341.333v335.448h132.322c21.177,0,38.345-17.167,38.345-38.345V126.618  C512,105.44,494.833,88.273,473.655,88.273z"/>
<path style="fill:#73AF00;" d="M258.04,205.777l11.693,35.062l36.959,0.287c2.067,0.017,2.924,2.654,1.261,3.881l-29.732,21.955  l11.148,35.239c0.623,1.971-1.62,3.601-3.302,2.399L256,283.106l-30.069,21.492c-1.682,1.202-3.925-0.428-3.302-2.399l11.148-35.239  l-29.732-21.955c-1.663-1.228-0.806-3.865,1.261-3.881l36.959-0.287l11.693-35.062C254.613,203.816,257.387,203.816,258.04,205.777z  "/>
<g>
</g>
<g>
</g>
<g>
</g>
<g>
</g>
<g>
</g>
<g>
</g>
<g>
</g>
<g>
</g>
<g>
</g>
<g>
</g>
<g>
</g>
<g>
</g>
<g>
</g>
<g>
</g>
<g>
</g>
</svg>
