<?xml version="1.0" encoding="iso-8859-1"?>
<!-- Generator: Adobe Illustrator 19.0.0, SVG Export Plug-In . SVG Version: 6.00 Build 0)  -->
<svg xmlns="http://www.w3.org/2000/svg" xmlns:xlink="http://www.w3.org/1999/xlink" version="1.1" id="Layer_1" x="0px" y="0px" viewBox="0 0 512 512" style="enable-background:new 0 0 512 512;" xml:space="preserve">
<path style="fill:#82AFFF;" d="M473.655,423.724H38.345C17.167,423.724,0,406.557,0,385.379V126.621  c0-21.177,17.167-38.345,38.345-38.345h435.31c21.177,0,38.345,17.167,38.345,38.345V385.38  C512,406.557,494.833,423.724,473.655,423.724z"/>
<path style="fill:#F5F5F5;" d="M253.466,193.448l-14.81,44.409l-46.813,0.363c-2.567,0.02-3.63,3.295-1.566,4.82l37.658,27.809  l-14.121,44.633c-0.775,2.447,2.012,4.471,4.099,2.978L256,291.239l38.086,27.222c2.088,1.492,4.874-0.532,4.099-2.978  l-14.121-44.633l37.658-27.809c2.065-1.525,1.001-4.8-1.566-4.82l-46.813-0.363l-14.81-44.409  C257.721,191.014,254.279,191.014,253.466,193.448z"/>
<g>
</g>
<g>
</g>
<g>
</g>
<g>
</g>
<g>
</g>
<g>
</g>
<g>
</g>
<g>
</g>
<g>
</g>
<g>
</g>
<g>
</g>
<g>
</g>
<g>
</g>
<g>
</g>
<g>
</g>
</svg>
