<?xml version="1.0" encoding="iso-8859-1"?>
<!-- Generator: Adobe Illustrator 19.0.0, SVG Export Plug-In . SVG Version: 6.00 Build 0)  -->
<svg xmlns="http://www.w3.org/2000/svg" xmlns:xlink="http://www.w3.org/1999/xlink" version="1.1" id="Layer_1" x="0px" y="0px" viewBox="0 0 512 512" style="enable-background:new 0 0 512 512;" xml:space="preserve">
<path style="fill:#FF4B55;" d="M473.655,88.276H38.345C17.167,88.276,0,105.443,0,126.621v73.471h512v-73.471  C512,105.443,494.833,88.276,473.655,88.276z"/>
<path style="fill:#464655;" d="M0,385.379c0,21.177,17.167,38.345,38.345,38.345h435.31c21.177,0,38.345-17.167,38.345-38.345  v-73.471H0V385.379z"/>
<rect y="200.09" style="fill:#F5F5F5;" width="512" height="111.81"/>
<g>
	<path style="fill:#73AF00;" d="M150.03,223.314l7.36,22.068l23.262,0.18c3.011,0.023,4.26,3.866,1.837,5.656l-18.713,13.82   l7.017,22.179c0.908,2.871-2.361,5.247-4.811,3.496l-18.925-13.527l-18.925,13.527c-2.451,1.751-5.719-0.625-4.811-3.496   l7.017-22.179l-18.713-13.82c-2.423-1.789-1.174-5.633,1.837-5.656l23.263-0.18l7.36-22.068   C145.036,220.457,149.077,220.457,150.03,223.314z"/>
	<path style="fill:#73AF00;" d="M367.917,223.314l7.36,22.068l23.262,0.18c3.011,0.023,4.26,3.866,1.837,5.656l-18.713,13.82   l7.017,22.179c0.908,2.871-2.361,5.247-4.811,3.496l-18.925-13.527l-18.925,13.527c-2.451,1.751-5.719-0.625-4.811-3.496   l7.017-22.179l-18.713-13.82c-2.423-1.789-1.174-5.633,1.837-5.656l23.262-0.18l7.36-22.068   C362.923,220.457,366.964,220.457,367.917,223.314z"/>
</g>
<g>
</g>
<g>
</g>
<g>
</g>
<g>
</g>
<g>
</g>
<g>
</g>
<g>
</g>
<g>
</g>
<g>
</g>
<g>
</g>
<g>
</g>
<g>
</g>
<g>
</g>
<g>
</g>
<g>
</g>
</svg>
