<?xml version="1.0" encoding="iso-8859-1"?>
<!-- Generator: Adobe Illustrator 19.0.0, SVG Export Plug-In . SVG Version: 6.00 Build 0)  -->
<svg xmlns="http://www.w3.org/2000/svg" xmlns:xlink="http://www.w3.org/1999/xlink" version="1.1" id="Layer_1" x="0px" y="0px" viewBox="0 0 512 512" style="enable-background:new 0 0 512 512;" xml:space="preserve">
<path style="fill:#41479B;" d="M473.655,423.724H38.345C17.167,423.724,0,406.557,0,385.379V126.621  c0-21.177,17.167-38.345,38.345-38.345h435.31c21.177,0,38.345,17.167,38.345,38.345V385.38  C512,406.557,494.833,423.724,473.655,423.724z"/>
<path style="fill:#F5F5F5;" d="M8.828,256h15.334l81.77-53.574V256h44.138v-53.574L231.839,256h15.334  c4.875,0,8.828-3.953,8.828-8.828v-7.002l-70.154-45.963H256v-44.138h-70.155L256,104.106v-7.002c0-4.875-3.95-8.826-8.825-8.828  h-15.337l-81.769,53.574V88.276h-44.138v53.574L26.844,90.034c-9.234,2.9-16.954,9.203-21.711,17.434l65.023,42.601H0v44.138h70.155  L0,240.17v7.002C0,252.047,3.953,256,8.828,256z"/>
<g>
	<polygon style="fill:#FF4B55;" points="256,158.897 141.241,158.897 141.241,88.276 114.759,88.276 114.759,158.897 0,158.897    0,185.379 114.759,185.379 114.759,256 141.241,256 141.241,185.379 256,185.379  "/>
	<path style="fill:#FF4B55;" d="M8.227,102.902l72.662,47.167h16.214l-82.496-53.55C12.238,98.389,10.097,100.532,8.227,102.902z"/>
	<path style="fill:#FF4B55;" d="M166.283,150.069l88.374-57.366c-1.536-2.599-4.246-4.427-7.485-4.427h-1.909l-95.194,61.793   H166.283z"/>
	<path style="fill:#FF4B55;" d="M89.474,194.207L1.269,251.463C2.79,254.125,5.542,256,8.828,256h1.665l95.196-61.793H89.474z"/>
	<path style="fill:#FF4B55;" d="M255.86,247.865l-82.666-53.658H156.98l93.874,60.935   C253.666,253.837,255.595,251.102,255.86,247.865z"/>
</g>
<path style="fill:#FFE15A;" d="M344.073,205.977c-1.065,0-1.928,0.863-1.928,1.928v32.774c0,65.547,46.269,77.114,46.269,77.114  s46.269-11.567,46.269-77.114v-32.774c0-1.065-0.863-1.928-1.928-1.928H344.073L344.073,205.977z"/>
<path style="fill:#F5F5F5;" d="M429.864,210.797v29.881c0,55.751-34.461,69.813-41.448,72.089  c-7.026-2.291-41.451-16.369-41.451-72.089v-29.881L429.864,210.797 M432.755,205.977h-88.682c-1.065,0-1.928,0.863-1.928,1.928  v32.774c0,65.547,46.269,77.114,46.269,77.114s46.269-11.567,46.269-77.114v-32.774C434.682,206.84,433.82,205.977,432.755,205.977  L432.755,205.977z"/>
<path style="fill:#73AF00;" d="M393.589,267.04h-9.863c0,0-7.954,7.954-9.778,25.426c-0.058,0.557,0.167,1.121,0.608,1.468  c1.673,1.311,6.372,4.339,14.101,4.339s12.428-3.028,14.101-4.339c0.441-0.345,0.665-0.91,0.608-1.468  C401.543,274.994,393.589,267.04,393.589,267.04z"/>
<g>
	<path style="fill:#FF4B55;" d="M393.589,265.396h-9.863v-8.219c0-2.712,2.219-4.931,4.931-4.931l0,0   c2.712,0,4.931,2.219,4.931,4.931v8.219H393.589z"/>
	<path style="fill:#FF4B55;" d="M393.589,268.683h-9.863c-0.908,0-1.644-0.736-1.644-1.644l0,0c0-0.908,0.736-1.644,1.644-1.644   h9.863c0.908,0,1.644,0.736,1.644,1.644l0,0C395.232,267.947,394.496,268.683,393.589,268.683z"/>
</g>
<path style="fill:#D35A10;" d="M426.464,232.338c-0.291,0-4.579,0.02-9.041,0.787v-2.57c3.765-1.718,7.454-2.607,7.517-2.622  c0.441-0.104,0.716-0.546,0.612-0.988c-0.105-0.441-0.546-0.717-0.988-0.612c-0.248,0.057-3.561,0.854-7.171,2.425  c-0.058-0.985-0.401-1.889-0.956-2.635c2.946-2.28,5.455-3.729,5.502-3.755c0.394-0.225,0.532-0.726,0.308-1.121  c-0.226-0.395-0.728-0.532-1.121-0.308c-0.199,0.114-2.831,1.632-5.887,4.019c-0.786-0.53-1.731-0.839-2.748-0.839  c-1.057,0-2.033,0.341-2.836,0.909c0.843-4.23,2.575-6.061,2.599-6.084c0.318-0.321,0.317-0.84-0.003-1.159  c-0.321-0.321-0.841-0.321-1.162,0c-0.098,0.098-1.695,1.747-2.707,5.452c-1.012-3.706-2.609-5.355-2.707-5.452  c-0.319-0.319-0.835-0.319-1.158-0.001c-0.321,0.318-0.324,0.838-0.008,1.161c0.023,0.023,1.756,1.855,2.599,6.084  c-0.803-0.568-1.779-0.909-2.836-0.909c-1.016,0-1.962,0.31-2.748,0.839c-3.055-2.388-5.687-3.905-5.887-4.019  c-0.395-0.225-0.897-0.087-1.121,0.308c-0.225,0.395-0.087,0.896,0.308,1.121c0.046,0.026,2.556,1.474,5.503,3.754  c-0.556,0.747-0.897,1.651-0.957,2.636c-3.609-1.572-6.923-2.368-7.171-2.425c-0.444-0.106-0.884,0.171-0.988,0.612  c-0.104,0.442,0.171,0.885,0.612,0.988c0.063,0.014,3.752,0.903,7.517,2.622v2.57c-4.461-0.768-8.749-0.787-9.041-0.787  c-0.454,0-0.822,0.367-0.822,0.822c0,0.454,0.367,0.822,0.822,0.822c0.071,0,4.564,0.018,9.041,0.812v2.659  c-2.466-0.074-5.217,0.271-7.765,1.547c-0.406,0.203-0.57,0.696-0.367,1.102c0.145,0.288,0.435,0.455,0.736,0.455  c0.124,0,0.248-0.028,0.366-0.087c2.269-1.133,4.769-1.429,7.029-1.353v10.17c0,1.241-0.124,2.489-0.366,3.708l-1.261,6.304  c-0.089,0.446,0.2,0.878,0.644,0.967c0.054,0.011,0.108,0.017,0.162,0.017c0.384,0,0.727-0.269,0.806-0.661l1.261-6.304  c0.265-1.325,0.399-2.68,0.399-4.03v-10.048c1.233,0.138,2.34,0.36,3.231,0.583l0.627,8.14c0.078,1.015,0.586,1.891,1.327,2.486  l-2.666,3.998c-1.428,2.143,0.107,5.012,2.682,5.012h4.391c2.574,0,4.11-2.87,2.682-5.012l-2.666-3.998  c0.742-0.595,1.249-1.472,1.327-2.486l0.626-8.14c0.891-0.223,1.998-0.445,3.231-0.583v10.047c0,1.35,0.134,2.705,0.399,4.03  l1.261,6.304c0.078,0.391,0.422,0.661,0.806,0.661c0.053,0,0.107-0.004,0.162-0.017c0.445-0.089,0.734-0.522,0.644-0.967  l-1.261-6.304c-0.243-1.218-0.366-2.465-0.366-3.708v-10.17c2.26-0.076,4.761,0.22,7.029,1.353c0.118,0.058,0.243,0.087,0.366,0.087  c0.301,0,0.591-0.167,0.736-0.455c0.203-0.406,0.039-0.899-0.367-1.102c-2.547-1.273-5.298-1.619-7.765-1.546v-2.66  c4.477-0.794,8.97-0.812,9.041-0.812c0.455,0,0.822-0.369,0.822-0.822C427.286,232.706,426.918,232.338,426.464,232.338z   M415.779,233.441c-0.982,0.213-1.949,0.466-2.86,0.769c-0.017-0.324-0.064-0.638-0.145-0.942c0.911-0.704,1.935-1.343,3.006-1.909  v2.082H415.779z M415.779,229.05v0.455c-1.302,0.647-2.584,1.397-3.732,2.248c-0.238-0.326-0.513-0.619-0.829-0.871  c1.229-1.362,2.596-2.624,3.941-3.737C415.546,227.683,415.779,228.339,415.779,229.05z M412.492,225.763  c0.49,0,0.951,0.115,1.369,0.308c-1.42,1.193-2.86,2.55-4.149,4.022c-0.168-0.052-0.333-0.103-0.509-0.135v-0.087  c0-0.374,0.013-0.729,0.026-1.082C409.366,227.101,410.767,225.763,412.492,225.763z M404.273,225.763  c1.724,0,3.126,1.337,3.261,3.027c0.013,0.353,0.026,0.707,0.026,1.082v0.087c-0.175,0.032-0.341,0.083-0.509,0.135  c-1.289-1.472-2.729-2.829-4.149-4.022C403.321,225.878,403.783,225.763,404.273,225.763z M400.985,229.05  c0-0.713,0.233-1.368,0.62-1.907c1.345,1.113,2.711,2.376,3.94,3.737c-0.316,0.252-0.59,0.546-0.829,0.872  c-1.148-0.851-2.429-1.601-3.732-2.248L400.985,229.05L400.985,229.05z M400.985,231.36c1.07,0.566,2.094,1.205,3.006,1.909  c-0.082,0.305-0.129,0.618-0.145,0.941c-0.913-0.303-1.878-0.556-2.86-0.769v-2.081H400.985z M400.985,237.569v-2.441  c1.03,0.233,2.024,0.515,2.935,0.854l0.162,2.105C403.189,237.879,402.138,237.689,400.985,237.569z M415.779,237.57  c-1.153,0.12-2.204,0.31-3.097,0.518l0.162-2.105c0.911-0.339,1.906-0.62,2.935-0.854V237.57z"/>
<path style="fill:#FFA033;" d="M374.535,254.529h-3.692l-14.109-12.541c-1.542-1.369-2.194-3.482-1.694-5.483l3.934-15.737  c0.348-1.393,2.082-1.873,3.096-0.857l6.385,6.385c0.346,0.346,0.815,0.541,1.305,0.541h4.773v27.693L374.535,254.529  L374.535,254.529z"/>
<path style="fill:#FF9480;" d="M371.889,223.051l-2.265,10.197c-0.41,1.848-0.341,3.772,0.203,5.586l4.708,15.695h3.692  l4.708-15.695c0.544-1.814,0.615-3.737,0.203-5.586l-2.265-10.197c-0.468-2.103-2.333-3.599-4.488-3.599h-0.01  C374.221,219.45,372.355,220.947,371.889,223.051z"/>
<path style="fill:#FFA0E4;" d="M376.381,223.143L376.381,223.143c-1.02,0-1.846,0.826-1.846,1.846v29.539h3.692v-29.539  C378.227,223.97,377.4,223.143,376.381,223.143z"/>
<g>
</g>
<g>
</g>
<g>
</g>
<g>
</g>
<g>
</g>
<g>
</g>
<g>
</g>
<g>
</g>
<g>
</g>
<g>
</g>
<g>
</g>
<g>
</g>
<g>
</g>
<g>
</g>
<g>
</g>
</svg>
