<?xml version="1.0" encoding="iso-8859-1"?>
<!-- Generator: Adobe Illustrator 19.0.0, SVG Export Plug-In . SVG Version: 6.00 Build 0)  -->
<svg xmlns="http://www.w3.org/2000/svg" xmlns:xlink="http://www.w3.org/1999/xlink" version="1.1" id="Layer_1" x="0px" y="0px" viewBox="0 0 512.064 512.064" style="enable-background:new 0 0 512.064 512.064;" xml:space="preserve">
<path style="fill:#FF4B55;" d="M473.792,423.776H38.336C17.216,423.776,0,406.688,0,385.44V126.624  c0-21.184,17.216-38.336,38.336-38.336h435.392c21.184,0,38.336,17.216,38.336,38.336v258.88  C512.128,406.688,494.912,423.776,473.792,423.776z"/>
<path style="fill:#FFE15A;" d="M14.592,415.584l272.832-154.048c4.288-2.432,4.288-8.576,0-11.008L14.592,96.48  C5.696,103.456,0,114.4,0,126.56v258.88C0,397.664,5.696,408.544,14.592,415.584z"/>
<path style="fill:#464655;" d="M12.224,413.472l183.552-151.424c3.776-3.072,3.776-9.024,0-12.096L12.224,98.592  C4.736,105.632,0,115.616,0,126.624v258.88C0,396.576,4.736,406.432,12.224,413.472z"/>
<path style="fill:#F5F5F5;" d="M55.104,214.496l0.832,31.808l-29.824,11.072c-2.88,1.088-2.688,5.12,0.192,6.016l30.528,9.024  l1.28,31.808c0.128,3.008,4.096,4.224,5.824,1.728l17.984-26.176l30.592,8.512c2.88,0.832,5.184-2.624,3.392-4.992L96.576,258.08  l17.6-26.496c1.728-2.496-0.832-5.824-3.712-4.672l-30.016,10.624L60.8,212.512C58.944,210.144,55.104,211.552,55.104,214.496z"/>
<g>
</g>
<g>
</g>
<g>
</g>
<g>
</g>
<g>
</g>
<g>
</g>
<g>
</g>
<g>
</g>
<g>
</g>
<g>
</g>
<g>
</g>
<g>
</g>
<g>
</g>
<g>
</g>
<g>
</g>
</svg>
