<?xml version="1.0" encoding="iso-8859-1"?>
<!-- Generator: Adobe Illustrator 19.0.0, SVG Export Plug-In . SVG Version: 6.00 Build 0)  -->
<svg xmlns="http://www.w3.org/2000/svg" xmlns:xlink="http://www.w3.org/1999/xlink" version="1.1" id="Layer_1" x="0px" y="0px" viewBox="0 0 512 512" style="enable-background:new 0 0 512 512;" xml:space="preserve">
<path style="fill:#FF4B55;" d="M38.345,423.724h435.31c21.177,0,38.345-17.167,38.345-38.345V126.622  c0-21.177-17.167-38.345-38.345-38.345H38.345C17.167,88.277,0,105.444,0,126.622V385.38C0,406.557,17.167,423.724,38.345,423.724z"/>
<path style="fill:#F5F5F5;" d="M8.828,256h185.379c4.875,0,8.828-3.953,8.828-8.828V97.104c0-4.874-3.95-8.826-8.825-8.828H38.345  C17.167,88.277,0,105.444,0,126.622v120.552C0,252.048,3.953,256,8.828,256z"/>
<polygon style="fill:#FF4B55;" points="167.724,150.07 123.586,150.07 123.586,105.932 79.448,105.932 79.448,150.07 35.31,150.07   35.31,194.208 79.448,194.208 79.448,238.346 123.586,238.346 123.586,194.208 167.724,194.208 "/>
<g>
</g>
<g>
</g>
<g>
</g>
<g>
</g>
<g>
</g>
<g>
</g>
<g>
</g>
<g>
</g>
<g>
</g>
<g>
</g>
<g>
</g>
<g>
</g>
<g>
</g>
<g>
</g>
<g>
</g>
</svg>
