<?xml version="1.0" encoding="iso-8859-1"?>
<!-- Generator: Adobe Illustrator 19.0.0, SVG Export Plug-In . SVG Version: 6.00 Build 0)  -->
<svg xmlns="http://www.w3.org/2000/svg" xmlns:xlink="http://www.w3.org/1999/xlink" version="1.1" id="Layer_1" x="0px" y="0px" viewBox="0 0 512 512" style="enable-background:new 0 0 512 512;" xml:space="preserve">
<path style="fill:#FF4B55;" d="M473.655,88.275H38.345C17.167,88.275,0,105.442,0,126.62V385.38  c0,21.177,17.167,38.345,38.345,38.345h435.31c21.177,0,38.345-17.167,38.345-38.345V126.62  C512,105.442,494.833,88.275,473.655,88.275z"/>
<g>
	<path style="fill:#F5F5F5;" d="M253.474,225.751l13.837,18.101l21.606-7.232c1.208-0.405,2.236,0.962,1.513,2.01l-12.939,18.753   l13.555,18.314c0.758,1.024-0.224,2.423-1.444,2.059l-21.834-6.511l-13.228,18.55c-0.739,1.037-2.375,0.536-2.406-0.737   l-0.555-22.777l-21.73-6.849c-1.215-0.383-1.244-2.092-0.042-2.515l21.491-7.566l-0.202-22.783   C251.083,225.294,252.701,224.74,253.474,225.751z"/>
	<path style="fill:#F5F5F5;" d="M176.956,326.661c-38.995,0-70.627-31.633-70.627-70.663c0-38.958,31.633-70.662,70.627-70.662   c14.508,0,27.887,4.462,39.038,12.014c1.707,1.156,3.656-1.087,2.227-2.573c-16.663-17.325-40.248-27.894-66.398-27.002   c-44.926,1.533-82.118,37.553-84.989,82.413c-3.288,51.384,37.398,94.087,88.054,94.087c24.953,0,47.379-10.432,63.393-27.111   c1.415-1.474-0.538-3.683-2.229-2.537C204.89,322.195,191.489,326.661,176.956,326.661z"/>
</g>
<g>
</g>
<g>
</g>
<g>
</g>
<g>
</g>
<g>
</g>
<g>
</g>
<g>
</g>
<g>
</g>
<g>
</g>
<g>
</g>
<g>
</g>
<g>
</g>
<g>
</g>
<g>
</g>
<g>
</g>
</svg>
