<?xml version="1.0" encoding="iso-8859-1"?>
<!-- Generator: Adobe Illustrator 19.0.0, SVG Export Plug-In . SVG Version: 6.00 Build 0)  -->
<svg xmlns="http://www.w3.org/2000/svg" xmlns:xlink="http://www.w3.org/1999/xlink" version="1.1" id="Layer_1" x="0px" y="0px" viewBox="0 0 511.9 511.9" style="enable-background:new 0 0 511.9 511.9;" xml:space="preserve">
<path style="fill:#3CC8FF;" d="M473.7,423.65H38.3c-21.1,0-38.3-17.1-38.3-38.3v-258.8c0-21.2,17.2-38.3,38.3-38.3h435.3  c21.2,0,38.3,17.2,38.3,38.3v258.8C512,406.55,494.8,423.65,473.7,423.65z"/>
<path style="fill:#41479B;" d="M0.1,124.45v122.6c0,4.9,4,8.8,8.8,8.8h238.3c4.9,0,8.8-4,8.8-8.8v-150c0-4.9-4-8.8-8.8-8.8H38.3  C17.9,88.25,1.1,104.25,0.1,124.45z"/>
<path style="fill:#F5F5F5;" d="M150.1,141.75v-53.5H106v53.6l-79.1-51.9c-9.2,2.9-17,9.2-21.7,17.4l65.1,42.6H0.1v44.1h70.2  l-70.2,46v7c0,4.9,4,8.8,8.8,8.8h15.3l81.8-53.6v53.7h44.1v-53.6l81.8,53.6h15.3c4.9,0,8.8-4,8.8-8.8v-7l-70.2-46H256v-44.1h-70.2  l70.2-46v-7c0-4.9-4-8.8-8.8-8.8h-15.3L150.1,141.75z"/>
<g>
	<polygon style="fill:#FF4B55;" points="256.1,158.85 141.3,158.85 141.3,88.25 114.8,88.25 114.8,158.85 0.1,158.85 0.1,185.35    114.8,185.35 114.8,255.95 141.3,255.95 141.3,185.35 256.1,185.35  "/>
	<path style="fill:#FF4B55;" d="M8.2,102.85l72.7,47.2h16.2l-82.5-53.6C12.3,98.35,10.1,100.45,8.2,102.85z"/>
	<path style="fill:#FF4B55;" d="M166.3,150.05l88.4-57.4c-1.5-2.6-4.2-4.4-7.5-4.4h-1.9l-95.2,61.8H166.3z"/>
	<path style="fill:#FF4B55;" d="M89.5,194.15l-88.2,57.3c1.5,2.7,4.3,4.5,7.6,4.5h1.7l95.2-61.8H89.5z"/>
	<path style="fill:#FF4B55;" d="M255.9,247.85l-82.7-53.7H157l93.9,60.9C253.7,253.75,255.7,251.05,255.9,247.85z"/>
</g>
<g>
	<path style="fill:#FFE15A;" d="M284.4,362.75l4.3,12.9l13.6,0.1c1.8,0,2.5,2.3,1.1,3.3l-10.9,8.1l4.1,12.9c0.5,1.7-1.4,3.1-2.8,2   l-11-7.9l-11,7.9c-1.4,1-3.3-0.4-2.8-2l4.1-12.9l-10.9-8.1c-1.4-1-0.7-3.3,1.1-3.3l13.6-0.1l4.3-12.9   C281.5,361.05,283.8,361.05,284.4,362.75z"/>
	<path style="fill:#FFE15A;" d="M409.4,265.55l4.3,12.9l13.6,0.1c1.8,0,2.5,2.3,1.1,3.3l-10.9,8.1l4.1,12.9c0.5,1.7-1.4,3.1-2.8,2   l-11-7.9l-11,7.9c-1.4,1-3.3-0.4-2.8-2l4.1-12.9l-10.9-8.1c-1.4-1-0.7-3.3,1.1-3.3l13.6-0.1l4.3-12.9   C406.5,263.85,408.8,263.85,409.4,265.55z"/>
	<path style="fill:#FFE15A;" d="M468.3,229.35l4.3,12.9l13.6,0.1c1.8,0,2.5,2.3,1.1,3.3l-10.9,8.1l4.1,12.9c0.5,1.7-1.4,3.1-2.8,2   l-11-7.9l-11,7.9c-1.4,1-3.3-0.4-2.8-2l4.1-12.9l-10.9-8.1c-1.4-1-0.7-3.3,1.1-3.3l13.6-0.1l4.3-12.9   C465.4,227.75,467.8,227.75,468.3,229.35z"/>
	<path style="fill:#FFE15A;" d="M454.3,105.45l4.3,12.9l13.6,0.1c1.8,0,2.5,2.3,1.1,3.3l-10.9,8.1l4.1,12.9c0.5,1.7-1.4,3.1-2.8,2   l-11-7.9l-11,7.9c-1.4,1-3.3-0.4-2.8-2l4.1-12.9l-10.9-8.1c-1.4-1-0.7-3.3,1.1-3.3l13.6-0.1l4.3-12.9   C451.4,103.75,453.7,103.75,454.3,105.45z"/>
	<path style="fill:#FFE15A;" d="M336.6,394.95l-4.3-12.9l-13.6-0.1c-1.8,0-2.5-2.3-1.1-3.3l10.9-8.1l-4.1-12.9   c-0.5-1.7,1.4-3.1,2.8-2l11,7.9l11-7.9c1.4-1,3.3,0.4,2.8,2l-4.1,12.9l10.9,8.1c1.4,1,0.7,3.3-1.1,3.3l-13.6,0.1l-4.3,12.9   C339.6,396.55,337.2,396.55,336.6,394.95z"/>
	<path style="fill:#FFE15A;" d="M377.3,358.45l-4.3-12.9l-13.6-0.1c-1.8,0-2.5-2.3-1.1-3.3l10.9-8.1l-4.1-12.9   c-0.5-1.7,1.4-3.1,2.8-2l11,7.9l11-7.9c1.4-1,3.3,0.4,2.8,2l-4.1,12.9l10.9,8.1c1.4,1,0.7,3.3-1.1,3.3l-13.6,0.1l-4.3,12.9   C380.2,360.15,377.8,360.15,377.3,358.45z"/>
	<path style="fill:#FFE15A;" d="M413.8,199.45l-4.3-12.9l-13.6-0.1c-1.8,0-2.5-2.3-1.1-3.3l10.9-8.1l-4.1-12.9   c-0.5-1.7,1.4-3.1,2.8-2l11,7.9l11-7.9c1.4-1,3.3,0.4,2.8,2l-4.1,12.9l10.9,8.1c1.4,1,0.7,3.3-1.1,3.3l-13.6,0.1l-4.3,12.9   C416.7,201.15,414.4,201.15,413.8,199.45z"/>
	<path style="fill:#FFE15A;" d="M371.6,213.05l-4.3-12.9l-13.6-0.1c-1.8,0-2.5-2.3-1.1-3.3l10.9-8.1l-4.1-12.9   c-0.5-1.7,1.4-3.1,2.8-2l11,7.9l11-7.9c1.4-1,3.3,0.4,2.8,2l-4.1,12.9l10.9,8.1c1.4,1,0.7,3.3-1.1,3.3l-13.6,0.1l-4.3,12.9   C374.6,214.65,372.2,214.65,371.6,213.05z"/>
	<path style="fill:#FFE15A;" d="M344.6,318.15l-4.3-12.9l-13.6-0.1c-1.8,0-2.5-2.3-1.1-3.3l10.9-8.1l-4.1-12.9   c-0.5-1.7,1.4-3.1,2.8-2l11,7.9l11-7.9c1.4-1,3.3,0.4,2.8,2l-4.1,12.9l11.1,8.2c1.4,1,0.7,3.3-1.1,3.3l-13.6,0.1l-4.3,12.9   C347.5,319.85,345.2,319.85,344.6,318.15z"/>
</g>
<g>
</g>
<g>
</g>
<g>
</g>
<g>
</g>
<g>
</g>
<g>
</g>
<g>
</g>
<g>
</g>
<g>
</g>
<g>
</g>
<g>
</g>
<g>
</g>
<g>
</g>
<g>
</g>
<g>
</g>
</svg>
