<?xml version="1.0" encoding="iso-8859-1"?>
<!-- Generator: Adobe Illustrator 19.0.0, SVG Export Plug-In . SVG Version: 6.00 Build 0)  -->
<svg xmlns="http://www.w3.org/2000/svg" xmlns:xlink="http://www.w3.org/1999/xlink" version="1.1" id="Layer_1" x="0px" y="0px" viewBox="0 0 512 512" style="enable-background:new 0 0 512 512;" xml:space="preserve">
<path style="fill:#F5F5F5;" d="M473.655,88.275H256v335.448h217.655c21.177,0,38.345-17.167,38.345-38.345V126.62  C512,105.442,494.833,88.275,473.655,88.275z"/>
<path style="fill:#FFE15A;" d="M38.345,88.275C17.167,88.275,0,105.442,0,126.62V385.38c0,21.177,17.167,38.345,38.345,38.345H256  V88.275H38.345z"/>
<g>
	<path style="fill:#EBEBEB;" d="M408.267,174.751l-0.587,1.173c1.895,0.97,2.978,2.074,2.978,3.25l-0.295-5.831   C409.969,174.126,409.196,174.688,408.267,174.751z"/>
	<path style="fill:#EBEBEB;" d="M362.438,175.924l-0.587-1.173c-0.928-0.064-1.7-0.625-2.098-1.408l-0.294,5.831   C359.459,178.001,360.543,176.895,362.438,175.924z"/>
	<path style="fill:#EBEBEB;" d="M362.019,169.665c1.414,0,2.56,1.146,2.56,2.56c0,0.512-0.189,0.962-0.448,1.362l0.674,1.347   c1.932-0.679,4.312-1.256,7.027-1.703l-0.288-1.152c-1.058-0.314-1.845-1.256-1.845-2.415c0-1.414,1.146-2.56,2.56-2.56   s2.56,1.146,2.56,2.56c0,0.722-0.303,1.367-0.783,1.833l0.342,1.367c1.427-0.179,2.922-0.32,4.474-0.426   c-0.116-0.481-0.193-0.978-0.193-1.494c0-3.534,2.866-6.4,6.4-6.4s6.4,2.866,6.4,6.4c0,0.518-0.077,1.013-0.193,1.494   c1.554,0.105,3.049,0.247,4.474,0.426l0.342-1.367c-0.48-0.466-0.783-1.111-0.783-1.833c0-1.414,1.146-2.56,2.56-2.56   s2.56,1.146,2.56,2.56c0,1.16-0.787,2.101-1.845,2.415l-0.288,1.152c2.714,0.446,5.095,1.023,7.027,1.703l0.674-1.347   c-0.259-0.401-0.448-0.85-0.448-1.362c0-1.414,1.146-2.56,2.56-2.56c0.921,0,1.693,0.513,2.143,1.244l-0.196-3.904   c-2.528-2.87-12.746-5.02-24.987-5.02s-22.458,2.148-24.986,5.02l-0.196,3.904C360.327,170.178,361.098,169.665,362.019,169.665z"/>
</g>
<path style="fill:#E6B432;" d="M389.056,139.55c0.693-0.874,1.123-1.964,1.123-3.165c0-2.383-1.635-4.367-3.84-4.939v-3.134  c0.751-0.446,1.28-1.23,1.28-2.167c0-1.414-1.146-2.56-2.56-2.56s-2.56,1.146-2.56,2.56c0,0.937,0.529,1.721,1.28,2.167v3.134  c-2.205,0.57-3.84,2.556-3.84,4.939c0,1.202,0.431,2.292,1.123,3.165c1.302-0.356,2.628-0.605,3.997-0.605  S387.753,139.193,389.056,139.55z"/>
<path style="fill:#EBEBEB;" d="M374.332,152.51l-0.227-0.909c-1.058-0.314-1.845-1.256-1.845-2.415c0-1.414,1.146-2.56,2.56-2.56  s2.56,1.146,2.56,2.56c0,0.722-0.303,1.367-0.783,1.833l0.289,1.154c2.505-0.274,5.267-0.427,8.174-0.427  c-2.121,0-3.84-1.719-3.84-3.84s1.719-3.84,3.84-3.84s3.84,1.719,3.84,3.84s-1.719,3.84-3.84,3.84c2.908,0,5.67,0.153,8.174,0.427  l0.289-1.154c-0.48-0.466-0.783-1.111-0.783-1.833c0-1.414,1.146-2.56,2.56-2.56s2.56,1.146,2.56,2.56  c0,1.16-0.787,2.101-1.845,2.415l-0.227,0.909c1.301,0.201,2.511,0.434,3.597,0.7l1.887-3.774  c-3.265-5.059-7.484-8.589-12.216-9.885c-1.302-0.356-2.628-0.605-3.997-0.605c-1.368,0-2.694,0.248-3.997,0.605  c-4.733,1.295-8.951,4.825-12.216,9.885l1.887,3.774C371.82,152.945,373.031,152.712,374.332,152.51z"/>
<g>
	<path style="fill:#E6B432;" d="M382.499,362.135v-5.59c0-0.599,0.084-1.175,0.214-1.734c-0.068-0.044-0.143-0.075-0.214-0.116   c-0.756-0.439-1.623-0.71-2.56-0.71s-1.804,0.27-2.56,0.71c-1.524,0.887-2.56,2.519-2.56,4.41c0,1.377,0.551,2.622,1.434,3.541   c1.098-0.606,2.343-0.981,3.685-0.981C380.842,361.665,381.695,361.849,382.499,362.135z"/>
	<path style="fill:#E6B432;" d="M387.619,341.896c-1.524,0.887-2.56,2.519-2.56,4.41c0,1.377,0.551,2.622,1.434,3.541   c1.098-0.606,2.343-0.981,3.686-0.981c1.343,0,2.586,0.375,3.686,0.981c0.884-0.92,1.434-2.164,1.434-3.541   c0-1.89-1.036-3.523-2.56-4.41c-0.756-0.439-1.623-0.71-2.56-0.71C389.242,341.185,388.375,341.456,387.619,341.896z"/>
</g>
<path style="fill:#FF4B57;" d="M386.494,349.846c-1.88,1.037-3.283,2.817-3.78,4.966c-0.129,0.559-0.214,1.135-0.214,1.734v5.59  c-0.804-0.286-1.657-0.47-2.56-0.47c-1.343,0-2.588,0.375-3.686,0.981c-2.37,1.308-3.994,3.8-3.994,6.699v10.24h15.36v-10.24  c0-0.903-0.184-1.756-0.47-2.56h10.71v-10.24c0-2.898-1.624-5.391-3.994-6.699c-1.098-0.606-2.343-0.981-3.686-0.981  S387.592,349.24,386.494,349.846z"/>
<g>
	<path style="fill:#E6B432;" d="M387.619,246.896l4.374,4.375l1.496-1.496c0.355-0.355,0.797-0.538,1.254-0.641l21.651-21.656   l13.868,13.868l9.05-9.05l-3.62-3.62l-1.811,1.81l-3.62-3.62l1.81-1.81l-1.81-1.811l3.62-3.62l1.811,1.81l1.81-1.81l3.62,3.62   l-1.81,1.811l3.62,3.62l9.05-9.05l-13.871-13.871l9.492-9.495c-0.458-0.188-0.888-0.465-1.26-0.836l-5.12-5.12   c-0.382-0.382-0.661-0.825-0.849-1.297l-53.333,53.347c0.341,0.435,0.577,0.958,0.577,1.554L387.619,246.896L387.619,246.896z"/>
	<path style="fill:#E6B432;" d="M381.747,262.133l-7.241-7.241l-22.507,22.514c-1.998,2.001-1.998,5.242,0.001,7.24   c1,1,2.31,1.5,3.62,1.5s2.622-0.5,3.622-1.5l17.592-17.597L381.747,262.133z"/>
</g>
<g>
	<path style="fill:#D2D2D2;" d="M311.864,288.704c0.142-0.402,0.235-0.828,0.235-1.279c0-2.121-1.719-3.84-3.84-3.84   s-3.84,1.719-3.84,3.84c0,2.121,1.719,3.84,3.84,3.84c0.451,0,0.877-0.092,1.279-0.235   C310.264,290.206,311.04,289.43,311.864,288.704z"/>
	<path style="fill:#D2D2D2;" d="M309.538,324.781c-0.402-0.142-0.828-0.235-1.279-0.235c-2.121,0-3.84,1.719-3.84,3.84   c0,2.121,1.719,3.84,3.84,3.84s3.84-1.719,3.84-3.84c0-0.45-0.092-0.877-0.235-1.279   C311.04,326.381,310.264,325.604,309.538,324.781z"/>
	<path style="fill:#D2D2D2;" d="M347.94,291.031c0.402,0.142,0.828,0.235,1.279,0.235c2.121,0,3.84-1.719,3.84-3.84   c0-2.121-1.719-3.84-3.84-3.84s-3.84,1.719-3.84,3.84c0,0.451,0.092,0.877,0.235,1.279   C346.439,289.43,347.214,290.206,347.94,291.031z"/>
	<path style="fill:#D2D2D2;" d="M345.379,328.385c0,2.121,1.719,3.84,3.84,3.84c1.183,0,2.227-0.546,2.932-1.387   c-2.407-0.871-4.655-1.841-6.727-2.903C345.407,328.086,345.379,328.232,345.379,328.385z"/>
</g>
<path style="fill:#E6B432;" d="M340.033,324.678c-0.539-0.391-0.862-0.957-0.987-1.561c-0.435,0.094-0.884,0.149-1.347,0.149  c-3.04,0-5.581-2.135-6.23-4.983c-0.696,0.705-1.662,1.143-2.73,1.143c-1.069,0-2.035-0.438-2.73-1.143  c-0.648,2.848-3.189,4.983-6.23,4.983c-3.529,0-6.4-2.87-6.4-6.4c0-3.041,2.136-5.581,4.983-6.23  c-0.705-0.696-1.143-1.662-1.143-2.73c0-1.069,0.438-2.035,1.143-2.73c-2.847-0.648-4.983-3.189-4.983-6.23  c0-3.53,2.871-6.4,6.4-6.4c3.04,0,5.581,2.135,6.23,4.983c0.696-0.705,1.662-1.143,2.73-1.143c1.069,0,2.035,0.438,2.73,1.143  c0.648-2.848,3.189-4.983,6.23-4.983c3.529,0,6.4,2.87,6.4,6.4c0,3.041-2.136,5.581-4.983,6.23c0.705,0.696,1.143,1.662,1.143,2.73  c0,1.069-0.438,2.035-1.143,2.73c2.847,0.648,4.983,3.189,4.983,6.23c0,1.35-0.425,2.599-1.141,3.633  c0.024,0.017,0.053,0.018,0.077,0.035c1.656,1.199,3.565,2.314,5.685,3.333c0.638-0.797,1.218-1.639,1.758-2.509  c1.687-2.717,2.879-5.763,3.451-9.027c0.253-1.44,0.409-2.912,0.409-4.424c0-6.466-2.43-12.364-6.399-16.875  c-0.726-0.824-1.502-1.601-2.326-2.326c-4.511-3.969-10.408-6.399-16.875-6.399s-12.364,2.43-16.875,6.399  c-0.824,0.726-1.601,1.502-2.326,2.326c-3.969,4.511-6.399,10.408-6.399,16.875c0,6.467,2.43,12.364,6.399,16.875  c0.726,0.824,1.502,1.601,2.326,2.326c4.511,3.969,10.408,6.399,16.875,6.399c6.152,0,11.8-2.184,16.22-5.813  C343.177,326.753,341.516,325.753,340.033,324.678z M348.53,302.727c0.435,1.657,0.69,3.387,0.69,5.178s-0.255,3.521-0.69,5.178  c-0.723-2.062-2.005-3.839-3.679-5.178C346.525,306.566,347.807,304.789,348.53,302.727z M333.918,288.115  c-2.062,0.723-3.839,2.005-5.178,3.679c-1.34-1.674-3.116-2.956-5.178-3.679c1.657-0.435,3.386-0.69,5.178-0.69  S332.26,287.68,333.918,288.115z M308.949,302.727c0.723,2.062,2.005,3.84,3.679,5.178c-1.674,1.34-2.956,3.116-3.679,5.178  c-0.435-1.657-0.69-3.386-0.69-5.178C308.259,306.113,308.514,304.385,308.949,302.727z M323.561,327.696  c2.062-0.723,3.839-2.005,5.178-3.679c1.34,1.674,3.116,2.957,5.178,3.679c-1.657,0.435-3.386,0.69-5.178,0.69  S325.218,328.13,323.561,327.696z"/>
<g>
	<path style="fill:#F0C814;" d="M324.899,307.906c0-2.121-1.719-3.84-3.84-3.84c-1.052,0-2.004,0.425-2.697,1.11   c-0.705,0.696-1.143,1.662-1.143,2.73c0,1.069,0.438,2.035,1.143,2.73c0.694,0.685,1.645,1.11,2.697,1.11   C323.18,311.745,324.899,310.026,324.899,307.906z"/>
	<path style="fill:#F0C814;" d="M332.579,307.906c0,2.121,1.719,3.84,3.84,3.84c1.052,0,2.004-0.425,2.697-1.11   c0.705-0.696,1.143-1.662,1.143-2.73c0-1.069-0.438-2.035-1.143-2.73c-0.694-0.685-1.645-1.11-2.697-1.11   C334.298,304.065,332.579,305.784,332.579,307.906z"/>
	<path style="fill:#F0C814;" d="M328.739,304.065c2.121,0,3.84-1.719,3.84-3.84c0-1.052-0.425-2.004-1.11-2.697   c-0.696-0.705-1.662-1.143-2.73-1.143c-1.069,0-2.035,0.438-2.73,1.143c-0.685,0.694-1.11,1.645-1.11,2.697   C324.899,302.346,326.618,304.065,328.739,304.065z"/>
	<path style="fill:#F0C814;" d="M328.739,311.745c-2.121,0-3.84,1.719-3.84,3.84c0,1.052,0.425,2.004,1.11,2.697   c0.696,0.705,1.662,1.143,2.73,1.143c1.069,0,2.035-0.438,2.73-1.143c0.685-0.693,1.11-1.645,1.11-2.697   C332.579,313.464,330.86,311.745,328.739,311.745z"/>
</g>
<g>
	<path style="fill:#D2D2D2;" d="M446.345,195.421c0.372,0.372,0.802,0.65,1.26,0.836c0.466,0.191,0.96,0.288,1.455,0.288   c0.982,0,1.965-0.375,2.714-1.126c1.331-1.331,1.411-3.361,0.381-4.857l1.416-5.661c0.201,0.051,0.393,0.122,0.609,0.122   c1.414,0,2.56-1.146,2.56-2.56s-1.146-2.56-2.56-2.56s-2.56,1.146-2.56,2.56c0,0.216,0.073,0.408,0.122,0.609l-5.661,1.416   c-1.496-1.031-3.527-0.95-4.857,0.381c-1.118,1.118-1.398,2.752-0.849,4.134c0.188,0.471,0.467,0.915,0.849,1.297L446.345,195.421z   "/>
	<path style="fill:#D2D2D2;" d="M382.499,255.645v-1.5v-10.24c0-0.596,0.236-1.119,0.577-1.554l-53.333-53.347   c-0.188,0.471-0.467,0.915-0.849,1.297l-5.12,5.12c-0.372,0.372-0.802,0.65-1.26,0.836l9.492,9.495l-13.871,13.871l9.05,9.05   l3.62-3.62l-1.81-1.811l3.62-3.62l1.81,1.81l1.811-1.81l3.62,3.62l-1.81,1.811l1.81,1.81l-3.62,3.62l-1.811-1.81l-3.62,3.62   l9.05,9.05l13.868-13.868l21.651,21.656c0.457,0.103,0.898,0.286,1.254,0.641L382.499,255.645z"/>
	<path style="fill:#D2D2D2;" d="M388.372,262.133l4.914,4.915l17.592,17.597c1,1,2.309,1.5,3.622,1.5c1.31,0,2.62-0.5,3.62-1.5   c2.001-1.997,2.001-5.24,0.001-7.24l-22.507-22.514L388.372,262.133z"/>
	<polygon style="fill:#D2D2D2;" points="387.619,254.145 387.619,255.645 391.993,251.271 387.619,246.896  "/>
	<path style="fill:#D2D2D2;" d="M460.58,291.031c0.402,0.142,0.828,0.235,1.279,0.235c2.121,0,3.84-1.719,3.84-3.84   c0-2.121-1.719-3.84-3.84-3.84s-3.84,1.719-3.84,3.84c0,0.451,0.092,0.877,0.235,1.279   C459.079,289.43,459.854,290.206,460.58,291.031z"/>
	<path style="fill:#D2D2D2;" d="M461.859,324.545c-0.451,0-0.877,0.092-1.279,0.235c-0.726,0.824-1.502,1.601-2.326,2.326   c-0.142,0.402-0.235,0.828-0.235,1.279c0,2.121,1.719,3.84,3.84,3.84s3.84-1.719,3.84-3.84   C465.699,326.265,463.98,324.545,461.859,324.545z"/>
	<path style="fill:#D2D2D2;" d="M424.504,288.704c0.142-0.402,0.235-0.828,0.235-1.279c0-2.121-1.719-3.84-3.84-3.84   s-3.84,1.719-3.84,3.84c0,2.121,1.719,3.84,3.84,3.84c0.451,0,0.877-0.092,1.279-0.235   C422.904,290.206,423.68,289.43,424.504,288.704z"/>
	<path style="fill:#D2D2D2;" d="M420.899,332.226c2.121,0,3.84-1.719,3.84-3.84c0-0.154-0.028-0.3-0.045-0.45   c-2.07,1.063-4.32,2.033-6.726,2.904C418.673,331.68,419.716,332.226,420.899,332.226z"/>
</g>
<path style="fill:#E6B432;" d="M460.58,324.781c3.969-4.511,6.399-10.408,6.399-16.875c0-6.467-2.43-12.364-6.399-16.875  c-0.726-0.824-1.502-1.601-2.326-2.326c-4.511-3.969-10.408-6.399-16.875-6.399s-12.364,2.43-16.875,6.399  c-0.824,0.726-1.601,1.502-2.326,2.326c-3.969,4.511-6.399,10.408-6.399,16.875c0,1.519,0.158,3,0.413,4.448  c0.574,3.256,1.764,6.294,3.447,9.004c0.541,0.871,1.12,1.711,1.758,2.509c2.118-1.018,4.025-2.132,5.681-3.33  c0.025-0.019,0.056-0.02,0.082-0.038c-0.716-1.033-1.141-2.283-1.141-3.633c0-3.041,2.136-5.581,4.983-6.23  c-0.705-0.696-1.143-1.662-1.143-2.73c0-1.069,0.438-2.035,1.143-2.73c-2.847-0.648-4.983-3.189-4.983-6.23  c0-3.53,2.871-6.4,6.4-6.4c3.04,0,5.581,2.135,6.23,4.983c0.696-0.705,1.662-1.143,2.73-1.143c1.068,0,2.035,0.438,2.73,1.143  c0.649-2.848,3.189-4.983,6.23-4.983c3.529,0,6.4,2.87,6.4,6.4c0,3.041-2.136,5.581-4.983,6.23c0.705,0.696,1.143,1.662,1.143,2.73  c0,1.069-0.438,2.035-1.143,2.73c2.847,0.648,4.983,3.189,4.983,6.23c0,3.53-2.871,6.4-6.4,6.4c-3.04,0-5.581-2.135-6.23-4.983  c-0.696,0.705-1.662,1.143-2.73,1.143c-1.068,0-2.035-0.438-2.73-1.143c-0.649,2.848-3.189,4.983-6.23,4.983  c-0.463,0-0.914-0.055-1.351-0.149c-0.124,0.606-0.448,1.174-0.989,1.565c-1.482,1.074-3.14,2.073-4.921,3.012  c4.419,3.629,10.069,5.813,16.22,5.813c6.467,0,12.364-2.43,16.875-6.399C459.079,326.381,459.854,325.604,460.58,324.781z   M421.589,313.084c-0.435-1.657-0.69-3.386-0.69-5.178c0-1.792,0.255-3.521,0.69-5.178c0.723,2.062,2.005,3.84,3.679,5.178  C423.594,309.245,422.312,311.021,421.589,313.084z M441.379,291.794c-1.34-1.674-3.116-2.956-5.178-3.679  c1.657-0.435,3.386-0.69,5.178-0.69s3.521,0.255,5.178,0.69C444.495,288.839,442.719,290.12,441.379,291.794z M461.17,302.727  c0.435,1.657,0.69,3.387,0.69,5.178s-0.255,3.521-0.69,5.178c-0.723-2.062-2.005-3.839-3.679-5.178  C459.165,306.566,460.447,304.789,461.17,302.727z M436.201,327.696c2.062-0.723,3.839-2.005,5.178-3.679  c1.34,1.674,3.116,2.957,5.178,3.679c-1.657,0.435-3.386,0.69-5.178,0.69S437.858,328.13,436.201,327.696z"/>
<g>
	<path style="fill:#F0C814;" d="M445.219,307.906c0,2.121,1.719,3.84,3.84,3.84c1.052,0,2.004-0.425,2.697-1.11   c0.705-0.696,1.143-1.662,1.143-2.73c0-1.069-0.438-2.035-1.143-2.73c-0.694-0.685-1.645-1.11-2.697-1.11   C446.938,304.065,445.219,305.784,445.219,307.906z"/>
	<path style="fill:#F0C814;" d="M437.539,307.906c0-2.121-1.719-3.84-3.84-3.84c-1.052,0-2.004,0.425-2.697,1.11   c-0.705,0.696-1.143,1.662-1.143,2.73c0,1.069,0.438,2.035,1.143,2.73c0.694,0.685,1.645,1.11,2.697,1.11   C435.82,311.745,437.539,310.026,437.539,307.906z"/>
	<path style="fill:#F0C814;" d="M441.379,304.065c2.121,0,3.84-1.719,3.84-3.84c0-1.052-0.425-2.004-1.11-2.697   c-0.696-0.705-1.662-1.143-2.73-1.143s-2.035,0.438-2.73,1.143c-0.685,0.694-1.11,1.645-1.11,2.697   C437.539,302.346,439.258,304.065,441.379,304.065z"/>
	<path style="fill:#F0C814;" d="M441.379,311.745c-2.121,0-3.84,1.719-3.84,3.84c0,1.052,0.425,2.004,1.11,2.697   c0.696,0.705,1.662,1.143,2.73,1.143s2.035-0.438,2.73-1.143c0.685-0.693,1.11-1.645,1.11-2.697   C445.219,313.464,443.5,311.745,441.379,311.745z"/>
</g>
<path style="fill:#F7B518;" d="M328.894,190.3c0.382-0.382,0.661-0.825,0.849-1.297c0.548-1.382,0.269-3.015-0.849-4.134  c-1.331-1.331-3.361-1.411-4.857-0.381l-5.661-1.416c0.051-0.201,0.122-0.393,0.122-0.609c0-1.414-1.146-2.56-2.56-2.56  s-2.56,1.146-2.56,2.56s1.146,2.56,2.56,2.56c0.216,0,0.408-0.073,0.609-0.122l1.416,5.661c-1.031,1.496-0.95,3.527,0.381,4.857  c0.75,0.75,1.732,1.126,2.714,1.126c0.495,0,0.99-0.098,1.455-0.288c0.458-0.188,0.888-0.465,1.26-0.836L328.894,190.3z"/>
<path style="fill:#FF4B55;" d="M430.08,324.68c0.541-0.391,0.864-0.959,0.989-1.565c0.139-0.679,0.022-1.406-0.416-2.01  c-0.811-1.117-2.353-1.375-3.492-0.608c-0.026,0.018-0.056,0.019-0.082,0.038c-1.655,1.198-3.563,2.312-5.681,3.33  c-7.506,3.611-17.667,6.019-28.658,6.798v-35.958c11.172,15.257,22.054,23.457,26.9,26.652c-1.683-2.71-2.873-5.748-3.447-9.004  c-6.196-5.126-14.957-13.736-23.453-26.718V268.24c0.181-0.399,0.366-0.788,0.546-1.192l-4.914-4.915l7.241-7.241l1.496-1.496  c1-1,1-2.62,0-3.62c-0.644-0.644-1.539-0.828-2.367-0.641c-0.457,0.103-0.897,0.286-1.254,0.641l-1.496,1.496l-4.374,4.374v-1.5  v-7.25v-2.99c0-0.596-0.236-1.119-0.577-1.554c-0.469-0.598-1.165-1.006-1.983-1.006c-0.819,0-1.514,0.408-1.983,1.006  c-0.341,0.435-0.577,0.958-0.577,1.554v10.24v1.5l-5.87-5.87c-0.355-0.355-0.797-0.538-1.254-0.641  c-0.828-0.186-1.722-0.003-2.367,0.641c-1,1-1,2.62,0,3.62l1.496,1.496l7.241,7.241l-4.914,4.915  c0.18,0.405,0.365,0.792,0.546,1.192v17.374c-8.487,12.956-17.25,21.576-23.449,26.714c-0.573,3.265-1.763,6.312-3.451,9.027  c4.846-3.194,15.727-11.394,26.9-26.652v35.958c-10.991-0.778-21.152-3.187-28.659-6.797c-2.12-1.02-4.029-2.134-5.685-3.333  c-0.024-0.018-0.053-0.019-0.077-0.035c-1.139-0.77-2.684-0.511-3.498,0.605c-0.439,0.606-0.555,1.334-0.414,2.014  c0.125,0.604,0.448,1.171,0.986,1.561c1.484,1.075,3.144,2.076,4.926,3.015c0.155,0.082,0.309,0.162,0.466,0.243  c2.07,1.063,4.32,2.033,6.727,2.903c7.27,2.631,15.932,4.351,25.228,4.966v18.891c0.756-0.439,1.623-0.71,2.56-0.71  s1.804,0.27,2.56,0.71v-18.667c0.851,0.018,1.702,0.036,2.56,0.036s1.709-0.019,2.56-0.036v5.867c0.756-0.439,1.623-0.71,2.56-0.71  s1.804,0.27,2.56,0.71v-6.091c9.297-0.615,17.96-2.335,25.229-4.966c2.407-0.871,4.655-1.841,6.726-2.904  c0.157-0.081,0.311-0.161,0.466-0.243C426.94,326.755,428.598,325.753,430.08,324.68z M385.059,330.945  c-0.856,0-1.709-0.018-2.56-0.038v-43.691c0.858-1.347,1.711-2.749,2.56-4.185c0.849,1.437,1.702,2.838,2.56,4.185v43.691  C386.769,330.928,385.916,330.945,385.059,330.945z"/>
<g>
	<path style="fill:#E6B432;" d="M385.059,184.456c14.138,0,25.6,2.42,25.6,5.405c0-5.022,0-9.922,0-10.687   c0-1.174-1.084-2.28-2.978-3.25l0.587-1.173c0.928-0.064,1.7-0.625,2.098-1.408c0.172-0.34,0.295-0.708,0.295-1.118   c0-0.492-0.175-0.926-0.417-1.316c-0.451-0.73-1.221-1.244-2.143-1.244c-1.414,0-2.56,1.146-2.56,2.56   c0,0.512,0.189,0.962,0.448,1.362l-0.674,1.347c-1.932-0.679-4.312-1.256-7.027-1.703l0.288-1.152   c1.058-0.314,1.845-1.256,1.845-2.415c0-1.414-1.146-2.56-2.56-2.56s-2.56,1.146-2.56,2.56c0,0.722,0.303,1.367,0.783,1.833   l-0.342,1.367c-1.427-0.179-2.922-0.32-4.474-0.426c0.116-0.481,0.193-0.978,0.193-1.494c0-3.534-2.866-6.4-6.4-6.4   s-6.4,2.866-6.4,6.4c0,0.518,0.077,1.013,0.193,1.494c-1.554,0.105-3.049,0.247-4.474,0.426l-0.342-1.367   c0.48-0.466,0.783-1.111,0.783-1.833c0-1.414-1.146-2.56-2.56-2.56s-2.56,1.146-2.56,2.56c0,1.16,0.787,2.101,1.845,2.415   l0.288,1.152c-2.714,0.446-5.095,1.023-7.027,1.703l-0.674-1.347c0.259-0.401,0.448-0.85,0.448-1.362c0-1.414-1.146-2.56-2.56-2.56   c-0.921,0-1.693,0.513-2.143,1.244c-0.241,0.391-0.417,0.824-0.417,1.316c0,0.409,0.121,0.778,0.294,1.118   c0.397,0.783,1.17,1.344,2.098,1.408l0.587,1.173c-1.895,0.97-2.978,2.074-2.978,3.25c0,0.766,0,5.665,0,10.687   C359.459,186.876,370.921,184.456,385.059,184.456z"/>
	<path style="fill:#E6B432;" d="M359.459,190.145l0.032-0.013c-0.008-0.086-0.032-0.202-0.032-0.271   C359.459,189.957,359.459,190.05,359.459,190.145z"/>
	<path style="fill:#E6B432;" d="M410.659,190.145c0-0.095,0-0.189,0-0.285c0,0.07-0.024,0.186-0.032,0.271L410.659,190.145z"/>
</g>
<path style="fill:#EBEBEB;" d="M364.579,195.266c0,0.512-0.189,0.962-0.448,1.362l0.97,1.941c1.694-0.84,4.008-1.561,6.775-2.114  l-0.333-1.333c-1.058-0.314-1.845-1.256-1.845-2.415c0-1.414,1.146-2.56,2.56-2.56s2.56,1.146,2.56,2.56  c0,0.722-0.303,1.367-0.783,1.833l0.37,1.476c2.47-0.369,5.198-0.615,8.094-0.706v-2.319c-0.78-0.703-1.28-1.71-1.28-2.844  c0-2.121,1.719-3.84,3.84-3.84s3.84,1.719,3.84,3.84c0,1.133-0.5,2.141-1.28,2.844v2.319c2.895,0.092,5.624,0.338,8.094,0.706  l0.37-1.476c-0.48-0.466-0.783-1.111-0.783-1.833c0-1.414,1.146-2.56,2.56-2.56s2.56,1.146,2.56,2.56  c0,1.16-0.787,2.101-1.845,2.415l-0.333,1.333c2.767,0.553,5.082,1.276,6.775,2.114l0.97-1.941c-0.259-0.401-0.448-0.85-0.448-1.362  c0-1.414,1.146-2.56,2.56-2.56c0.612,0,1.152,0.245,1.592,0.604c0.57-1.399,0.873-2.51,0.936-3.176  c0.008-0.086,0.032-0.202,0.032-0.271c0-2.985-11.462-5.405-25.6-5.405s-25.6,2.42-25.6,5.405c0,0.07,0.024,0.186,0.032,0.271  c0.062,0.666,0.365,1.777,0.935,3.176c0.44-0.359,0.98-0.604,1.592-0.604C363.433,192.705,364.579,193.852,364.579,195.266z"/>
<path style="fill:#E6B432;" d="M359.459,195.266c0,1.354,1.06,2.435,2.391,2.526l1.105,2.209c-0.599,0.587-0.937,1.205-0.937,1.847  c0,0.738,0.445,1.447,1.23,2.11l3.89,6.668c0-2.828,8.023-5.12,17.92-5.12s17.92,2.292,17.92,5.12l3.89-6.668  c0.786-0.663,1.23-1.37,1.23-2.11c0-0.642-0.337-1.26-0.937-1.847l1.105-2.209c1.331-0.092,2.392-1.172,2.392-2.526  c0-0.801-0.391-1.487-0.968-1.956c-0.44-0.359-0.98-0.604-1.592-0.604c-1.414,0-2.56,1.146-2.56,2.56  c0,0.512,0.189,0.962,0.448,1.362l-0.97,1.941c-1.694-0.84-4.008-1.561-6.775-2.114l0.333-1.333  c1.058-0.314,1.845-1.256,1.845-2.415c0-1.414-1.146-2.56-2.56-2.56s-2.56,1.146-2.56,2.56c0,0.722,0.303,1.367,0.783,1.833  l-0.37,1.476c-2.47-0.369-5.198-0.615-8.094-0.706v-2.319c0.78-0.703,1.28-1.71,1.28-2.844c0-2.121-1.719-3.84-3.84-3.84  s-3.84,1.719-3.84,3.84c0,1.133,0.5,2.141,1.28,2.844v2.319c-2.895,0.092-5.624,0.338-8.094,0.706l-0.37-1.476  c0.48-0.466,0.783-1.111,0.783-1.833c0-1.414-1.146-2.56-2.56-2.56s-2.56,1.146-2.56,2.56c0,1.16,0.787,2.101,1.845,2.415  l0.333,1.333c-2.767,0.553-5.082,1.276-6.775,2.114l-0.97-1.941c0.259-0.401,0.448-0.85,0.448-1.362c0-1.414-1.146-2.56-2.56-2.56  c-0.612,0-1.152,0.245-1.592,0.604C359.85,193.779,359.459,194.464,359.459,195.266z"/>
<ellipse style="fill:#EBEBEB;" cx="385.06" cy="210.63" rx="17.92" ry="5.12"/>
<g>
	<path style="fill:#E6B432;" d="M410.046,167.005l-4.507-10.14c0-0.64-0.491-1.25-1.35-1.815l3.639-7.279   c0.632-1.265,0.12-2.803-1.145-3.435c-1.268-0.628-2.803-0.117-3.435,1.145l-1.977,3.955l-1.887,3.774   c-1.086-0.266-2.297-0.499-3.597-0.7l0.227-0.909c1.058-0.314,1.845-1.256,1.845-2.415c0-1.414-1.146-2.56-2.56-2.56   s-2.56,1.146-2.56,2.56c0,0.722,0.303,1.367,0.783,1.833l-0.289,1.154c-2.505-0.274-5.267-0.427-8.174-0.427   c-2.908,0-5.67,0.153-8.174,0.427l-0.289-1.154c0.48-0.466,0.783-1.111,0.783-1.833c0-1.414-1.146-2.56-2.56-2.56   s-2.56,1.146-2.56,2.56c0,1.16,0.787,2.101,1.845,2.415l0.227,0.909c-1.301,0.201-2.511,0.434-3.598,0.7l-1.887-3.774l-1.977-3.955   c-0.633-1.262-2.166-1.772-3.435-1.145c-1.265,0.632-1.778,2.17-1.145,3.435l3.639,7.279c-0.858,0.565-1.35,1.175-1.35,1.815   l-4.507,10.14c2.528-2.87,12.746-5.02,24.987-5.02C397.3,161.985,407.518,164.134,410.046,167.005z"/>
	<circle style="fill:#E6B432;" cx="385.06" cy="147.91" r="3.84"/>
</g>
<g>
</g>
<g>
</g>
<g>
</g>
<g>
</g>
<g>
</g>
<g>
</g>
<g>
</g>
<g>
</g>
<g>
</g>
<g>
</g>
<g>
</g>
<g>
</g>
<g>
</g>
<g>
</g>
<g>
</g>
</svg>
