<?xml version="1.0" encoding="iso-8859-1"?>
<!-- Generator: Adobe Illustrator 19.0.0, SVG Export Plug-In . SVG Version: 6.00 Build 0)  -->
<svg xmlns="http://www.w3.org/2000/svg" xmlns:xlink="http://www.w3.org/1999/xlink" version="1.1" id="Layer_1" x="0px" y="0px" viewBox="0 0 512 512" style="enable-background:new 0 0 512 512;" xml:space="preserve">
<path style="fill:#464655;" d="M473.651,88.256H38.292c-20.485,0-37.215,16.061-38.292,36.277v262.933  c1.077,20.215,17.807,36.277,38.292,36.277h435.359c21.18,0,38.349-17.169,38.349-38.349V126.605  C512,105.425,494.831,88.256,473.651,88.256z"/>
<path style="fill:#FFE15A;" d="M0,387.465c0.251,4.699,1.352,9.171,3.144,13.272l246.328-135.909H512v-17.657H249.472L3.144,111.261  c-1.793,4.101-2.894,8.571-3.144,13.27v5.166l228.923,126.3L0,382.3V387.465z"/>
<path style="fill:#73AF00;" d="M512,282.485H256.029L14.713,415.625c6.506,5.081,14.685,8.117,23.579,8.117h435.359  c21.18,0,38.349-17.169,38.349-38.349V282.485z"/>
<path style="fill:#FF4B55;" d="M473.651,88.256H38.292c-8.894,0-17.074,3.036-23.579,8.117l241.316,133.14H512V126.605  C512,105.425,494.831,88.256,473.651,88.256z"/>
<g>
	<path style="fill:#FFE15A;" d="M76.461,206.481c-25.208-7.93-44.239,10.387-48.588,19.815   c-3.684,7.988-10.526,44.172,23.583,49.942c34.108,5.771,33.724-26.415,33.724-26.415c-1.538,5.129-4.296,19.747-28.917,19.747   c-9.235,0-22.504-13.721-20.003-28.852c2.353-14.237,15.071-21.521,24.685-21.927c9.103-0.384,30.325,5.899,30.325,31.738   c0,29.043-29.933,32.314-29.933,32.314v17.537c26.056-2.555,40.801-16.987,44.705-40.107   C109.929,237.257,102.091,214.544,76.461,206.481z"/>
	<path style="fill:#FFE15A;" d="M48.549,249.548c-0.595,0.755-0.912,1.694-0.927,2.655l-0.074,4.717l-0.918,1.601   c-0.331,0.578-0.135,1.317,0.441,1.652c0.583,0.341,1.331,0.141,1.666-0.446l0.941-1.647l3.766-1.364   c1.141-0.413,2.058-1.271,2.555-2.378c0.984-2.197,3.098-6.232,6.522-10.441c3.424,4.209,5.538,8.244,6.522,10.441   c0.496,1.107,1.413,1.964,2.554,2.378l3.768,1.364l0.941,1.647c0.334,0.587,1.084,0.787,1.666,0.446   c0.576-0.337,0.772-1.074,0.441-1.652l-0.918-1.601l-0.074-4.717c-0.015-0.961-0.332-1.9-0.927-2.655   c-3.155-4.007-6.512-7.159-9.82-9.946c2.643-2.484,5.632-4.856,9.395-6.687c0.871-0.424,1.326-1.402,1.101-2.343   c-0.307-1.286-1.713-1.961-2.911-1.402c-2.523,1.175-6.86,3.491-11.739,7.047c-4.88-3.557-9.216-5.871-11.739-7.047   c-1.198-0.558-2.604,0.117-2.911,1.402c-0.224,0.942,0.231,1.919,1.1,2.343c3.764,1.831,6.753,4.204,9.396,6.687   C55.062,242.389,51.705,245.54,48.549,249.548z"/>
</g>
<g>
</g>
<g>
</g>
<g>
</g>
<g>
</g>
<g>
</g>
<g>
</g>
<g>
</g>
<g>
</g>
<g>
</g>
<g>
</g>
<g>
</g>
<g>
</g>
<g>
</g>
<g>
</g>
<g>
</g>
</svg>
