<?xml version="1.0" encoding="iso-8859-1"?>
<!-- Generator: Adobe Illustrator 19.0.0, SVG Export Plug-In . SVG Version: 6.00 Build 0)  -->
<svg xmlns="http://www.w3.org/2000/svg" xmlns:xlink="http://www.w3.org/1999/xlink" version="1.1" id="Layer_1" x="0px" y="0px" viewBox="0 0 512 512" style="enable-background:new 0 0 512 512;" xml:space="preserve">
<path style="fill:#73AF00;" d="M473.655,88.276H38.345C17.167,88.276,0,105.443,0,126.621v9.577h512v-9.577  C512,105.443,494.833,88.276,473.655,88.276z"/>
<rect y="136.2" style="fill:#FFE15A;" width="512" height="47.923"/>
<rect y="184.12" style="fill:#FF4B55;" width="512" height="47.923"/>
<path style="fill:#73AF00;" d="M0,385.379c0,21.177,17.167,38.345,38.345,38.345h435.31c21.177,0,38.345-17.167,38.345-38.345  v-9.577H0V385.379z"/>
<rect y="327.88" style="fill:#FFE15A;" width="512" height="47.923"/>
<rect y="279.96" style="fill:#FF4B55;" width="512" height="47.923"/>
<path style="fill:#464655;" d="M20.068,92.904c-7.655,4.158-13.731,10.848-17.114,18.944v288.303  c3.383,8.096,9.46,14.786,17.114,18.944l175.75-139.135H512v-47.922H195.818L20.068,92.904z"/>
<path style="fill:#F5F5F5;" d="M12.573,413.771L211.862,256L12.573,98.229C4.85,105.244,0,115.366,0,126.621V385.38  C0,396.634,4.85,406.756,12.573,413.771z"/>
<polygon style="fill:#FF4B55;" points="86.065,191.448 104.668,229.141 146.264,235.186 116.164,264.525 123.27,305.953   86.065,286.393 48.86,305.953 55.966,264.525 25.866,235.186 67.463,229.141 "/>
<path style="fill:#FFE15A;" d="M134.328,260.803l-49.436-38.27c-5.784-13.554-14.005-22.296-20.984-22.296  c-5.929,0-8.828,5.495-9.658,8.797c-4.27,1.977-5.272,5.912-5.314,6.083c-0.07,0.282-0.003,0.582,0.175,0.81  c0.18,0.228,0.454,0.362,0.745,0.362l0.885-0.017c3.972-0.092,10.59-0.266,12.282,12.352c1.056,7.879-0.512,21.992-5.497,32.629  c-3.484,7.432-2.333,13.442-2.282,13.694c0.095,0.474,0.536,0.786,1.028,0.756c0.076-0.008,0.26-0.015,0.494-0.023l4,22.614  c0.081,0.452,0.472,0.782,0.932,0.782h59.683c0.437,0,0.817-0.299,0.92-0.723l6.667-27.384c0.002-0.008,0.011-0.012,0.013-0.02  c0.004-0.015-0.001-0.03,0.002-0.045l2.118-8.698c1.567,0.185,2.499,0.282,2.551,0.288c0.452,0.059,0.82-0.199,0.975-0.59  S134.663,261.063,134.328,260.803z"/>
<g>
	<path style="fill:#464655;" d="M134.328,260.803l-49.436-38.27c-5.784-13.554-14.005-22.296-20.984-22.296   c-5.929,0-8.828,5.495-9.658,8.797c-4.27,1.977-5.272,5.912-5.314,6.083c-0.07,0.282-0.003,0.582,0.175,0.81   c0.18,0.228,0.454,0.362,0.745,0.362l0.885-0.017c3.972-0.092,10.59-0.266,12.282,12.352c1.056,7.879-0.512,21.992-5.497,32.629   c-3.484,7.432-2.333,13.442-2.282,13.694c0.095,0.474,0.536,0.786,1.028,0.756c0.076-0.008,0.26-0.015,0.494-0.023l4,22.614   c0.081,0.452,0.472,0.782,0.932,0.782h59.683c0.437,0,0.817-0.299,0.92-0.723l6.667-27.384c0.002-0.008,0.011-0.012,0.013-0.02   c0.004-0.015-0.001-0.03,0.002-0.045l2.118-8.698c1.567,0.185,2.499,0.282,2.551,0.288c0.452,0.059,0.82-0.199,0.975-0.59   S134.663,261.063,134.328,260.803z M59.239,262.059c4.512-9.624,6.945-24.106,5.661-33.685c-1.832-13.662-9.5-14.091-13.641-14.008   c0.587-1.141,1.807-2.817,4.164-3.778c0.292-0.118,0.505-0.377,0.569-0.687c0.066-0.317,1.678-7.768,7.914-7.768   c6.159,0,13.93,8.588,19.338,21.368c0.063,0.15,0.164,0.281,0.292,0.38l46.95,36.345c-8.275-1.004-29.898-3.983-42.706-9.03   c-6.695-2.637-8.221-6.65-9.567-10.191c-0.185-0.49-0.735-0.732-1.223-0.548c-0.489,0.186-0.735,0.734-0.548,1.223   c1.338,3.518,3.171,8.338,10.644,11.282c1.523,0.6,3.167,1.171,4.896,1.713c-0.301,0.913-2.217,5.566-10.712,8.618   c-6.884,2.474-11.783,6.644-12.452,10.411c-2.516-0.01-4.761-0.006-6.647,0.006v-2.735c0-2.078,2.002-5.087,4.121-8.274   c2.953-4.44,6.3-9.473,6.3-14.621c0-0.523-0.425-0.948-0.948-0.948c-0.523,0-0.948,0.425-0.948,0.948   c0,4.575-3.179,9.355-5.983,13.571c-2.382,3.581-4.438,6.674-4.438,9.323v2.751c-1.43,0.015-2.551,0.034-3.282,0.055   C56.824,271.997,56.727,267.417,59.239,262.059z M96.81,256.058c-1.096,3.046-4.34,4.077-6.745,4.407   c2.607-2.317,3.487-4.46,3.734-5.244C94.781,255.511,95.789,255.788,96.81,256.058z M98.636,256.529   c1.043,0.262,2.095,0.514,3.158,0.758c-0.967,1.967-3.551,2.932-6.375,3.336C96.819,259.735,98.005,258.425,98.636,256.529z    M125.419,277.539c-9.604-2.959-37.32-3.716-54.69-3.827c0.588-2.152,3.314-4.978,7.93-7.243c0.047,0.008,0.09,0.029,0.139,0.029   c25.93,0.092,43.979,3.938,48.114,4.907L125.419,277.539z M124.196,282.56l-3.788-4.226c1.806,0.314,3.345,0.664,4.562,1.053   L124.196,282.56z M75.192,283.228l1.842,1.734c-0.567-0.004-1.126-0.01-1.706-0.013C75.278,284.393,75.236,283.804,75.192,283.228z    M123.063,287.213l-4.813-5.274c-0.317-0.348-0.841-0.412-1.226-0.148l-5.652,3.784l-4.253-4.661   c-0.329-0.362-0.887-0.41-1.276-0.113l-5.109,3.917l-4.636-4.577c-0.348-0.344-0.904-0.366-1.276-0.051l-4.991,4.198l-4.676-4.339   c-0.354-0.328-0.903-0.335-1.269-0.018l-4.878,4.287l-4.011-3.774c-0.07-1.126-0.132-2.286-0.186-3.479l3.591,3.526   c0.35,0.345,0.907,0.36,1.281,0.042l5.023-4.324l4.589,4.519c0.346,0.341,0.897,0.363,1.272,0.053l5.039-4.199l4.835,4.555   c0.341,0.32,0.861,0.346,1.226,0.062l5.057-3.879l4.231,4.855c0.32,0.367,0.867,0.43,1.265,0.148l5.625-4.008l5.592,6.238   c0.067,0.074,0.151,0.12,0.233,0.168L123.063,287.213z M120.22,286.908c-1.508-0.191-3.614-0.416-6.466-0.647l3.648-2.442   L120.22,286.908z M109.133,285.931c-1.902-0.12-4.035-0.236-6.417-0.345l3.59-2.752L109.133,285.931z M98.749,285.42   c-2.168-0.082-4.525-0.156-7.057-0.221l3.69-3.104L98.749,285.42z M87.936,285.112c-2.184-0.045-4.505-0.082-6.946-0.111   l3.507-3.08L87.936,285.112z M76.195,275.67c1.966,0.025,4.014,0.061,6.109,0.105l-3.198,2.753L76.195,275.67z M87.084,275.89   c2.036,0.056,4.093,0.125,6.146,0.202l-3.218,2.681L87.084,275.89z M98.072,276.301c2.174,0.105,4.32,0.222,6.401,0.356   l-3.319,2.546L98.072,276.301z M108.949,276.986c2.338,0.19,4.55,0.405,6.586,0.648l-3.715,2.647L108.949,276.986z M58.681,275.641   c2.847-0.042,7.95-0.065,14.175-0.009c0.355,9.004,1.142,16.237,2.337,21.55H62.492L58.681,275.641z M120.637,297.183H77.132   c-0.665-2.849-1.204-6.31-1.617-10.338c31.69,0.209,43.729,1.782,46.738,2.274c0.089,0.087,0.188,0.158,0.298,0.202   L120.637,297.183z M127.36,269.565c-4.006-0.937-20.542-4.446-44.395-4.904c1.681-0.67,3.114-1.395,4.321-2.145   c0.564,0.071,2.225,0.254,4.307,0.254c4.323,0,10.396-0.818,12.073-5.064c9.846,2.155,19.938,3.57,25.542,4.27L127.36,269.565z"/>
	<path style="fill:#464655;" d="M66.592,208.606c0-1.741-1.416-3.158-3.158-3.158c-1.741,0-3.158,1.416-3.158,3.158   c0,1.741,1.416,3.158,3.158,3.158C65.175,211.764,66.592,210.347,66.592,208.606z M63.434,209.869   c-0.697,0-1.263-0.566-1.263-1.263s0.566-1.263,1.263-1.263s1.263,0.566,1.263,1.263S64.131,209.869,63.434,209.869z"/>
	<path style="fill:#464655;" d="M89.907,267.321c-1.713,0-3.105,1.393-3.105,3.105s1.393,3.105,3.105,3.105s3.106-1.393,3.106-3.105   S91.619,267.321,89.907,267.321z M89.907,271.637c-0.668,0-1.21-0.543-1.21-1.21s0.543-1.21,1.21-1.21   c0.668,0,1.212,0.543,1.212,1.21S90.574,271.637,89.907,271.637z"/>
	<path style="fill:#464655;" d="M99.19,267.851c-1.713,0-3.106,1.394-3.106,3.106s1.394,3.105,3.106,3.105   c1.713,0,3.105-1.393,3.105-3.105S100.903,267.851,99.19,267.851z M99.19,272.167c-0.668,0-1.212-0.543-1.212-1.21   c0-0.668,0.544-1.212,1.212-1.212s1.21,0.544,1.21,1.212C100.401,271.624,99.858,272.167,99.19,272.167z"/>
</g>
<g>
</g>
<g>
</g>
<g>
</g>
<g>
</g>
<g>
</g>
<g>
</g>
<g>
</g>
<g>
</g>
<g>
</g>
<g>
</g>
<g>
</g>
<g>
</g>
<g>
</g>
<g>
</g>
<g>
</g>
</svg>
