<?xml version="1.0" encoding="utf-8"?>
<!-- Generator: Adobe Illustrator 23.0.0, SVG Export Plug-In . SVG Version: 6.00 Build 0)  -->
<svg version="1.1" id="图层_1" xmlns="http://www.w3.org/2000/svg" xmlns:xlink="http://www.w3.org/1999/xlink" x="0px" y="0px"
	 viewBox="0 0 256 256" style="enable-background:new 0 0 256 256;" xml:space="preserve">
<style type="text/css">
	.st0{fill-rule:evenodd;clip-rule:evenodd;fill:url(#SVGID_1_);}
	.st1{fill-rule:evenodd;clip-rule:evenodd;fill:url(#SVGID_2_);}
	.st2{fill:#FFFFFF;}
</style>
<g>
	<linearGradient id="SVGID_1_" gradientUnits="userSpaceOnUse" x1="11.1379" y1="10.6499" x2="245.5302" y2="245.0422">
		<stop  offset="0" style="stop-color:#5E72E4"/>
		<stop  offset="1" style="stop-color:#778AFF"/>
	</linearGradient>
	<path class="st0" d="M36.4,0.2h183.8c19.7,0,35.7,16,35.7,35.7v183.8c0,19.7-16,35.7-35.7,35.7H36.4c-19.7,0-35.7-16-35.7-35.7
		V35.9C0.7,16.2,16.7,0.2,36.4,0.2z"/>
	<linearGradient id="SVGID_2_" gradientUnits="userSpaceOnUse" x1="0.6679" y1="0.18" x2="0.6679" y2="0.18">
		<stop  offset="0" style="stop-color:#5E72E4"/>
		<stop  offset="1" style="stop-color:#778AFF"/>
	</linearGradient>
	<path class="st1" d="M0.7,0.2"/>
</g>
<path class="st2" d="M128.3,32.6c-43.9,0-79.4,35.6-79.4,79.4c0,35.3,23.1,65.2,55,75.6l9.9-40.1c-14-5.7-23.8-19.4-23.8-35.5
	c0-21.2,17.2-38.3,38.3-38.3c21.2,0,38.3,17.2,38.3,38.3c0,16-9.8,29.7-23.8,35.5l9.9,40.1c31.9-10.3,55-40.2,55-75.6
	C207.8,68.2,172.2,32.6,128.3,32.6z"/>
<g>
	<path class="st2" d="M48.5,234.8c-2.3,0-4.3-0.3-6.1-0.9c-1.7-0.6-3.3-1.6-4.7-3c-1.4-1.4-2.5-2.8-3.3-4.2
		c-0.8-1.4-1.3-2.9-1.6-4.4c-0.3-1.5-0.4-3.2-0.4-4.9c0-2.3,0.3-4.3,0.8-5.9c0.5-1.7,1.1-3.1,1.8-4.3c0.7-1.2,1.8-2.4,3.1-3.6
		c1.3-1.2,2.8-2.1,4.4-2.8c1.6-0.7,3.5-1.1,5.7-1.1c2,0,3.8,0.3,5.6,0.9c1.7,0.6,3.3,1.5,4.7,2.7c1.4,1.2,2.6,2.6,3.5,4.4
		c1,1.7,1.6,3.4,1.9,5c0.3,1.6,0.4,3.2,0.4,4.8c-0.1,2.5-0.4,4.7-1,6.6c-0.6,1.9-1.3,3.5-2.2,4.7c-0.9,1.2-1.9,2.3-3.2,3.2
		c-1.2,0.9-2.7,1.7-4.3,2.2C52.3,234.5,50.5,234.8,48.5,234.8z M48,227.6c1.1,0.1,2.3-0.1,3.4-0.4c1.1-0.4,2.2-1.1,3.2-2.1
		c1-1,1.6-2.3,1.9-3.8c0.3-1.5,0.5-2.9,0.4-4.3c0-1.9-0.3-3.4-0.7-4.6c-0.4-1.2-1-2.2-1.6-3c-0.6-0.8-1.4-1.5-2.3-2
		c-0.9-0.5-1.9-0.8-3.1-0.9c-1.1-0.1-2.2,0.1-3.2,0.4c-1,0.4-1.9,0.9-2.7,1.5c-0.8,0.6-1.5,1.5-2.2,2.5c-0.6,1-1,2.1-1.1,3.2
		c-0.1,1.1-0.2,2.1-0.2,3c0,1.2,0.1,2.4,0.4,3.6c0.2,1.2,0.7,2.3,1.3,3.4c0.6,1,1.5,1.8,2.7,2.4C45.4,227.2,46.6,227.5,48,227.6z"/>
	<path class="st2" d="M77,243.9h-7.2v-32.8H77l0,2c0.3-0.3,0.7-0.6,1.1-0.9c0.4-0.3,0.9-0.5,1.6-0.7c0.7-0.2,1.3-0.3,2-0.3
		c1.4,0,2.7,0.4,4,1.1c1.3,0.8,2.3,1.8,3.2,3c0.8,1.3,1.4,2.6,1.8,4.1c0.3,1.5,0.5,2.8,0.5,4.1c0,1.3-0.2,2.7-0.7,4.1
		c-0.5,1.7-1.4,3.1-2.5,4.3c-1.1,1.2-2.3,1.9-3.5,2.2c-1.2,0.3-2.3,0.4-3.1,0.4c-1.6,0-2.7-0.3-3.3-0.8l-1-0.7V243.9z M77,225.8
		l0,1.7c0.2,0.5,0.5,1,0.9,1.3c0.3,0.4,1.1,0.6,2.1,0.6c1.1,0,1.9-0.3,2.5-0.9c0.5-0.5,0.8-1.3,1-2.3c0.2-1.1,0.3-2.2,0.3-3.5
		c0-1.3-0.1-2.4-0.4-3.3c-0.3-0.8-0.7-1.5-1.2-2.1c-0.6-0.6-1.3-0.9-2.1-0.8c-0.5,0-1.1,0.2-1.7,0.6c-0.6,0.4-1,0.9-1.2,1.6
		l-0.2,0.6V225.8z"/>
	<path class="st2" d="M103.3,224.3c0,0.2,0,0.4,0,0.6c0,0.2,0.1,0.7,0.1,1.4c0.1,0.7,0.3,1.5,0.7,2.3c0.4,0.8,0.8,1.3,1.2,1.6
		c0.5,0.3,0.9,0.3,1.5,0.3c0.4-0.1,0.9-0.2,1.3-0.5c0.4-0.3,0.7-0.7,0.9-1.1c0.2-0.4,0.4-0.8,0.5-1.2l0.2-1h7.4
		c-0.1,0.5-0.2,1.1-0.3,1.7c-0.1,0.7-0.5,1.4-1,2.3c-0.5,0.8-1.1,1.6-1.9,2.2c-0.7,0.6-1.7,1.1-3,1.5c-1.3,0.4-2.7,0.6-4.3,0.5
		c-1.6-0.1-3.2-0.4-4.6-0.9c-1.5-0.6-2.6-1.3-3.5-2.3c-0.9-1-1.5-2.2-1.9-3.5c-0.4-1.3-0.6-2.9-0.6-4.6c0-1,0.1-1.9,0.3-2.9
		c0.2-1,0.5-2,0.9-2.9c0.4-0.9,1-1.9,1.7-2.8c0.7-0.9,1.9-1.8,3.4-2.6c1.5-0.8,3.2-1.2,4.9-1.1c0.7,0,1.7,0.2,2.8,0.5
		c1.2,0.3,2.3,1,3.5,2c1.2,1,2.1,2.3,2.6,3.8c0.6,1.5,0.9,2.8,0.9,4l0.1,3H103.3z M110,220.2c0-0.6-0.1-1.1-0.2-1.6
		c-0.1-0.5-0.2-1-0.5-1.6s-0.6-0.9-0.9-1.2c-0.3-0.2-0.8-0.4-1.3-0.4c-0.6,0-1.1,0.1-1.6,0.4c-0.5,0.3-0.9,0.8-1.3,1.6
		c-0.4,0.7-0.6,1.3-0.6,1.8l-0.1,0.9H110z"/>
	<path class="st2" d="M142.4,234.4h-7.2v-13.1c0-1-0.1-1.8-0.2-2.4c-0.1-0.6-0.4-1.1-0.9-1.6c-0.5-0.4-1.2-0.6-2.1-0.6
		c-0.6,0.1-1.1,0.3-1.6,0.6c-0.5,0.3-0.8,0.8-1,1.3c-0.2,0.5-0.3,1.3-0.3,2.3v13.3h-7.2v-23.3h7.2v1.3c0.3-0.1,0.6-0.3,1.1-0.5
		c0.4-0.2,1-0.4,1.6-0.6c0.6-0.2,1.5-0.2,2.5-0.2c1,0.1,1.9,0.2,2.7,0.5c0.8,0.3,1.5,0.7,2.3,1.3c0.7,0.6,1.4,1.3,1.8,2.1
		c0.5,0.8,0.8,1.7,1,2.5c0.2,0.8,0.3,1.9,0.3,3.1V234.4z"/>
	<path class="st2" d="M163.5,221.2l-3.7,13.3h-5.6l-6.7-23.3h7.1l2.5,11.1l3.4-11.1h6.1l3.2,11l2.3-11h7.1l-6.3,23.3h-5.6
		L163.5,221.2z"/>
	<path class="st2" d="M184.4,211.1h6.7v4.3c0.3-0.5,0.8-1,1.2-1.5c0.5-0.5,1.3-1.1,2.4-1.7c1.2-0.6,2.1-0.9,2.9-0.9l3.8-0.3v6.2
		c-0.7-0.1-1.4-0.1-2-0.2c-0.6,0-1.5,0-2.5,0.1c-1.1,0.1-2.1,0.5-3.1,1c-1,0.5-1.6,1-1.9,1.6l-0.8,1.3v13.4h-6.7V211.1z"/>
	<path class="st2" d="M218.3,211.1h5.2v4.6h-5.2v10.9c0,0.8,0.1,1.4,0.3,1.8c0.2,0.4,0.5,0.6,0.8,0.8c0.4,0.1,1,0.2,1.9,0.2h2.3
		l-0.1,5h-5.1c-0.7,0-1.4,0-2.1-0.1c-0.7-0.1-1.4-0.3-2.1-0.7c-0.7-0.4-1.3-0.9-1.8-1.4c-0.5-0.6-0.8-1.2-1-2
		c-0.2-0.7-0.3-1.7-0.3-2.8v-11.6h-4.8v-4.6h4.8v-7.6h7.2V211.1z"/>
</g>
</svg>
