<?xml version="1.0" standalone="no"?><!DOCTYPE svg PUBLIC "-//W3C//DTD SVG 1.1//EN" "http://www.w3.org/Graphics/SVG/1.1/DTD/svg11.dtd"><svg t="1597500707209" class="icon" viewBox="0 0 1024 1024" version="1.1" xmlns="http://www.w3.org/2000/svg" p-id="9192" xmlns:xlink="http://www.w3.org/1999/xlink" width="200" height="200"><defs><style type="text/css"></style></defs><path d="M484.430769 51.2L236.307692 354.461538H118.153846c-43.323077 0-78.769231 35.446154-78.769231 78.769231v157.538462c0 43.323077 35.446154 78.769231 78.769231 78.769231h118.153846l248.123077 303.261538c25.6 25.6 66.953846 7.876923 66.953846-27.569231V78.769231c0-35.446154-43.323077-53.169231-66.953846-27.569231z m354.461539 120.123077c-7.876923-7.876923-19.692308-7.876923-27.569231 0l-27.569231 27.569231c-7.876923 7.876923-7.876923 21.661538 0 27.56923C858.584615 299.323077 905.846154 399.753846 905.846154 512c0 112.246154-47.261538 212.676923-122.092308 285.538462-7.876923 7.876923-7.876923 19.692308 0 27.56923l27.569231 27.569231c7.876923 7.876923 19.692308 7.876923 27.569231 0C927.507692 768 984.615385 645.907692 984.615385 512c0-133.907692-55.138462-256-145.723077-340.676923z m-124.061539 126.030769c-7.876923-7.876923-19.692308-7.876923-27.569231 0l-27.56923 27.569231c-7.876923 7.876923-7.876923 19.692308 0 27.569231 43.323077 39.384615 68.923077 96.492308 68.923077 159.507692 0 63.015385-27.569231 120.123077-70.892308 159.507692-7.876923 7.876923-7.876923 19.692308 0 27.569231l27.569231 27.569231c7.876923 7.876923 19.692308 7.876923 27.56923 0 57.107692-53.169231 94.523077-129.969231 94.523077-216.615385 0-82.707692-35.446154-159.507692-92.553846-212.676923z" p-id="9193" fill="#ffffff"></path></svg>