<?xml version="1.0" standalone="no"?>
<!DOCTYPE svg PUBLIC "-//W3C//DTD SVG 1.1//EN" "http://www.w3.org/Graphics/SVG/1.1/DTD/svg11.dtd">

<svg xmlns="http://www.w3.org/2000/svg" version="1.1" x="0px" y="0px" width="100%" height="100%" viewBox="0 0 48.723 48.723" xml:space="preserve">
	<path d="M7.452,24.152h3.435v5.701h0.633c0.001,0,0.001,0,0.002,0h0.636v-5.701h3.51v-1.059h17.124v1.104h3.178v5.656h0.619 c0,0,0,0,0.002,0h0.619v-5.656h3.736v-0.856c0-0.012,0.006-0.021,0.006-0.032c0-0.072,0-0.143,0-0.215h5.721v-1.316h-5.721 c0-0.054,0-0.108,0-0.164c0-0.011-0.006-0.021-0.006-0.032v-0.832h-8.154v1.028h-7.911v-2.652h-0.689c-0.001,0-0.001,0-0.002,0 h-0.678v2.652h-7.846v-1.104H7.452v1.104H1.114v1.316h6.338V24.152z" />
	<path d="M21.484,16.849h5.204v-2.611h7.133V1.555H14.588v12.683h6.896V16.849z M16.537,12.288V3.505h15.335v8.783H16.537z" />
	<rect x="18.682" y="16.898" width="10.809" height="0.537" />
	<path d="M0,43.971h6.896v2.611H12.1v-2.611h7.134V31.287H0V43.971z M1.95,33.236h15.334v8.785H1.95V33.236z" />
	<rect x="4.095" y="46.631" width="10.808" height="0.537" />
	<path d="M29.491,30.994v12.684h6.895v2.611h5.205v-2.611h7.133V30.994H29.491z M46.774,41.729H31.44v-8.783h15.334V41.729z" />
	<rect x="33.584" y="46.338" width="10.809" height="0.537" />
</svg>
